<svg xmlns="http://www.w3.org/2000/svg" viewBox="0 0 1200 630" width="1200" height="630">
  <defs>
    <linearGradient id="bg" x1="0%" y1="0%" x2="100%" y2="100%">
      <stop offset="0%" stop-color="#1c1917" />
      <stop offset="100%" stop-color="#27272a" />
    </linearGradient>
    <filter id="glow">
      <feGaussianBlur stdDeviation="30" result="blur" />
      <feMerge><feMergeNode in="blur" /><feMergeNode in="SourceGraphic" /></feMerge>
    </filter>
    <filter id="textShadow">
      <feDropShadow dx="0" dy="2" stdDeviation="6" flood-color="#1c1917" flood-opacity="0.8" />
    </filter>
  </defs>

  <!-- Background -->
  <rect width="1200" height="630" fill="url(#bg)" />

  <!-- Generative shapes -->
  <circle cx="41.3" cy="40.9" r="1.3" fill="#fb7185" opacity="0.13" />
<circle cx="39.4" cy="87.9" r="1.4" fill="#fb7185" opacity="0.14" />
<circle cx="46.0" cy="133.5" r="1.6" fill="#fb7185" opacity="0.16" />
<circle cx="45.0" cy="176.8" r="1.6" fill="#fb7185" opacity="0.16" />
<circle cx="39.6" cy="214.8" r="1.6" fill="#fb7185" opacity="0.16" />
<circle cx="46.0" cy="255.6" r="1.7" fill="#fb7185" opacity="0.17" />
<circle cx="43.0" cy="297.8" r="1.7" fill="#fb7185" opacity="0.17" />
<circle cx="43.4" cy="345.3" r="1.7" fill="#fb7185" opacity="0.17" />
<circle cx="42.3" cy="387.0" r="1.7" fill="#fb7185" opacity="0.17" />
<circle cx="45.3" cy="429.8" r="1.7" fill="#fb7185" opacity="0.17" />
<circle cx="39.5" cy="475.0" r="1.6" fill="#fb7185" opacity="0.16" />
<circle cx="43.3" cy="519.4" r="1.5" fill="#fb7185" opacity="0.15" />
<circle cx="46.4" cy="560.8" r="1.4" fill="#fb7185" opacity="0.14" />
<circle cx="45.3" cy="603.2" r="1.3" fill="#fb7185" opacity="0.13" />
<circle cx="88.1" cy="46.8" r="1.6" fill="#fb7185" opacity="0.16" />
<circle cx="87.7" cy="90.0" r="1.7" fill="#fb7185" opacity="0.17" />
<circle cx="83.0" cy="124.1" r="1.7" fill="#fb7185" opacity="0.17" />
<circle cx="82.2" cy="168.8" r="1.8" fill="#fb7185" opacity="0.18" />
<circle cx="88.8" cy="212.2" r="1.9" fill="#fb7185" opacity="0.19" />
<circle cx="82.6" cy="259.4" r="1.9" fill="#fb7185" opacity="0.19" />
<circle cx="85.8" cy="304.3" r="2.0" fill="#fb7185" opacity="0.20" />
<circle cx="83.8" cy="344.2" r="1.9" fill="#fb7185" opacity="0.19" />
<circle cx="81.1" cy="382.3" r="1.9" fill="#fb7185" opacity="0.19" />
<circle cx="88.9" cy="430.4" r="1.9" fill="#fb7185" opacity="0.19" />
<circle cx="85.4" cy="474.1" r="1.8" fill="#fb7185" opacity="0.18" />
<circle cx="89.5" cy="516.2" r="1.8" fill="#fb7185" opacity="0.18" />
<circle cx="81.9" cy="557.3" r="1.6" fill="#fb7185" opacity="0.16" />
<circle cx="90.8" cy="597.2" r="1.6" fill="#fb7185" opacity="0.16" />
<circle cx="133.9" cy="46.4" r="1.8" fill="#fb7185" opacity="0.18" />
<circle cx="129.9" cy="84.9" r="1.9" fill="#fb7185" opacity="0.19" />
<circle cx="127.0" cy="131.9" r="2.0" fill="#fb7185" opacity="0.20" />
<circle cx="127.7" cy="174.8" r="2.1" fill="#fb7185" opacity="0.21" />
<circle cx="124.7" cy="210.8" r="2.1" fill="#fb7185" opacity="0.21" />
<circle cx="132.4" cy="259.5" r="2.2" fill="#f43f5e" opacity="0.22" />
<circle cx="132.2" cy="304.4" r="2.2" fill="#f43f5e" opacity="0.22" />
<circle cx="125.7" cy="342.3" r="2.2" fill="#fb7185" opacity="0.22" />
<circle cx="126.4" cy="383.3" r="2.2" fill="#fb7185" opacity="0.22" />
<circle cx="129.6" cy="426.3" r="2.1" fill="#fb7185" opacity="0.21" />
<circle cx="129.6" cy="477.0" r="2.1" fill="#fb7185" opacity="0.21" />
<circle cx="134.0" cy="516.9" r="2.0" fill="#fb7185" opacity="0.20" />
<circle cx="132.1" cy="556.8" r="1.9" fill="#fb7185" opacity="0.19" />
<circle cx="124.7" cy="599.5" r="1.7" fill="#fb7185" opacity="0.17" />
<circle cx="173.3" cy="44.8" r="2.0" fill="#fb7185" opacity="0.20" />
<circle cx="171.0" cy="88.0" r="2.1" fill="#fb7185" opacity="0.21" />
<circle cx="173.9" cy="131.6" r="2.3" fill="#f43f5e" opacity="0.23" />
<circle cx="171.0" cy="169.4" r="2.3" fill="#f43f5e" opacity="0.23" />
<circle cx="172.1" cy="217.4" r="2.4" fill="#f43f5e" opacity="0.24" />
<circle cx="167.3" cy="261.3" r="2.4" fill="#f43f5e" opacity="0.24" />
<circle cx="174.7" cy="298.5" r="2.5" fill="#f43f5e" opacity="0.25" />
<circle cx="168.9" cy="345.6" r="2.4" fill="#f43f5e" opacity="0.24" />
<circle cx="174.3" cy="382.0" r="2.5" fill="#f43f5e" opacity="0.25" />
<circle cx="170.8" cy="427.2" r="2.4" fill="#f43f5e" opacity="0.24" />
<circle cx="167.1" cy="473.6" r="2.3" fill="#f43f5e" opacity="0.23" />
<circle cx="170.2" cy="520.3" r="2.2" fill="#fb7185" opacity="0.22" />
<circle cx="169.7" cy="559.3" r="2.1" fill="#fb7185" opacity="0.21" />
<circle cx="169.1" cy="600.3" r="1.9" fill="#fb7185" opacity="0.19" />
<circle cx="210.8" cy="41.8" r="2.2" fill="#fb7185" opacity="0.22" />
<circle cx="211.2" cy="81.1" r="2.3" fill="#f43f5e" opacity="0.23" />
<circle cx="215.2" cy="127.3" r="2.5" fill="#f43f5e" opacity="0.25" />
<circle cx="215.3" cy="167.4" r="2.6" fill="#f43f5e" opacity="0.26" />
<circle cx="217.1" cy="212.5" r="2.7" fill="#f43f5e" opacity="0.27" />
<circle cx="211.5" cy="255.6" r="2.7" fill="#f43f5e" opacity="0.27" />
<circle cx="219.3" cy="299.7" r="2.8" fill="#f43f5e" opacity="0.28" />
<circle cx="212.8" cy="339.9" r="2.7" fill="#f43f5e" opacity="0.27" />
<circle cx="215.4" cy="387.2" r="2.7" fill="#f43f5e" opacity="0.27" />
<circle cx="217.2" cy="428.3" r="2.6" fill="#f43f5e" opacity="0.26" />
<circle cx="212.1" cy="474.6" r="2.5" fill="#f43f5e" opacity="0.25" />
<circle cx="215.8" cy="516.1" r="2.4" fill="#f43f5e" opacity="0.24" />
<circle cx="217.5" cy="559.8" r="2.3" fill="#f43f5e" opacity="0.23" />
<circle cx="219.3" cy="599.6" r="2.2" fill="#fb7185" opacity="0.22" />
<circle cx="255.1" cy="42.4" r="2.4" fill="#f43f5e" opacity="0.24" />
<circle cx="259.2" cy="84.3" r="2.6" fill="#f43f5e" opacity="0.26" />
<circle cx="255.0" cy="124.8" r="2.7" fill="#f43f5e" opacity="0.27" />
<circle cx="256.8" cy="173.7" r="2.8" fill="#f43f5e" opacity="0.28" />
<circle cx="257.2" cy="216.1" r="2.9" fill="#f43f5e" opacity="0.29" />
<circle cx="255.2" cy="255.7" r="2.9" fill="#f43f5e" opacity="0.29" />
<circle cx="255.1" cy="300.2" r="3.0" fill="#f43f5e" opacity="0.30" />
<circle cx="258.4" cy="339.6" r="3.0" fill="#f43f5e" opacity="0.30" />
<circle cx="253.6" cy="382.9" r="2.9" fill="#f43f5e" opacity="0.29" />
<circle cx="262.0" cy="431.7" r="2.9" fill="#f43f5e" opacity="0.29" />
<circle cx="253.3" cy="469.9" r="2.8" fill="#f43f5e" opacity="0.28" />
<circle cx="259.6" cy="513.7" r="2.7" fill="#f43f5e" opacity="0.27" />
<circle cx="261.5" cy="559.3" r="2.5" fill="#f43f5e" opacity="0.25" />
<circle cx="260.1" cy="601.3" r="2.4" fill="#f43f5e" opacity="0.24" />
<circle cx="304.5" cy="47.3" r="2.6" fill="#f43f5e" opacity="0.26" />
<circle cx="299.7" cy="81.2" r="2.8" fill="#f43f5e" opacity="0.28" />
<circle cx="299.2" cy="133.6" r="2.9" fill="#f43f5e" opacity="0.29" />
<circle cx="302.2" cy="169.1" r="3.0" fill="#f43f5e" opacity="0.30" />
<circle cx="301.1" cy="218.1" r="3.1" fill="#f43f5e" opacity="0.31" />
<circle cx="305.0" cy="259.3" r="3.2" fill="#f43f5e" opacity="0.32" />
<circle cx="304.7" cy="302.5" r="3.3" fill="#f43f5e" opacity="0.33" />
<circle cx="301.1" cy="345.3" r="3.2" fill="#f43f5e" opacity="0.32" />
<circle cx="303.8" cy="388.4" r="3.2" fill="#f43f5e" opacity="0.32" />
<circle cx="304.9" cy="433.2" r="3.1" fill="#f43f5e" opacity="0.31" />
<circle cx="299.2" cy="469.1" r="3.0" fill="#f43f5e" opacity="0.30" />
<circle cx="304.3" cy="517.9" r="2.9" fill="#f43f5e" opacity="0.29" />
<circle cx="298.9" cy="562.4" r="2.7" fill="#f43f5e" opacity="0.27" />
<circle cx="304.6" cy="603.6" r="2.6" fill="#f43f5e" opacity="0.26" />
<circle cx="340.7" cy="39.6" r="2.8" fill="#f43f5e" opacity="0.28" />
<circle cx="347.9" cy="83.4" r="3.0" fill="#f43f5e" opacity="0.30" />
<circle cx="339.8" cy="130.3" r="3.1" fill="#f43f5e" opacity="0.31" />
<circle cx="342.1" cy="173.3" r="3.3" fill="#f43f5e" opacity="0.33" />
<circle cx="343.8" cy="211.6" r="3.4" fill="#f43f5e" opacity="0.34" />
<circle cx="346.1" cy="259.1" r="3.5" fill="#e11d48" opacity="0.35" />
<circle cx="346.8" cy="298.8" r="3.5" fill="#e11d48" opacity="0.35" />
<circle cx="342.6" cy="347.1" r="3.5" fill="#e11d48" opacity="0.35" />
<circle cx="342.5" cy="385.6" r="3.4" fill="#e11d48" opacity="0.34" />
<circle cx="344.7" cy="429.0" r="3.3" fill="#f43f5e" opacity="0.33" />
<circle cx="343.0" cy="473.9" r="3.2" fill="#f43f5e" opacity="0.32" />
<circle cx="340.8" cy="513.1" r="3.1" fill="#f43f5e" opacity="0.31" />
<circle cx="339.1" cy="557.9" r="2.9" fill="#f43f5e" opacity="0.29" />
<circle cx="340.8" cy="600.3" r="2.7" fill="#f43f5e" opacity="0.27" />
<circle cx="389.8" cy="41.3" r="3.0" fill="#f43f5e" opacity="0.30" />
<circle cx="390.6" cy="82.9" r="3.2" fill="#f43f5e" opacity="0.32" />
<circle cx="387.9" cy="132.2" r="3.3" fill="#f43f5e" opacity="0.33" />
<circle cx="385.7" cy="169.3" r="3.5" fill="#e11d48" opacity="0.35" />
<circle cx="388.2" cy="219.8" r="3.6" fill="#e11d48" opacity="0.36" />
<circle cx="382.5" cy="253.5" r="3.7" fill="#e11d48" opacity="0.37" />
<circle cx="386.5" cy="305.1" r="3.7" fill="#e11d48" opacity="0.37" />
<circle cx="387.7" cy="341.1" r="3.7" fill="#e11d48" opacity="0.37" />
<circle cx="383.5" cy="387.0" r="3.7" fill="#e11d48" opacity="0.37" />
<circle cx="383.3" cy="431.9" r="3.5" fill="#e11d48" opacity="0.35" />
<circle cx="384.3" cy="472.4" r="3.4" fill="#e11d48" opacity="0.34" />
<circle cx="389.7" cy="519.9" r="3.3" fill="#f43f5e" opacity="0.33" />
<circle cx="386.6" cy="555.9" r="3.1" fill="#f43f5e" opacity="0.31" />
<circle cx="382.6" cy="601.6" r="2.9" fill="#f43f5e" opacity="0.29" />
<circle cx="428.7" cy="45.1" r="3.1" fill="#f43f5e" opacity="0.31" />
<circle cx="427.0" cy="88.6" r="3.3" fill="#f43f5e" opacity="0.33" />
<circle cx="428.8" cy="131.8" r="3.5" fill="#e11d48" opacity="0.35" />
<circle cx="433.4" cy="168.0" r="3.7" fill="#e11d48" opacity="0.37" />
<circle cx="429.3" cy="216.1" r="3.8" fill="#e11d48" opacity="0.38" />
<circle cx="430.8" cy="260.3" r="4.0" fill="#e11d48" opacity="0.40" />
<circle cx="425.8" cy="301.8" r="4.0" fill="#e11d48" opacity="0.40" />
<circle cx="430.7" cy="346.6" r="4.0" fill="#e11d48" opacity="0.40" />
<circle cx="434.1" cy="390.6" r="3.9" fill="#e11d48" opacity="0.39" />
<circle cx="425.3" cy="432.2" r="3.8" fill="#e11d48" opacity="0.38" />
<circle cx="427.2" cy="475.4" r="3.6" fill="#e11d48" opacity="0.36" />
<circle cx="427.0" cy="513.5" r="3.4" fill="#e11d48" opacity="0.34" />
<circle cx="432.7" cy="557.4" r="3.3" fill="#f43f5e" opacity="0.33" />
<circle cx="430.8" cy="601.3" r="3.0" fill="#f43f5e" opacity="0.30" />
<circle cx="475.5" cy="44.8" r="3.2" fill="#f43f5e" opacity="0.32" />
<circle cx="476.2" cy="84.2" r="3.5" fill="#e11d48" opacity="0.35" />
<circle cx="473.1" cy="129.9" r="3.7" fill="#e11d48" opacity="0.37" />
<circle cx="471.0" cy="169.2" r="3.9" fill="#e11d48" opacity="0.39" />
<circle cx="471.4" cy="216.3" r="4.0" fill="#e11d48" opacity="0.40" />
<circle cx="474.2" cy="254.3" r="4.2" fill="#e11d48" opacity="0.42" />
<circle cx="477.1" cy="299.8" r="4.3" fill="#e11d48" opacity="0.43" />
<circle cx="468.9" cy="340.0" r="4.2" fill="#e11d48" opacity="0.42" />
<circle cx="472.5" cy="384.8" r="4.1" fill="#e11d48" opacity="0.41" />
<circle cx="473.0" cy="432.7" r="4.0" fill="#e11d48" opacity="0.40" />
<circle cx="472.4" cy="472.5" r="3.8" fill="#e11d48" opacity="0.38" />
<circle cx="469.0" cy="519.8" r="3.6" fill="#e11d48" opacity="0.36" />
<circle cx="477.4" cy="559.6" r="3.4" fill="#f43f5e" opacity="0.34" />
<circle cx="470.6" cy="597.1" r="3.2" fill="#f43f5e" opacity="0.32" />
<circle cx="512.7" cy="41.3" r="3.3" fill="#f43f5e" opacity="0.33" />
<circle cx="517.6" cy="85.0" r="3.6" fill="#e11d48" opacity="0.36" />
<circle cx="515.8" cy="129.7" r="3.8" fill="#e11d48" opacity="0.38" />
<circle cx="515.2" cy="167.6" r="4.0" fill="#e11d48" opacity="0.40" />
<circle cx="515.7" cy="213.8" r="4.2" fill="#e11d48" opacity="0.42" />
<circle cx="511.5" cy="262.5" r="4.4" fill="#e11d48" opacity="0.44" />
<circle cx="514.6" cy="301.8" r="4.5" fill="#e11d48" opacity="0.45" />
<circle cx="518.1" cy="344.7" r="4.5" fill="#e11d48" opacity="0.45" />
<circle cx="512.9" cy="389.9" r="4.3" fill="#e11d48" opacity="0.43" />
<circle cx="517.4" cy="432.1" r="4.2" fill="#e11d48" opacity="0.42" />
<circle cx="512.3" cy="470.3" r="3.9" fill="#e11d48" opacity="0.39" />
<circle cx="512.1" cy="517.3" r="3.7" fill="#e11d48" opacity="0.37" />
<circle cx="516.2" cy="562.8" r="3.5" fill="#e11d48" opacity="0.35" />
<circle cx="520.0" cy="601.5" r="3.2" fill="#f43f5e" opacity="0.32" />
<circle cx="561.1" cy="46.1" r="3.4" fill="#f43f5e" opacity="0.34" />
<circle cx="560.1" cy="81.3" r="3.6" fill="#e11d48" opacity="0.36" />
<circle cx="559.2" cy="128.4" r="3.9" fill="#e11d48" opacity="0.39" />
<circle cx="562.3" cy="169.1" r="4.1" fill="#e11d48" opacity="0.41" />
<circle cx="556.5" cy="216.3" r="4.4" fill="#e11d48" opacity="0.44" />
<circle cx="558.7" cy="258.1" r="4.6" fill="#e11d48" opacity="0.46" />
<circle cx="556.0" cy="297.5" r="4.7" fill="#e11d48" opacity="0.47" />
<circle cx="555.7" cy="341.4" r="4.7" fill="#e11d48" opacity="0.47" />
<circle cx="559.2" cy="388.0" r="4.5" fill="#e11d48" opacity="0.45" />
<circle cx="556.5" cy="427.5" r="4.3" fill="#e11d48" opacity="0.43" />
<circle cx="556.9" cy="470.4" r="4.0" fill="#e11d48" opacity="0.40" />
<circle cx="555.1" cy="521.0" r="3.8" fill="#e11d48" opacity="0.38" />
<circle cx="563.4" cy="562.7" r="3.5" fill="#e11d48" opacity="0.35" />
<circle cx="557.6" cy="601.3" r="3.3" fill="#f43f5e" opacity="0.33" />
<circle cx="602.5" cy="39.6" r="3.4" fill="#f43f5e" opacity="0.34" />
<circle cx="604.5" cy="83.3" r="3.6" fill="#e11d48" opacity="0.36" />
<circle cx="600.1" cy="130.1" r="3.9" fill="#e11d48" opacity="0.39" />
<circle cx="599.3" cy="175.9" r="4.2" fill="#e11d48" opacity="0.42" />
<circle cx="605.0" cy="214.8" r="4.4" fill="#e11d48" opacity="0.44" />
<circle cx="597.5" cy="255.8" r="4.6" fill="#e11d48" opacity="0.46" />
<circle cx="597.9" cy="305.5" r="4.9" fill="#e11d48" opacity="0.49" />
<circle cx="599.4" cy="348.9" r="4.8" fill="#e11d48" opacity="0.48" />
<circle cx="602.4" cy="390.1" r="4.6" fill="#e11d48" opacity="0.46" />
<circle cx="602.4" cy="429.2" r="4.3" fill="#e11d48" opacity="0.43" />
<circle cx="600.0" cy="477.6" r="4.0" fill="#e11d48" opacity="0.40" />
<circle cx="597.6" cy="516.2" r="3.8" fill="#e11d48" opacity="0.38" />
<circle cx="598.7" cy="563.5" r="3.5" fill="#e11d48" opacity="0.35" />
<circle cx="602.5" cy="601.0" r="3.3" fill="#f43f5e" opacity="0.33" />
<circle cx="640.9" cy="46.9" r="3.4" fill="#f43f5e" opacity="0.34" />
<circle cx="648.2" cy="88.7" r="3.6" fill="#e11d48" opacity="0.36" />
<circle cx="648.2" cy="124.6" r="3.8" fill="#e11d48" opacity="0.38" />
<circle cx="640.9" cy="167.7" r="4.1" fill="#e11d48" opacity="0.41" />
<circle cx="649.4" cy="213.6" r="4.3" fill="#e11d48" opacity="0.43" />
<circle cx="647.7" cy="260.2" r="4.6" fill="#e11d48" opacity="0.46" />
<circle cx="649.2" cy="296.5" r="4.7" fill="#e11d48" opacity="0.47" />
<circle cx="644.4" cy="339.7" r="4.7" fill="#e11d48" opacity="0.47" />
<circle cx="644.1" cy="390.6" r="4.5" fill="#e11d48" opacity="0.45" />
<circle cx="646.4" cy="429.0" r="4.3" fill="#e11d48" opacity="0.43" />
<circle cx="642.5" cy="468.2" r="4.1" fill="#e11d48" opacity="0.41" />
<circle cx="642.0" cy="519.2" r="3.8" fill="#e11d48" opacity="0.38" />
<circle cx="646.1" cy="556.1" r="3.6" fill="#e11d48" opacity="0.36" />
<circle cx="645.8" cy="599.6" r="3.3" fill="#f43f5e" opacity="0.33" />
<circle cx="689.8" cy="47.1" r="3.3" fill="#f43f5e" opacity="0.33" />
<circle cx="684.5" cy="85.1" r="3.6" fill="#e11d48" opacity="0.36" />
<circle cx="685.2" cy="126.9" r="3.8" fill="#e11d48" opacity="0.38" />
<circle cx="690.5" cy="174.8" r="4.0" fill="#e11d48" opacity="0.40" />
<circle cx="688.6" cy="211.3" r="4.2" fill="#e11d48" opacity="0.42" />
<circle cx="688.6" cy="261.1" r="4.4" fill="#e11d48" opacity="0.44" />
<circle cx="684.9" cy="303.5" r="4.5" fill="#e11d48" opacity="0.45" />
<circle cx="688.1" cy="340.7" r="4.5" fill="#e11d48" opacity="0.45" />
<circle cx="690.0" cy="387.2" r="4.3" fill="#e11d48" opacity="0.43" />
<circle cx="685.8" cy="426.0" r="4.2" fill="#e11d48" opacity="0.42" />
<circle cx="683.4" cy="468.0" r="4.0" fill="#e11d48" opacity="0.40" />
<circle cx="685.7" cy="512.4" r="3.7" fill="#e11d48" opacity="0.37" />
<circle cx="692.8" cy="556.3" r="3.5" fill="#e11d48" opacity="0.35" />
<circle cx="686.5" cy="605.2" r="3.2" fill="#f43f5e" opacity="0.32" />
<circle cx="733.4" cy="39.8" r="3.2" fill="#f43f5e" opacity="0.32" />
<circle cx="735.5" cy="89.9" r="3.4" fill="#e11d48" opacity="0.34" />
<circle cx="731.8" cy="132.7" r="3.7" fill="#e11d48" opacity="0.37" />
<circle cx="728.7" cy="172.3" r="3.9" fill="#e11d48" opacity="0.39" />
<circle cx="729.4" cy="213.4" r="4.0" fill="#e11d48" opacity="0.40" />
<circle cx="726.6" cy="254.6" r="4.2" fill="#e11d48" opacity="0.42" />
<circle cx="734.6" cy="303.2" r="4.2" fill="#e11d48" opacity="0.42" />
<circle cx="735.1" cy="342.7" r="4.2" fill="#e11d48" opacity="0.42" />
<circle cx="726.8" cy="389.5" r="4.1" fill="#e11d48" opacity="0.41" />
<circle cx="729.9" cy="429.0" r="4.0" fill="#e11d48" opacity="0.40" />
<circle cx="734.3" cy="468.6" r="3.8" fill="#e11d48" opacity="0.38" />
<circle cx="726.0" cy="519.8" r="3.6" fill="#e11d48" opacity="0.36" />
<circle cx="728.1" cy="556.9" r="3.4" fill="#f43f5e" opacity="0.34" />
<circle cx="729.5" cy="598.3" r="3.2" fill="#f43f5e" opacity="0.32" />
<circle cx="771.9" cy="44.6" r="3.1" fill="#f43f5e" opacity="0.31" />
<circle cx="772.3" cy="89.5" r="3.3" fill="#f43f5e" opacity="0.33" />
<circle cx="773.2" cy="133.6" r="3.5" fill="#e11d48" opacity="0.35" />
<circle cx="778.4" cy="170.5" r="3.6" fill="#e11d48" opacity="0.36" />
<circle cx="774.4" cy="214.0" r="3.8" fill="#e11d48" opacity="0.38" />
<circle cx="773.3" cy="256.0" r="3.9" fill="#e11d48" opacity="0.39" />
<circle cx="778.1" cy="301.9" r="3.9" fill="#e11d48" opacity="0.39" />
<circle cx="772.2" cy="339.8" r="4.0" fill="#e11d48" opacity="0.40" />
<circle cx="776.4" cy="391.4" r="3.9" fill="#e11d48" opacity="0.39" />
<circle cx="769.7" cy="431.6" r="3.8" fill="#e11d48" opacity="0.38" />
<circle cx="769.1" cy="474.0" r="3.6" fill="#e11d48" opacity="0.36" />
<circle cx="769.2" cy="512.4" r="3.5" fill="#e11d48" opacity="0.35" />
<circle cx="778.5" cy="560.0" r="3.2" fill="#f43f5e" opacity="0.32" />
<circle cx="771.1" cy="606.7" r="3.0" fill="#f43f5e" opacity="0.30" />
<circle cx="817.6" cy="47.1" r="3.0" fill="#f43f5e" opacity="0.30" />
<circle cx="819.7" cy="89.6" r="3.1" fill="#f43f5e" opacity="0.31" />
<circle cx="818.7" cy="127.3" r="3.3" fill="#f43f5e" opacity="0.33" />
<circle cx="818.4" cy="170.2" r="3.5" fill="#e11d48" opacity="0.35" />
<circle cx="819.5" cy="219.5" r="3.6" fill="#e11d48" opacity="0.36" />
<circle cx="821.7" cy="254.1" r="3.6" fill="#e11d48" opacity="0.36" />
<circle cx="813.3" cy="304.2" r="3.7" fill="#e11d48" opacity="0.37" />
<circle cx="815.0" cy="342.0" r="3.7" fill="#e11d48" opacity="0.37" />
<circle cx="819.5" cy="390.9" r="3.6" fill="#e11d48" opacity="0.36" />
<circle cx="819.4" cy="428.0" r="3.5" fill="#e11d48" opacity="0.35" />
<circle cx="813.4" cy="474.9" r="3.4" fill="#e11d48" opacity="0.34" />
<circle cx="813.3" cy="517.3" r="3.3" fill="#f43f5e" opacity="0.33" />
<circle cx="820.1" cy="562.4" r="3.0" fill="#f43f5e" opacity="0.30" />
<circle cx="818.6" cy="603.2" r="2.9" fill="#f43f5e" opacity="0.29" />
<circle cx="860.8" cy="46.6" r="2.8" fill="#f43f5e" opacity="0.28" />
<circle cx="861.3" cy="90.7" r="3.0" fill="#f43f5e" opacity="0.30" />
<circle cx="856.4" cy="127.4" r="3.1" fill="#f43f5e" opacity="0.31" />
<circle cx="855.9" cy="170.3" r="3.3" fill="#f43f5e" opacity="0.33" />
<circle cx="859.9" cy="210.3" r="3.3" fill="#f43f5e" opacity="0.33" />
<circle cx="864.4" cy="260.3" r="3.4" fill="#e11d48" opacity="0.34" />
<circle cx="857.7" cy="304.2" r="3.5" fill="#e11d48" opacity="0.35" />
<circle cx="856.3" cy="340.9" r="3.5" fill="#e11d48" opacity="0.35" />
<circle cx="863.4" cy="384.4" r="3.4" fill="#f43f5e" opacity="0.34" />
<circle cx="861.9" cy="426.3" r="3.3" fill="#f43f5e" opacity="0.33" />
<circle cx="856.2" cy="471.3" r="3.2" fill="#f43f5e" opacity="0.32" />
<circle cx="856.9" cy="511.8" r="3.1" fill="#f43f5e" opacity="0.31" />
<circle cx="863.9" cy="560.6" r="2.9" fill="#f43f5e" opacity="0.29" />
<circle cx="858.3" cy="599.9" r="2.7" fill="#f43f5e" opacity="0.27" />
<circle cx="905.1" cy="40.7" r="2.6" fill="#f43f5e" opacity="0.26" />
<circle cx="900.2" cy="87.3" r="2.8" fill="#f43f5e" opacity="0.28" />
<circle cx="899.5" cy="127.5" r="2.9" fill="#f43f5e" opacity="0.29" />
<circle cx="899.8" cy="171.9" r="3.0" fill="#f43f5e" opacity="0.30" />
<circle cx="902.0" cy="213.4" r="3.1" fill="#f43f5e" opacity="0.31" />
<circle cx="903.1" cy="253.6" r="3.2" fill="#f43f5e" opacity="0.32" />
<circle cx="898.3" cy="299.2" r="3.2" fill="#f43f5e" opacity="0.32" />
<circle cx="898.7" cy="344.8" r="3.2" fill="#f43f5e" opacity="0.32" />
<circle cx="906.9" cy="387.3" r="3.1" fill="#f43f5e" opacity="0.31" />
<circle cx="899.7" cy="426.3" r="3.1" fill="#f43f5e" opacity="0.31" />
<circle cx="898.4" cy="473.6" r="3.0" fill="#f43f5e" opacity="0.30" />
<circle cx="904.0" cy="515.4" r="2.9" fill="#f43f5e" opacity="0.29" />
<circle cx="904.8" cy="557.3" r="2.7" fill="#f43f5e" opacity="0.27" />
<circle cx="900.2" cy="599.1" r="2.6" fill="#f43f5e" opacity="0.26" />
<circle cx="948.1" cy="41.0" r="2.4" fill="#f43f5e" opacity="0.24" />
<circle cx="941.6" cy="87.4" r="2.6" fill="#f43f5e" opacity="0.26" />
<circle cx="944.2" cy="133.9" r="2.7" fill="#f43f5e" opacity="0.27" />
<circle cx="943.8" cy="171.5" r="2.8" fill="#f43f5e" opacity="0.28" />
<circle cx="951.0" cy="213.5" r="2.8" fill="#f43f5e" opacity="0.28" />
<circle cx="950.2" cy="254.9" r="2.9" fill="#f43f5e" opacity="0.29" />
<circle cx="943.1" cy="305.4" r="3.0" fill="#f43f5e" opacity="0.30" />
<circle cx="949.8" cy="340.1" r="2.9" fill="#f43f5e" opacity="0.29" />
<circle cx="945.8" cy="387.6" r="2.9" fill="#f43f5e" opacity="0.29" />
<circle cx="950.8" cy="428.9" r="2.8" fill="#f43f5e" opacity="0.28" />
<circle cx="950.5" cy="470.9" r="2.7" fill="#f43f5e" opacity="0.27" />
<circle cx="945.9" cy="520.9" r="2.6" fill="#f43f5e" opacity="0.26" />
<circle cx="941.4" cy="558.5" r="2.5" fill="#f43f5e" opacity="0.25" />
<circle cx="942.6" cy="605.9" r="2.3" fill="#f43f5e" opacity="0.23" />
<circle cx="988.8" cy="43.6" r="2.2" fill="#f43f5e" opacity="0.22" />
<circle cx="984.1" cy="81.3" r="2.3" fill="#f43f5e" opacity="0.23" />
<circle cx="986.5" cy="132.7" r="2.5" fill="#f43f5e" opacity="0.25" />
<circle cx="992.8" cy="174.5" r="2.5" fill="#f43f5e" opacity="0.25" />
<circle cx="991.1" cy="213.8" r="2.6" fill="#f43f5e" opacity="0.26" />
<circle cx="984.6" cy="262.4" r="2.7" fill="#f43f5e" opacity="0.27" />
<circle cx="987.8" cy="305.3" r="2.7" fill="#f43f5e" opacity="0.27" />
<circle cx="984.6" cy="346.5" r="2.7" fill="#f43f5e" opacity="0.27" />
<circle cx="992.1" cy="386.7" r="2.6" fill="#f43f5e" opacity="0.26" />
<circle cx="991.4" cy="425.9" r="2.6" fill="#f43f5e" opacity="0.26" />
<circle cx="993.4" cy="477.0" r="2.5" fill="#f43f5e" opacity="0.25" />
<circle cx="992.1" cy="518.5" r="2.4" fill="#f43f5e" opacity="0.24" />
<circle cx="986.0" cy="560.4" r="2.3" fill="#f43f5e" opacity="0.23" />
<circle cx="985.4" cy="600.9" r="2.2" fill="#fb7185" opacity="0.22" />
<circle cx="1027.2" cy="41.6" r="2.0" fill="#fb7185" opacity="0.20" />
<circle cx="1033.6" cy="82.8" r="2.1" fill="#fb7185" opacity="0.21" />
<circle cx="1037.0" cy="133.7" r="2.2" fill="#f43f5e" opacity="0.22" />
<circle cx="1031.1" cy="170.8" r="2.3" fill="#f43f5e" opacity="0.23" />
<circle cx="1027.8" cy="213.9" r="2.4" fill="#f43f5e" opacity="0.24" />
<circle cx="1031.8" cy="259.8" r="2.4" fill="#f43f5e" opacity="0.24" />
<circle cx="1029.9" cy="296.7" r="2.5" fill="#f43f5e" opacity="0.25" />
<circle cx="1031.4" cy="343.6" r="2.4" fill="#f43f5e" opacity="0.24" />
<circle cx="1031.3" cy="391.2" r="2.4" fill="#f43f5e" opacity="0.24" />
<circle cx="1036.8" cy="433.8" r="2.3" fill="#f43f5e" opacity="0.23" />
<circle cx="1036.0" cy="473.1" r="2.3" fill="#f43f5e" opacity="0.23" />
<circle cx="1029.4" cy="512.1" r="2.2" fill="#f43f5e" opacity="0.22" />
<circle cx="1031.2" cy="556.4" r="2.1" fill="#fb7185" opacity="0.21" />
<circle cx="1035.5" cy="599.3" r="1.9" fill="#fb7185" opacity="0.19" />
<circle cx="1077.8" cy="41.6" r="1.8" fill="#fb7185" opacity="0.18" />
<circle cx="1078.4" cy="85.4" r="1.9" fill="#fb7185" opacity="0.19" />
<circle cx="1071.0" cy="129.3" r="2.0" fill="#fb7185" opacity="0.20" />
<circle cx="1075.6" cy="167.3" r="2.1" fill="#fb7185" opacity="0.21" />
<circle cx="1071.0" cy="218.1" r="2.2" fill="#fb7185" opacity="0.22" />
<circle cx="1079.1" cy="259.7" r="2.2" fill="#fb7185" opacity="0.22" />
<circle cx="1076.3" cy="302.6" r="2.2" fill="#fb7185" opacity="0.22" />
<circle cx="1077.5" cy="344.7" r="2.2" fill="#fb7185" opacity="0.22" />
<circle cx="1079.4" cy="382.2" r="2.1" fill="#fb7185" opacity="0.21" />
<circle cx="1079.8" cy="434.0" r="2.1" fill="#fb7185" opacity="0.21" />
<circle cx="1072.3" cy="477.6" r="2.1" fill="#fb7185" opacity="0.21" />
<circle cx="1071.9" cy="514.4" r="2.0" fill="#fb7185" opacity="0.20" />
<circle cx="1075.3" cy="563.7" r="1.8" fill="#fb7185" opacity="0.18" />
<circle cx="1072.2" cy="605.4" r="1.7" fill="#fb7185" opacity="0.17" />
<circle cx="1121.3" cy="40.8" r="1.5" fill="#fb7185" opacity="0.15" />
<circle cx="1118.3" cy="85.8" r="1.7" fill="#fb7185" opacity="0.17" />
<circle cx="1115.4" cy="129.2" r="1.8" fill="#fb7185" opacity="0.18" />
<circle cx="1122.5" cy="175.1" r="1.8" fill="#fb7185" opacity="0.18" />
<circle cx="1115.9" cy="219.8" r="1.9" fill="#fb7185" opacity="0.19" />
<circle cx="1117.6" cy="255.2" r="1.9" fill="#fb7185" opacity="0.19" />
<circle cx="1113.8" cy="302.0" r="2.0" fill="#fb7185" opacity="0.20" />
<circle cx="1119.8" cy="347.2" r="1.9" fill="#fb7185" opacity="0.19" />
<circle cx="1115.7" cy="384.7" r="1.9" fill="#fb7185" opacity="0.19" />
<circle cx="1119.9" cy="430.4" r="1.9" fill="#fb7185" opacity="0.19" />
<circle cx="1122.0" cy="472.3" r="1.8" fill="#fb7185" opacity="0.18" />
<circle cx="1121.6" cy="518.0" r="1.7" fill="#fb7185" opacity="0.17" />
<circle cx="1120.2" cy="558.6" r="1.6" fill="#fb7185" opacity="0.16" />
<circle cx="1117.0" cy="606.0" r="1.5" fill="#fb7185" opacity="0.15" />
<circle cx="1158.1" cy="47.8" r="1.3" fill="#fb7185" opacity="0.13" />
<circle cx="1157.6" cy="85.5" r="1.4" fill="#fb7185" opacity="0.14" />
<circle cx="1165.7" cy="129.0" r="1.5" fill="#fb7185" opacity="0.15" />
<circle cx="1160.6" cy="168.6" r="1.6" fill="#fb7185" opacity="0.16" />
<circle cx="1161.5" cy="215.0" r="1.6" fill="#fb7185" opacity="0.16" />
<circle cx="1160.9" cy="260.1" r="1.7" fill="#fb7185" opacity="0.17" />
<circle cx="1161.0" cy="301.2" r="1.7" fill="#fb7185" opacity="0.17" />
<circle cx="1157.3" cy="344.4" r="1.7" fill="#fb7185" opacity="0.17" />
<circle cx="1162.1" cy="383.5" r="1.7" fill="#fb7185" opacity="0.17" />
<circle cx="1161.2" cy="427.8" r="1.6" fill="#fb7185" opacity="0.16" />
<circle cx="1158.8" cy="474.0" r="1.6" fill="#fb7185" opacity="0.16" />
<circle cx="1160.8" cy="518.7" r="1.5" fill="#fb7185" opacity="0.15" />
<circle cx="1164.4" cy="562.1" r="1.4" fill="#fb7185" opacity="0.14" />
<circle cx="1165.3" cy="605.1" r="1.2" fill="#fb7185" opacity="0.12" />


  <!-- Vignette -->
  <rect width="1200" height="630" fill="url(#bg)" opacity="0.3" />

  <!-- Category badge -->
  <rect x="48" y="40" width="124" height="28" rx="14" fill="#e11d48" opacity="0.9" />
  <text x="60" y="59" font-family="system-ui, -apple-system, sans-serif" font-size="12" font-weight="700" letter-spacing="1.5" text-transform="uppercase" fill="white">AI &amp; TOOLS</text>

  <!-- Title -->
  <text x="48" y="550" font-family="system-ui, -apple-system, sans-serif" font-size="42" font-weight="800" fill="white" filter="url(#textShadow)" letter-spacing="-1">
    <tspan x="48" dy="0">Context Engineering Your Zero-Shot</tspan>
    <tspan x="48" dy="50">Prompt</tspan>
  </text>

  <!-- spike.land watermark -->
  <text x="1152" y="606" font-family="system-ui, -apple-system, sans-serif" font-size="14" font-weight="600" fill="#fb7185" opacity="0.6" text-anchor="end">spike.land</text>
</svg>