<svg xmlns="http://www.w3.org/2000/svg" viewBox="0 0 1200 630" width="1200" height="630">
  <defs>
    <linearGradient id="bg" x1="0%" y1="0%" x2="100%" y2="100%">
      <stop offset="0%" stop-color="#022c22" />
      <stop offset="100%" stop-color="#064e3b" />
    </linearGradient>
    <filter id="glow">
      <feGaussianBlur stdDeviation="30" result="blur" />
      <feMerge><feMergeNode in="blur" /><feMergeNode in="SourceGraphic" /></feMerge>
    </filter>
    <filter id="textShadow">
      <feDropShadow dx="0" dy="2" stdDeviation="6" flood-color="#022c22" flood-opacity="0.8" />
    </filter>
  </defs>

  <!-- Background -->
  <rect width="1200" height="630" fill="url(#bg)" />

  <!-- Generative shapes -->
  <polygon points="135.6,-24.3 135.6,24.3 93.5,48.6 51.4,24.3 51.4,-24.3 93.5,-48.6" fill="#059669" opacity="0.10" />
<polygon points="229.2,-24.3 229.2,24.3 187.1,48.6 145.0,24.3 145.0,-24.3 187.1,-48.6" fill="#10b981" opacity="0.23" />
<polygon points="322.7,-24.3 322.7,24.3 280.6,48.6 238.5,24.3 238.5,-24.3 280.6,-48.6" fill="#34d399" opacity="0.07" />
<polygon points="509.7,-24.3 509.7,24.3 467.7,48.6 425.6,24.3 425.6,-24.3 467.7,-48.6" fill="#34d399" opacity="0.10" />
<polygon points="883.9,-24.3 883.9,24.3 841.8,48.6 799.7,24.3 799.7,-24.3 841.8,-48.6" fill="#10b981" opacity="0.08" />
<polygon points="1070.9,-24.3 1070.9,24.3 1028.8,48.6 986.7,24.3 986.7,-24.3 1028.8,-48.6" fill="#10b981" opacity="0.25" />
<polygon points="369.4,56.7 369.4,105.3 327.4,129.6 285.3,105.3 285.3,56.7 327.4,32.4" fill="#34d399" opacity="0.18" />
<polygon points="556.5,56.7 556.5,105.3 514.4,129.6 472.3,105.3 472.3,56.7 514.4,32.4" fill="#059669" opacity="0.20" />
<polygon points="650.0,56.7 650.0,105.3 607.9,129.6 565.9,105.3 565.9,56.7 607.9,32.4" fill="#34d399" opacity="0.14" />
<polygon points="743.6,56.7 743.6,105.3 701.5,129.6 659.4,105.3 659.4,56.7 701.5,32.4" fill="#059669" opacity="0.08" />
<polygon points="837.1,56.7 837.1,105.3 795.0,129.6 752.9,105.3 752.9,56.7 795.0,32.4" fill="#10b981" opacity="0.05" />
<polygon points="1024.2,56.7 1024.2,105.3 982.1,129.6 940.0,105.3 940.0,56.7 982.1,32.4" fill="#10b981" opacity="0.18" />
<polygon points="1211.2,56.7 1211.2,105.3 1169.1,129.6 1127.0,105.3 1127.0,56.7 1169.1,32.4" fill="#10b981" opacity="0.21" />
<polygon points="42.1,137.7 42.1,186.3 0.0,210.6 -42.1,186.3 -42.1,137.7 -0.0,113.4" fill="#059669" opacity="0.24" />
<polygon points="135.6,137.7 135.6,186.3 93.5,210.6 51.4,186.3 51.4,137.7 93.5,113.4" fill="#34d399" opacity="0.06" />
<polygon points="509.7,137.7 509.7,186.3 467.7,210.6 425.6,186.3 425.6,137.7 467.7,113.4" fill="#34d399" opacity="0.24" />
<polygon points="603.3,137.7 603.3,186.3 561.2,210.6 519.1,186.3 519.1,137.7 561.2,113.4" fill="#34d399" opacity="0.18" />
<polygon points="790.3,137.7 790.3,186.3 748.2,210.6 706.2,186.3 706.2,137.7 748.2,113.4" fill="#34d399" opacity="0.09" />
<polygon points="883.9,137.7 883.9,186.3 841.8,210.6 799.7,186.3 799.7,137.7 841.8,113.4" fill="#059669" opacity="0.20" />
<polygon points="977.4,137.7 977.4,186.3 935.3,210.6 893.2,186.3 893.2,137.7 935.3,113.4" fill="#34d399" opacity="0.13" />
<polygon points="1070.9,137.7 1070.9,186.3 1028.8,210.6 986.7,186.3 986.7,137.7 1028.8,113.4" fill="#10b981" opacity="0.24" />
<polygon points="1164.5,137.7 1164.5,186.3 1122.4,210.6 1080.3,186.3 1080.3,137.7 1122.4,113.4" fill="#34d399" opacity="0.13" />
<polygon points="1258.0,137.7 1258.0,186.3 1215.9,210.6 1173.8,186.3 1173.8,137.7 1215.9,113.4" fill="#34d399" opacity="0.07" />
<polygon points="182.4,218.7 182.4,267.3 140.3,291.6 98.2,267.3 98.2,218.7 140.3,194.4" fill="#10b981" opacity="0.11" />
<polygon points="369.4,218.7 369.4,267.3 327.4,291.6 285.3,267.3 285.3,218.7 327.4,194.4" fill="#34d399" opacity="0.10" />
<polygon points="650.0,218.7 650.0,267.3 607.9,291.6 565.9,267.3 565.9,218.7 607.9,194.4" fill="#34d399" opacity="0.07" />
<polygon points="1024.2,218.7 1024.2,267.3 982.1,291.6 940.0,267.3 940.0,218.7 982.1,194.4" fill="#10b981" opacity="0.19" />
<polygon points="1117.7,218.7 1117.7,267.3 1075.6,291.6 1033.5,267.3 1033.5,218.7 1075.6,194.4" fill="#10b981" opacity="0.21" />
<polygon points="1211.2,218.7 1211.2,267.3 1169.1,291.6 1127.0,267.3 1127.0,218.7 1169.1,194.4" fill="#059669" opacity="0.16" />
<polygon points="1304.8,218.7 1304.8,267.3 1262.7,291.6 1220.6,267.3 1220.6,218.7 1262.7,194.4" fill="#059669" opacity="0.22" />
<polygon points="42.1,299.7 42.1,348.3 0.0,372.6 -42.1,348.3 -42.1,299.7 -0.0,275.4" fill="#059669" opacity="0.16" />
<polygon points="135.6,299.7 135.6,348.3 93.5,372.6 51.4,348.3 51.4,299.7 93.5,275.4" fill="#10b981" opacity="0.12" />
<polygon points="322.7,299.7 322.7,348.3 280.6,372.6 238.5,348.3 238.5,299.7 280.6,275.4" fill="#10b981" opacity="0.24" />
<polygon points="603.3,299.7 603.3,348.3 561.2,372.6 519.1,348.3 519.1,299.7 561.2,275.4" fill="#10b981" opacity="0.24" />
<polygon points="883.9,299.7 883.9,348.3 841.8,372.6 799.7,348.3 799.7,299.7 841.8,275.4" fill="#059669" opacity="0.10" />
<polygon points="1070.9,299.7 1070.9,348.3 1028.8,372.6 986.7,348.3 986.7,299.7 1028.8,275.4" fill="#34d399" opacity="0.20" />
<polygon points="1164.5,299.7 1164.5,348.3 1122.4,372.6 1080.3,348.3 1080.3,299.7 1122.4,275.4" fill="#10b981" opacity="0.07" />
<polygon points="1258.0,299.7 1258.0,348.3 1215.9,372.6 1173.8,348.3 1173.8,299.7 1215.9,275.4" fill="#34d399" opacity="0.24" />
<polygon points="88.9,380.7 88.9,429.3 46.8,453.6 4.7,429.3 4.7,380.7 46.8,356.4" fill="#10b981" opacity="0.16" />
<polygon points="275.9,380.7 275.9,429.3 233.8,453.6 191.7,429.3 191.7,380.7 233.8,356.4" fill="#10b981" opacity="0.23" />
<polygon points="369.4,380.7 369.4,429.3 327.4,453.6 285.3,429.3 285.3,380.7 327.4,356.4" fill="#059669" opacity="0.11" />
<polygon points="556.5,380.7 556.5,429.3 514.4,453.6 472.3,429.3 472.3,380.7 514.4,356.4" fill="#34d399" opacity="0.11" />
<polygon points="743.6,380.7 743.6,429.3 701.5,453.6 659.4,429.3 659.4,380.7 701.5,356.4" fill="#059669" opacity="0.14" />
<polygon points="1024.2,380.7 1024.2,429.3 982.1,453.6 940.0,429.3 940.0,380.7 982.1,356.4" fill="#10b981" opacity="0.19" />
<polygon points="1211.2,380.7 1211.2,429.3 1169.1,453.6 1127.0,429.3 1127.0,380.7 1169.1,356.4" fill="#34d399" opacity="0.10" />
<polygon points="135.6,461.7 135.6,510.3 93.5,534.6 51.4,510.3 51.4,461.7 93.5,437.4" fill="#34d399" opacity="0.18" />
<polygon points="509.7,461.7 509.7,510.3 467.7,534.6 425.6,510.3 425.6,461.7 467.7,437.4" fill="#059669" opacity="0.13" />
<polygon points="603.3,461.7 603.3,510.3 561.2,534.6 519.1,510.3 519.1,461.7 561.2,437.4" fill="#34d399" opacity="0.12" />
<polygon points="790.3,461.7 790.3,510.3 748.2,534.6 706.2,510.3 706.2,461.7 748.2,437.4" fill="#34d399" opacity="0.06" />
<polygon points="883.9,461.7 883.9,510.3 841.8,534.6 799.7,510.3 799.7,461.7 841.8,437.4" fill="#34d399" opacity="0.21" />
<polygon points="977.4,461.7 977.4,510.3 935.3,534.6 893.2,510.3 893.2,461.7 935.3,437.4" fill="#34d399" opacity="0.23" />
<polygon points="1070.9,461.7 1070.9,510.3 1028.8,534.6 986.7,510.3 986.7,461.7 1028.8,437.4" fill="#059669" opacity="0.23" />
<polygon points="1164.5,461.7 1164.5,510.3 1122.4,534.6 1080.3,510.3 1080.3,461.7 1122.4,437.4" fill="#059669" opacity="0.10" />
<polygon points="1258.0,461.7 1258.0,510.3 1215.9,534.6 1173.8,510.3 1173.8,461.7 1215.9,437.4" fill="#059669" opacity="0.10" />
<polygon points="369.4,542.7 369.4,591.3 327.4,615.6 285.3,591.3 285.3,542.7 327.4,518.4" fill="#10b981" opacity="0.23" />
<polygon points="463.0,542.7 463.0,591.3 420.9,615.6 378.8,591.3 378.8,542.7 420.9,518.4" fill="#059669" opacity="0.25" />
<polygon points="650.0,542.7 650.0,591.3 607.9,615.6 565.9,591.3 565.9,542.7 607.9,518.4" fill="#059669" opacity="0.09" />
<polygon points="743.6,542.7 743.6,591.3 701.5,615.6 659.4,591.3 659.4,542.7 701.5,518.4" fill="#059669" opacity="0.18" />
<polygon points="930.6,542.7 930.6,591.3 888.5,615.6 846.5,591.3 846.5,542.7 888.5,518.4" fill="#059669" opacity="0.10" />
<polygon points="1117.7,542.7 1117.7,591.3 1075.6,615.6 1033.5,591.3 1033.5,542.7 1075.6,518.4" fill="#34d399" opacity="0.11" />
<polygon points="42.1,623.7 42.1,672.3 0.0,696.6 -42.1,672.3 -42.1,623.7 -0.0,599.4" fill="#059669" opacity="0.19" />
<polygon points="135.6,623.7 135.6,672.3 93.5,696.6 51.4,672.3 51.4,623.7 93.5,599.4" fill="#34d399" opacity="0.24" />
<polygon points="322.7,623.7 322.7,672.3 280.6,696.6 238.5,672.3 238.5,623.7 280.6,599.4" fill="#10b981" opacity="0.09" />
<polygon points="509.7,623.7 509.7,672.3 467.7,696.6 425.6,672.3 425.6,623.7 467.7,599.4" fill="#10b981" opacity="0.19" />
<polygon points="603.3,623.7 603.3,672.3 561.2,696.6 519.1,672.3 519.1,623.7 561.2,599.4" fill="#34d399" opacity="0.07" />
<polygon points="696.8,623.7 696.8,672.3 654.7,696.6 612.6,672.3 612.6,623.7 654.7,599.4" fill="#059669" opacity="0.09" />
<polygon points="790.3,623.7 790.3,672.3 748.2,696.6 706.2,672.3 706.2,623.7 748.2,599.4" fill="#059669" opacity="0.24" />
<polygon points="883.9,623.7 883.9,672.3 841.8,696.6 799.7,672.3 799.7,623.7 841.8,599.4" fill="#10b981" opacity="0.14" />
<polygon points="977.4,623.7 977.4,672.3 935.3,696.6 893.2,672.3 893.2,623.7 935.3,599.4" fill="#34d399" opacity="0.22" />
<polygon points="1164.5,623.7 1164.5,672.3 1122.4,696.6 1080.3,672.3 1080.3,623.7 1122.4,599.4" fill="#059669" opacity="0.19" />


  <!-- Vignette -->
  <rect width="1200" height="630" fill="url(#bg)" opacity="0.3" />

  <!-- Category badge -->
  <rect x="48" y="40" width="174" height="28" rx="14" fill="#059669" opacity="0.9" />
  <text x="60" y="59" font-family="system-ui, -apple-system, sans-serif" font-size="12" font-weight="700" letter-spacing="1.5" text-transform="uppercase" fill="white">SCIENCE &amp; ARENA</text>

  <!-- Title -->
  <text x="48" y="550" font-family="system-ui, -apple-system, sans-serif" font-size="42" font-weight="800" fill="white" filter="url(#textShadow)" letter-spacing="-1">
    <tspan x="48" dy="0">Take On Me: The Synth-Pop Neon Arena</tspan>
  </text>

  <!-- spike.land watermark -->
  <text x="1152" y="606" font-family="system-ui, -apple-system, sans-serif" font-size="14" font-weight="600" fill="#34d399" opacity="0.6" text-anchor="end">spike.land</text>
</svg>