<svg xmlns="http://www.w3.org/2000/svg" viewBox="0 0 1200 630" width="1200" height="630">
  <defs>
    <linearGradient id="bg" x1="0%" y1="0%" x2="100%" y2="100%">
      <stop offset="0%" stop-color="#1c1917" />
      <stop offset="100%" stop-color="#292524" />
    </linearGradient>
    <filter id="glow">
      <feGaussianBlur stdDeviation="30" result="blur" />
      <feMerge><feMergeNode in="blur" /><feMergeNode in="SourceGraphic" /></feMerge>
    </filter>
    <filter id="textShadow">
      <feDropShadow dx="0" dy="2" stdDeviation="6" flood-color="#1c1917" flood-opacity="0.8" />
    </filter>
  </defs>

  <!-- Background -->
  <rect width="1200" height="630" fill="url(#bg)" />

  <!-- Generative shapes -->
  <line x1="837.1" y1="318.6" x2="1449.5" y2="379.7" stroke="#fbbf24" stroke-width="0.9" opacity="0.32" />
<line x1="837.1" y1="318.6" x2="1568.0" y2="560.0" stroke="#f59e0b" stroke-width="2.1" opacity="0.27" />
<line x1="837.1" y1="318.6" x2="1370.4" y2="682.8" stroke="#d97706" stroke-width="1.0" opacity="0.31" />
<line x1="837.1" y1="318.6" x2="1208.8" y2="716.6" stroke="#d97706" stroke-width="0.7" opacity="0.26" />
<line x1="837.1" y1="318.6" x2="987.8" y2="591.9" stroke="#fbbf24" stroke-width="1.6" opacity="0.31" />
<line x1="837.1" y1="318.6" x2="874.6" y2="535.0" stroke="#d97706" stroke-width="0.7" opacity="0.31" />
<line x1="837.1" y1="318.6" x2="816.6" y2="534.7" stroke="#fbbf24" stroke-width="2.5" opacity="0.22" />
<line x1="837.1" y1="318.6" x2="713.2" y2="733.3" stroke="#f59e0b" stroke-width="2.0" opacity="0.25" />
<line x1="837.1" y1="318.6" x2="523.0" y2="782.3" stroke="#d97706" stroke-width="1.0" opacity="0.29" />
<line x1="837.1" y1="318.6" x2="634.3" y2="520.7" stroke="#d97706" stroke-width="0.8" opacity="0.29" />
<line x1="837.1" y1="318.6" x2="500.5" y2="510.0" stroke="#fbbf24" stroke-width="1.9" opacity="0.11" />
<line x1="837.1" y1="318.6" x2="333.9" y2="451.1" stroke="#d97706" stroke-width="2.2" opacity="0.29" />
<line x1="837.1" y1="318.6" x2="52.7" y2="309.1" stroke="#fbbf24" stroke-width="0.7" opacity="0.24" />
<line x1="837.1" y1="318.6" x2="116.4" y2="113.0" stroke="#f59e0b" stroke-width="0.8" opacity="0.26" />
<line x1="837.1" y1="318.6" x2="342.4" y2="9.2" stroke="#d97706" stroke-width="0.6" opacity="0.29" />
<line x1="837.1" y1="318.6" x2="611.5" y2="50.8" stroke="#fbbf24" stroke-width="2.5" opacity="0.30" />
<line x1="837.1" y1="318.6" x2="554.9" y2="-276.8" stroke="#f59e0b" stroke-width="1.9" opacity="0.24" />
<line x1="837.1" y1="318.6" x2="758.0" y2="-53.3" stroke="#f59e0b" stroke-width="1.3" opacity="0.34" />
<line x1="837.1" y1="318.6" x2="854.0" y2="-467.8" stroke="#fbbf24" stroke-width="0.5" opacity="0.31" />
<line x1="837.1" y1="318.6" x2="960.6" y2="-108.1" stroke="#fbbf24" stroke-width="2.2" opacity="0.17" />
<line x1="837.1" y1="318.6" x2="1287.7" y2="-324.6" stroke="#d97706" stroke-width="0.7" opacity="0.24" />
<line x1="837.1" y1="318.6" x2="1051.5" y2="134.8" stroke="#d97706" stroke-width="1.3" opacity="0.28" />
<line x1="837.1" y1="318.6" x2="1145.7" y2="159.7" stroke="#d97706" stroke-width="0.7" opacity="0.16" />
<line x1="837.1" y1="318.6" x2="1244.5" y2="250.2" stroke="#fbbf24" stroke-width="1.7" opacity="0.27" />
<circle cx="837.1" cy="318.6" r="80" fill="#d97706" opacity="0.15" filter="url(#glow)" />


  <!-- Vignette -->
  <rect width="1200" height="630" fill="url(#bg)" opacity="0.3" />

  <!-- Category badge -->
  <rect x="48" y="40" width="124" height="28" rx="14" fill="#d97706" opacity="0.9" />
  <text x="60" y="59" font-family="system-ui, -apple-system, sans-serif" font-size="12" font-weight="700" letter-spacing="1.5" text-transform="uppercase" fill="white">AI &amp; TOOLS</text>

  <!-- Title -->
  <text x="48" y="550" font-family="system-ui, -apple-system, sans-serif" font-size="42" font-weight="800" fill="white" filter="url(#textShadow)" letter-spacing="-1">
    <tspan x="48" dy="0">The Vibe Coding Paradox: Why Your AI</tspan>
    <tspan x="48" dy="50">Gets Dumber the More You Let It Wing</tspan>
    <tspan x="48" dy="50">It</tspan>
  </text>

  <!-- spike.land watermark -->
  <text x="1152" y="606" font-family="system-ui, -apple-system, sans-serif" font-size="14" font-weight="600" fill="#fbbf24" opacity="0.6" text-anchor="end">spike.land</text>
</svg>