<svg xmlns="http://www.w3.org/2000/svg" viewBox="0 0 1200 630" width="1200" height="630">
  <defs>
    <linearGradient id="bg" x1="0%" y1="0%" x2="100%" y2="100%">
      <stop offset="0%" stop-color="#1c1917" />
      <stop offset="100%" stop-color="#27272a" />
    </linearGradient>
    <filter id="glow">
      <feGaussianBlur stdDeviation="30" result="blur" />
      <feMerge><feMergeNode in="blur" /><feMergeNode in="SourceGraphic" /></feMerge>
    </filter>
    <filter id="textShadow">
      <feDropShadow dx="0" dy="2" stdDeviation="6" flood-color="#1c1917" flood-opacity="0.8" />
    </filter>
  </defs>

  <!-- Background -->
  <rect width="1200" height="630" fill="url(#bg)" />

  <!-- Generative shapes -->
  <circle cx="63.9" cy="61.2" r="1.5" fill="#fb7185" opacity="0.15" />
<circle cx="63.9" cy="132.9" r="1.7" fill="#fb7185" opacity="0.17" />
<circle cx="68.0" cy="194.6" r="1.8" fill="#fb7185" opacity="0.18" />
<circle cx="63.3" cy="257.8" r="1.8" fill="#fb7185" opacity="0.18" />
<circle cx="68.9" cy="324.8" r="1.9" fill="#fb7185" opacity="0.19" />
<circle cx="60.0" cy="383.3" r="1.8" fill="#fb7185" opacity="0.18" />
<circle cx="68.5" cy="447.9" r="1.8" fill="#fb7185" opacity="0.18" />
<circle cx="66.7" cy="511.0" r="1.6" fill="#fb7185" opacity="0.16" />
<circle cx="63.4" cy="572.8" r="1.5" fill="#fb7185" opacity="0.15" />
<circle cx="123.5" cy="64.4" r="1.8" fill="#fb7185" opacity="0.18" />
<circle cx="128.8" cy="128.6" r="2.0" fill="#fb7185" opacity="0.20" />
<circle cx="132.8" cy="191.0" r="2.1" fill="#fb7185" opacity="0.21" />
<circle cx="124.4" cy="256.7" r="2.2" fill="#fb7185" opacity="0.22" />
<circle cx="125.8" cy="320.4" r="2.2" fill="#f43f5e" opacity="0.22" />
<circle cx="127.6" cy="384.7" r="2.2" fill="#fb7185" opacity="0.22" />
<circle cx="129.2" cy="449.0" r="2.1" fill="#fb7185" opacity="0.21" />
<circle cx="125.5" cy="510.0" r="2.0" fill="#fb7185" opacity="0.20" />
<circle cx="126.2" cy="571.9" r="1.8" fill="#fb7185" opacity="0.18" />
<circle cx="188.1" cy="65.2" r="2.2" fill="#fb7185" opacity="0.22" />
<circle cx="191.7" cy="131.2" r="2.4" fill="#f43f5e" opacity="0.24" />
<circle cx="193.6" cy="195.8" r="2.5" fill="#f43f5e" opacity="0.25" />
<circle cx="194.3" cy="253.2" r="2.6" fill="#f43f5e" opacity="0.26" />
<circle cx="188.6" cy="319.3" r="2.6" fill="#f43f5e" opacity="0.26" />
<circle cx="195.3" cy="381.7" r="2.6" fill="#f43f5e" opacity="0.26" />
<circle cx="193.1" cy="447.5" r="2.5" fill="#f43f5e" opacity="0.25" />
<circle cx="188.7" cy="511.2" r="2.3" fill="#f43f5e" opacity="0.23" />
<circle cx="188.6" cy="576.1" r="2.1" fill="#fb7185" opacity="0.21" />
<circle cx="254.7" cy="60.9" r="2.5" fill="#f43f5e" opacity="0.25" />
<circle cx="259.1" cy="132.6" r="2.7" fill="#f43f5e" opacity="0.27" />
<circle cx="252.6" cy="195.1" r="2.8" fill="#f43f5e" opacity="0.28" />
<circle cx="252.4" cy="256.8" r="2.9" fill="#f43f5e" opacity="0.29" />
<circle cx="257.7" cy="320.9" r="3.0" fill="#f43f5e" opacity="0.30" />
<circle cx="253.7" cy="385.6" r="2.9" fill="#f43f5e" opacity="0.29" />
<circle cx="254.3" cy="447.4" r="2.8" fill="#f43f5e" opacity="0.28" />
<circle cx="257.4" cy="516.7" r="2.7" fill="#f43f5e" opacity="0.27" />
<circle cx="254.8" cy="572.4" r="2.5" fill="#f43f5e" opacity="0.25" />
<circle cx="322.4" cy="64.8" r="2.8" fill="#f43f5e" opacity="0.28" />
<circle cx="319.5" cy="130.9" r="3.0" fill="#f43f5e" opacity="0.30" />
<circle cx="320.4" cy="189.6" r="3.2" fill="#f43f5e" opacity="0.32" />
<circle cx="324.7" cy="252.7" r="3.3" fill="#f43f5e" opacity="0.33" />
<circle cx="322.2" cy="317.3" r="3.4" fill="#f43f5e" opacity="0.34" />
<circle cx="324.8" cy="381.6" r="3.3" fill="#f43f5e" opacity="0.33" />
<circle cx="318.4" cy="443.1" r="3.2" fill="#f43f5e" opacity="0.32" />
<circle cx="316.3" cy="514.9" r="3.0" fill="#f43f5e" opacity="0.30" />
<circle cx="316.6" cy="574.4" r="2.7" fill="#f43f5e" opacity="0.27" />
<circle cx="381.9" cy="68.4" r="3.1" fill="#f43f5e" opacity="0.31" />
<circle cx="381.0" cy="128.8" r="3.3" fill="#f43f5e" opacity="0.33" />
<circle cx="386.7" cy="188.7" r="3.5" fill="#e11d48" opacity="0.35" />
<circle cx="386.7" cy="259.3" r="3.7" fill="#e11d48" opacity="0.37" />
<circle cx="383.5" cy="318.4" r="3.7" fill="#e11d48" opacity="0.37" />
<circle cx="384.3" cy="380.1" r="3.7" fill="#e11d48" opacity="0.37" />
<circle cx="386.2" cy="451.9" r="3.5" fill="#e11d48" opacity="0.35" />
<circle cx="388.1" cy="514.8" r="3.3" fill="#f43f5e" opacity="0.33" />
<circle cx="386.6" cy="575.3" r="3.0" fill="#f43f5e" opacity="0.30" />
<circle cx="445.5" cy="65.3" r="3.3" fill="#f43f5e" opacity="0.33" />
<circle cx="452.3" cy="127.7" r="3.6" fill="#e11d48" opacity="0.36" />
<circle cx="444.8" cy="193.6" r="3.8" fill="#e11d48" opacity="0.38" />
<circle cx="450.6" cy="257.1" r="4.1" fill="#e11d48" opacity="0.41" />
<circle cx="449.1" cy="317.6" r="4.1" fill="#e11d48" opacity="0.41" />
<circle cx="447.1" cy="388.6" r="4.0" fill="#e11d48" opacity="0.40" />
<circle cx="448.9" cy="448.5" r="3.8" fill="#e11d48" opacity="0.38" />
<circle cx="452.9" cy="516.8" r="3.5" fill="#e11d48" opacity="0.35" />
<circle cx="450.4" cy="577.0" r="3.2" fill="#f43f5e" opacity="0.32" />
<circle cx="514.4" cy="66.4" r="3.4" fill="#e11d48" opacity="0.34" />
<circle cx="510.3" cy="128.8" r="3.8" fill="#e11d48" opacity="0.38" />
<circle cx="510.0" cy="193.0" r="4.1" fill="#e11d48" opacity="0.41" />
<circle cx="514.2" cy="252.6" r="4.4" fill="#e11d48" opacity="0.44" />
<circle cx="509.1" cy="318.6" r="4.5" fill="#e11d48" opacity="0.45" />
<circle cx="509.4" cy="383.7" r="4.3" fill="#e11d48" opacity="0.43" />
<circle cx="515.0" cy="452.6" r="4.0" fill="#e11d48" opacity="0.40" />
<circle cx="510.1" cy="516.5" r="3.7" fill="#e11d48" opacity="0.37" />
<circle cx="512.8" cy="576.9" r="3.4" fill="#f43f5e" opacity="0.34" />
<circle cx="579.0" cy="60.8" r="3.5" fill="#e11d48" opacity="0.35" />
<circle cx="575.4" cy="128.5" r="3.9" fill="#e11d48" opacity="0.39" />
<circle cx="574.6" cy="189.6" r="4.2" fill="#e11d48" opacity="0.42" />
<circle cx="576.1" cy="256.0" r="4.6" fill="#e11d48" opacity="0.46" />
<circle cx="579.8" cy="322.1" r="4.9" fill="#e11d48" opacity="0.49" />
<circle cx="573.6" cy="384.3" r="4.6" fill="#e11d48" opacity="0.46" />
<circle cx="578.5" cy="447.7" r="4.2" fill="#e11d48" opacity="0.42" />
<circle cx="576.4" cy="514.2" r="3.8" fill="#e11d48" opacity="0.38" />
<circle cx="580.9" cy="580.8" r="3.4" fill="#e11d48" opacity="0.34" />
<circle cx="636.5" cy="64.6" r="3.5" fill="#e11d48" opacity="0.35" />
<circle cx="635.4" cy="132.9" r="3.9" fill="#e11d48" opacity="0.39" />
<circle cx="642.3" cy="195.7" r="4.3" fill="#e11d48" opacity="0.43" />
<circle cx="637.2" cy="260.0" r="4.6" fill="#e11d48" opacity="0.46" />
<circle cx="638.8" cy="322.4" r="4.8" fill="#e11d48" opacity="0.48" />
<circle cx="641.8" cy="383.4" r="4.5" fill="#e11d48" opacity="0.45" />
<circle cx="644.9" cy="453.0" r="4.1" fill="#e11d48" opacity="0.41" />
<circle cx="642.9" cy="512.0" r="3.8" fill="#e11d48" opacity="0.38" />
<circle cx="641.3" cy="577.9" r="3.4" fill="#e11d48" opacity="0.34" />
<circle cx="707.9" cy="66.9" r="3.4" fill="#e11d48" opacity="0.34" />
<circle cx="708.0" cy="125.5" r="3.7" fill="#e11d48" opacity="0.37" />
<circle cx="701.3" cy="189.4" r="4.0" fill="#e11d48" opacity="0.40" />
<circle cx="706.1" cy="258.0" r="4.3" fill="#e11d48" opacity="0.43" />
<circle cx="700.3" cy="322.6" r="4.4" fill="#e11d48" opacity="0.44" />
<circle cx="701.9" cy="385.0" r="4.3" fill="#e11d48" opacity="0.43" />
<circle cx="700.7" cy="447.0" r="4.0" fill="#e11d48" opacity="0.40" />
<circle cx="708.2" cy="507.9" r="3.7" fill="#e11d48" opacity="0.37" />
<circle cx="701.6" cy="573.8" r="3.4" fill="#f43f5e" opacity="0.34" />
<circle cx="766.3" cy="66.6" r="3.2" fill="#f43f5e" opacity="0.32" />
<circle cx="770.7" cy="129.3" r="3.5" fill="#e11d48" opacity="0.35" />
<circle cx="772.7" cy="193.5" r="3.8" fill="#e11d48" opacity="0.38" />
<circle cx="765.1" cy="251.8" r="4.0" fill="#e11d48" opacity="0.40" />
<circle cx="766.4" cy="316.6" r="4.0" fill="#e11d48" opacity="0.40" />
<circle cx="770.9" cy="385.0" r="3.9" fill="#e11d48" opacity="0.39" />
<circle cx="768.7" cy="444.6" r="3.7" fill="#e11d48" opacity="0.37" />
<circle cx="767.0" cy="511.0" r="3.5" fill="#e11d48" opacity="0.35" />
<circle cx="764.9" cy="571.6" r="3.2" fill="#f43f5e" opacity="0.32" />
<circle cx="829.4" cy="67.1" r="3.0" fill="#f43f5e" opacity="0.30" />
<circle cx="833.5" cy="124.3" r="3.2" fill="#f43f5e" opacity="0.32" />
<circle cx="834.0" cy="195.7" r="3.4" fill="#e11d48" opacity="0.34" />
<circle cx="829.7" cy="259.6" r="3.6" fill="#e11d48" opacity="0.36" />
<circle cx="833.8" cy="319.5" r="3.6" fill="#e11d48" opacity="0.36" />
<circle cx="828.9" cy="385.1" r="3.6" fill="#e11d48" opacity="0.36" />
<circle cx="827.4" cy="447.8" r="3.4" fill="#e11d48" opacity="0.34" />
<circle cx="828.9" cy="511.1" r="3.2" fill="#f43f5e" opacity="0.32" />
<circle cx="828.8" cy="575.7" r="3.0" fill="#f43f5e" opacity="0.30" />
<circle cx="897.8" cy="60.0" r="2.7" fill="#f43f5e" opacity="0.27" />
<circle cx="897.7" cy="129.3" r="2.9" fill="#f43f5e" opacity="0.29" />
<circle cx="891.0" cy="192.8" r="3.1" fill="#f43f5e" opacity="0.31" />
<circle cx="899.2" cy="258.6" r="3.2" fill="#f43f5e" opacity="0.32" />
<circle cx="892.7" cy="321.4" r="3.3" fill="#f43f5e" opacity="0.33" />
<circle cx="891.1" cy="383.2" r="3.2" fill="#f43f5e" opacity="0.32" />
<circle cx="892.4" cy="451.4" r="3.1" fill="#f43f5e" opacity="0.31" />
<circle cx="900.1" cy="510.9" r="2.9" fill="#f43f5e" opacity="0.29" />
<circle cx="891.2" cy="571.2" r="2.7" fill="#f43f5e" opacity="0.27" />
<circle cx="956.5" cy="68.5" r="2.4" fill="#f43f5e" opacity="0.24" />
<circle cx="964.2" cy="123.3" r="2.6" fill="#f43f5e" opacity="0.26" />
<circle cx="962.7" cy="187.4" r="2.7" fill="#f43f5e" opacity="0.27" />
<circle cx="957.0" cy="251.4" r="2.9" fill="#f43f5e" opacity="0.29" />
<circle cx="964.3" cy="323.0" r="2.8" fill="#f43f5e" opacity="0.28" />
<circle cx="961.6" cy="381.4" r="2.8" fill="#f43f5e" opacity="0.28" />
<circle cx="956.6" cy="448.4" r="2.8" fill="#f43f5e" opacity="0.28" />
<circle cx="957.9" cy="507.3" r="2.6" fill="#f43f5e" opacity="0.26" />
<circle cx="962.2" cy="577.6" r="2.4" fill="#f43f5e" opacity="0.24" />
<circle cx="1023.8" cy="67.2" r="2.1" fill="#fb7185" opacity="0.21" />
<circle cx="1022.2" cy="128.3" r="2.3" fill="#f43f5e" opacity="0.23" />
<circle cx="1028.9" cy="190.3" r="2.4" fill="#f43f5e" opacity="0.24" />
<circle cx="1026.5" cy="260.9" r="2.5" fill="#f43f5e" opacity="0.25" />
<circle cx="1025.9" cy="320.1" r="2.5" fill="#f43f5e" opacity="0.25" />
<circle cx="1025.6" cy="381.4" r="2.5" fill="#f43f5e" opacity="0.25" />
<circle cx="1023.1" cy="443.6" r="2.4" fill="#f43f5e" opacity="0.24" />
<circle cx="1020.2" cy="516.4" r="2.2" fill="#f43f5e" opacity="0.22" />
<circle cx="1027.3" cy="577.6" r="2.0" fill="#fb7185" opacity="0.20" />
<circle cx="1083.7" cy="62.8" r="1.8" fill="#fb7185" opacity="0.18" />
<circle cx="1091.4" cy="131.7" r="1.9" fill="#fb7185" opacity="0.19" />
<circle cx="1087.2" cy="189.7" r="2.0" fill="#fb7185" opacity="0.20" />
<circle cx="1085.4" cy="257.7" r="2.1" fill="#fb7185" opacity="0.21" />
<circle cx="1091.2" cy="317.3" r="2.1" fill="#fb7185" opacity="0.21" />
<circle cx="1085.2" cy="388.3" r="2.1" fill="#fb7185" opacity="0.21" />
<circle cx="1092.3" cy="447.8" r="2.0" fill="#fb7185" opacity="0.20" />
<circle cx="1087.4" cy="511.4" r="1.9" fill="#fb7185" opacity="0.19" />
<circle cx="1084.2" cy="578.5" r="1.7" fill="#fb7185" opacity="0.17" />
<circle cx="1149.6" cy="68.8" r="1.4" fill="#fb7185" opacity="0.14" />
<circle cx="1152.2" cy="132.9" r="1.6" fill="#fb7185" opacity="0.16" />
<circle cx="1156.2" cy="187.2" r="1.6" fill="#fb7185" opacity="0.16" />
<circle cx="1150.1" cy="259.7" r="1.7" fill="#fb7185" opacity="0.17" />
<circle cx="1147.9" cy="320.1" r="1.8" fill="#fb7185" opacity="0.18" />
<circle cx="1148.3" cy="384.6" r="1.7" fill="#fb7185" opacity="0.17" />
<circle cx="1154.4" cy="446.6" r="1.6" fill="#fb7185" opacity="0.16" />
<circle cx="1153.3" cy="516.4" r="1.5" fill="#fb7185" opacity="0.15" />
<circle cx="1153.4" cy="571.8" r="1.4" fill="#fb7185" opacity="0.14" />


  <!-- Vignette -->
  <rect width="1200" height="630" fill="url(#bg)" opacity="0.3" />

  <!-- Category badge -->
  <rect x="48" y="40" width="174" height="28" rx="14" fill="#e11d48" opacity="0.9" />
  <text x="60" y="59" font-family="system-ui, -apple-system, sans-serif" font-size="12" font-weight="700" letter-spacing="1.5" text-transform="uppercase" fill="white">SCIENCE &amp; ARENA</text>

  <!-- Title -->
  <text x="48" y="550" font-family="system-ui, -apple-system, sans-serif" font-size="42" font-weight="800" fill="white" filter="url(#textShadow)" letter-spacing="-1">
    <tspan x="48" dy="0">Forever Young: The Nostalgia Arena</tspan>
  </text>

  <!-- spike.land watermark -->
  <text x="1152" y="606" font-family="system-ui, -apple-system, sans-serif" font-size="14" font-weight="600" fill="#fb7185" opacity="0.6" text-anchor="end">spike.land</text>
</svg>