<svg xmlns="http://www.w3.org/2000/svg" viewBox="0 0 1200 630" width="1200" height="630">
  <defs>
    <linearGradient id="bg" x1="0%" y1="0%" x2="100%" y2="100%">
      <stop offset="0%" stop-color="#0c0a09" />
      <stop offset="100%" stop-color="#1c1917" />
    </linearGradient>
    <filter id="glow">
      <feGaussianBlur stdDeviation="30" result="blur" />
      <feMerge><feMergeNode in="blur" /><feMergeNode in="SourceGraphic" /></feMerge>
    </filter>
    <filter id="textShadow">
      <feDropShadow dx="0" dy="2" stdDeviation="6" flood-color="#0c0a09" flood-opacity="0.8" />
    </filter>
  </defs>

  <!-- Background -->
  <rect width="1200" height="630" fill="url(#bg)" />

  <!-- Generative shapes -->
  <path d="M 0 80 L 0 80.0 L 20 87.4 L 40 93.8 L 60 100.0 L 80 100.6 L 100 135.7 L 120 114.3 L 140 127.3 L 160 139.2 L 180 125.6 L 200 148.7 L 220 96.7 L 240 140.1 L 260 120.7 L 280 96.2 L 300 89.6 L 320 153.1 L 340 107.1 L 360 140.0 L 380 115.4 L 400 130.1 L 420 49.8 L 440 127.8 L 460 22.8 L 480 35.1 L 500 22.0 L 520 99.1 L 540 65.3 L 560 25.4 L 580 2.9 L 600 145.8 L 620 56.3 L 640 17.9 L 660 27.2 L 680 30.3 L 700 142.5 L 720 133.4 L 740 35.0 L 760 114.4 L 780 69.8 L 800 68.0 L 820 123.9 L 840 145.1 L 860 77.0 L 880 91.9 L 900 16.6 L 920 139.0 L 940 45.4 L 960 114.8 L 980 33.6 L 1000 115.3 L 1020 134.6 L 1040 111.9 L 1060 111.7 L 1080 86.6 L 1100 116.3 L 1120 127.4 L 1140 32.5 L 1160 92.3 L 1180 61.5 L 1200 110.1" fill="none" stroke="#4f46e5" stroke-width="1.5" opacity="0.29" />
<path d="M 0 150 L 0 179.8 L 20 210.5 L 40 192.6 L 60 192.3 L 80 218.1 L 100 180.9 L 120 197.7 L 140 175.8 L 160 199.7 L 180 184.3 L 200 158.1 L 220 134.8 L 240 134.2 L 260 211.5 L 280 159.4 L 300 99.6 L 320 186.5 L 340 171.7 L 360 117.8 L 380 167.6 L 400 99.1 L 420 140.9 L 440 136.6 L 460 146.2 L 480 75.7 L 500 106.6 L 520 122.1 L 540 130.9 L 560 79.0 L 580 178.0 L 600 114.9 L 620 172.2 L 640 80.3 L 660 221.5 L 680 175.7 L 700 202.9 L 720 202.8 L 740 134.0 L 760 98.6 L 780 188.4 L 800 185.2 L 820 98.1 L 840 221.1 L 860 106.9 L 880 128.2 L 900 142.9 L 920 138.1 L 940 115.5 L 960 167.9 L 980 186.7 L 1000 193.6 L 1020 211.2 L 1040 151.3 L 1060 170.4 L 1080 138.9 L 1100 179.7 L 1120 190.7 L 1140 178.2 L 1160 134.2 L 1180 174.1 L 1200 225.3" fill="none" stroke="#6366f1" stroke-width="1.0" opacity="0.20" />
<path d="M 0 220 L 0 279.4 L 20 270.5 L 40 284.0 L 60 283.6 L 80 264.6 L 100 254.2 L 120 258.9 L 140 248.8 L 160 229.1 L 180 233.7 L 200 209.2 L 220 172.3 L 240 189.0 L 260 158.6 L 280 219.5 L 300 215.0 L 320 184.4 L 340 182.2 L 360 154.9 L 380 191.4 L 400 196.0 L 420 180.4 L 440 256.6 L 460 191.2 L 480 279.2 L 500 202.9 L 520 244.9 L 540 183.7 L 560 237.7 L 580 257.6 L 600 228.2 L 620 165.9 L 640 255.8 L 660 242.8 L 680 174.4 L 700 262.1 L 720 170.4 L 740 186.7 L 760 186.3 L 780 282.9 L 800 208.8 L 820 196.1 L 840 209.6 L 860 273.8 L 880 157.0 L 900 232.0 L 920 276.7 L 940 252.9 L 960 178.7 L 980 193.5 L 1000 204.1 L 1020 243.4 L 1040 187.0 L 1060 271.2 L 1080 246.3 L 1100 233.3 L 1120 248.5 L 1140 202.7 L 1160 192.8 L 1180 231.8 L 1200 229.5" fill="none" stroke="#818cf8" stroke-width="1.8" opacity="0.28" />
<path d="M 0 290 L 0 347.9 L 20 323.5 L 40 334.6 L 60 311.9 L 80 316.3 L 100 302.8 L 120 281.0 L 140 311.5 L 160 291.5 L 180 263.3 L 200 248.7 L 220 229.4 L 240 227.3 L 260 244.6 L 280 230.1 L 300 237.3 L 320 275.7 L 340 305.4 L 360 220.0 L 380 281.2 L 400 225.0 L 420 259.7 L 440 292.8 L 460 305.6 L 480 259.5 L 500 280.7 L 520 346.8 L 540 311.2 L 560 309.1 L 580 301.1 L 600 344.0 L 620 329.3 L 640 303.0 L 660 337.4 L 680 333.4 L 700 219.8 L 720 279.9 L 740 322.0 L 760 224.7 L 780 241.1 L 800 341.3 L 820 287.9 L 840 323.8 L 860 275.5 L 880 324.0 L 900 348.3 L 920 240.9 L 940 309.0 L 960 249.1 L 980 225.3 L 1000 252.4 L 1020 220.4 L 1040 237.9 L 1060 355.4 L 1080 279.8 L 1100 233.7 L 1120 338.6 L 1140 257.6 L 1160 247.0 L 1180 255.2 L 1200 272.8" fill="none" stroke="#a5b4fc" stroke-width="2.4" opacity="0.15" />
<path d="M 0 360 L 0 374.4 L 20 365.4 L 40 363.0 L 60 340.4 L 80 349.5 L 100 315.6 L 120 330.6 L 140 328.8 L 160 321.9 L 180 290.1 L 200 295.0 L 220 334.1 L 240 325.4 L 260 342.0 L 280 305.1 L 300 312.9 L 320 310.1 L 340 394.2 L 360 403.7 L 380 386.5 L 400 323.4 L 420 380.6 L 440 369.7 L 460 421.2 L 480 389.0 L 500 423.7 L 520 387.2 L 540 396.5 L 560 409.3 L 580 405.4 L 600 327.0 L 620 429.9 L 640 384.6 L 660 398.2 L 680 374.7 L 700 396.5 L 720 371.2 L 740 411.5 L 760 343.5 L 780 306.1 L 800 394.3 L 820 434.5 L 840 375.9 L 860 392.4 L 880 405.3 L 900 379.5 L 920 414.4 L 940 321.5 L 960 401.9 L 980 328.7 L 1000 334.9 L 1020 342.7 L 1040 303.2 L 1060 366.5 L 1080 371.3 L 1100 433.7 L 1120 348.1 L 1140 295.6 L 1160 348.9 L 1180 352.1 L 1200 414.0" fill="none" stroke="#4f46e5" stroke-width="1.1" opacity="0.26" />
<path d="M 0 430 L 0 411.8 L 20 388.4 L 40 394.7 L 60 390.5 L 80 363.7 L 100 375.6 L 120 356.0 L 140 391.6 L 160 362.7 L 180 384.5 L 200 386.9 L 220 431.6 L 240 386.2 L 260 410.3 L 280 367.7 L 300 388.2 L 320 384.3 L 340 452.8 L 360 466.1 L 380 477.8 L 400 425.6 L 420 422.5 L 440 412.8 L 460 432.5 L 480 461.7 L 500 472.3 L 520 486.2 L 540 470.1 L 560 470.2 L 580 434.5 L 600 466.1 L 620 393.2 L 640 468.7 L 660 386.0 L 680 487.4 L 700 422.0 L 720 485.5 L 740 504.2 L 760 467.9 L 780 459.5 L 800 424.2 L 820 433.0 L 840 487.5 L 860 465.3 L 880 492.3 L 900 427.3 L 920 365.7 L 940 365.1 L 960 379.8 L 980 367.9 L 1000 385.9 L 1020 388.8 L 1040 398.7 L 1060 405.6 L 1080 404.7 L 1100 426.9 L 1120 436.9 L 1140 410.7 L 1160 414.9 L 1180 470.8 L 1200 396.3" fill="none" stroke="#6366f1" stroke-width="2.3" opacity="0.27" />
<path d="M 0 500 L 0 438.3 L 20 451.2 L 40 431.8 L 60 441.0 L 80 432.1 L 100 464.9 L 120 465.8 L 140 475.0 L 160 494.9 L 180 453.3 L 200 448.5 L 220 495.3 L 240 516.2 L 260 497.8 L 280 455.6 L 300 524.1 L 320 514.1 L 340 537.5 L 360 558.0 L 380 504.4 L 400 545.0 L 420 516.5 L 440 564.9 L 460 573.1 L 480 484.1 L 500 476.5 L 520 532.5 L 540 467.5 L 560 469.7 L 580 491.1 L 600 550.5 L 620 461.3 L 640 488.7 L 660 457.9 L 680 526.7 L 700 506.0 L 720 525.0 L 740 507.9 L 760 546.7 L 780 483.6 L 800 522.2 L 820 566.9 L 840 508.6 L 860 570.0 L 880 526.5 L 900 493.0 L 920 479.3 L 940 545.7 L 960 496.3 L 980 480.4 L 1000 514.0 L 1020 506.5 L 1040 488.0 L 1060 526.0 L 1080 542.0 L 1100 470.8 L 1120 496.7 L 1140 548.0 L 1160 568.7 L 1180 530.3 L 1200 484.9" fill="none" stroke="#818cf8" stroke-width="2.3" opacity="0.16" />
<path d="M 0 570 L 0 535.6 L 20 527.6 L 40 519.4 L 60 507.3 L 80 511.5 L 100 560.5 L 120 554.1 L 140 560.2 L 160 593.8 L 180 565.8 L 200 629.0 L 220 570.6 L 240 580.5 L 260 590.8 L 280 632.7 L 300 610.4 L 320 621.7 L 340 589.5 L 360 600.4 L 380 619.5 L 400 610.8 L 420 586.0 L 440 603.1 L 460 511.5 L 480 602.0 L 500 618.7 L 520 554.6 L 540 509.9 L 560 601.8 L 580 520.1 L 600 609.6 L 620 537.7 L 640 582.3 L 660 528.9 L 680 623.3 L 700 541.3 L 720 586.2 L 740 612.2 L 760 513.5 L 780 628.9 L 800 637.2 L 820 647.0 L 840 544.5 L 860 523.1 L 880 580.9 L 900 495.1 L 920 547.3 L 940 530.2 L 960 601.4 L 980 535.3 L 1000 540.6 L 1020 611.1 L 1040 492.0 L 1060 623.2 L 1080 515.9 L 1100 609.7 L 1120 523.2 L 1140 604.6 L 1160 493.1 L 1180 509.8 L 1200 557.0" fill="none" stroke="#a5b4fc" stroke-width="2.0" opacity="0.25" />


  <!-- Vignette -->
  <rect width="1200" height="630" fill="url(#bg)" opacity="0.3" />

  <!-- Category badge -->
  <rect x="48" y="40" width="224" height="28" rx="14" fill="#4f46e5" opacity="0.9" />
  <text x="60" y="59" font-family="system-ui, -apple-system, sans-serif" font-size="12" font-weight="700" letter-spacing="1.5" text-transform="uppercase" fill="white">DEVELOPER EXPERIENCE</text>

  <!-- Title -->
  <text x="48" y="550" font-family="system-ui, -apple-system, sans-serif" font-size="42" font-weight="800" fill="white" filter="url(#textShadow)" letter-spacing="-1">
    <tspan x="48" dy="0">You Cannot Automate Chaos: The</tspan>
    <tspan x="48" dy="50">Complete Guide to AI-Powered Dev</tspan>
    <tspan x="48" dy="50">Pipelines</tspan>
  </text>

  <!-- spike.land watermark -->
  <text x="1152" y="606" font-family="system-ui, -apple-system, sans-serif" font-size="14" font-weight="600" fill="#818cf8" opacity="0.6" text-anchor="end">spike.land</text>
</svg>