<svg xmlns="http://www.w3.org/2000/svg" viewBox="0 0 1200 630" width="1200" height="630">
  <defs>
    <linearGradient id="bg" x1="0%" y1="0%" x2="100%" y2="100%">
      <stop offset="0%" stop-color="#1e1b4b" />
      <stop offset="100%" stop-color="#312e81" />
    </linearGradient>
    <filter id="glow">
      <feGaussianBlur stdDeviation="30" result="blur" />
      <feMerge><feMergeNode in="blur" /><feMergeNode in="SourceGraphic" /></feMerge>
    </filter>
    <filter id="textShadow">
      <feDropShadow dx="0" dy="2" stdDeviation="6" flood-color="#1e1b4b" flood-opacity="0.8" />
    </filter>
  </defs>

  <!-- Background -->
  <rect width="1200" height="630" fill="url(#bg)" />

  <!-- Generative shapes -->
  <line x1="647.0" y1="261.8" x2="968.6" y2="289.3" stroke="#a78bfa" stroke-width="1.9" opacity="0.31" />
<line x1="647.0" y1="261.8" x2="1259.6" y2="445.6" stroke="#8b5cf6" stroke-width="2.3" opacity="0.17" />
<line x1="647.0" y1="261.8" x2="1304.4" y2="686.1" stroke="#8b5cf6" stroke-width="1.8" opacity="0.30" />
<line x1="647.0" y1="261.8" x2="1076.3" y2="743.4" stroke="#7c3aed" stroke-width="1.8" opacity="0.11" />
<line x1="647.0" y1="261.8" x2="952.0" y2="836.0" stroke="#8b5cf6" stroke-width="2.1" opacity="0.14" />
<line x1="647.0" y1="261.8" x2="734.3" y2="702.7" stroke="#7c3aed" stroke-width="1.6" opacity="0.16" />
<line x1="647.0" y1="261.8" x2="632.5" y2="572.1" stroke="#8b5cf6" stroke-width="1.3" opacity="0.11" />
<line x1="647.0" y1="261.8" x2="497.1" y2="705.4" stroke="#7c3aed" stroke-width="2.5" opacity="0.12" />
<line x1="647.0" y1="261.8" x2="219.4" y2="897.6" stroke="#7c3aed" stroke-width="0.9" opacity="0.19" />
<line x1="647.0" y1="261.8" x2="475.7" y2="425.5" stroke="#7c3aed" stroke-width="0.9" opacity="0.20" />
<line x1="647.0" y1="261.8" x2="248.7" y2="481.1" stroke="#7c3aed" stroke-width="0.9" opacity="0.13" />
<line x1="647.0" y1="261.8" x2="131.5" y2="366.7" stroke="#7c3aed" stroke-width="0.9" opacity="0.27" />
<line x1="647.0" y1="261.8" x2="69.1" y2="253.5" stroke="#8b5cf6" stroke-width="2.3" opacity="0.30" />
<line x1="647.0" y1="261.8" x2="40.4" y2="46.5" stroke="#7c3aed" stroke-width="0.7" opacity="0.20" />
<line x1="647.0" y1="261.8" x2="215.9" y2="-12.6" stroke="#8b5cf6" stroke-width="1.5" opacity="0.20" />
<line x1="647.0" y1="261.8" x2="148.4" y2="-251.6" stroke="#7c3aed" stroke-width="1.9" opacity="0.34" />
<line x1="647.0" y1="261.8" x2="365.5" y2="-271.9" stroke="#7c3aed" stroke-width="0.6" opacity="0.12" />
<line x1="647.0" y1="261.8" x2="498.7" y2="-423.7" stroke="#7c3aed" stroke-width="1.3" opacity="0.30" />
<line x1="647.0" y1="261.8" x2="658.7" y2="-84.6" stroke="#7c3aed" stroke-width="1.1" opacity="0.14" />
<line x1="647.0" y1="261.8" x2="775.5" y2="-161.2" stroke="#a78bfa" stroke-width="1.5" opacity="0.10" />
<line x1="647.0" y1="261.8" x2="1051.3" y2="-335.4" stroke="#7c3aed" stroke-width="1.1" opacity="0.16" />
<line x1="647.0" y1="261.8" x2="1031.0" y2="-101.7" stroke="#8b5cf6" stroke-width="2.2" opacity="0.25" />
<line x1="647.0" y1="261.8" x2="1220.8" y2="-16.1" stroke="#7c3aed" stroke-width="1.4" opacity="0.34" />
<line x1="647.0" y1="261.8" x2="1217.5" y2="153.5" stroke="#a78bfa" stroke-width="2.2" opacity="0.35" />
<circle cx="647.0" cy="261.8" r="80" fill="#7c3aed" opacity="0.15" filter="url(#glow)" />


  <!-- Vignette -->
  <rect width="1200" height="630" fill="url(#bg)" opacity="0.3" />

  <!-- Category badge -->
  <rect x="48" y="40" width="174" height="28" rx="14" fill="#7c3aed" opacity="0.9" />
  <text x="60" y="59" font-family="system-ui, -apple-system, sans-serif" font-size="12" font-weight="700" letter-spacing="1.5" text-transform="uppercase" fill="white">SCIENCE &amp; ARENA</text>

  <!-- Title -->
  <text x="48" y="550" font-family="system-ui, -apple-system, sans-serif" font-size="42" font-weight="800" fill="white" filter="url(#textShadow)" letter-spacing="-1">
    <tspan x="48" dy="0">The Arena: Traversing the Cancer Graph</tspan>
  </text>

  <!-- spike.land watermark -->
  <text x="1152" y="606" font-family="system-ui, -apple-system, sans-serif" font-size="14" font-weight="600" fill="#a78bfa" opacity="0.6" text-anchor="end">spike.land</text>
</svg>