<svg xmlns="http://www.w3.org/2000/svg" viewBox="0 0 1200 630" width="1200" height="630">
  <defs>
    <linearGradient id="bg" x1="0%" y1="0%" x2="100%" y2="100%">
      <stop offset="0%" stop-color="#1c1917" />
      <stop offset="100%" stop-color="#292524" />
    </linearGradient>
    <filter id="glow">
      <feGaussianBlur stdDeviation="30" result="blur" />
      <feMerge><feMergeNode in="blur" /><feMergeNode in="SourceGraphic" /></feMerge>
    </filter>
    <filter id="textShadow">
      <feDropShadow dx="0" dy="2" stdDeviation="6" flood-color="#1c1917" flood-opacity="0.8" />
    </filter>
  </defs>

  <!-- Background -->
  <rect width="1200" height="630" fill="url(#bg)" />

  <!-- Generative shapes -->
  <line x1="476.8" y1="256.8" x2="822.3" y2="266.8" stroke="#d97706" stroke-width="2.2" opacity="0.27" />
<line x1="476.8" y1="256.8" x2="1057.8" y2="457.1" stroke="#fbbf24" stroke-width="1.1" opacity="0.19" />
<line x1="476.8" y1="256.8" x2="817.1" y2="476.8" stroke="#f59e0b" stroke-width="2.4" opacity="0.17" />
<line x1="476.8" y1="256.8" x2="849.4" y2="633.6" stroke="#fbbf24" stroke-width="1.0" opacity="0.32" />
<line x1="476.8" y1="256.8" x2="821.8" y2="864.7" stroke="#fbbf24" stroke-width="0.8" opacity="0.28" />
<line x1="476.8" y1="256.8" x2="633.0" y2="942.6" stroke="#fbbf24" stroke-width="2.3" opacity="0.32" />
<line x1="476.8" y1="256.8" x2="427.5" y2="895.8" stroke="#f59e0b" stroke-width="2.1" opacity="0.19" />
<line x1="476.8" y1="256.8" x2="321.2" y2="682.5" stroke="#f59e0b" stroke-width="1.0" opacity="0.18" />
<line x1="476.8" y1="256.8" x2="166.0" y2="711.6" stroke="#fbbf24" stroke-width="1.7" opacity="0.27" />
<line x1="476.8" y1="256.8" x2="157.0" y2="533.3" stroke="#f59e0b" stroke-width="2.5" opacity="0.28" />
<line x1="476.8" y1="256.8" x2="235.4" y2="377.6" stroke="#f59e0b" stroke-width="1.3" opacity="0.27" />
<line x1="476.8" y1="256.8" x2="-138.9" y2="388.6" stroke="#fbbf24" stroke-width="2.4" opacity="0.15" />
<line x1="476.8" y1="256.8" x2="59.7" y2="218.0" stroke="#fbbf24" stroke-width="0.5" opacity="0.33" />
<line x1="476.8" y1="256.8" x2="264.7" y2="186.4" stroke="#fbbf24" stroke-width="1.2" opacity="0.15" />
<line x1="476.8" y1="256.8" x2="160.9" y2="38.6" stroke="#d97706" stroke-width="0.7" opacity="0.18" />
<line x1="476.8" y1="256.8" x2="193.9" y2="-30.3" stroke="#d97706" stroke-width="1.4" opacity="0.27" />
<line x1="476.8" y1="256.8" x2="242.0" y2="-207.2" stroke="#fbbf24" stroke-width="2.5" opacity="0.33" />
<line x1="476.8" y1="256.8" x2="338.9" y2="-362.3" stroke="#d97706" stroke-width="0.6" opacity="0.28" />
<line x1="476.8" y1="256.8" x2="496.7" y2="-198.4" stroke="#fbbf24" stroke-width="0.8" opacity="0.13" />
<line x1="476.8" y1="256.8" x2="590.4" y2="-72.6" stroke="#d97706" stroke-width="0.5" opacity="0.21" />
<line x1="476.8" y1="256.8" x2="605.2" y2="65.1" stroke="#fbbf24" stroke-width="1.9" opacity="0.19" />
<line x1="476.8" y1="256.8" x2="665.8" y2="80.3" stroke="#f59e0b" stroke-width="2.3" opacity="0.31" />
<line x1="476.8" y1="256.8" x2="1002.0" y2="-8.2" stroke="#d97706" stroke-width="0.6" opacity="0.25" />
<line x1="476.8" y1="256.8" x2="759.7" y2="206.2" stroke="#fbbf24" stroke-width="2.3" opacity="0.16" />
<circle cx="476.8" cy="256.8" r="80" fill="#d97706" opacity="0.15" filter="url(#glow)" />


  <!-- Vignette -->
  <rect width="1200" height="630" fill="url(#bg)" opacity="0.3" />

  <!-- Category badge -->
  <rect x="48" y="40" width="124" height="28" rx="14" fill="#d97706" opacity="0.9" />
  <text x="60" y="59" font-family="system-ui, -apple-system, sans-serif" font-size="12" font-weight="700" letter-spacing="1.5" text-transform="uppercase" fill="white">SPIKE.LAND</text>

  <!-- Title -->
  <text x="48" y="550" font-family="system-ui, -apple-system, sans-serif" font-size="42" font-weight="800" fill="white" filter="url(#textShadow)" letter-spacing="-1">
    <tspan x="48" dy="0">The Bridge</tspan>
  </text>

  <!-- spike.land watermark -->
  <text x="1152" y="606" font-family="system-ui, -apple-system, sans-serif" font-size="14" font-weight="600" fill="#fbbf24" opacity="0.6" text-anchor="end">spike.land</text>
</svg>