<svg xmlns="http://www.w3.org/2000/svg" viewBox="0 0 1200 630" width="1200" height="630">
  <defs>
    <linearGradient id="bg" x1="0%" y1="0%" x2="100%" y2="100%">
      <stop offset="0%" stop-color="#022c22" />
      <stop offset="100%" stop-color="#064e3b" />
    </linearGradient>
    <filter id="glow">
      <feGaussianBlur stdDeviation="30" result="blur" />
      <feMerge><feMergeNode in="blur" /><feMergeNode in="SourceGraphic" /></feMerge>
    </filter>
    <filter id="textShadow">
      <feDropShadow dx="0" dy="2" stdDeviation="6" flood-color="#022c22" flood-opacity="0.8" />
    </filter>
  </defs>

  <!-- Background -->
  <rect width="1200" height="630" fill="url(#bg)" />

  <!-- Generative shapes -->
  <circle cx="44.5" cy="36.5" r="1.3" fill="#34d399" opacity="0.13" />
<circle cx="42.3" cy="75.5" r="1.4" fill="#34d399" opacity="0.14" />
<circle cx="39.1" cy="115.5" r="1.5" fill="#34d399" opacity="0.15" />
<circle cx="35.1" cy="165.0" r="1.6" fill="#34d399" opacity="0.16" />
<circle cx="36.1" cy="202.7" r="1.6" fill="#34d399" opacity="0.16" />
<circle cx="38.4" cy="237.2" r="1.7" fill="#34d399" opacity="0.17" />
<circle cx="39.4" cy="276.0" r="1.7" fill="#34d399" opacity="0.17" />
<circle cx="36.4" cy="322.8" r="1.7" fill="#34d399" opacity="0.17" />
<circle cx="40.4" cy="360.4" r="1.7" fill="#34d399" opacity="0.17" />
<circle cx="41.0" cy="404.3" r="1.7" fill="#34d399" opacity="0.17" />
<circle cx="41.6" cy="439.4" r="1.6" fill="#34d399" opacity="0.16" />
<circle cx="42.4" cy="481.4" r="1.6" fill="#34d399" opacity="0.16" />
<circle cx="40.8" cy="521.1" r="1.5" fill="#34d399" opacity="0.15" />
<circle cx="38.6" cy="558.0" r="1.4" fill="#34d399" opacity="0.14" />
<circle cx="39.3" cy="602.6" r="1.3" fill="#34d399" opacity="0.13" />
<circle cx="81.0" cy="44.8" r="1.5" fill="#34d399" opacity="0.15" />
<circle cx="84.3" cy="81.1" r="1.7" fill="#34d399" opacity="0.17" />
<circle cx="78.2" cy="119.7" r="1.7" fill="#34d399" opacity="0.17" />
<circle cx="77.9" cy="162.5" r="1.8" fill="#34d399" opacity="0.18" />
<circle cx="82.1" cy="199.3" r="1.9" fill="#34d399" opacity="0.19" />
<circle cx="84.1" cy="237.3" r="1.9" fill="#34d399" opacity="0.19" />
<circle cx="81.6" cy="283.2" r="1.9" fill="#34d399" opacity="0.19" />
<circle cx="75.1" cy="316.3" r="1.9" fill="#34d399" opacity="0.19" />
<circle cx="76.5" cy="355.8" r="1.9" fill="#34d399" opacity="0.19" />
<circle cx="78.6" cy="402.7" r="1.9" fill="#34d399" opacity="0.19" />
<circle cx="76.7" cy="436.5" r="1.8" fill="#34d399" opacity="0.18" />
<circle cx="78.1" cy="484.4" r="1.8" fill="#34d399" opacity="0.18" />
<circle cx="80.5" cy="522.9" r="1.7" fill="#34d399" opacity="0.17" />
<circle cx="76.6" cy="564.6" r="1.6" fill="#34d399" opacity="0.16" />
<circle cx="75.4" cy="597.1" r="1.5" fill="#34d399" opacity="0.15" />
<circle cx="116.9" cy="42.5" r="1.7" fill="#34d399" opacity="0.17" />
<circle cx="117.2" cy="82.1" r="1.8" fill="#34d399" opacity="0.18" />
<circle cx="118.5" cy="123.0" r="1.9" fill="#34d399" opacity="0.19" />
<circle cx="118.4" cy="156.3" r="2.0" fill="#34d399" opacity="0.20" />
<circle cx="123.8" cy="196.8" r="2.1" fill="#34d399" opacity="0.21" />
<circle cx="124.1" cy="243.5" r="2.2" fill="#34d399" opacity="0.22" />
<circle cx="124.3" cy="280.7" r="2.2" fill="#34d399" opacity="0.22" />
<circle cx="115.2" cy="316.7" r="2.1" fill="#34d399" opacity="0.21" />
<circle cx="119.4" cy="358.9" r="2.2" fill="#34d399" opacity="0.22" />
<circle cx="116.4" cy="403.1" r="2.1" fill="#34d399" opacity="0.21" />
<circle cx="117.7" cy="444.7" r="2.1" fill="#34d399" opacity="0.21" />
<circle cx="120.8" cy="479.2" r="2.0" fill="#34d399" opacity="0.20" />
<circle cx="124.6" cy="523.7" r="1.9" fill="#34d399" opacity="0.19" />
<circle cx="116.7" cy="561.3" r="1.8" fill="#34d399" opacity="0.18" />
<circle cx="115.6" cy="598.8" r="1.7" fill="#34d399" opacity="0.17" />
<circle cx="159.2" cy="42.9" r="1.9" fill="#34d399" opacity="0.19" />
<circle cx="158.6" cy="76.7" r="2.0" fill="#34d399" opacity="0.20" />
<circle cx="162.0" cy="122.6" r="2.2" fill="#34d399" opacity="0.22" />
<circle cx="155.2" cy="157.0" r="2.2" fill="#10b981" opacity="0.22" />
<circle cx="162.4" cy="204.7" r="2.3" fill="#10b981" opacity="0.23" />
<circle cx="164.1" cy="243.7" r="2.4" fill="#10b981" opacity="0.24" />
<circle cx="164.9" cy="276.3" r="2.4" fill="#10b981" opacity="0.24" />
<circle cx="156.6" cy="319.1" r="2.4" fill="#10b981" opacity="0.24" />
<circle cx="155.7" cy="361.7" r="2.4" fill="#10b981" opacity="0.24" />
<circle cx="157.6" cy="401.7" r="2.3" fill="#10b981" opacity="0.23" />
<circle cx="163.3" cy="439.5" r="2.3" fill="#10b981" opacity="0.23" />
<circle cx="161.5" cy="476.6" r="2.2" fill="#10b981" opacity="0.22" />
<circle cx="159.7" cy="523.3" r="2.1" fill="#34d399" opacity="0.21" />
<circle cx="156.7" cy="560.5" r="2.0" fill="#34d399" opacity="0.20" />
<circle cx="164.7" cy="599.7" r="1.9" fill="#34d399" opacity="0.19" />
<circle cx="198.4" cy="40.1" r="2.1" fill="#34d399" opacity="0.21" />
<circle cx="198.5" cy="75.7" r="2.2" fill="#10b981" opacity="0.22" />
<circle cx="203.2" cy="115.8" r="2.4" fill="#10b981" opacity="0.24" />
<circle cx="197.2" cy="159.9" r="2.5" fill="#10b981" opacity="0.25" />
<circle cx="204.4" cy="198.7" r="2.6" fill="#10b981" opacity="0.26" />
<circle cx="203.3" cy="237.3" r="2.6" fill="#10b981" opacity="0.26" />
<circle cx="203.0" cy="284.1" r="2.6" fill="#10b981" opacity="0.26" />
<circle cx="197.5" cy="324.7" r="2.6" fill="#10b981" opacity="0.26" />
<circle cx="202.4" cy="359.4" r="2.6" fill="#10b981" opacity="0.26" />
<circle cx="203.7" cy="395.0" r="2.6" fill="#10b981" opacity="0.26" />
<circle cx="201.7" cy="438.0" r="2.5" fill="#10b981" opacity="0.25" />
<circle cx="203.9" cy="477.4" r="2.5" fill="#10b981" opacity="0.25" />
<circle cx="195.6" cy="518.8" r="2.3" fill="#10b981" opacity="0.23" />
<circle cx="203.9" cy="562.5" r="2.2" fill="#10b981" opacity="0.22" />
<circle cx="196.7" cy="602.9" r="2.1" fill="#34d399" opacity="0.21" />
<circle cx="236.7" cy="38.5" r="2.3" fill="#10b981" opacity="0.23" />
<circle cx="237.2" cy="75.4" r="2.4" fill="#10b981" opacity="0.24" />
<circle cx="235.8" cy="118.8" r="2.6" fill="#10b981" opacity="0.26" />
<circle cx="235.7" cy="155.7" r="2.7" fill="#10b981" opacity="0.27" />
<circle cx="243.9" cy="195.3" r="2.8" fill="#10b981" opacity="0.28" />
<circle cx="237.1" cy="243.6" r="2.8" fill="#10b981" opacity="0.28" />
<circle cx="238.7" cy="279.1" r="2.9" fill="#10b981" opacity="0.29" />
<circle cx="240.8" cy="324.0" r="2.9" fill="#10b981" opacity="0.29" />
<circle cx="243.7" cy="363.0" r="2.9" fill="#10b981" opacity="0.29" />
<circle cx="244.6" cy="398.5" r="2.8" fill="#10b981" opacity="0.28" />
<circle cx="244.0" cy="436.2" r="2.8" fill="#10b981" opacity="0.28" />
<circle cx="240.0" cy="476.3" r="2.7" fill="#10b981" opacity="0.27" />
<circle cx="243.6" cy="517.1" r="2.6" fill="#10b981" opacity="0.26" />
<circle cx="237.1" cy="562.3" r="2.4" fill="#10b981" opacity="0.24" />
<circle cx="237.7" cy="603.3" r="2.3" fill="#10b981" opacity="0.23" />
<circle cx="283.5" cy="44.8" r="2.5" fill="#10b981" opacity="0.25" />
<circle cx="284.3" cy="76.3" r="2.7" fill="#10b981" opacity="0.27" />
<circle cx="275.7" cy="121.9" r="2.8" fill="#10b981" opacity="0.28" />
<circle cx="278.0" cy="158.1" r="2.9" fill="#10b981" opacity="0.29" />
<circle cx="277.9" cy="197.8" r="3.0" fill="#10b981" opacity="0.30" />
<circle cx="282.0" cy="238.0" r="3.1" fill="#10b981" opacity="0.31" />
<circle cx="276.4" cy="277.8" r="3.1" fill="#10b981" opacity="0.31" />
<circle cx="279.9" cy="318.2" r="3.1" fill="#10b981" opacity="0.31" />
<circle cx="284.8" cy="364.5" r="3.1" fill="#10b981" opacity="0.31" />
<circle cx="284.8" cy="403.8" r="3.1" fill="#10b981" opacity="0.31" />
<circle cx="277.7" cy="443.6" r="3.0" fill="#10b981" opacity="0.30" />
<circle cx="275.2" cy="477.8" r="2.9" fill="#10b981" opacity="0.29" />
<circle cx="277.5" cy="520.6" r="2.7" fill="#10b981" opacity="0.27" />
<circle cx="276.8" cy="556.5" r="2.6" fill="#10b981" opacity="0.26" />
<circle cx="284.6" cy="598.1" r="2.5" fill="#10b981" opacity="0.25" />
<circle cx="319.6" cy="35.2" r="2.7" fill="#10b981" opacity="0.27" />
<circle cx="322.5" cy="75.1" r="2.8" fill="#10b981" opacity="0.28" />
<circle cx="318.2" cy="119.4" r="3.0" fill="#10b981" opacity="0.30" />
<circle cx="319.2" cy="157.0" r="3.1" fill="#10b981" opacity="0.31" />
<circle cx="315.9" cy="202.5" r="3.2" fill="#10b981" opacity="0.32" />
<circle cx="318.1" cy="238.5" r="3.3" fill="#10b981" opacity="0.33" />
<circle cx="320.7" cy="275.1" r="3.3" fill="#10b981" opacity="0.33" />
<circle cx="316.6" cy="317.4" r="3.3" fill="#10b981" opacity="0.33" />
<circle cx="322.6" cy="355.3" r="3.3" fill="#10b981" opacity="0.33" />
<circle cx="318.7" cy="402.5" r="3.3" fill="#10b981" opacity="0.33" />
<circle cx="320.7" cy="437.0" r="3.2" fill="#10b981" opacity="0.32" />
<circle cx="317.7" cy="482.5" r="3.1" fill="#10b981" opacity="0.31" />
<circle cx="320.2" cy="524.8" r="2.9" fill="#10b981" opacity="0.29" />
<circle cx="315.9" cy="560.1" r="2.8" fill="#10b981" opacity="0.28" />
<circle cx="317.4" cy="601.7" r="2.6" fill="#10b981" opacity="0.26" />
<circle cx="358.4" cy="37.7" r="2.8" fill="#10b981" opacity="0.28" />
<circle cx="362.3" cy="80.3" r="3.0" fill="#10b981" opacity="0.30" />
<circle cx="355.7" cy="118.1" r="3.1" fill="#10b981" opacity="0.31" />
<circle cx="357.8" cy="161.8" r="3.3" fill="#10b981" opacity="0.33" />
<circle cx="364.6" cy="198.5" r="3.4" fill="#059669" opacity="0.34" />
<circle cx="364.1" cy="243.5" r="3.5" fill="#059669" opacity="0.35" />
<circle cx="361.1" cy="279.8" r="3.6" fill="#059669" opacity="0.36" />
<circle cx="358.1" cy="321.2" r="3.6" fill="#059669" opacity="0.36" />
<circle cx="363.7" cy="359.3" r="3.6" fill="#059669" opacity="0.36" />
<circle cx="356.4" cy="404.0" r="3.5" fill="#059669" opacity="0.35" />
<circle cx="362.6" cy="439.8" r="3.4" fill="#059669" opacity="0.34" />
<circle cx="360.6" cy="480.9" r="3.3" fill="#10b981" opacity="0.33" />
<circle cx="362.3" cy="523.0" r="3.1" fill="#10b981" opacity="0.31" />
<circle cx="355.8" cy="555.4" r="3.0" fill="#10b981" opacity="0.30" />
<circle cx="363.3" cy="599.3" r="2.8" fill="#10b981" opacity="0.28" />
<circle cx="397.8" cy="36.2" r="3.0" fill="#10b981" opacity="0.30" />
<circle cx="400.1" cy="82.8" r="3.2" fill="#10b981" opacity="0.32" />
<circle cx="402.4" cy="123.5" r="3.4" fill="#10b981" opacity="0.34" />
<circle cx="401.4" cy="163.4" r="3.5" fill="#059669" opacity="0.35" />
<circle cx="402.0" cy="195.4" r="3.6" fill="#059669" opacity="0.36" />
<circle cx="400.2" cy="244.5" r="3.7" fill="#059669" opacity="0.37" />
<circle cx="401.8" cy="275.7" r="3.8" fill="#059669" opacity="0.38" />
<circle cx="398.4" cy="318.8" r="3.8" fill="#059669" opacity="0.38" />
<circle cx="401.5" cy="358.9" r="3.8" fill="#059669" opacity="0.38" />
<circle cx="395.3" cy="400.1" r="3.7" fill="#059669" opacity="0.37" />
<circle cx="404.8" cy="440.6" r="3.6" fill="#059669" opacity="0.36" />
<circle cx="403.4" cy="483.7" r="3.5" fill="#059669" opacity="0.35" />
<circle cx="402.9" cy="521.1" r="3.3" fill="#10b981" opacity="0.33" />
<circle cx="400.8" cy="563.4" r="3.1" fill="#10b981" opacity="0.31" />
<circle cx="403.1" cy="600.3" r="3.0" fill="#10b981" opacity="0.30" />
<circle cx="444.4" cy="38.1" r="3.1" fill="#10b981" opacity="0.31" />
<circle cx="440.0" cy="81.7" r="3.3" fill="#10b981" opacity="0.33" />
<circle cx="443.2" cy="115.6" r="3.5" fill="#059669" opacity="0.35" />
<circle cx="440.5" cy="162.8" r="3.7" fill="#059669" opacity="0.37" />
<circle cx="445.0" cy="195.9" r="3.8" fill="#059669" opacity="0.38" />
<circle cx="438.5" cy="239.9" r="3.9" fill="#059669" opacity="0.39" />
<circle cx="436.0" cy="283.3" r="4.0" fill="#059669" opacity="0.40" />
<circle cx="441.7" cy="316.3" r="4.1" fill="#059669" opacity="0.41" />
<circle cx="437.9" cy="358.0" r="4.0" fill="#059669" opacity="0.40" />
<circle cx="437.0" cy="398.8" r="3.9" fill="#059669" opacity="0.39" />
<circle cx="440.5" cy="437.3" r="3.8" fill="#059669" opacity="0.38" />
<circle cx="435.7" cy="484.5" r="3.6" fill="#059669" opacity="0.36" />
<circle cx="444.5" cy="516.8" r="3.5" fill="#059669" opacity="0.35" />
<circle cx="444.7" cy="561.2" r="3.3" fill="#10b981" opacity="0.33" />
<circle cx="443.7" cy="602.2" r="3.1" fill="#10b981" opacity="0.31" />
<circle cx="476.8" cy="43.3" r="3.2" fill="#10b981" opacity="0.32" />
<circle cx="480.4" cy="81.6" r="3.5" fill="#059669" opacity="0.35" />
<circle cx="484.7" cy="117.4" r="3.6" fill="#059669" opacity="0.36" />
<circle cx="482.5" cy="158.4" r="3.8" fill="#059669" opacity="0.38" />
<circle cx="481.5" cy="198.6" r="4.0" fill="#059669" opacity="0.40" />
<circle cx="478.0" cy="236.0" r="4.1" fill="#059669" opacity="0.41" />
<circle cx="484.1" cy="282.9" r="4.3" fill="#059669" opacity="0.43" />
<circle cx="483.6" cy="323.7" r="4.3" fill="#059669" opacity="0.43" />
<circle cx="481.0" cy="355.2" r="4.3" fill="#059669" opacity="0.43" />
<circle cx="484.2" cy="395.4" r="4.2" fill="#059669" opacity="0.42" />
<circle cx="480.2" cy="438.9" r="4.0" fill="#059669" opacity="0.40" />
<circle cx="479.9" cy="478.2" r="3.8" fill="#059669" opacity="0.38" />
<circle cx="480.8" cy="517.5" r="3.6" fill="#059669" opacity="0.36" />
<circle cx="475.8" cy="557.0" r="3.4" fill="#10b981" opacity="0.34" />
<circle cx="482.5" cy="602.8" r="3.2" fill="#10b981" opacity="0.32" />
<circle cx="523.6" cy="38.4" r="3.3" fill="#10b981" opacity="0.33" />
<circle cx="516.2" cy="80.8" r="3.5" fill="#059669" opacity="0.35" />
<circle cx="519.2" cy="120.4" r="3.8" fill="#059669" opacity="0.38" />
<circle cx="521.8" cy="160.4" r="4.0" fill="#059669" opacity="0.40" />
<circle cx="524.5" cy="203.8" r="4.2" fill="#059669" opacity="0.42" />
<circle cx="524.1" cy="244.4" r="4.4" fill="#059669" opacity="0.44" />
<circle cx="518.5" cy="279.0" r="4.5" fill="#059669" opacity="0.45" />
<circle cx="524.8" cy="319.7" r="4.6" fill="#059669" opacity="0.46" />
<circle cx="516.0" cy="364.8" r="4.4" fill="#059669" opacity="0.44" />
<circle cx="520.6" cy="395.5" r="4.3" fill="#059669" opacity="0.43" />
<circle cx="518.5" cy="443.8" r="4.1" fill="#059669" opacity="0.41" />
<circle cx="515.3" cy="475.4" r="3.9" fill="#059669" opacity="0.39" />
<circle cx="515.9" cy="520.9" r="3.7" fill="#059669" opacity="0.37" />
<circle cx="516.0" cy="564.5" r="3.4" fill="#059669" opacity="0.34" />
<circle cx="523.7" cy="597.5" r="3.3" fill="#10b981" opacity="0.33" />
<circle cx="561.6" cy="45.0" r="3.4" fill="#10b981" opacity="0.34" />
<circle cx="564.1" cy="81.0" r="3.6" fill="#059669" opacity="0.36" />
<circle cx="564.4" cy="122.1" r="3.8" fill="#059669" opacity="0.38" />
<circle cx="555.1" cy="160.1" r="4.0" fill="#059669" opacity="0.40" />
<circle cx="560.2" cy="195.7" r="4.3" fill="#059669" opacity="0.43" />
<circle cx="557.2" cy="235.0" r="4.5" fill="#059669" opacity="0.45" />
<circle cx="561.2" cy="276.4" r="4.7" fill="#059669" opacity="0.47" />
<circle cx="561.5" cy="316.0" r="4.8" fill="#059669" opacity="0.48" />
<circle cx="555.4" cy="363.4" r="4.6" fill="#059669" opacity="0.46" />
<circle cx="558.0" cy="395.8" r="4.5" fill="#059669" opacity="0.45" />
<circle cx="555.9" cy="442.7" r="4.2" fill="#059669" opacity="0.42" />
<circle cx="558.2" cy="482.0" r="4.0" fill="#059669" opacity="0.40" />
<circle cx="555.9" cy="522.1" r="3.7" fill="#059669" opacity="0.37" />
<circle cx="562.1" cy="563.4" r="3.5" fill="#059669" opacity="0.35" />
<circle cx="561.1" cy="603.2" r="3.3" fill="#10b981" opacity="0.33" />
<circle cx="601.4" cy="36.8" r="3.4" fill="#10b981" opacity="0.34" />
<circle cx="596.6" cy="84.8" r="3.6" fill="#059669" opacity="0.36" />
<circle cx="600.9" cy="119.7" r="3.8" fill="#059669" opacity="0.38" />
<circle cx="598.4" cy="159.3" r="4.1" fill="#059669" opacity="0.41" />
<circle cx="599.2" cy="201.9" r="4.3" fill="#059669" opacity="0.43" />
<circle cx="597.9" cy="236.1" r="4.5" fill="#059669" opacity="0.45" />
<circle cx="600.2" cy="275.3" r="4.8" fill="#059669" opacity="0.48" />
<circle cx="599.8" cy="323.8" r="4.9" fill="#059669" opacity="0.49" />
<circle cx="598.3" cy="363.0" r="4.7" fill="#059669" opacity="0.47" />
<circle cx="600.0" cy="395.1" r="4.5" fill="#059669" opacity="0.45" />
<circle cx="595.7" cy="436.4" r="4.3" fill="#059669" opacity="0.43" />
<circle cx="595.9" cy="475.4" r="4.1" fill="#059669" opacity="0.41" />
<circle cx="597.8" cy="523.4" r="3.8" fill="#059669" opacity="0.38" />
<circle cx="604.4" cy="560.7" r="3.5" fill="#059669" opacity="0.35" />
<circle cx="604.0" cy="604.2" r="3.3" fill="#10b981" opacity="0.33" />
<circle cx="640.3" cy="44.0" r="3.4" fill="#10b981" opacity="0.34" />
<circle cx="638.5" cy="78.8" r="3.6" fill="#059669" opacity="0.36" />
<circle cx="641.0" cy="117.3" r="3.8" fill="#059669" opacity="0.38" />
<circle cx="640.8" cy="164.2" r="4.1" fill="#059669" opacity="0.41" />
<circle cx="639.6" cy="197.2" r="4.3" fill="#059669" opacity="0.43" />
<circle cx="638.8" cy="242.2" r="4.5" fill="#059669" opacity="0.45" />
<circle cx="642.0" cy="282.1" r="4.7" fill="#059669" opacity="0.47" />
<circle cx="644.6" cy="318.2" r="4.7" fill="#059669" opacity="0.47" />
<circle cx="640.9" cy="358.2" r="4.6" fill="#059669" opacity="0.46" />
<circle cx="636.7" cy="401.5" r="4.4" fill="#059669" opacity="0.44" />
<circle cx="641.7" cy="443.4" r="4.2" fill="#059669" opacity="0.42" />
<circle cx="636.9" cy="476.6" r="4.0" fill="#059669" opacity="0.40" />
<circle cx="644.0" cy="524.9" r="3.7" fill="#059669" opacity="0.37" />
<circle cx="638.0" cy="557.4" r="3.6" fill="#059669" opacity="0.36" />
<circle cx="642.5" cy="600.6" r="3.3" fill="#10b981" opacity="0.33" />
<circle cx="678.5" cy="42.1" r="3.3" fill="#10b981" opacity="0.33" />
<circle cx="681.4" cy="80.2" r="3.5" fill="#059669" opacity="0.35" />
<circle cx="681.2" cy="122.5" r="3.8" fill="#059669" opacity="0.38" />
<circle cx="677.4" cy="165.0" r="4.0" fill="#059669" opacity="0.40" />
<circle cx="682.5" cy="204.5" r="4.2" fill="#059669" opacity="0.42" />
<circle cx="683.3" cy="243.7" r="4.4" fill="#059669" opacity="0.44" />
<circle cx="678.2" cy="282.7" r="4.5" fill="#059669" opacity="0.45" />
<circle cx="678.7" cy="322.0" r="4.5" fill="#059669" opacity="0.45" />
<circle cx="683.2" cy="357.8" r="4.4" fill="#059669" opacity="0.44" />
<circle cx="679.5" cy="404.5" r="4.3" fill="#059669" opacity="0.43" />
<circle cx="681.2" cy="438.4" r="4.1" fill="#059669" opacity="0.41" />
<circle cx="682.6" cy="484.9" r="3.9" fill="#059669" opacity="0.39" />
<circle cx="681.0" cy="516.7" r="3.7" fill="#059669" opacity="0.37" />
<circle cx="677.5" cy="555.3" r="3.5" fill="#059669" opacity="0.35" />
<circle cx="676.1" cy="598.1" r="3.3" fill="#10b981" opacity="0.33" />
<circle cx="720.8" cy="39.1" r="3.2" fill="#10b981" opacity="0.32" />
<circle cx="724.1" cy="76.2" r="3.4" fill="#059669" opacity="0.34" />
<circle cx="716.7" cy="117.8" r="3.6" fill="#059669" opacity="0.36" />
<circle cx="722.2" cy="162.5" r="3.8" fill="#059669" opacity="0.38" />
<circle cx="717.5" cy="198.4" r="4.0" fill="#059669" opacity="0.40" />
<circle cx="716.1" cy="241.3" r="4.2" fill="#059669" opacity="0.42" />
<circle cx="718.8" cy="279.2" r="4.3" fill="#059669" opacity="0.43" />
<circle cx="717.9" cy="320.5" r="4.3" fill="#059669" opacity="0.43" />
<circle cx="723.0" cy="362.2" r="4.2" fill="#059669" opacity="0.42" />
<circle cx="720.2" cy="398.2" r="4.1" fill="#059669" opacity="0.41" />
<circle cx="724.8" cy="440.1" r="4.0" fill="#059669" opacity="0.40" />
<circle cx="722.8" cy="475.8" r="3.8" fill="#059669" opacity="0.38" />
<circle cx="723.9" cy="524.1" r="3.6" fill="#059669" opacity="0.36" />
<circle cx="718.9" cy="557.2" r="3.4" fill="#059669" opacity="0.34" />
<circle cx="717.7" cy="603.6" r="3.2" fill="#10b981" opacity="0.32" />
<circle cx="756.0" cy="35.4" r="3.1" fill="#10b981" opacity="0.31" />
<circle cx="759.1" cy="81.3" r="3.3" fill="#10b981" opacity="0.33" />
<circle cx="760.8" cy="115.9" r="3.5" fill="#059669" opacity="0.35" />
<circle cx="762.2" cy="155.8" r="3.7" fill="#059669" opacity="0.37" />
<circle cx="760.7" cy="198.5" r="3.8" fill="#059669" opacity="0.38" />
<circle cx="762.0" cy="235.8" r="3.9" fill="#059669" opacity="0.39" />
<circle cx="763.3" cy="275.1" r="4.0" fill="#059669" opacity="0.40" />
<circle cx="759.5" cy="317.1" r="4.1" fill="#059669" opacity="0.41" />
<circle cx="755.1" cy="357.9" r="4.1" fill="#059669" opacity="0.41" />
<circle cx="759.3" cy="396.6" r="3.9" fill="#059669" opacity="0.39" />
<circle cx="761.4" cy="444.1" r="3.8" fill="#059669" opacity="0.38" />
<circle cx="760.0" cy="475.2" r="3.7" fill="#059669" opacity="0.37" />
<circle cx="759.1" cy="521.1" r="3.5" fill="#059669" opacity="0.35" />
<circle cx="755.9" cy="563.2" r="3.3" fill="#10b981" opacity="0.33" />
<circle cx="763.0" cy="599.0" r="3.1" fill="#10b981" opacity="0.31" />
<circle cx="800.3" cy="39.5" r="3.0" fill="#10b981" opacity="0.30" />
<circle cx="798.3" cy="84.1" r="3.2" fill="#10b981" opacity="0.32" />
<circle cx="796.1" cy="120.2" r="3.4" fill="#10b981" opacity="0.34" />
<circle cx="800.2" cy="161.1" r="3.5" fill="#059669" opacity="0.35" />
<circle cx="798.2" cy="195.8" r="3.6" fill="#059669" opacity="0.36" />
<circle cx="802.8" cy="235.6" r="3.7" fill="#059669" opacity="0.37" />
<circle cx="800.7" cy="283.4" r="3.8" fill="#059669" opacity="0.38" />
<circle cx="797.3" cy="317.1" r="3.8" fill="#059669" opacity="0.38" />
<circle cx="803.1" cy="363.4" r="3.8" fill="#059669" opacity="0.38" />
<circle cx="803.6" cy="402.5" r="3.7" fill="#059669" opacity="0.37" />
<circle cx="800.8" cy="437.0" r="3.6" fill="#059669" opacity="0.36" />
<circle cx="804.3" cy="480.3" r="3.4" fill="#059669" opacity="0.34" />
<circle cx="802.3" cy="523.1" r="3.3" fill="#10b981" opacity="0.33" />
<circle cx="804.4" cy="557.0" r="3.1" fill="#10b981" opacity="0.31" />
<circle cx="797.9" cy="602.1" r="2.9" fill="#10b981" opacity="0.29" />
<circle cx="837.4" cy="43.3" r="2.9" fill="#10b981" opacity="0.29" />
<circle cx="844.5" cy="75.5" r="3.0" fill="#10b981" opacity="0.30" />
<circle cx="840.0" cy="124.7" r="3.2" fill="#10b981" opacity="0.32" />
<circle cx="839.7" cy="156.4" r="3.3" fill="#10b981" opacity="0.33" />
<circle cx="835.6" cy="201.6" r="3.5" fill="#059669" opacity="0.35" />
<circle cx="839.0" cy="242.3" r="3.5" fill="#059669" opacity="0.35" />
<circle cx="840.8" cy="284.2" r="3.6" fill="#059669" opacity="0.36" />
<circle cx="842.5" cy="315.0" r="3.6" fill="#059669" opacity="0.36" />
<circle cx="842.9" cy="358.6" r="3.5" fill="#059669" opacity="0.35" />
<circle cx="840.9" cy="397.3" r="3.5" fill="#059669" opacity="0.35" />
<circle cx="843.7" cy="437.3" r="3.4" fill="#10b981" opacity="0.34" />
<circle cx="840.0" cy="483.0" r="3.3" fill="#10b981" opacity="0.33" />
<circle cx="837.7" cy="522.1" r="3.1" fill="#10b981" opacity="0.31" />
<circle cx="843.0" cy="559.5" r="3.0" fill="#10b981" opacity="0.30" />
<circle cx="839.2" cy="601.5" r="2.8" fill="#10b981" opacity="0.28" />
<circle cx="878.3" cy="38.8" r="2.7" fill="#10b981" opacity="0.27" />
<circle cx="877.7" cy="81.8" r="2.9" fill="#10b981" opacity="0.29" />
<circle cx="884.2" cy="117.1" r="3.0" fill="#10b981" opacity="0.30" />
<circle cx="884.6" cy="162.8" r="3.1" fill="#10b981" opacity="0.31" />
<circle cx="876.7" cy="198.5" r="3.2" fill="#10b981" opacity="0.32" />
<circle cx="881.6" cy="237.9" r="3.3" fill="#10b981" opacity="0.33" />
<circle cx="883.0" cy="282.7" r="3.3" fill="#10b981" opacity="0.33" />
<circle cx="883.7" cy="319.9" r="3.3" fill="#10b981" opacity="0.33" />
<circle cx="875.2" cy="362.5" r="3.4" fill="#10b981" opacity="0.34" />
<circle cx="876.6" cy="401.3" r="3.3" fill="#10b981" opacity="0.33" />
<circle cx="878.6" cy="440.5" r="3.2" fill="#10b981" opacity="0.32" />
<circle cx="882.3" cy="480.7" r="3.1" fill="#10b981" opacity="0.31" />
<circle cx="878.3" cy="522.2" r="3.0" fill="#10b981" opacity="0.30" />
<circle cx="882.3" cy="564.9" r="2.8" fill="#10b981" opacity="0.28" />
<circle cx="877.7" cy="603.3" r="2.6" fill="#10b981" opacity="0.26" />
<circle cx="921.0" cy="38.1" r="2.5" fill="#10b981" opacity="0.25" />
<circle cx="924.6" cy="78.8" r="2.6" fill="#10b981" opacity="0.26" />
<circle cx="921.1" cy="116.1" r="2.8" fill="#10b981" opacity="0.28" />
<circle cx="916.8" cy="162.4" r="2.9" fill="#10b981" opacity="0.29" />
<circle cx="922.5" cy="199.2" r="3.0" fill="#10b981" opacity="0.30" />
<circle cx="923.2" cy="242.9" r="3.0" fill="#10b981" opacity="0.30" />
<circle cx="924.6" cy="280.6" r="3.1" fill="#10b981" opacity="0.31" />
<circle cx="922.5" cy="317.2" r="3.1" fill="#10b981" opacity="0.31" />
<circle cx="917.1" cy="363.9" r="3.1" fill="#10b981" opacity="0.31" />
<circle cx="916.0" cy="395.3" r="3.1" fill="#10b981" opacity="0.31" />
<circle cx="916.2" cy="437.2" r="3.0" fill="#10b981" opacity="0.30" />
<circle cx="916.0" cy="477.5" r="2.9" fill="#10b981" opacity="0.29" />
<circle cx="922.9" cy="516.1" r="2.8" fill="#10b981" opacity="0.28" />
<circle cx="916.1" cy="559.7" r="2.6" fill="#10b981" opacity="0.26" />
<circle cx="920.0" cy="604.6" r="2.5" fill="#10b981" opacity="0.25" />
<circle cx="955.6" cy="36.0" r="2.3" fill="#10b981" opacity="0.23" />
<circle cx="963.4" cy="75.4" r="2.4" fill="#10b981" opacity="0.24" />
<circle cx="963.2" cy="115.6" r="2.6" fill="#10b981" opacity="0.26" />
<circle cx="956.2" cy="158.5" r="2.7" fill="#10b981" opacity="0.27" />
<circle cx="964.2" cy="202.4" r="2.7" fill="#10b981" opacity="0.27" />
<circle cx="960.2" cy="240.3" r="2.8" fill="#10b981" opacity="0.28" />
<circle cx="964.2" cy="283.6" r="2.8" fill="#10b981" opacity="0.28" />
<circle cx="962.4" cy="320.7" r="2.9" fill="#10b981" opacity="0.29" />
<circle cx="964.0" cy="358.6" r="2.8" fill="#10b981" opacity="0.28" />
<circle cx="963.0" cy="402.4" r="2.8" fill="#10b981" opacity="0.28" />
<circle cx="960.8" cy="440.9" r="2.7" fill="#10b981" opacity="0.27" />
<circle cx="961.3" cy="478.6" r="2.7" fill="#10b981" opacity="0.27" />
<circle cx="956.7" cy="515.8" r="2.6" fill="#10b981" opacity="0.26" />
<circle cx="955.5" cy="562.6" r="2.4" fill="#10b981" opacity="0.24" />
<circle cx="963.1" cy="598.6" r="2.3" fill="#10b981" opacity="0.23" />
<circle cx="1004.6" cy="37.3" r="2.1" fill="#34d399" opacity="0.21" />
<circle cx="1000.3" cy="82.0" r="2.3" fill="#10b981" opacity="0.23" />
<circle cx="996.9" cy="117.4" r="2.4" fill="#10b981" opacity="0.24" />
<circle cx="999.8" cy="160.6" r="2.5" fill="#10b981" opacity="0.25" />
<circle cx="1003.4" cy="201.5" r="2.5" fill="#10b981" opacity="0.25" />
<circle cx="1002.1" cy="240.9" r="2.6" fill="#10b981" opacity="0.26" />
<circle cx="1001.1" cy="277.6" r="2.6" fill="#10b981" opacity="0.26" />
<circle cx="1003.7" cy="322.8" r="2.6" fill="#10b981" opacity="0.26" />
<circle cx="1004.5" cy="359.5" r="2.6" fill="#10b981" opacity="0.26" />
<circle cx="998.1" cy="402.8" r="2.6" fill="#10b981" opacity="0.26" />
<circle cx="1000.3" cy="437.1" r="2.5" fill="#10b981" opacity="0.25" />
<circle cx="1004.7" cy="484.3" r="2.4" fill="#10b981" opacity="0.24" />
<circle cx="1002.9" cy="518.2" r="2.3" fill="#10b981" opacity="0.23" />
<circle cx="998.6" cy="555.6" r="2.3" fill="#10b981" opacity="0.23" />
<circle cx="996.6" cy="604.3" r="2.1" fill="#34d399" opacity="0.21" />
<circle cx="1037.9" cy="39.8" r="1.9" fill="#34d399" opacity="0.19" />
<circle cx="1041.3" cy="79.5" r="2.0" fill="#34d399" opacity="0.20" />
<circle cx="1039.3" cy="118.3" r="2.2" fill="#34d399" opacity="0.22" />
<circle cx="1038.6" cy="163.4" r="2.3" fill="#10b981" opacity="0.23" />
<circle cx="1039.0" cy="202.7" r="2.3" fill="#10b981" opacity="0.23" />
<circle cx="1044.6" cy="237.8" r="2.3" fill="#10b981" opacity="0.23" />
<circle cx="1040.3" cy="284.6" r="2.4" fill="#10b981" opacity="0.24" />
<circle cx="1035.0" cy="317.9" r="2.4" fill="#10b981" opacity="0.24" />
<circle cx="1035.0" cy="360.1" r="2.4" fill="#10b981" opacity="0.24" />
<circle cx="1041.8" cy="398.6" r="2.3" fill="#10b981" opacity="0.23" />
<circle cx="1039.4" cy="438.2" r="2.3" fill="#10b981" opacity="0.23" />
<circle cx="1044.1" cy="484.9" r="2.2" fill="#34d399" opacity="0.22" />
<circle cx="1041.9" cy="518.7" r="2.1" fill="#34d399" opacity="0.21" />
<circle cx="1043.8" cy="558.8" r="2.0" fill="#34d399" opacity="0.20" />
<circle cx="1043.5" cy="599.9" r="1.9" fill="#34d399" opacity="0.19" />
<circle cx="1079.3" cy="40.8" r="1.7" fill="#34d399" opacity="0.17" />
<circle cx="1078.1" cy="82.0" r="1.9" fill="#34d399" opacity="0.19" />
<circle cx="1076.8" cy="117.9" r="2.0" fill="#34d399" opacity="0.20" />
<circle cx="1084.4" cy="155.1" r="2.0" fill="#34d399" opacity="0.20" />
<circle cx="1081.8" cy="198.0" r="2.1" fill="#34d399" opacity="0.21" />
<circle cx="1084.4" cy="238.9" r="2.1" fill="#34d399" opacity="0.21" />
<circle cx="1083.0" cy="280.4" r="2.1" fill="#34d399" opacity="0.21" />
<circle cx="1082.7" cy="322.9" r="2.2" fill="#34d399" opacity="0.22" />
<circle cx="1078.4" cy="363.6" r="2.2" fill="#34d399" opacity="0.22" />
<circle cx="1080.2" cy="403.2" r="2.1" fill="#34d399" opacity="0.21" />
<circle cx="1076.9" cy="439.9" r="2.1" fill="#34d399" opacity="0.21" />
<circle cx="1076.6" cy="476.4" r="2.0" fill="#34d399" opacity="0.20" />
<circle cx="1076.2" cy="518.2" r="1.9" fill="#34d399" opacity="0.19" />
<circle cx="1075.7" cy="564.8" r="1.8" fill="#34d399" opacity="0.18" />
<circle cx="1077.9" cy="603.7" r="1.7" fill="#34d399" opacity="0.17" />
<circle cx="1117.3" cy="44.6" r="1.6" fill="#34d399" opacity="0.16" />
<circle cx="1123.5" cy="76.9" r="1.6" fill="#34d399" opacity="0.16" />
<circle cx="1120.5" cy="121.7" r="1.7" fill="#34d399" opacity="0.17" />
<circle cx="1119.4" cy="159.5" r="1.8" fill="#34d399" opacity="0.18" />
<circle cx="1121.1" cy="195.1" r="1.8" fill="#34d399" opacity="0.18" />
<circle cx="1116.8" cy="241.2" r="1.9" fill="#34d399" opacity="0.19" />
<circle cx="1119.0" cy="283.9" r="1.9" fill="#34d399" opacity="0.19" />
<circle cx="1123.7" cy="322.8" r="1.9" fill="#34d399" opacity="0.19" />
<circle cx="1117.3" cy="358.0" r="1.9" fill="#34d399" opacity="0.19" />
<circle cx="1124.2" cy="402.0" r="1.9" fill="#34d399" opacity="0.19" />
<circle cx="1120.7" cy="437.5" r="1.8" fill="#34d399" opacity="0.18" />
<circle cx="1123.9" cy="475.6" r="1.8" fill="#34d399" opacity="0.18" />
<circle cx="1122.3" cy="521.4" r="1.7" fill="#34d399" opacity="0.17" />
<circle cx="1115.0" cy="564.4" r="1.6" fill="#34d399" opacity="0.16" />
<circle cx="1118.3" cy="601.2" r="1.5" fill="#34d399" opacity="0.15" />
<circle cx="1161.2" cy="36.5" r="1.3" fill="#34d399" opacity="0.13" />
<circle cx="1160.1" cy="78.3" r="1.4" fill="#34d399" opacity="0.14" />
<circle cx="1155.3" cy="122.7" r="1.5" fill="#34d399" opacity="0.15" />
<circle cx="1161.0" cy="163.3" r="1.6" fill="#34d399" opacity="0.16" />
<circle cx="1159.1" cy="201.9" r="1.6" fill="#34d399" opacity="0.16" />
<circle cx="1159.4" cy="243.9" r="1.7" fill="#34d399" opacity="0.17" />
<circle cx="1160.1" cy="278.1" r="1.7" fill="#34d399" opacity="0.17" />
<circle cx="1164.4" cy="320.2" r="1.7" fill="#34d399" opacity="0.17" />
<circle cx="1163.3" cy="358.8" r="1.7" fill="#34d399" opacity="0.17" />
<circle cx="1156.2" cy="405.0" r="1.7" fill="#34d399" opacity="0.17" />
<circle cx="1162.1" cy="436.1" r="1.6" fill="#34d399" opacity="0.16" />
<circle cx="1156.7" cy="476.2" r="1.6" fill="#34d399" opacity="0.16" />
<circle cx="1158.5" cy="518.3" r="1.5" fill="#34d399" opacity="0.15" />
<circle cx="1163.3" cy="560.4" r="1.4" fill="#34d399" opacity="0.14" />
<circle cx="1155.5" cy="596.5" r="1.3" fill="#34d399" opacity="0.13" />


  <!-- Vignette -->
  <rect width="1200" height="630" fill="url(#bg)" opacity="0.3" />

  <!-- Category badge -->
  <rect x="48" y="40" width="84" height="28" rx="14" fill="#059669" opacity="0.9" />
  <text x="60" y="59" font-family="system-ui, -apple-system, sans-serif" font-size="12" font-weight="700" letter-spacing="1.5" text-transform="uppercase" fill="white">ESSAYS</text>

  <!-- Title -->
  <text x="48" y="550" font-family="system-ui, -apple-system, sans-serif" font-size="42" font-weight="800" fill="white" filter="url(#textShadow)" letter-spacing="-1">
    <tspan x="48" dy="0">A Chemist Walked Into a Codebase</tspan>
  </text>

  <!-- spike.land watermark -->
  <text x="1152" y="606" font-family="system-ui, -apple-system, sans-serif" font-size="14" font-weight="600" fill="#34d399" opacity="0.6" text-anchor="end">spike.land</text>
</svg>