<svg xmlns="http://www.w3.org/2000/svg" viewBox="0 0 1200 630" width="1200" height="630">
  <defs>
    <linearGradient id="bg" x1="0%" y1="0%" x2="100%" y2="100%">
      <stop offset="0%" stop-color="#1c1917" />
      <stop offset="100%" stop-color="#292524" />
    </linearGradient>
    <filter id="glow">
      <feGaussianBlur stdDeviation="30" result="blur" />
      <feMerge><feMergeNode in="blur" /><feMergeNode in="SourceGraphic" /></feMerge>
    </filter>
    <filter id="textShadow">
      <feDropShadow dx="0" dy="2" stdDeviation="6" flood-color="#1c1917" flood-opacity="0.8" />
    </filter>
  </defs>

  <!-- Background -->
  <rect width="1200" height="630" fill="url(#bg)" />

  <!-- Generative shapes -->
  <line x1="405.4" y1="347.9" x2="767.7" y2="350.8" stroke="#f59e0b" stroke-width="1.2" opacity="0.32" />
<line x1="405.4" y1="347.9" x2="888.4" y2="505.4" stroke="#fbbf24" stroke-width="0.5" opacity="0.32" />
<line x1="405.4" y1="347.9" x2="1059.4" y2="777.5" stroke="#fbbf24" stroke-width="1.3" opacity="0.19" />
<line x1="405.4" y1="347.9" x2="880.0" y2="862.7" stroke="#d97706" stroke-width="2.1" opacity="0.21" />
<line x1="405.4" y1="347.9" x2="688.5" y2="840.9" stroke="#fbbf24" stroke-width="1.2" opacity="0.26" />
<line x1="405.4" y1="347.9" x2="511.5" y2="909.3" stroke="#fbbf24" stroke-width="2.4" opacity="0.33" />
<line x1="405.4" y1="347.9" x2="380.2" y2="615.6" stroke="#f59e0b" stroke-width="1.4" opacity="0.28" />
<line x1="405.4" y1="347.9" x2="334.4" y2="611.3" stroke="#d97706" stroke-width="1.3" opacity="0.15" />
<line x1="405.4" y1="347.9" x2="-29.4" y2="1015.2" stroke="#f59e0b" stroke-width="1.9" opacity="0.19" />
<line x1="405.4" y1="347.9" x2="151.5" y2="571.0" stroke="#fbbf24" stroke-width="1.0" opacity="0.30" />
<line x1="405.4" y1="347.9" x2="-146.1" y2="650.0" stroke="#d97706" stroke-width="1.2" opacity="0.12" />
<line x1="405.4" y1="347.9" x2="-336.2" y2="517.9" stroke="#d97706" stroke-width="1.5" opacity="0.22" />
<line x1="405.4" y1="347.9" x2="79.2" y2="315.4" stroke="#f59e0b" stroke-width="0.7" opacity="0.24" />
<line x1="405.4" y1="347.9" x2="-7.7" y2="231.9" stroke="#d97706" stroke-width="1.5" opacity="0.32" />
<line x1="405.4" y1="347.9" x2="56.7" y2="116.2" stroke="#d97706" stroke-width="0.6" opacity="0.31" />
<line x1="405.4" y1="347.9" x2="215.7" y2="119.5" stroke="#f59e0b" stroke-width="1.0" opacity="0.13" />
<line x1="405.4" y1="347.9" x2="253.7" y2="60.8" stroke="#fbbf24" stroke-width="1.6" opacity="0.11" />
<line x1="405.4" y1="347.9" x2="301.6" y2="-57.2" stroke="#d97706" stroke-width="1.5" opacity="0.23" />
<line x1="405.4" y1="347.9" x2="444.1" y2="-148.0" stroke="#d97706" stroke-width="1.8" opacity="0.20" />
<line x1="405.4" y1="347.9" x2="557.9" y2="-77.2" stroke="#fbbf24" stroke-width="1.6" opacity="0.34" />
<line x1="405.4" y1="347.9" x2="716.5" y2="-143.1" stroke="#f59e0b" stroke-width="2.1" opacity="0.17" />
<line x1="405.4" y1="347.9" x2="754.6" y2="54.4" stroke="#f59e0b" stroke-width="2.0" opacity="0.17" />
<line x1="405.4" y1="347.9" x2="838.3" y2="119.2" stroke="#fbbf24" stroke-width="1.5" opacity="0.17" />
<line x1="405.4" y1="347.9" x2="700.2" y2="280.3" stroke="#f59e0b" stroke-width="1.6" opacity="0.24" />
<circle cx="405.4" cy="347.9" r="80" fill="#d97706" opacity="0.15" filter="url(#glow)" />


  <!-- Vignette -->
  <rect width="1200" height="630" fill="url(#bg)" opacity="0.3" />

  <!-- Category badge -->
  <rect x="48" y="40" width="74" height="28" rx="14" fill="#d97706" opacity="0.9" />
  <text x="60" y="59" font-family="system-ui, -apple-system, sans-serif" font-size="12" font-weight="700" letter-spacing="1.5" text-transform="uppercase" fill="white">ESSAY</text>

  <!-- Title -->
  <text x="48" y="550" font-family="system-ui, -apple-system, sans-serif" font-size="42" font-weight="800" fill="white" filter="url(#textShadow)" letter-spacing="-1">
    <tspan x="48" dy="0">The Contact Proof</tspan>
  </text>

  <!-- spike.land watermark -->
  <text x="1152" y="606" font-family="system-ui, -apple-system, sans-serif" font-size="14" font-weight="600" fill="#fbbf24" opacity="0.6" text-anchor="end">spike.land</text>
</svg>