<svg xmlns="http://www.w3.org/2000/svg" viewBox="0 0 1200 630" width="1200" height="630">
  <defs>
    <linearGradient id="bg" x1="0%" y1="0%" x2="100%" y2="100%">
      <stop offset="0%" stop-color="#1c1917" />
      <stop offset="100%" stop-color="#27272a" />
    </linearGradient>
    <filter id="glow">
      <feGaussianBlur stdDeviation="30" result="blur" />
      <feMerge><feMergeNode in="blur" /><feMergeNode in="SourceGraphic" /></feMerge>
    </filter>
    <filter id="textShadow">
      <feDropShadow dx="0" dy="2" stdDeviation="6" flood-color="#1c1917" flood-opacity="0.8" />
    </filter>
  </defs>

  <!-- Background -->
  <rect width="1200" height="630" fill="url(#bg)" />

  <!-- Generative shapes -->
  <circle cx="64.3" cy="66.7" r="1.5" fill="#fb7185" opacity="0.15" />
<circle cx="63.7" cy="119.6" r="1.6" fill="#fb7185" opacity="0.16" />
<circle cx="65.6" cy="188.1" r="1.8" fill="#fb7185" opacity="0.18" />
<circle cx="64.2" cy="249.1" r="1.8" fill="#fb7185" opacity="0.18" />
<circle cx="65.5" cy="311.2" r="1.8" fill="#fb7185" opacity="0.18" />
<circle cx="60.6" cy="374.8" r="1.8" fill="#fb7185" opacity="0.18" />
<circle cx="62.7" cy="435.9" r="1.7" fill="#fb7185" opacity="0.17" />
<circle cx="57.9" cy="498.1" r="1.6" fill="#fb7185" opacity="0.16" />
<circle cx="58.5" cy="559.2" r="1.5" fill="#fb7185" opacity="0.15" />
<circle cx="60.9" cy="624.3" r="1.3" fill="#fb7185" opacity="0.13" />
<circle cx="120.0" cy="60.9" r="1.8" fill="#fb7185" opacity="0.18" />
<circle cx="126.1" cy="120.4" r="2.0" fill="#fb7185" opacity="0.20" />
<circle cx="119.5" cy="188.8" r="2.1" fill="#fb7185" opacity="0.21" />
<circle cx="119.1" cy="244.2" r="2.1" fill="#fb7185" opacity="0.21" />
<circle cx="126.8" cy="310.7" r="2.2" fill="#f43f5e" opacity="0.22" />
<circle cx="127.9" cy="374.2" r="2.2" fill="#fb7185" opacity="0.22" />
<circle cx="125.6" cy="431.7" r="2.1" fill="#fb7185" opacity="0.21" />
<circle cx="125.5" cy="492.5" r="2.0" fill="#fb7185" opacity="0.20" />
<circle cx="120.6" cy="553.0" r="1.8" fill="#fb7185" opacity="0.18" />
<circle cx="121.2" cy="618.6" r="1.7" fill="#fb7185" opacity="0.17" />
<circle cx="187.8" cy="63.2" r="2.1" fill="#fb7185" opacity="0.21" />
<circle cx="184.4" cy="127.6" r="2.3" fill="#f43f5e" opacity="0.23" />
<circle cx="183.0" cy="185.8" r="2.4" fill="#f43f5e" opacity="0.24" />
<circle cx="189.9" cy="249.0" r="2.5" fill="#f43f5e" opacity="0.25" />
<circle cx="181.0" cy="314.2" r="2.5" fill="#f43f5e" opacity="0.25" />
<circle cx="189.4" cy="370.2" r="2.6" fill="#f43f5e" opacity="0.26" />
<circle cx="182.6" cy="430.1" r="2.4" fill="#f43f5e" opacity="0.24" />
<circle cx="186.9" cy="492.9" r="2.3" fill="#f43f5e" opacity="0.23" />
<circle cx="189.4" cy="553.7" r="2.2" fill="#fb7185" opacity="0.22" />
<circle cx="184.2" cy="623.9" r="1.9" fill="#fb7185" opacity="0.19" />
<circle cx="244.1" cy="63.4" r="2.4" fill="#f43f5e" opacity="0.24" />
<circle cx="243.0" cy="128.3" r="2.6" fill="#f43f5e" opacity="0.26" />
<circle cx="248.4" cy="183.2" r="2.8" fill="#f43f5e" opacity="0.28" />
<circle cx="250.1" cy="249.4" r="2.9" fill="#f43f5e" opacity="0.29" />
<circle cx="253.0" cy="314.3" r="3.0" fill="#f43f5e" opacity="0.30" />
<circle cx="252.6" cy="371.4" r="2.9" fill="#f43f5e" opacity="0.29" />
<circle cx="243.3" cy="431.7" r="2.8" fill="#f43f5e" opacity="0.28" />
<circle cx="249.2" cy="498.4" r="2.7" fill="#f43f5e" opacity="0.27" />
<circle cx="246.9" cy="558.6" r="2.5" fill="#f43f5e" opacity="0.25" />
<circle cx="245.1" cy="617.6" r="2.2" fill="#f43f5e" opacity="0.22" />
<circle cx="313.4" cy="62.6" r="2.7" fill="#f43f5e" opacity="0.27" />
<circle cx="314.8" cy="119.4" r="3.0" fill="#f43f5e" opacity="0.30" />
<circle cx="314.0" cy="186.1" r="3.1" fill="#f43f5e" opacity="0.31" />
<circle cx="313.2" cy="252.1" r="3.3" fill="#f43f5e" opacity="0.33" />
<circle cx="312.8" cy="311.7" r="3.3" fill="#f43f5e" opacity="0.33" />
<circle cx="306.9" cy="374.4" r="3.2" fill="#f43f5e" opacity="0.32" />
<circle cx="305.7" cy="429.7" r="3.1" fill="#f43f5e" opacity="0.31" />
<circle cx="306.9" cy="492.9" r="3.0" fill="#f43f5e" opacity="0.30" />
<circle cx="307.9" cy="555.6" r="2.8" fill="#f43f5e" opacity="0.28" />
<circle cx="314.9" cy="617.7" r="2.5" fill="#f43f5e" opacity="0.25" />
<circle cx="368.0" cy="64.7" r="3.0" fill="#f43f5e" opacity="0.30" />
<circle cx="373.9" cy="124.3" r="3.3" fill="#f43f5e" opacity="0.33" />
<circle cx="369.8" cy="182.9" r="3.4" fill="#e11d48" opacity="0.34" />
<circle cx="375.9" cy="244.4" r="3.6" fill="#e11d48" opacity="0.36" />
<circle cx="376.9" cy="310.0" r="3.7" fill="#e11d48" opacity="0.37" />
<circle cx="376.5" cy="372.2" r="3.6" fill="#e11d48" opacity="0.36" />
<circle cx="374.5" cy="435.3" r="3.5" fill="#e11d48" opacity="0.35" />
<circle cx="369.9" cy="491.7" r="3.3" fill="#f43f5e" opacity="0.33" />
<circle cx="371.7" cy="560.3" r="3.0" fill="#f43f5e" opacity="0.30" />
<circle cx="374.2" cy="620.0" r="2.8" fill="#f43f5e" opacity="0.28" />
<circle cx="438.6" cy="60.4" r="3.2" fill="#f43f5e" opacity="0.32" />
<circle cx="430.3" cy="120.8" r="3.5" fill="#e11d48" opacity="0.35" />
<circle cx="433.3" cy="189.2" r="3.8" fill="#e11d48" opacity="0.38" />
<circle cx="433.4" cy="246.5" r="3.9" fill="#e11d48" opacity="0.39" />
<circle cx="430.8" cy="306.2" r="4.0" fill="#e11d48" opacity="0.40" />
<circle cx="431.9" cy="369.8" r="4.0" fill="#e11d48" opacity="0.40" />
<circle cx="430.0" cy="434.5" r="3.8" fill="#e11d48" opacity="0.38" />
<circle cx="432.3" cy="494.7" r="3.5" fill="#e11d48" opacity="0.35" />
<circle cx="430.9" cy="556.2" r="3.3" fill="#f43f5e" opacity="0.33" />
<circle cx="433.8" cy="618.1" r="3.0" fill="#f43f5e" opacity="0.30" />
<circle cx="498.2" cy="63.8" r="3.4" fill="#e11d48" opacity="0.34" />
<circle cx="492.9" cy="121.4" r="3.7" fill="#e11d48" opacity="0.37" />
<circle cx="493.4" cy="185.8" r="4.0" fill="#e11d48" opacity="0.40" />
<circle cx="499.8" cy="252.4" r="4.3" fill="#e11d48" opacity="0.43" />
<circle cx="500.6" cy="312.0" r="4.4" fill="#e11d48" opacity="0.44" />
<circle cx="499.0" cy="369.0" r="4.3" fill="#e11d48" opacity="0.43" />
<circle cx="499.4" cy="430.6" r="4.1" fill="#e11d48" opacity="0.41" />
<circle cx="494.1" cy="493.3" r="3.8" fill="#e11d48" opacity="0.38" />
<circle cx="499.8" cy="559.5" r="3.4" fill="#e11d48" opacity="0.34" />
<circle cx="500.1" cy="617.8" r="3.1" fill="#f43f5e" opacity="0.31" />
<circle cx="562.4" cy="65.1" r="3.5" fill="#e11d48" opacity="0.35" />
<circle cx="553.7" cy="123.6" r="3.8" fill="#e11d48" opacity="0.38" />
<circle cx="558.3" cy="181.9" r="4.2" fill="#e11d48" opacity="0.42" />
<circle cx="562.4" cy="249.9" r="4.6" fill="#e11d48" opacity="0.46" />
<circle cx="562.4" cy="313.5" r="4.8" fill="#e11d48" opacity="0.48" />
<circle cx="556.9" cy="367.6" r="4.6" fill="#e11d48" opacity="0.46" />
<circle cx="555.2" cy="431.4" r="4.3" fill="#e11d48" opacity="0.43" />
<circle cx="554.6" cy="493.9" r="3.9" fill="#e11d48" opacity="0.39" />
<circle cx="555.2" cy="560.7" r="3.5" fill="#e11d48" opacity="0.35" />
<circle cx="558.5" cy="621.9" r="3.2" fill="#f43f5e" opacity="0.32" />
<circle cx="618.7" cy="58.5" r="3.5" fill="#e11d48" opacity="0.35" />
<circle cx="621.8" cy="121.8" r="3.9" fill="#e11d48" opacity="0.39" />
<circle cx="618.0" cy="185.6" r="4.2" fill="#e11d48" opacity="0.42" />
<circle cx="620.5" cy="247.4" r="4.6" fill="#e11d48" opacity="0.46" />
<circle cx="625.0" cy="305.9" r="4.8" fill="#e11d48" opacity="0.48" />
<circle cx="624.2" cy="375.8" r="4.6" fill="#e11d48" opacity="0.46" />
<circle cx="621.5" cy="435.2" r="4.3" fill="#e11d48" opacity="0.43" />
<circle cx="619.3" cy="492.1" r="3.9" fill="#e11d48" opacity="0.39" />
<circle cx="623.2" cy="553.0" r="3.6" fill="#e11d48" opacity="0.36" />
<circle cx="622.4" cy="617.9" r="3.2" fill="#f43f5e" opacity="0.32" />
<circle cx="678.2" cy="59.6" r="3.4" fill="#e11d48" opacity="0.34" />
<circle cx="679.7" cy="125.9" r="3.8" fill="#e11d48" opacity="0.38" />
<circle cx="677.2" cy="181.9" r="4.1" fill="#e11d48" opacity="0.41" />
<circle cx="679.6" cy="249.1" r="4.4" fill="#e11d48" opacity="0.44" />
<circle cx="686.9" cy="309.2" r="4.5" fill="#e11d48" opacity="0.45" />
<circle cx="684.4" cy="376.0" r="4.4" fill="#e11d48" opacity="0.44" />
<circle cx="682.8" cy="434.6" r="4.1" fill="#e11d48" opacity="0.41" />
<circle cx="678.9" cy="491.4" r="3.9" fill="#e11d48" opacity="0.39" />
<circle cx="683.4" cy="561.7" r="3.5" fill="#e11d48" opacity="0.35" />
<circle cx="680.2" cy="624.0" r="3.1" fill="#f43f5e" opacity="0.31" />
<circle cx="741.9" cy="61.7" r="3.3" fill="#f43f5e" opacity="0.33" />
<circle cx="748.3" cy="119.9" r="3.6" fill="#e11d48" opacity="0.36" />
<circle cx="747.5" cy="182.0" r="3.8" fill="#e11d48" opacity="0.38" />
<circle cx="740.4" cy="243.9" r="4.1" fill="#e11d48" opacity="0.41" />
<circle cx="742.4" cy="311.7" r="4.2" fill="#e11d48" opacity="0.42" />
<circle cx="740.3" cy="376.8" r="4.1" fill="#e11d48" opacity="0.41" />
<circle cx="746.3" cy="432.3" r="3.9" fill="#e11d48" opacity="0.39" />
<circle cx="743.1" cy="491.6" r="3.7" fill="#e11d48" opacity="0.37" />
<circle cx="744.8" cy="562.4" r="3.3" fill="#f43f5e" opacity="0.33" />
<circle cx="739.2" cy="616.3" r="3.0" fill="#f43f5e" opacity="0.30" />
<circle cx="803.8" cy="63.4" r="3.1" fill="#f43f5e" opacity="0.31" />
<circle cx="806.3" cy="125.8" r="3.3" fill="#f43f5e" opacity="0.33" />
<circle cx="805.0" cy="183.1" r="3.6" fill="#e11d48" opacity="0.36" />
<circle cx="803.7" cy="251.1" r="3.7" fill="#e11d48" opacity="0.37" />
<circle cx="806.4" cy="307.9" r="3.8" fill="#e11d48" opacity="0.38" />
<circle cx="808.7" cy="369.2" r="3.7" fill="#e11d48" opacity="0.37" />
<circle cx="802.5" cy="437.6" r="3.6" fill="#e11d48" opacity="0.36" />
<circle cx="806.5" cy="499.6" r="3.4" fill="#f43f5e" opacity="0.34" />
<circle cx="805.4" cy="554.2" r="3.1" fill="#f43f5e" opacity="0.31" />
<circle cx="807.4" cy="622.6" r="2.8" fill="#f43f5e" opacity="0.28" />
<circle cx="866.2" cy="59.5" r="2.8" fill="#f43f5e" opacity="0.28" />
<circle cx="869.2" cy="125.1" r="3.1" fill="#f43f5e" opacity="0.31" />
<circle cx="864.5" cy="181.9" r="3.3" fill="#f43f5e" opacity="0.33" />
<circle cx="871.0" cy="248.6" r="3.4" fill="#f43f5e" opacity="0.34" />
<circle cx="865.6" cy="307.9" r="3.4" fill="#e11d48" opacity="0.34" />
<circle cx="864.4" cy="375.5" r="3.4" fill="#f43f5e" opacity="0.34" />
<circle cx="865.0" cy="438.3" r="3.3" fill="#f43f5e" opacity="0.33" />
<circle cx="869.8" cy="497.6" r="3.1" fill="#f43f5e" opacity="0.31" />
<circle cx="868.2" cy="554.6" r="2.9" fill="#f43f5e" opacity="0.29" />
<circle cx="863.5" cy="624.6" r="2.6" fill="#f43f5e" opacity="0.26" />
<circle cx="926.2" cy="66.1" r="2.6" fill="#f43f5e" opacity="0.26" />
<circle cx="931.8" cy="124.6" r="2.7" fill="#f43f5e" opacity="0.27" />
<circle cx="933.8" cy="182.6" r="2.9" fill="#f43f5e" opacity="0.29" />
<circle cx="930.8" cy="245.1" r="3.0" fill="#f43f5e" opacity="0.30" />
<circle cx="932.6" cy="313.1" r="3.0" fill="#f43f5e" opacity="0.30" />
<circle cx="934.8" cy="367.4" r="3.0" fill="#f43f5e" opacity="0.30" />
<circle cx="934.3" cy="436.1" r="2.9" fill="#f43f5e" opacity="0.29" />
<circle cx="934.3" cy="491.7" r="2.8" fill="#f43f5e" opacity="0.28" />
<circle cx="926.9" cy="561.8" r="2.6" fill="#f43f5e" opacity="0.26" />
<circle cx="925.3" cy="616.0" r="2.4" fill="#f43f5e" opacity="0.24" />
<circle cx="990.0" cy="60.9" r="2.3" fill="#f43f5e" opacity="0.23" />
<circle cx="991.9" cy="126.6" r="2.4" fill="#f43f5e" opacity="0.24" />
<circle cx="989.9" cy="181.5" r="2.6" fill="#f43f5e" opacity="0.26" />
<circle cx="993.0" cy="243.2" r="2.6" fill="#f43f5e" opacity="0.26" />
<circle cx="992.7" cy="307.4" r="2.7" fill="#f43f5e" opacity="0.27" />
<circle cx="994.8" cy="375.8" r="2.6" fill="#f43f5e" opacity="0.26" />
<circle cx="995.8" cy="431.0" r="2.6" fill="#f43f5e" opacity="0.26" />
<circle cx="992.0" cy="496.9" r="2.4" fill="#f43f5e" opacity="0.24" />
<circle cx="994.2" cy="553.2" r="2.3" fill="#f43f5e" opacity="0.23" />
<circle cx="996.4" cy="616.4" r="2.1" fill="#fb7185" opacity="0.21" />
<circle cx="1054.4" cy="62.7" r="1.9" fill="#fb7185" opacity="0.19" />
<circle cx="1058.2" cy="122.5" r="2.1" fill="#fb7185" opacity="0.21" />
<circle cx="1051.3" cy="188.6" r="2.2" fill="#f43f5e" opacity="0.22" />
<circle cx="1057.8" cy="245.5" r="2.3" fill="#f43f5e" opacity="0.23" />
<circle cx="1049.7" cy="307.9" r="2.3" fill="#f43f5e" opacity="0.23" />
<circle cx="1052.9" cy="368.2" r="2.3" fill="#f43f5e" opacity="0.23" />
<circle cx="1057.9" cy="432.0" r="2.2" fill="#f43f5e" opacity="0.22" />
<circle cx="1049.7" cy="500.2" r="2.1" fill="#fb7185" opacity="0.21" />
<circle cx="1053.9" cy="553.5" r="2.0" fill="#fb7185" opacity="0.20" />
<circle cx="1052.4" cy="619.7" r="1.8" fill="#fb7185" opacity="0.18" />
<circle cx="1111.6" cy="57.7" r="1.6" fill="#fb7185" opacity="0.16" />
<circle cx="1120.0" cy="119.0" r="1.7" fill="#fb7185" opacity="0.17" />
<circle cx="1118.2" cy="189.9" r="1.9" fill="#fb7185" opacity="0.19" />
<circle cx="1114.3" cy="248.3" r="1.9" fill="#fb7185" opacity="0.19" />
<circle cx="1118.6" cy="313.8" r="1.9" fill="#fb7185" opacity="0.19" />
<circle cx="1118.3" cy="374.3" r="1.9" fill="#fb7185" opacity="0.19" />
<circle cx="1120.3" cy="429.9" r="1.9" fill="#fb7185" opacity="0.19" />
<circle cx="1119.4" cy="497.8" r="1.7" fill="#fb7185" opacity="0.17" />
<circle cx="1113.0" cy="562.1" r="1.6" fill="#fb7185" opacity="0.16" />
<circle cx="1116.0" cy="616.1" r="1.5" fill="#fb7185" opacity="0.15" />
<circle cx="1177.0" cy="59.2" r="1.3" fill="#fb7185" opacity="0.13" />
<circle cx="1181.1" cy="124.9" r="1.4" fill="#fb7185" opacity="0.14" />
<circle cx="1173.9" cy="189.5" r="1.5" fill="#fb7185" opacity="0.15" />
<circle cx="1173.6" cy="247.0" r="1.6" fill="#fb7185" opacity="0.16" />
<circle cx="1174.3" cy="307.8" r="1.6" fill="#fb7185" opacity="0.16" />
<circle cx="1179.4" cy="369.4" r="1.6" fill="#fb7185" opacity="0.16" />
<circle cx="1177.2" cy="429.6" r="1.5" fill="#fb7185" opacity="0.15" />
<circle cx="1182.9" cy="498.8" r="1.4" fill="#fb7185" opacity="0.14" />
<circle cx="1182.7" cy="553.4" r="1.3" fill="#fb7185" opacity="0.13" />
<circle cx="1182.2" cy="616.1" r="1.1" fill="#fb7185" opacity="0.11" />


  <!-- Vignette -->
  <rect width="1200" height="630" fill="url(#bg)" opacity="0.3" />

  <!-- Category badge -->
  <rect x="48" y="40" width="124" height="28" rx="14" fill="#e11d48" opacity="0.9" />
  <text x="60" y="59" font-family="system-ui, -apple-system, sans-serif" font-size="12" font-weight="700" letter-spacing="1.5" text-transform="uppercase" fill="white">SPIKE.LAND</text>

  <!-- Title -->
  <text x="48" y="550" font-family="system-ui, -apple-system, sans-serif" font-size="42" font-weight="800" fill="white" filter="url(#textShadow)" letter-spacing="-1">
    <tspan x="48" dy="0">The Physics Table: Six New Voices for</tspan>
    <tspan x="48" dy="50">the Vehicle</tspan>
  </text>

  <!-- spike.land watermark -->
  <text x="1152" y="606" font-family="system-ui, -apple-system, sans-serif" font-size="14" font-weight="600" fill="#fb7185" opacity="0.6" text-anchor="end">spike.land</text>
</svg>