<svg xmlns="http://www.w3.org/2000/svg" viewBox="0 0 1200 630" width="1200" height="630">
  <defs>
    <linearGradient id="bg" x1="0%" y1="0%" x2="100%" y2="100%">
      <stop offset="0%" stop-color="#042f2e" />
      <stop offset="100%" stop-color="#134e4a" />
    </linearGradient>
    <filter id="glow">
      <feGaussianBlur stdDeviation="30" result="blur" />
      <feMerge><feMergeNode in="blur" /><feMergeNode in="SourceGraphic" /></feMerge>
    </filter>
    <filter id="textShadow">
      <feDropShadow dx="0" dy="2" stdDeviation="6" flood-color="#042f2e" flood-opacity="0.8" />
    </filter>
  </defs>

  <!-- Background -->
  <rect width="1200" height="630" fill="url(#bg)" />

  <!-- Generative shapes -->
  <circle cx="48.2" cy="46.2" r="1.4" fill="#2dd4bf" opacity="0.14" />
<circle cx="53.7" cy="101.2" r="1.5" fill="#2dd4bf" opacity="0.15" />
<circle cx="52.9" cy="146.1" r="1.6" fill="#2dd4bf" opacity="0.16" />
<circle cx="50.0" cy="194.2" r="1.7" fill="#2dd4bf" opacity="0.17" />
<circle cx="50.8" cy="242.8" r="1.7" fill="#2dd4bf" opacity="0.17" />
<circle cx="52.7" cy="294.7" r="1.8" fill="#2dd4bf" opacity="0.18" />
<circle cx="52.2" cy="346.3" r="1.8" fill="#2dd4bf" opacity="0.18" />
<circle cx="46.0" cy="392.1" r="1.7" fill="#2dd4bf" opacity="0.17" />
<circle cx="48.3" cy="442.7" r="1.7" fill="#2dd4bf" opacity="0.17" />
<circle cx="46.7" cy="489.0" r="1.6" fill="#2dd4bf" opacity="0.16" />
<circle cx="53.2" cy="541.6" r="1.5" fill="#2dd4bf" opacity="0.15" />
<circle cx="52.5" cy="585.1" r="1.4" fill="#2dd4bf" opacity="0.14" />
<circle cx="99.9" cy="46.9" r="1.7" fill="#2dd4bf" opacity="0.17" />
<circle cx="97.4" cy="102.6" r="1.8" fill="#2dd4bf" opacity="0.18" />
<circle cx="99.3" cy="145.6" r="1.9" fill="#2dd4bf" opacity="0.19" />
<circle cx="102.2" cy="200.4" r="2.0" fill="#2dd4bf" opacity="0.20" />
<circle cx="97.7" cy="247.9" r="2.0" fill="#2dd4bf" opacity="0.20" />
<circle cx="101.2" cy="293.8" r="2.1" fill="#2dd4bf" opacity="0.21" />
<circle cx="94.2" cy="346.5" r="2.0" fill="#2dd4bf" opacity="0.20" />
<circle cx="97.5" cy="387.6" r="2.0" fill="#2dd4bf" opacity="0.20" />
<circle cx="96.4" cy="437.7" r="1.9" fill="#2dd4bf" opacity="0.19" />
<circle cx="97.0" cy="490.7" r="1.9" fill="#2dd4bf" opacity="0.19" />
<circle cx="99.2" cy="540.2" r="1.8" fill="#2dd4bf" opacity="0.18" />
<circle cx="100.9" cy="588.4" r="1.6" fill="#2dd4bf" opacity="0.16" />
<circle cx="148.7" cy="48.4" r="1.9" fill="#2dd4bf" opacity="0.19" />
<circle cx="148.7" cy="103.0" r="2.1" fill="#2dd4bf" opacity="0.21" />
<circle cx="147.0" cy="146.5" r="2.1" fill="#2dd4bf" opacity="0.21" />
<circle cx="151.2" cy="199.9" r="2.3" fill="#14b8a6" opacity="0.23" />
<circle cx="146.2" cy="244.8" r="2.3" fill="#14b8a6" opacity="0.23" />
<circle cx="144.5" cy="296.1" r="2.3" fill="#14b8a6" opacity="0.23" />
<circle cx="150.7" cy="347.6" r="2.3" fill="#14b8a6" opacity="0.23" />
<circle cx="145.8" cy="389.0" r="2.3" fill="#14b8a6" opacity="0.23" />
<circle cx="148.0" cy="445.1" r="2.2" fill="#14b8a6" opacity="0.22" />
<circle cx="143.6" cy="493.9" r="2.1" fill="#2dd4bf" opacity="0.21" />
<circle cx="150.9" cy="534.2" r="2.0" fill="#2dd4bf" opacity="0.20" />
<circle cx="149.8" cy="585.6" r="1.9" fill="#2dd4bf" opacity="0.19" />
<circle cx="195.1" cy="46.3" r="2.1" fill="#2dd4bf" opacity="0.21" />
<circle cx="197.2" cy="95.2" r="2.3" fill="#14b8a6" opacity="0.23" />
<circle cx="197.0" cy="146.8" r="2.4" fill="#14b8a6" opacity="0.24" />
<circle cx="191.2" cy="199.9" r="2.5" fill="#14b8a6" opacity="0.25" />
<circle cx="199.6" cy="249.8" r="2.6" fill="#14b8a6" opacity="0.26" />
<circle cx="196.8" cy="291.0" r="2.6" fill="#14b8a6" opacity="0.26" />
<circle cx="196.4" cy="346.3" r="2.6" fill="#14b8a6" opacity="0.26" />
<circle cx="191.9" cy="390.4" r="2.6" fill="#14b8a6" opacity="0.26" />
<circle cx="192.8" cy="436.6" r="2.5" fill="#14b8a6" opacity="0.25" />
<circle cx="199.5" cy="491.3" r="2.4" fill="#14b8a6" opacity="0.24" />
<circle cx="199.0" cy="535.5" r="2.3" fill="#14b8a6" opacity="0.23" />
<circle cx="195.6" cy="591.0" r="2.1" fill="#2dd4bf" opacity="0.21" />
<circle cx="247.2" cy="45.4" r="2.4" fill="#14b8a6" opacity="0.24" />
<circle cx="247.8" cy="95.2" r="2.5" fill="#14b8a6" opacity="0.25" />
<circle cx="248.2" cy="142.9" r="2.7" fill="#14b8a6" opacity="0.27" />
<circle cx="241.6" cy="192.0" r="2.8" fill="#14b8a6" opacity="0.28" />
<circle cx="245.7" cy="242.9" r="2.9" fill="#14b8a6" opacity="0.29" />
<circle cx="246.7" cy="291.7" r="2.9" fill="#14b8a6" opacity="0.29" />
<circle cx="248.1" cy="347.7" r="2.9" fill="#14b8a6" opacity="0.29" />
<circle cx="244.5" cy="391.4" r="2.9" fill="#14b8a6" opacity="0.29" />
<circle cx="247.3" cy="442.3" r="2.8" fill="#14b8a6" opacity="0.28" />
<circle cx="247.6" cy="490.8" r="2.7" fill="#14b8a6" opacity="0.27" />
<circle cx="247.6" cy="534.7" r="2.5" fill="#14b8a6" opacity="0.25" />
<circle cx="241.1" cy="586.7" r="2.3" fill="#14b8a6" opacity="0.23" />
<circle cx="289.0" cy="45.3" r="2.6" fill="#14b8a6" opacity="0.26" />
<circle cx="297.2" cy="96.7" r="2.8" fill="#14b8a6" opacity="0.28" />
<circle cx="289.3" cy="142.2" r="2.9" fill="#14b8a6" opacity="0.29" />
<circle cx="293.0" cy="198.7" r="3.1" fill="#14b8a6" opacity="0.31" />
<circle cx="292.8" cy="246.0" r="3.1" fill="#14b8a6" opacity="0.31" />
<circle cx="292.7" cy="293.1" r="3.2" fill="#14b8a6" opacity="0.32" />
<circle cx="296.2" cy="340.5" r="3.2" fill="#14b8a6" opacity="0.32" />
<circle cx="294.5" cy="387.3" r="3.1" fill="#14b8a6" opacity="0.31" />
<circle cx="290.6" cy="443.1" r="3.0" fill="#14b8a6" opacity="0.30" />
<circle cx="295.2" cy="487.4" r="2.9" fill="#14b8a6" opacity="0.29" />
<circle cx="293.6" cy="540.6" r="2.8" fill="#14b8a6" opacity="0.28" />
<circle cx="289.0" cy="586.4" r="2.6" fill="#14b8a6" opacity="0.26" />
<circle cx="344.7" cy="46.4" r="2.8" fill="#14b8a6" opacity="0.28" />
<circle cx="346.6" cy="97.7" r="3.0" fill="#14b8a6" opacity="0.30" />
<circle cx="338.2" cy="145.9" r="3.2" fill="#14b8a6" opacity="0.32" />
<circle cx="339.6" cy="191.8" r="3.3" fill="#14b8a6" opacity="0.33" />
<circle cx="343.6" cy="243.1" r="3.4" fill="#0d9488" opacity="0.34" />
<circle cx="344.6" cy="292.3" r="3.5" fill="#0d9488" opacity="0.35" />
<circle cx="341.7" cy="344.4" r="3.5" fill="#0d9488" opacity="0.35" />
<circle cx="346.5" cy="390.9" r="3.4" fill="#0d9488" opacity="0.34" />
<circle cx="345.9" cy="445.0" r="3.3" fill="#14b8a6" opacity="0.33" />
<circle cx="343.5" cy="487.2" r="3.2" fill="#14b8a6" opacity="0.32" />
<circle cx="343.3" cy="541.3" r="3.0" fill="#14b8a6" opacity="0.30" />
<circle cx="341.4" cy="591.0" r="2.8" fill="#14b8a6" opacity="0.28" />
<circle cx="388.9" cy="47.8" r="3.0" fill="#14b8a6" opacity="0.30" />
<circle cx="391.0" cy="97.3" r="3.2" fill="#14b8a6" opacity="0.32" />
<circle cx="396.1" cy="143.9" r="3.4" fill="#0d9488" opacity="0.34" />
<circle cx="387.5" cy="191.2" r="3.5" fill="#0d9488" opacity="0.35" />
<circle cx="394.1" cy="242.2" r="3.7" fill="#0d9488" opacity="0.37" />
<circle cx="391.3" cy="289.1" r="3.8" fill="#0d9488" opacity="0.38" />
<circle cx="390.5" cy="338.4" r="3.8" fill="#0d9488" opacity="0.38" />
<circle cx="395.2" cy="395.6" r="3.7" fill="#0d9488" opacity="0.37" />
<circle cx="388.7" cy="443.6" r="3.5" fill="#0d9488" opacity="0.35" />
<circle cx="394.9" cy="492.2" r="3.4" fill="#0d9488" opacity="0.34" />
<circle cx="394.5" cy="535.6" r="3.2" fill="#14b8a6" opacity="0.32" />
<circle cx="395.6" cy="585.5" r="3.0" fill="#14b8a6" opacity="0.30" />
<circle cx="444.1" cy="46.2" r="3.2" fill="#14b8a6" opacity="0.32" />
<circle cx="444.2" cy="94.6" r="3.4" fill="#0d9488" opacity="0.34" />
<circle cx="439.7" cy="150.0" r="3.6" fill="#0d9488" opacity="0.36" />
<circle cx="438.9" cy="195.4" r="3.8" fill="#0d9488" opacity="0.38" />
<circle cx="439.2" cy="247.3" r="4.0" fill="#0d9488" opacity="0.40" />
<circle cx="445.0" cy="298.4" r="4.1" fill="#0d9488" opacity="0.41" />
<circle cx="442.8" cy="339.8" r="4.1" fill="#0d9488" opacity="0.41" />
<circle cx="439.3" cy="389.1" r="4.0" fill="#0d9488" opacity="0.40" />
<circle cx="441.4" cy="440.9" r="3.8" fill="#0d9488" opacity="0.38" />
<circle cx="445.5" cy="486.0" r="3.6" fill="#0d9488" opacity="0.36" />
<circle cx="445.4" cy="536.9" r="3.4" fill="#0d9488" opacity="0.34" />
<circle cx="436.6" cy="586.6" r="3.1" fill="#14b8a6" opacity="0.31" />
<circle cx="493.3" cy="45.7" r="3.3" fill="#14b8a6" opacity="0.33" />
<circle cx="490.3" cy="98.1" r="3.6" fill="#0d9488" opacity="0.36" />
<circle cx="487.7" cy="149.4" r="3.8" fill="#0d9488" opacity="0.38" />
<circle cx="493.9" cy="193.0" r="4.0" fill="#0d9488" opacity="0.40" />
<circle cx="494.9" cy="242.6" r="4.2" fill="#0d9488" opacity="0.42" />
<circle cx="491.0" cy="294.2" r="4.3" fill="#0d9488" opacity="0.43" />
<circle cx="489.8" cy="345.5" r="4.3" fill="#0d9488" opacity="0.43" />
<circle cx="491.1" cy="389.3" r="4.2" fill="#0d9488" opacity="0.42" />
<circle cx="493.6" cy="442.9" r="4.0" fill="#0d9488" opacity="0.40" />
<circle cx="493.7" cy="491.4" r="3.8" fill="#0d9488" opacity="0.38" />
<circle cx="489.5" cy="537.2" r="3.5" fill="#0d9488" opacity="0.35" />
<circle cx="485.2" cy="592.0" r="3.2" fill="#14b8a6" opacity="0.32" />
<circle cx="539.4" cy="49.3" r="3.4" fill="#14b8a6" opacity="0.34" />
<circle cx="541.7" cy="97.4" r="3.7" fill="#0d9488" opacity="0.37" />
<circle cx="535.3" cy="146.6" r="3.9" fill="#0d9488" opacity="0.39" />
<circle cx="536.8" cy="196.3" r="4.2" fill="#0d9488" opacity="0.42" />
<circle cx="535.8" cy="247.5" r="4.5" fill="#0d9488" opacity="0.45" />
<circle cx="534.9" cy="293.7" r="4.6" fill="#0d9488" opacity="0.46" />
<circle cx="535.8" cy="343.5" r="4.6" fill="#0d9488" opacity="0.46" />
<circle cx="542.1" cy="390.9" r="4.4" fill="#0d9488" opacity="0.44" />
<circle cx="538.9" cy="438.3" r="4.2" fill="#0d9488" opacity="0.42" />
<circle cx="536.2" cy="488.8" r="3.9" fill="#0d9488" opacity="0.39" />
<circle cx="537.0" cy="543.0" r="3.6" fill="#0d9488" opacity="0.36" />
<circle cx="542.7" cy="590.7" r="3.3" fill="#14b8a6" opacity="0.33" />
<circle cx="590.8" cy="51.7" r="3.4" fill="#0d9488" opacity="0.34" />
<circle cx="592.9" cy="94.7" r="3.7" fill="#0d9488" opacity="0.37" />
<circle cx="583.5" cy="145.1" r="4.0" fill="#0d9488" opacity="0.40" />
<circle cx="589.8" cy="194.6" r="4.3" fill="#0d9488" opacity="0.43" />
<circle cx="589.9" cy="243.2" r="4.6" fill="#0d9488" opacity="0.46" />
<circle cx="584.7" cy="293.9" r="4.8" fill="#0d9488" opacity="0.48" />
<circle cx="587.1" cy="346.7" r="4.8" fill="#0d9488" opacity="0.48" />
<circle cx="585.7" cy="393.0" r="4.5" fill="#0d9488" opacity="0.45" />
<circle cx="588.1" cy="438.7" r="4.3" fill="#0d9488" opacity="0.43" />
<circle cx="589.0" cy="486.2" r="4.0" fill="#0d9488" opacity="0.40" />
<circle cx="592.1" cy="542.4" r="3.7" fill="#0d9488" opacity="0.37" />
<circle cx="592.0" cy="585.2" r="3.4" fill="#0d9488" opacity="0.34" />
<circle cx="633.5" cy="53.0" r="3.4" fill="#0d9488" opacity="0.34" />
<circle cx="641.0" cy="99.2" r="3.7" fill="#0d9488" opacity="0.37" />
<circle cx="636.0" cy="148.1" r="4.0" fill="#0d9488" opacity="0.40" />
<circle cx="632.8" cy="200.3" r="4.3" fill="#0d9488" opacity="0.43" />
<circle cx="639.1" cy="249.8" r="4.6" fill="#0d9488" opacity="0.46" />
<circle cx="640.4" cy="298.7" r="4.7" fill="#0d9488" opacity="0.47" />
<circle cx="636.8" cy="346.9" r="4.7" fill="#0d9488" opacity="0.47" />
<circle cx="634.9" cy="388.8" r="4.5" fill="#0d9488" opacity="0.45" />
<circle cx="638.7" cy="439.8" r="4.2" fill="#0d9488" opacity="0.42" />
<circle cx="635.5" cy="490.1" r="3.9" fill="#0d9488" opacity="0.39" />
<circle cx="636.5" cy="543.1" r="3.6" fill="#0d9488" opacity="0.36" />
<circle cx="634.4" cy="583.7" r="3.4" fill="#0d9488" opacity="0.34" />
<circle cx="688.9" cy="53.9" r="3.4" fill="#14b8a6" opacity="0.34" />
<circle cx="682.0" cy="101.1" r="3.6" fill="#0d9488" opacity="0.36" />
<circle cx="681.1" cy="150.4" r="3.9" fill="#0d9488" opacity="0.39" />
<circle cx="689.2" cy="195.1" r="4.1" fill="#0d9488" opacity="0.41" />
<circle cx="685.7" cy="245.6" r="4.3" fill="#0d9488" opacity="0.43" />
<circle cx="688.8" cy="297.6" r="4.5" fill="#0d9488" opacity="0.45" />
<circle cx="686.2" cy="340.7" r="4.5" fill="#0d9488" opacity="0.45" />
<circle cx="687.5" cy="395.4" r="4.3" fill="#0d9488" opacity="0.43" />
<circle cx="690.2" cy="444.5" r="4.1" fill="#0d9488" opacity="0.41" />
<circle cx="690.1" cy="487.6" r="3.9" fill="#0d9488" opacity="0.39" />
<circle cx="689.7" cy="542.3" r="3.6" fill="#0d9488" opacity="0.36" />
<circle cx="683.3" cy="584.7" r="3.3" fill="#14b8a6" opacity="0.33" />
<circle cx="738.0" cy="51.8" r="3.2" fill="#14b8a6" opacity="0.32" />
<circle cx="733.8" cy="98.2" r="3.5" fill="#0d9488" opacity="0.35" />
<circle cx="730.4" cy="151.8" r="3.8" fill="#0d9488" opacity="0.38" />
<circle cx="737.9" cy="198.2" r="3.9" fill="#0d9488" opacity="0.39" />
<circle cx="736.1" cy="247.3" r="4.1" fill="#0d9488" opacity="0.41" />
<circle cx="735.3" cy="295.2" r="4.2" fill="#0d9488" opacity="0.42" />
<circle cx="732.1" cy="346.6" r="4.2" fill="#0d9488" opacity="0.42" />
<circle cx="736.7" cy="396.3" r="4.1" fill="#0d9488" opacity="0.41" />
<circle cx="736.0" cy="436.2" r="3.9" fill="#0d9488" opacity="0.39" />
<circle cx="739.0" cy="490.4" r="3.7" fill="#0d9488" opacity="0.37" />
<circle cx="735.2" cy="536.9" r="3.5" fill="#0d9488" opacity="0.35" />
<circle cx="733.8" cy="592.4" r="3.2" fill="#14b8a6" opacity="0.32" />
<circle cx="782.6" cy="48.8" r="3.1" fill="#14b8a6" opacity="0.31" />
<circle cx="784.9" cy="93.1" r="3.3" fill="#14b8a6" opacity="0.33" />
<circle cx="784.3" cy="151.3" r="3.5" fill="#0d9488" opacity="0.35" />
<circle cx="782.0" cy="195.7" r="3.7" fill="#0d9488" opacity="0.37" />
<circle cx="779.6" cy="240.9" r="3.9" fill="#0d9488" opacity="0.39" />
<circle cx="781.6" cy="292.6" r="3.9" fill="#0d9488" opacity="0.39" />
<circle cx="780.6" cy="343.1" r="3.9" fill="#0d9488" opacity="0.39" />
<circle cx="788.5" cy="393.4" r="3.8" fill="#0d9488" opacity="0.38" />
<circle cx="781.6" cy="444.3" r="3.7" fill="#0d9488" opacity="0.37" />
<circle cx="786.3" cy="489.6" r="3.5" fill="#0d9488" opacity="0.35" />
<circle cx="782.8" cy="536.0" r="3.3" fill="#14b8a6" opacity="0.33" />
<circle cx="788.3" cy="583.5" r="3.1" fill="#14b8a6" opacity="0.31" />
<circle cx="831.3" cy="50.5" r="2.9" fill="#14b8a6" opacity="0.29" />
<circle cx="830.1" cy="101.7" r="3.1" fill="#14b8a6" opacity="0.31" />
<circle cx="832.8" cy="143.3" r="3.3" fill="#14b8a6" opacity="0.33" />
<circle cx="833.0" cy="200.4" r="3.5" fill="#0d9488" opacity="0.35" />
<circle cx="834.2" cy="244.7" r="3.6" fill="#0d9488" opacity="0.36" />
<circle cx="829.9" cy="289.2" r="3.6" fill="#0d9488" opacity="0.36" />
<circle cx="837.2" cy="338.3" r="3.6" fill="#0d9488" opacity="0.36" />
<circle cx="834.8" cy="391.8" r="3.5" fill="#0d9488" opacity="0.35" />
<circle cx="828.8" cy="440.3" r="3.5" fill="#0d9488" opacity="0.35" />
<circle cx="837.0" cy="491.0" r="3.3" fill="#14b8a6" opacity="0.33" />
<circle cx="837.3" cy="543.6" r="3.1" fill="#14b8a6" opacity="0.31" />
<circle cx="829.2" cy="584.6" r="2.9" fill="#14b8a6" opacity="0.29" />
<circle cx="883.4" cy="45.8" r="2.7" fill="#14b8a6" opacity="0.27" />
<circle cx="881.6" cy="102.7" r="2.9" fill="#14b8a6" opacity="0.29" />
<circle cx="882.8" cy="144.1" r="3.0" fill="#14b8a6" opacity="0.30" />
<circle cx="882.1" cy="194.1" r="3.2" fill="#14b8a6" opacity="0.32" />
<circle cx="878.5" cy="243.1" r="3.3" fill="#14b8a6" opacity="0.33" />
<circle cx="882.7" cy="297.1" r="3.3" fill="#14b8a6" opacity="0.33" />
<circle cx="882.7" cy="340.6" r="3.3" fill="#14b8a6" opacity="0.33" />
<circle cx="883.2" cy="395.3" r="3.3" fill="#14b8a6" opacity="0.33" />
<circle cx="886.6" cy="445.6" r="3.1" fill="#14b8a6" opacity="0.31" />
<circle cx="886.0" cy="493.4" r="3.0" fill="#14b8a6" opacity="0.30" />
<circle cx="883.5" cy="543.9" r="2.8" fill="#14b8a6" opacity="0.28" />
<circle cx="886.7" cy="591.9" r="2.6" fill="#14b8a6" opacity="0.26" />
<circle cx="927.5" cy="48.5" r="2.5" fill="#14b8a6" opacity="0.25" />
<circle cx="927.1" cy="99.3" r="2.7" fill="#14b8a6" opacity="0.27" />
<circle cx="932.3" cy="150.4" r="2.8" fill="#14b8a6" opacity="0.28" />
<circle cx="927.4" cy="200.1" r="3.0" fill="#14b8a6" opacity="0.30" />
<circle cx="929.4" cy="241.7" r="3.0" fill="#14b8a6" opacity="0.30" />
<circle cx="929.8" cy="295.1" r="3.0" fill="#14b8a6" opacity="0.30" />
<circle cx="935.8" cy="340.7" r="3.0" fill="#14b8a6" opacity="0.30" />
<circle cx="933.1" cy="392.5" r="3.0" fill="#14b8a6" opacity="0.30" />
<circle cx="927.5" cy="440.3" r="2.9" fill="#14b8a6" opacity="0.29" />
<circle cx="933.3" cy="486.6" r="2.8" fill="#14b8a6" opacity="0.28" />
<circle cx="927.6" cy="536.0" r="2.7" fill="#14b8a6" opacity="0.27" />
<circle cx="933.9" cy="591.7" r="2.4" fill="#14b8a6" opacity="0.24" />
<circle cx="977.8" cy="50.2" r="2.3" fill="#14b8a6" opacity="0.23" />
<circle cx="983.5" cy="101.0" r="2.4" fill="#14b8a6" opacity="0.24" />
<circle cx="980.0" cy="148.9" r="2.6" fill="#14b8a6" opacity="0.26" />
<circle cx="976.9" cy="197.7" r="2.7" fill="#14b8a6" opacity="0.27" />
<circle cx="977.2" cy="243.4" r="2.7" fill="#14b8a6" opacity="0.27" />
<circle cx="980.9" cy="295.1" r="2.7" fill="#14b8a6" opacity="0.27" />
<circle cx="981.8" cy="344.7" r="2.7" fill="#14b8a6" opacity="0.27" />
<circle cx="977.5" cy="395.2" r="2.7" fill="#14b8a6" opacity="0.27" />
<circle cx="981.0" cy="443.4" r="2.6" fill="#14b8a6" opacity="0.26" />
<circle cx="975.5" cy="491.1" r="2.6" fill="#14b8a6" opacity="0.26" />
<circle cx="984.4" cy="541.9" r="2.4" fill="#14b8a6" opacity="0.24" />
<circle cx="977.4" cy="591.6" r="2.2" fill="#14b8a6" opacity="0.22" />
<circle cx="1025.2" cy="53.5" r="2.1" fill="#2dd4bf" opacity="0.21" />
<circle cx="1027.7" cy="97.4" r="2.2" fill="#2dd4bf" opacity="0.22" />
<circle cx="1031.7" cy="146.9" r="2.3" fill="#14b8a6" opacity="0.23" />
<circle cx="1028.3" cy="197.3" r="2.4" fill="#14b8a6" opacity="0.24" />
<circle cx="1025.4" cy="246.6" r="2.5" fill="#14b8a6" opacity="0.25" />
<circle cx="1024.5" cy="289.3" r="2.5" fill="#14b8a6" opacity="0.25" />
<circle cx="1027.9" cy="338.8" r="2.5" fill="#14b8a6" opacity="0.25" />
<circle cx="1031.4" cy="387.6" r="2.4" fill="#14b8a6" opacity="0.24" />
<circle cx="1032.9" cy="444.0" r="2.3" fill="#14b8a6" opacity="0.23" />
<circle cx="1033.6" cy="489.7" r="2.2" fill="#14b8a6" opacity="0.22" />
<circle cx="1030.9" cy="534.0" r="2.1" fill="#2dd4bf" opacity="0.21" />
<circle cx="1024.8" cy="583.7" r="2.0" fill="#2dd4bf" opacity="0.20" />
<circle cx="1076.1" cy="47.7" r="1.8" fill="#2dd4bf" opacity="0.18" />
<circle cx="1082.4" cy="102.8" r="1.9" fill="#2dd4bf" opacity="0.19" />
<circle cx="1082.6" cy="144.1" r="2.0" fill="#2dd4bf" opacity="0.20" />
<circle cx="1075.1" cy="197.4" r="2.1" fill="#2dd4bf" opacity="0.21" />
<circle cx="1077.9" cy="243.5" r="2.1" fill="#2dd4bf" opacity="0.21" />
<circle cx="1073.5" cy="289.0" r="2.2" fill="#14b8a6" opacity="0.22" />
<circle cx="1073.6" cy="345.0" r="2.2" fill="#2dd4bf" opacity="0.22" />
<circle cx="1076.9" cy="396.3" r="2.1" fill="#2dd4bf" opacity="0.21" />
<circle cx="1080.7" cy="444.2" r="2.1" fill="#2dd4bf" opacity="0.21" />
<circle cx="1077.2" cy="489.3" r="2.0" fill="#2dd4bf" opacity="0.20" />
<circle cx="1077.0" cy="535.0" r="1.9" fill="#2dd4bf" opacity="0.19" />
<circle cx="1077.5" cy="588.9" r="1.8" fill="#2dd4bf" opacity="0.18" />
<circle cx="1126.2" cy="44.8" r="1.5" fill="#2dd4bf" opacity="0.15" />
<circle cx="1129.6" cy="102.4" r="1.6" fill="#2dd4bf" opacity="0.16" />
<circle cx="1126.1" cy="146.3" r="1.7" fill="#2dd4bf" opacity="0.17" />
<circle cx="1128.7" cy="192.4" r="1.8" fill="#2dd4bf" opacity="0.18" />
<circle cx="1122.2" cy="240.5" r="1.9" fill="#2dd4bf" opacity="0.19" />
<circle cx="1126.4" cy="294.1" r="1.9" fill="#2dd4bf" opacity="0.19" />
<circle cx="1129.0" cy="338.2" r="1.9" fill="#2dd4bf" opacity="0.19" />
<circle cx="1123.6" cy="392.6" r="1.9" fill="#2dd4bf" opacity="0.19" />
<circle cx="1125.5" cy="442.4" r="1.8" fill="#2dd4bf" opacity="0.18" />
<circle cx="1124.6" cy="494.5" r="1.7" fill="#2dd4bf" opacity="0.17" />
<circle cx="1130.5" cy="538.5" r="1.6" fill="#2dd4bf" opacity="0.16" />
<circle cx="1131.2" cy="591.9" r="1.5" fill="#2dd4bf" opacity="0.15" />
<circle cx="1171.4" cy="47.5" r="1.3" fill="#2dd4bf" opacity="0.13" />
<circle cx="1179.1" cy="99.7" r="1.4" fill="#2dd4bf" opacity="0.14" />
<circle cx="1178.7" cy="149.5" r="1.4" fill="#2dd4bf" opacity="0.14" />
<circle cx="1176.5" cy="191.7" r="1.5" fill="#2dd4bf" opacity="0.15" />
<circle cx="1178.3" cy="249.5" r="1.6" fill="#2dd4bf" opacity="0.16" />
<circle cx="1175.2" cy="294.2" r="1.6" fill="#2dd4bf" opacity="0.16" />
<circle cx="1178.2" cy="343.9" r="1.6" fill="#2dd4bf" opacity="0.16" />
<circle cx="1175.9" cy="394.8" r="1.6" fill="#2dd4bf" opacity="0.16" />
<circle cx="1180.2" cy="439.2" r="1.5" fill="#2dd4bf" opacity="0.15" />
<circle cx="1179.3" cy="492.7" r="1.4" fill="#2dd4bf" opacity="0.14" />
<circle cx="1180.9" cy="541.0" r="1.3" fill="#2dd4bf" opacity="0.13" />
<circle cx="1180.9" cy="588.7" r="1.2" fill="#2dd4bf" opacity="0.12" />


  <!-- Vignette -->
  <rect width="1200" height="630" fill="url(#bg)" opacity="0.3" />

  <!-- Category badge -->
  <rect x="48" y="40" width="174" height="28" rx="14" fill="#0d9488" opacity="0.9" />
  <text x="60" y="59" font-family="system-ui, -apple-system, sans-serif" font-size="12" font-weight="700" letter-spacing="1.5" text-transform="uppercase" fill="white">SCIENCE &amp; ARENA</text>

  <!-- Title -->
  <text x="48" y="550" font-family="system-ui, -apple-system, sans-serif" font-size="42" font-weight="800" fill="white" filter="url(#textShadow)" letter-spacing="-1">
    <tspan x="48" dy="0">The Mass-Dependent Speed of Light: A</tspan>
    <tspan x="48" dy="50">Math Arena Session</tspan>
  </text>

  <!-- spike.land watermark -->
  <text x="1152" y="606" font-family="system-ui, -apple-system, sans-serif" font-size="14" font-weight="600" fill="#2dd4bf" opacity="0.6" text-anchor="end">spike.land</text>
</svg>