<svg xmlns="http://www.w3.org/2000/svg" viewBox="0 0 1200 630" width="1200" height="630">
  <defs>
    <linearGradient id="bg" x1="0%" y1="0%" x2="100%" y2="100%">
      <stop offset="0%" stop-color="#1e1b4b" />
      <stop offset="100%" stop-color="#312e81" />
    </linearGradient>
    <filter id="glow">
      <feGaussianBlur stdDeviation="30" result="blur" />
      <feMerge><feMergeNode in="blur" /><feMergeNode in="SourceGraphic" /></feMerge>
    </filter>
    <filter id="textShadow">
      <feDropShadow dx="0" dy="2" stdDeviation="6" flood-color="#1e1b4b" flood-opacity="0.8" />
    </filter>
  </defs>

  <!-- Background -->
  <rect width="1200" height="630" fill="url(#bg)" />

  <!-- Generative shapes -->
  <line x1="814.4" y1="297.7" x2="1214.8" y2="332.9" stroke="#8b5cf6" stroke-width="0.9" opacity="0.15" />
<line x1="814.4" y1="297.7" x2="1537.6" y2="528.3" stroke="#7c3aed" stroke-width="1.8" opacity="0.26" />
<line x1="814.4" y1="297.7" x2="1305.8" y2="606.9" stroke="#7c3aed" stroke-width="0.9" opacity="0.15" />
<line x1="814.4" y1="297.7" x2="1338.0" y2="886.2" stroke="#7c3aed" stroke-width="1.0" opacity="0.31" />
<line x1="814.4" y1="297.7" x2="1085.3" y2="830.4" stroke="#8b5cf6" stroke-width="1.2" opacity="0.13" />
<line x1="814.4" y1="297.7" x2="922.0" y2="712.3" stroke="#7c3aed" stroke-width="1.6" opacity="0.20" />
<line x1="814.4" y1="297.7" x2="792.9" y2="625.7" stroke="#a78bfa" stroke-width="0.6" opacity="0.23" />
<line x1="814.4" y1="297.7" x2="717.6" y2="622.4" stroke="#7c3aed" stroke-width="1.3" opacity="0.25" />
<line x1="814.4" y1="297.7" x2="512.9" y2="755.4" stroke="#7c3aed" stroke-width="0.7" opacity="0.27" />
<line x1="814.4" y1="297.7" x2="578.5" y2="502.8" stroke="#7c3aed" stroke-width="1.5" opacity="0.24" />
<line x1="814.4" y1="297.7" x2="293.8" y2="586.6" stroke="#a78bfa" stroke-width="1.7" opacity="0.28" />
<line x1="814.4" y1="297.7" x2="218.9" y2="414.1" stroke="#a78bfa" stroke-width="0.6" opacity="0.21" />
<line x1="814.4" y1="297.7" x2="37.8" y2="275.5" stroke="#7c3aed" stroke-width="2.0" opacity="0.34" />
<line x1="814.4" y1="297.7" x2="346.0" y2="143.4" stroke="#a78bfa" stroke-width="1.5" opacity="0.23" />
<line x1="814.4" y1="297.7" x2="452.4" y2="44.7" stroke="#a78bfa" stroke-width="2.3" opacity="0.19" />
<line x1="814.4" y1="297.7" x2="616.1" y2="77.9" stroke="#7c3aed" stroke-width="1.9" opacity="0.28" />
<line x1="814.4" y1="297.7" x2="614.7" y2="-76.4" stroke="#8b5cf6" stroke-width="0.7" opacity="0.11" />
<line x1="814.4" y1="297.7" x2="684.5" y2="-236.1" stroke="#a78bfa" stroke-width="2.2" opacity="0.15" />
<line x1="814.4" y1="297.7" x2="816.6" y2="-300.3" stroke="#a78bfa" stroke-width="2.3" opacity="0.32" />
<line x1="814.4" y1="297.7" x2="891.1" y2="63.1" stroke="#a78bfa" stroke-width="0.9" opacity="0.10" />
<line x1="814.4" y1="297.7" x2="1083.5" y2="-162.5" stroke="#8b5cf6" stroke-width="2.1" opacity="0.31" />
<line x1="814.4" y1="297.7" x2="1298.2" y2="-127.7" stroke="#8b5cf6" stroke-width="1.5" opacity="0.25" />
<line x1="814.4" y1="297.7" x2="1485.3" y2="-17.3" stroke="#8b5cf6" stroke-width="2.0" opacity="0.14" />
<line x1="814.4" y1="297.7" x2="1290.3" y2="207.6" stroke="#7c3aed" stroke-width="1.0" opacity="0.21" />
<circle cx="814.4" cy="297.7" r="80" fill="#7c3aed" opacity="0.15" filter="url(#glow)" />


  <!-- Vignette -->
  <rect width="1200" height="630" fill="url(#bg)" opacity="0.3" />

  <!-- Category badge -->
  <rect x="48" y="40" width="134" height="28" rx="14" fill="#7c3aed" opacity="0.9" />
  <text x="60" y="59" font-family="system-ui, -apple-system, sans-serif" font-size="12" font-weight="700" letter-spacing="1.5" text-transform="uppercase" fill="white">ENGINEERING</text>

  <!-- Title -->
  <text x="48" y="550" font-family="system-ui, -apple-system, sans-serif" font-size="42" font-weight="800" fill="white" filter="url(#textShadow)" letter-spacing="-1">
    <tspan x="48" dy="0">One Site, Many Faces: How We Built 16</tspan>
    <tspan x="48" dy="50">Versions of spike.land</tspan>
  </text>

  <!-- spike.land watermark -->
  <text x="1152" y="606" font-family="system-ui, -apple-system, sans-serif" font-size="14" font-weight="600" fill="#a78bfa" opacity="0.6" text-anchor="end">spike.land</text>
</svg>