<svg xmlns="http://www.w3.org/2000/svg" viewBox="0 0 1200 630" width="1200" height="630">
  <defs>
    <linearGradient id="bg" x1="0%" y1="0%" x2="100%" y2="100%">
      <stop offset="0%" stop-color="#0f172a" />
      <stop offset="100%" stop-color="#1e293b" />
    </linearGradient>
    <filter id="glow">
      <feGaussianBlur stdDeviation="30" result="blur" />
      <feMerge><feMergeNode in="blur" /><feMergeNode in="SourceGraphic" /></feMerge>
    </filter>
    <filter id="textShadow">
      <feDropShadow dx="0" dy="2" stdDeviation="6" flood-color="#0f172a" flood-opacity="0.8" />
    </filter>
  </defs>

  <!-- Background -->
  <rect width="1200" height="630" fill="url(#bg)" />

  <!-- Generative shapes -->
  <circle cx="46.4" cy="53.8" r="1.4" fill="#22d3ee" opacity="0.14" />
<circle cx="48.7" cy="98.6" r="1.5" fill="#22d3ee" opacity="0.15" />
<circle cx="44.2" cy="151.9" r="1.6" fill="#22d3ee" opacity="0.16" />
<circle cx="51.5" cy="196.3" r="1.7" fill="#22d3ee" opacity="0.17" />
<circle cx="44.7" cy="240.6" r="1.7" fill="#22d3ee" opacity="0.17" />
<circle cx="50.7" cy="289.6" r="1.8" fill="#22d3ee" opacity="0.18" />
<circle cx="45.2" cy="343.8" r="1.7" fill="#22d3ee" opacity="0.17" />
<circle cx="52.8" cy="395.7" r="1.7" fill="#22d3ee" opacity="0.17" />
<circle cx="45.8" cy="436.5" r="1.7" fill="#22d3ee" opacity="0.17" />
<circle cx="52.4" cy="487.2" r="1.6" fill="#22d3ee" opacity="0.16" />
<circle cx="50.5" cy="536.9" r="1.5" fill="#22d3ee" opacity="0.15" />
<circle cx="48.8" cy="591.8" r="1.4" fill="#22d3ee" opacity="0.14" />
<circle cx="101.7" cy="50.1" r="1.7" fill="#22d3ee" opacity="0.17" />
<circle cx="93.6" cy="102.8" r="1.8" fill="#22d3ee" opacity="0.18" />
<circle cx="96.0" cy="143.4" r="1.9" fill="#22d3ee" opacity="0.19" />
<circle cx="100.1" cy="192.6" r="2.0" fill="#22d3ee" opacity="0.20" />
<circle cx="102.5" cy="245.8" r="2.0" fill="#22d3ee" opacity="0.20" />
<circle cx="97.9" cy="296.1" r="2.0" fill="#22d3ee" opacity="0.20" />
<circle cx="96.4" cy="345.1" r="2.0" fill="#22d3ee" opacity="0.20" />
<circle cx="96.6" cy="388.1" r="2.0" fill="#22d3ee" opacity="0.20" />
<circle cx="96.6" cy="445.5" r="1.9" fill="#22d3ee" opacity="0.19" />
<circle cx="93.6" cy="490.6" r="1.8" fill="#22d3ee" opacity="0.18" />
<circle cx="99.1" cy="535.4" r="1.8" fill="#22d3ee" opacity="0.18" />
<circle cx="95.5" cy="592.5" r="1.6" fill="#22d3ee" opacity="0.16" />
<circle cx="146.1" cy="53.8" r="1.9" fill="#22d3ee" opacity="0.19" />
<circle cx="149.4" cy="102.9" r="2.1" fill="#22d3ee" opacity="0.21" />
<circle cx="142.6" cy="144.9" r="2.1" fill="#22d3ee" opacity="0.21" />
<circle cx="145.8" cy="198.3" r="2.2" fill="#06b6d4" opacity="0.22" />
<circle cx="148.5" cy="244.2" r="2.3" fill="#06b6d4" opacity="0.23" />
<circle cx="146.0" cy="292.8" r="2.3" fill="#06b6d4" opacity="0.23" />
<circle cx="150.9" cy="338.5" r="2.3" fill="#06b6d4" opacity="0.23" />
<circle cx="147.9" cy="392.5" r="2.3" fill="#06b6d4" opacity="0.23" />
<circle cx="145.4" cy="444.2" r="2.2" fill="#06b6d4" opacity="0.22" />
<circle cx="145.6" cy="493.2" r="2.1" fill="#22d3ee" opacity="0.21" />
<circle cx="146.0" cy="541.2" r="2.0" fill="#22d3ee" opacity="0.20" />
<circle cx="151.1" cy="591.7" r="1.9" fill="#22d3ee" opacity="0.19" />
<circle cx="197.0" cy="44.4" r="2.1" fill="#22d3ee" opacity="0.21" />
<circle cx="196.5" cy="102.3" r="2.3" fill="#06b6d4" opacity="0.23" />
<circle cx="194.8" cy="147.7" r="2.4" fill="#06b6d4" opacity="0.24" />
<circle cx="196.1" cy="200.3" r="2.5" fill="#06b6d4" opacity="0.25" />
<circle cx="191.8" cy="248.6" r="2.6" fill="#06b6d4" opacity="0.26" />
<circle cx="193.1" cy="298.2" r="2.6" fill="#06b6d4" opacity="0.26" />
<circle cx="192.7" cy="342.6" r="2.6" fill="#06b6d4" opacity="0.26" />
<circle cx="193.8" cy="390.6" r="2.6" fill="#06b6d4" opacity="0.26" />
<circle cx="195.2" cy="442.5" r="2.5" fill="#06b6d4" opacity="0.25" />
<circle cx="194.7" cy="491.9" r="2.4" fill="#06b6d4" opacity="0.24" />
<circle cx="194.3" cy="540.9" r="2.3" fill="#06b6d4" opacity="0.23" />
<circle cx="191.6" cy="591.3" r="2.1" fill="#22d3ee" opacity="0.21" />
<circle cx="241.6" cy="46.6" r="2.4" fill="#06b6d4" opacity="0.24" />
<circle cx="248.2" cy="93.7" r="2.5" fill="#06b6d4" opacity="0.25" />
<circle cx="249.8" cy="150.6" r="2.7" fill="#06b6d4" opacity="0.27" />
<circle cx="244.3" cy="199.9" r="2.8" fill="#06b6d4" opacity="0.28" />
<circle cx="243.6" cy="249.8" r="2.9" fill="#06b6d4" opacity="0.29" />
<circle cx="247.5" cy="291.6" r="2.9" fill="#06b6d4" opacity="0.29" />
<circle cx="246.7" cy="346.9" r="2.9" fill="#06b6d4" opacity="0.29" />
<circle cx="242.2" cy="396.1" r="2.8" fill="#06b6d4" opacity="0.28" />
<circle cx="248.9" cy="442.4" r="2.8" fill="#06b6d4" opacity="0.28" />
<circle cx="240.5" cy="487.4" r="2.6" fill="#06b6d4" opacity="0.26" />
<circle cx="249.5" cy="536.7" r="2.6" fill="#06b6d4" opacity="0.26" />
<circle cx="245.3" cy="584.2" r="2.4" fill="#06b6d4" opacity="0.24" />
<circle cx="291.4" cy="52.3" r="2.6" fill="#06b6d4" opacity="0.26" />
<circle cx="290.9" cy="97.9" r="2.8" fill="#06b6d4" opacity="0.28" />
<circle cx="294.6" cy="144.2" r="2.9" fill="#06b6d4" opacity="0.29" />
<circle cx="294.0" cy="199.6" r="3.1" fill="#06b6d4" opacity="0.31" />
<circle cx="289.4" cy="242.5" r="3.1" fill="#06b6d4" opacity="0.31" />
<circle cx="296.3" cy="295.9" r="3.2" fill="#06b6d4" opacity="0.32" />
<circle cx="291.4" cy="340.0" r="3.2" fill="#06b6d4" opacity="0.32" />
<circle cx="294.9" cy="395.1" r="3.1" fill="#06b6d4" opacity="0.31" />
<circle cx="290.5" cy="437.7" r="3.0" fill="#06b6d4" opacity="0.30" />
<circle cx="293.6" cy="491.2" r="2.9" fill="#06b6d4" opacity="0.29" />
<circle cx="290.2" cy="538.1" r="2.7" fill="#06b6d4" opacity="0.27" />
<circle cx="294.8" cy="588.2" r="2.6" fill="#06b6d4" opacity="0.26" />
<circle cx="342.3" cy="44.6" r="2.8" fill="#06b6d4" opacity="0.28" />
<circle cx="340.2" cy="94.6" r="3.0" fill="#06b6d4" opacity="0.30" />
<circle cx="345.7" cy="146.4" r="3.2" fill="#06b6d4" opacity="0.32" />
<circle cx="339.2" cy="200.2" r="3.3" fill="#06b6d4" opacity="0.33" />
<circle cx="338.6" cy="242.7" r="3.4" fill="#06b6d4" opacity="0.34" />
<circle cx="340.2" cy="292.9" r="3.5" fill="#0ea5e9" opacity="0.35" />
<circle cx="347.3" cy="338.6" r="3.5" fill="#0ea5e9" opacity="0.35" />
<circle cx="347.5" cy="387.3" r="3.4" fill="#0ea5e9" opacity="0.34" />
<circle cx="343.5" cy="445.2" r="3.3" fill="#06b6d4" opacity="0.33" />
<circle cx="339.1" cy="494.1" r="3.1" fill="#06b6d4" opacity="0.31" />
<circle cx="345.6" cy="535.4" r="3.0" fill="#06b6d4" opacity="0.30" />
<circle cx="345.2" cy="590.8" r="2.8" fill="#06b6d4" opacity="0.28" />
<circle cx="390.9" cy="52.2" r="3.0" fill="#06b6d4" opacity="0.30" />
<circle cx="393.2" cy="94.6" r="3.2" fill="#06b6d4" opacity="0.32" />
<circle cx="394.8" cy="148.9" r="3.4" fill="#0ea5e9" opacity="0.34" />
<circle cx="391.7" cy="200.3" r="3.6" fill="#0ea5e9" opacity="0.36" />
<circle cx="389.2" cy="246.4" r="3.7" fill="#0ea5e9" opacity="0.37" />
<circle cx="395.1" cy="298.4" r="3.8" fill="#0ea5e9" opacity="0.38" />
<circle cx="391.2" cy="348.0" r="3.8" fill="#0ea5e9" opacity="0.38" />
<circle cx="394.1" cy="388.7" r="3.7" fill="#0ea5e9" opacity="0.37" />
<circle cx="394.3" cy="436.6" r="3.6" fill="#0ea5e9" opacity="0.36" />
<circle cx="396.7" cy="485.5" r="3.4" fill="#0ea5e9" opacity="0.34" />
<circle cx="389.0" cy="543.3" r="3.2" fill="#06b6d4" opacity="0.32" />
<circle cx="388.0" cy="585.9" r="3.0" fill="#06b6d4" opacity="0.30" />
<circle cx="437.7" cy="45.7" r="3.1" fill="#06b6d4" opacity="0.31" />
<circle cx="437.6" cy="93.2" r="3.4" fill="#06b6d4" opacity="0.34" />
<circle cx="441.3" cy="145.4" r="3.6" fill="#0ea5e9" opacity="0.36" />
<circle cx="443.9" cy="195.9" r="3.8" fill="#0ea5e9" opacity="0.38" />
<circle cx="439.9" cy="249.1" r="4.0" fill="#0ea5e9" opacity="0.40" />
<circle cx="439.3" cy="289.4" r="4.0" fill="#0ea5e9" opacity="0.40" />
<circle cx="437.3" cy="344.0" r="4.0" fill="#0ea5e9" opacity="0.40" />
<circle cx="440.2" cy="395.3" r="3.9" fill="#0ea5e9" opacity="0.39" />
<circle cx="442.8" cy="442.8" r="3.8" fill="#0ea5e9" opacity="0.38" />
<circle cx="436.9" cy="493.9" r="3.6" fill="#0ea5e9" opacity="0.36" />
<circle cx="436.9" cy="536.6" r="3.4" fill="#06b6d4" opacity="0.34" />
<circle cx="442.2" cy="591.3" r="3.1" fill="#06b6d4" opacity="0.31" />
<circle cx="485.5" cy="44.7" r="3.3" fill="#06b6d4" opacity="0.33" />
<circle cx="486.3" cy="94.3" r="3.5" fill="#0ea5e9" opacity="0.35" />
<circle cx="490.3" cy="150.4" r="3.8" fill="#0ea5e9" opacity="0.38" />
<circle cx="488.1" cy="191.8" r="4.0" fill="#0ea5e9" opacity="0.40" />
<circle cx="487.4" cy="247.0" r="4.2" fill="#0ea5e9" opacity="0.42" />
<circle cx="487.2" cy="292.3" r="4.3" fill="#0ea5e9" opacity="0.43" />
<circle cx="494.3" cy="345.4" r="4.4" fill="#0ea5e9" opacity="0.44" />
<circle cx="489.7" cy="388.5" r="4.2" fill="#0ea5e9" opacity="0.42" />
<circle cx="488.7" cy="437.8" r="4.0" fill="#0ea5e9" opacity="0.40" />
<circle cx="493.4" cy="489.4" r="3.8" fill="#0ea5e9" opacity="0.38" />
<circle cx="485.2" cy="536.6" r="3.5" fill="#0ea5e9" opacity="0.35" />
<circle cx="490.9" cy="587.6" r="3.3" fill="#06b6d4" opacity="0.33" />
<circle cx="535.3" cy="46.5" r="3.4" fill="#06b6d4" opacity="0.34" />
<circle cx="538.8" cy="96.2" r="3.7" fill="#0ea5e9" opacity="0.37" />
<circle cx="537.6" cy="149.9" r="4.0" fill="#0ea5e9" opacity="0.40" />
<circle cx="542.2" cy="194.8" r="4.2" fill="#0ea5e9" opacity="0.42" />
<circle cx="540.6" cy="249.4" r="4.5" fill="#0ea5e9" opacity="0.45" />
<circle cx="539.3" cy="292.4" r="4.6" fill="#0ea5e9" opacity="0.46" />
<circle cx="538.9" cy="338.6" r="4.6" fill="#0ea5e9" opacity="0.46" />
<circle cx="540.0" cy="391.1" r="4.4" fill="#0ea5e9" opacity="0.44" />
<circle cx="534.6" cy="445.7" r="4.1" fill="#0ea5e9" opacity="0.41" />
<circle cx="541.7" cy="486.6" r="3.9" fill="#0ea5e9" opacity="0.39" />
<circle cx="541.6" cy="539.6" r="3.6" fill="#0ea5e9" opacity="0.36" />
<circle cx="534.3" cy="588.3" r="3.3" fill="#06b6d4" opacity="0.33" />
<circle cx="587.6" cy="46.0" r="3.4" fill="#0ea5e9" opacity="0.34" />
<circle cx="588.6" cy="98.9" r="3.7" fill="#0ea5e9" opacity="0.37" />
<circle cx="590.3" cy="143.1" r="4.0" fill="#0ea5e9" opacity="0.40" />
<circle cx="591.4" cy="196.6" r="4.3" fill="#0ea5e9" opacity="0.43" />
<circle cx="591.0" cy="242.2" r="4.6" fill="#0ea5e9" opacity="0.46" />
<circle cx="588.6" cy="294.9" r="4.9" fill="#0ea5e9" opacity="0.49" />
<circle cx="585.4" cy="342.7" r="4.8" fill="#0ea5e9" opacity="0.48" />
<circle cx="592.3" cy="395.3" r="4.5" fill="#0ea5e9" opacity="0.45" />
<circle cx="584.7" cy="437.1" r="4.3" fill="#0ea5e9" opacity="0.43" />
<circle cx="584.6" cy="489.3" r="4.0" fill="#0ea5e9" opacity="0.40" />
<circle cx="583.6" cy="535.5" r="3.7" fill="#0ea5e9" opacity="0.37" />
<circle cx="589.1" cy="591.0" r="3.4" fill="#06b6d4" opacity="0.34" />
<circle cx="640.0" cy="46.4" r="3.4" fill="#06b6d4" opacity="0.34" />
<circle cx="636.9" cy="102.1" r="3.7" fill="#0ea5e9" opacity="0.37" />
<circle cx="634.2" cy="145.2" r="4.0" fill="#0ea5e9" opacity="0.40" />
<circle cx="636.4" cy="199.9" r="4.3" fill="#0ea5e9" opacity="0.43" />
<circle cx="638.9" cy="242.7" r="4.5" fill="#0ea5e9" opacity="0.45" />
<circle cx="632.6" cy="296.4" r="4.8" fill="#0ea5e9" opacity="0.48" />
<circle cx="641.4" cy="346.4" r="4.7" fill="#0ea5e9" opacity="0.47" />
<circle cx="638.4" cy="391.3" r="4.5" fill="#0ea5e9" opacity="0.45" />
<circle cx="640.2" cy="438.4" r="4.2" fill="#0ea5e9" opacity="0.42" />
<circle cx="632.5" cy="485.9" r="4.0" fill="#0ea5e9" opacity="0.40" />
<circle cx="633.2" cy="538.4" r="3.7" fill="#0ea5e9" opacity="0.37" />
<circle cx="634.3" cy="590.4" r="3.4" fill="#06b6d4" opacity="0.34" />
<circle cx="681.5" cy="52.0" r="3.4" fill="#06b6d4" opacity="0.34" />
<circle cx="682.6" cy="94.6" r="3.6" fill="#0ea5e9" opacity="0.36" />
<circle cx="687.1" cy="151.6" r="3.9" fill="#0ea5e9" opacity="0.39" />
<circle cx="687.9" cy="194.0" r="4.1" fill="#0ea5e9" opacity="0.41" />
<circle cx="686.6" cy="245.5" r="4.3" fill="#0ea5e9" opacity="0.43" />
<circle cx="682.7" cy="298.6" r="4.5" fill="#0ea5e9" opacity="0.45" />
<circle cx="690.3" cy="346.0" r="4.4" fill="#0ea5e9" opacity="0.44" />
<circle cx="684.1" cy="387.5" r="4.3" fill="#0ea5e9" opacity="0.43" />
<circle cx="681.0" cy="441.0" r="4.1" fill="#0ea5e9" opacity="0.41" />
<circle cx="681.7" cy="486.9" r="3.9" fill="#0ea5e9" opacity="0.39" />
<circle cx="688.2" cy="538.4" r="3.6" fill="#0ea5e9" opacity="0.36" />
<circle cx="682.6" cy="591.9" r="3.3" fill="#06b6d4" opacity="0.33" />
<circle cx="732.5" cy="51.2" r="3.3" fill="#06b6d4" opacity="0.33" />
<circle cx="738.5" cy="95.4" r="3.5" fill="#0ea5e9" opacity="0.35" />
<circle cx="738.3" cy="143.3" r="3.7" fill="#0ea5e9" opacity="0.37" />
<circle cx="736.7" cy="192.9" r="3.9" fill="#0ea5e9" opacity="0.39" />
<circle cx="737.0" cy="249.9" r="4.1" fill="#0ea5e9" opacity="0.41" />
<circle cx="738.4" cy="292.3" r="4.2" fill="#0ea5e9" opacity="0.42" />
<circle cx="739.4" cy="344.0" r="4.2" fill="#0ea5e9" opacity="0.42" />
<circle cx="737.9" cy="391.9" r="4.1" fill="#0ea5e9" opacity="0.41" />
<circle cx="733.2" cy="442.9" r="3.9" fill="#0ea5e9" opacity="0.39" />
<circle cx="737.8" cy="492.5" r="3.7" fill="#0ea5e9" opacity="0.37" />
<circle cx="738.9" cy="534.6" r="3.5" fill="#0ea5e9" opacity="0.35" />
<circle cx="739.0" cy="586.6" r="3.2" fill="#06b6d4" opacity="0.32" />
<circle cx="781.5" cy="51.8" r="3.1" fill="#06b6d4" opacity="0.31" />
<circle cx="783.7" cy="95.3" r="3.3" fill="#06b6d4" opacity="0.33" />
<circle cx="784.8" cy="143.7" r="3.5" fill="#0ea5e9" opacity="0.35" />
<circle cx="781.0" cy="193.9" r="3.7" fill="#0ea5e9" opacity="0.37" />
<circle cx="779.2" cy="248.8" r="3.9" fill="#0ea5e9" opacity="0.39" />
<circle cx="788.9" cy="293.8" r="3.9" fill="#0ea5e9" opacity="0.39" />
<circle cx="784.9" cy="340.4" r="3.9" fill="#0ea5e9" opacity="0.39" />
<circle cx="787.3" cy="394.7" r="3.8" fill="#0ea5e9" opacity="0.38" />
<circle cx="783.2" cy="440.6" r="3.7" fill="#0ea5e9" opacity="0.37" />
<circle cx="785.5" cy="492.8" r="3.5" fill="#0ea5e9" opacity="0.35" />
<circle cx="781.4" cy="538.9" r="3.3" fill="#06b6d4" opacity="0.33" />
<circle cx="784.6" cy="588.0" r="3.1" fill="#06b6d4" opacity="0.31" />
<circle cx="838.0" cy="46.9" r="2.9" fill="#06b6d4" opacity="0.29" />
<circle cx="832.5" cy="100.5" r="3.1" fill="#06b6d4" opacity="0.31" />
<circle cx="833.2" cy="146.6" r="3.3" fill="#06b6d4" opacity="0.33" />
<circle cx="829.4" cy="197.9" r="3.5" fill="#0ea5e9" opacity="0.35" />
<circle cx="829.8" cy="247.8" r="3.6" fill="#0ea5e9" opacity="0.36" />
<circle cx="830.9" cy="291.3" r="3.6" fill="#0ea5e9" opacity="0.36" />
<circle cx="832.2" cy="343.8" r="3.6" fill="#0ea5e9" opacity="0.36" />
<circle cx="830.2" cy="392.1" r="3.6" fill="#0ea5e9" opacity="0.36" />
<circle cx="837.9" cy="442.9" r="3.4" fill="#0ea5e9" opacity="0.34" />
<circle cx="834.9" cy="488.0" r="3.3" fill="#06b6d4" opacity="0.33" />
<circle cx="828.0" cy="541.8" r="3.1" fill="#06b6d4" opacity="0.31" />
<circle cx="837.8" cy="589.4" r="2.9" fill="#06b6d4" opacity="0.29" />
<circle cx="881.1" cy="51.8" r="2.7" fill="#06b6d4" opacity="0.27" />
<circle cx="879.1" cy="96.7" r="2.9" fill="#06b6d4" opacity="0.29" />
<circle cx="878.2" cy="145.1" r="3.1" fill="#06b6d4" opacity="0.31" />
<circle cx="879.9" cy="200.7" r="3.2" fill="#06b6d4" opacity="0.32" />
<circle cx="880.9" cy="247.0" r="3.3" fill="#06b6d4" opacity="0.33" />
<circle cx="881.5" cy="293.5" r="3.3" fill="#06b6d4" opacity="0.33" />
<circle cx="883.6" cy="344.3" r="3.3" fill="#06b6d4" opacity="0.33" />
<circle cx="883.0" cy="391.5" r="3.3" fill="#06b6d4" opacity="0.33" />
<circle cx="881.6" cy="445.3" r="3.2" fill="#06b6d4" opacity="0.32" />
<circle cx="884.2" cy="490.7" r="3.0" fill="#06b6d4" opacity="0.30" />
<circle cx="882.2" cy="538.9" r="2.9" fill="#06b6d4" opacity="0.29" />
<circle cx="880.4" cy="592.7" r="2.7" fill="#06b6d4" opacity="0.27" />
<circle cx="935.2" cy="53.2" r="2.5" fill="#06b6d4" opacity="0.25" />
<circle cx="928.9" cy="95.1" r="2.7" fill="#06b6d4" opacity="0.27" />
<circle cx="927.1" cy="142.0" r="2.8" fill="#06b6d4" opacity="0.28" />
<circle cx="926.1" cy="195.6" r="3.0" fill="#06b6d4" opacity="0.30" />
<circle cx="933.9" cy="242.7" r="3.0" fill="#06b6d4" opacity="0.30" />
<circle cx="928.9" cy="298.8" r="3.1" fill="#06b6d4" opacity="0.31" />
<circle cx="931.7" cy="338.2" r="3.0" fill="#06b6d4" opacity="0.30" />
<circle cx="935.3" cy="387.9" r="3.0" fill="#06b6d4" opacity="0.30" />
<circle cx="928.2" cy="436.8" r="2.9" fill="#06b6d4" opacity="0.29" />
<circle cx="928.2" cy="488.8" r="2.8" fill="#06b6d4" opacity="0.28" />
<circle cx="931.4" cy="538.9" r="2.6" fill="#06b6d4" opacity="0.26" />
<circle cx="931.3" cy="588.8" r="2.5" fill="#06b6d4" opacity="0.25" />
<circle cx="981.4" cy="48.8" r="2.3" fill="#06b6d4" opacity="0.23" />
<circle cx="976.2" cy="99.4" r="2.4" fill="#06b6d4" opacity="0.24" />
<circle cx="981.1" cy="142.0" r="2.5" fill="#06b6d4" opacity="0.25" />
<circle cx="978.3" cy="197.1" r="2.7" fill="#06b6d4" opacity="0.27" />
<circle cx="979.9" cy="241.3" r="2.7" fill="#06b6d4" opacity="0.27" />
<circle cx="978.1" cy="296.4" r="2.8" fill="#06b6d4" opacity="0.28" />
<circle cx="978.6" cy="342.7" r="2.8" fill="#06b6d4" opacity="0.28" />
<circle cx="979.9" cy="391.4" r="2.7" fill="#06b6d4" opacity="0.27" />
<circle cx="980.8" cy="436.5" r="2.6" fill="#06b6d4" opacity="0.26" />
<circle cx="983.1" cy="490.6" r="2.5" fill="#06b6d4" opacity="0.25" />
<circle cx="975.2" cy="542.7" r="2.4" fill="#06b6d4" opacity="0.24" />
<circle cx="975.7" cy="588.6" r="2.3" fill="#06b6d4" opacity="0.23" />
<circle cx="1025.0" cy="47.9" r="2.0" fill="#22d3ee" opacity="0.20" />
<circle cx="1027.4" cy="94.1" r="2.2" fill="#22d3ee" opacity="0.22" />
<circle cx="1032.0" cy="144.1" r="2.3" fill="#06b6d4" opacity="0.23" />
<circle cx="1032.1" cy="196.3" r="2.4" fill="#06b6d4" opacity="0.24" />
<circle cx="1026.0" cy="244.2" r="2.5" fill="#06b6d4" opacity="0.25" />
<circle cx="1033.8" cy="298.0" r="2.4" fill="#06b6d4" opacity="0.24" />
<circle cx="1032.1" cy="343.2" r="2.4" fill="#06b6d4" opacity="0.24" />
<circle cx="1030.2" cy="396.1" r="2.4" fill="#06b6d4" opacity="0.24" />
<circle cx="1026.5" cy="442.5" r="2.4" fill="#06b6d4" opacity="0.24" />
<circle cx="1028.2" cy="489.9" r="2.3" fill="#06b6d4" opacity="0.23" />
<circle cx="1029.8" cy="534.1" r="2.2" fill="#22d3ee" opacity="0.22" />
<circle cx="1030.5" cy="586.1" r="2.0" fill="#22d3ee" opacity="0.20" />
<circle cx="1080.0" cy="44.4" r="1.7" fill="#22d3ee" opacity="0.17" />
<circle cx="1081.7" cy="93.6" r="1.9" fill="#22d3ee" opacity="0.19" />
<circle cx="1075.8" cy="146.0" r="2.0" fill="#22d3ee" opacity="0.20" />
<circle cx="1082.8" cy="197.3" r="2.1" fill="#22d3ee" opacity="0.21" />
<circle cx="1078.6" cy="243.3" r="2.1" fill="#22d3ee" opacity="0.21" />
<circle cx="1078.8" cy="291.1" r="2.2" fill="#22d3ee" opacity="0.22" />
<circle cx="1077.8" cy="340.9" r="2.2" fill="#22d3ee" opacity="0.22" />
<circle cx="1083.0" cy="390.3" r="2.1" fill="#22d3ee" opacity="0.21" />
<circle cx="1078.3" cy="441.5" r="2.1" fill="#22d3ee" opacity="0.21" />
<circle cx="1082.7" cy="493.2" r="2.0" fill="#22d3ee" opacity="0.20" />
<circle cx="1079.2" cy="541.0" r="1.9" fill="#22d3ee" opacity="0.19" />
<circle cx="1076.1" cy="591.8" r="1.7" fill="#22d3ee" opacity="0.17" />
<circle cx="1129.0" cy="49.9" r="1.5" fill="#22d3ee" opacity="0.15" />
<circle cx="1126.4" cy="93.4" r="1.6" fill="#22d3ee" opacity="0.16" />
<circle cx="1122.2" cy="149.5" r="1.8" fill="#22d3ee" opacity="0.18" />
<circle cx="1125.5" cy="194.5" r="1.8" fill="#22d3ee" opacity="0.18" />
<circle cx="1131.9" cy="249.0" r="1.8" fill="#22d3ee" opacity="0.18" />
<circle cx="1128.9" cy="293.6" r="1.9" fill="#22d3ee" opacity="0.19" />
<circle cx="1127.7" cy="342.2" r="1.9" fill="#22d3ee" opacity="0.19" />
<circle cx="1127.7" cy="387.7" r="1.9" fill="#22d3ee" opacity="0.19" />
<circle cx="1122.4" cy="440.2" r="1.8" fill="#22d3ee" opacity="0.18" />
<circle cx="1130.2" cy="488.1" r="1.7" fill="#22d3ee" opacity="0.17" />
<circle cx="1122.4" cy="538.8" r="1.6" fill="#22d3ee" opacity="0.16" />
<circle cx="1124.9" cy="587.9" r="1.5" fill="#22d3ee" opacity="0.15" />
<circle cx="1179.9" cy="48.5" r="1.2" fill="#22d3ee" opacity="0.12" />
<circle cx="1180.2" cy="102.0" r="1.4" fill="#22d3ee" opacity="0.14" />
<circle cx="1181.0" cy="147.1" r="1.4" fill="#22d3ee" opacity="0.14" />
<circle cx="1172.3" cy="191.5" r="1.5" fill="#22d3ee" opacity="0.15" />
<circle cx="1173.2" cy="248.3" r="1.6" fill="#22d3ee" opacity="0.16" />
<circle cx="1174.5" cy="289.5" r="1.6" fill="#22d3ee" opacity="0.16" />
<circle cx="1174.5" cy="338.8" r="1.6" fill="#22d3ee" opacity="0.16" />
<circle cx="1172.3" cy="390.4" r="1.6" fill="#22d3ee" opacity="0.16" />
<circle cx="1172.7" cy="437.1" r="1.5" fill="#22d3ee" opacity="0.15" />
<circle cx="1177.8" cy="492.9" r="1.4" fill="#22d3ee" opacity="0.14" />
<circle cx="1176.4" cy="534.1" r="1.4" fill="#22d3ee" opacity="0.14" />
<circle cx="1175.1" cy="584.9" r="1.3" fill="#22d3ee" opacity="0.13" />


  <!-- Vignette -->
  <rect width="1200" height="630" fill="url(#bg)" opacity="0.3" />

  <!-- Category badge -->
  <rect x="48" y="40" width="174" height="28" rx="14" fill="#0ea5e9" opacity="0.9" />
  <text x="60" y="59" font-family="system-ui, -apple-system, sans-serif" font-size="12" font-weight="700" letter-spacing="1.5" text-transform="uppercase" fill="white">SCIENCE &amp; ARENA</text>

  <!-- Title -->
  <text x="48" y="550" font-family="system-ui, -apple-system, sans-serif" font-size="42" font-weight="800" fill="white" filter="url(#textShadow)" letter-spacing="-1">
    <tspan x="48" dy="0">Strange Loops and the Speed of Light:</tspan>
    <tspan x="48" dy="50">Zoltán&apos;s Vindication</tspan>
  </text>

  <!-- spike.land watermark -->
  <text x="1152" y="606" font-family="system-ui, -apple-system, sans-serif" font-size="14" font-weight="600" fill="#22d3ee" opacity="0.6" text-anchor="end">spike.land</text>
</svg>