<svg xmlns="http://www.w3.org/2000/svg" viewBox="0 0 1200 630" width="1200" height="630">
  <defs>
    <linearGradient id="bg" x1="0%" y1="0%" x2="100%" y2="100%">
      <stop offset="0%" stop-color="#0c0a09" />
      <stop offset="100%" stop-color="#1c1917" />
    </linearGradient>
    <filter id="glow">
      <feGaussianBlur stdDeviation="30" result="blur" />
      <feMerge><feMergeNode in="blur" /><feMergeNode in="SourceGraphic" /></feMerge>
    </filter>
    <filter id="textShadow">
      <feDropShadow dx="0" dy="2" stdDeviation="6" flood-color="#0c0a09" flood-opacity="0.8" />
    </filter>
  </defs>

  <!-- Background -->
  <rect width="1200" height="630" fill="url(#bg)" />

  <!-- Generative shapes -->
  <path d="M 0 80 L 0 80.0 L 20 90.4 L 40 105.9 L 60 97.4 L 80 140.4 L 100 99.2 L 120 117.2 L 140 113.8 L 160 122.6 L 180 151.0 L 200 141.4 L 220 113.6 L 240 130.5 L 260 135.1 L 280 97.5 L 300 109.2 L 320 145.0 L 340 40.7 L 360 31.5 L 380 64.4 L 400 68.2 L 420 10.3 L 440 87.6 L 460 55.4 L 480 36.7 L 500 27.4 L 520 7.7 L 540 46.3 L 560 73.1 L 580 48.1 L 600 77.9 L 620 19.0 L 640 35.6 L 660 126.4 L 680 56.7 L 700 126.2 L 720 135.6 L 740 125.9 L 760 103.2 L 780 116.4 L 800 112.8 L 820 128.0 L 840 36.3 L 860 124.5 L 880 45.5 L 900 102.7 L 920 21.5 L 940 31.8 L 960 137.2 L 980 108.8 L 1000 37.0 L 1020 64.3 L 1040 72.7 L 1060 79.7 L 1080 63.9 L 1100 30.9 L 1120 55.4 L 1140 117.5 L 1160 108.0 L 1180 25.7 L 1200 40.0" fill="none" stroke="#4f46e5" stroke-width="2.8" opacity="0.17" />
<path d="M 0 150 L 0 174.6 L 20 183.1 L 40 204.2 L 60 226.2 L 80 197.1 L 100 200.1 L 120 193.4 L 140 192.9 L 160 209.1 L 180 164.3 L 200 160.2 L 220 173.9 L 240 131.1 L 260 172.6 L 280 174.1 L 300 203.1 L 320 128.6 L 340 173.6 L 360 104.0 L 380 88.7 L 400 168.6 L 420 76.0 L 440 138.0 L 460 131.9 L 480 155.8 L 500 100.5 L 520 156.2 L 540 100.1 L 560 112.3 L 580 84.7 L 600 172.4 L 620 124.5 L 640 219.0 L 660 154.2 L 680 226.0 L 700 184.8 L 720 122.7 L 740 139.0 L 760 176.1 L 780 74.3 L 800 195.0 L 820 214.0 L 840 152.4 L 860 114.6 L 880 125.9 L 900 149.1 L 920 182.2 L 940 119.2 L 960 148.1 L 980 75.0 L 1000 204.0 L 1020 177.2 L 1040 176.2 L 1060 154.7 L 1080 176.7 L 1100 183.8 L 1120 164.2 L 1140 173.1 L 1160 151.7 L 1180 128.7 L 1200 97.6" fill="none" stroke="#6366f1" stroke-width="2.3" opacity="0.23" />
<path d="M 0 220 L 0 285.7 L 20 275.2 L 40 283.4 L 60 265.7 L 80 250.1 L 100 250.4 L 120 262.2 L 140 253.9 L 160 266.6 L 180 187.3 L 200 200.5 L 220 175.4 L 240 179.7 L 260 229.7 L 280 203.5 L 300 163.4 L 320 207.7 L 340 176.0 L 360 170.5 L 380 177.7 L 400 212.9 L 420 179.4 L 440 165.3 L 460 176.5 L 480 171.1 L 500 222.6 L 520 182.8 L 540 261.7 L 560 158.2 L 580 244.6 L 600 246.6 L 620 284.6 L 640 262.4 L 660 189.6 L 680 220.1 L 700 262.7 L 720 225.7 L 740 205.3 L 760 156.6 L 780 296.3 L 800 190.4 L 820 282.7 L 840 257.9 L 860 242.4 L 880 262.8 L 900 151.9 L 920 203.5 L 940 235.6 L 960 277.9 L 980 263.1 L 1000 194.2 L 1020 296.0 L 1040 158.4 L 1060 163.3 L 1080 161.0 L 1100 264.6 L 1120 254.3 L 1140 165.2 L 1160 148.6 L 1180 205.7 L 1200 192.3" fill="none" stroke="#818cf8" stroke-width="2.7" opacity="0.28" />
<path d="M 0 290 L 0 322.0 L 20 335.1 L 40 321.4 L 60 310.6 L 80 311.6 L 100 293.3 L 120 291.7 L 140 277.5 L 160 266.7 L 180 260.2 L 200 283.2 L 220 277.8 L 240 271.3 L 260 257.3 L 280 215.0 L 300 267.5 L 320 240.5 L 340 232.7 L 360 323.1 L 380 290.7 L 400 338.6 L 420 285.4 L 440 252.6 L 460 357.4 L 480 302.1 L 500 284.7 L 520 323.1 L 540 231.0 L 560 352.8 L 580 254.8 L 600 330.1 L 620 255.9 L 640 287.7 L 660 324.3 L 680 255.0 L 700 369.1 L 720 309.4 L 740 350.2 L 760 320.5 L 780 217.7 L 800 312.7 L 820 264.8 L 840 301.0 L 860 241.3 L 880 342.7 L 900 330.4 L 920 234.0 L 940 261.1 L 960 358.6 L 980 233.1 L 1000 264.1 L 1020 260.7 L 1040 299.8 L 1060 335.8 L 1080 317.4 L 1100 338.4 L 1120 319.2 L 1140 258.9 L 1160 259.3 L 1180 269.0 L 1200 286.6" fill="none" stroke="#a5b4fc" stroke-width="1.3" opacity="0.17" />
<path d="M 0 360 L 0 385.1 L 20 372.9 L 40 362.7 L 60 341.4 L 80 328.6 L 100 335.7 L 120 315.8 L 140 332.6 L 160 316.3 L 180 297.8 L 200 302.5 L 220 327.5 L 240 324.9 L 260 335.5 L 280 299.4 L 300 323.0 L 320 387.7 L 340 298.4 L 360 395.4 L 380 356.4 L 400 342.4 L 420 302.5 L 440 417.0 L 460 341.0 L 480 314.3 L 500 380.3 L 520 399.5 L 540 386.6 L 560 397.9 L 580 322.6 L 600 389.0 L 620 418.2 L 640 421.4 L 660 292.3 L 680 316.0 L 700 347.5 L 720 381.1 L 740 306.7 L 760 419.4 L 780 387.8 L 800 304.3 L 820 393.6 L 840 306.9 L 860 393.4 L 880 428.3 L 900 368.4 L 920 425.8 L 940 324.8 L 960 329.4 L 980 328.7 L 1000 359.7 L 1020 313.6 L 1040 295.1 L 1060 322.8 L 1080 357.1 L 1100 320.8 L 1120 329.0 L 1140 401.6 L 1160 294.2 L 1180 412.2 L 1200 291.7" fill="none" stroke="#4f46e5" stroke-width="1.2" opacity="0.12" />
<path d="M 0 430 L 0 403.8 L 20 400.3 L 40 404.8 L 60 378.9 L 80 398.5 L 100 375.0 L 120 384.6 L 140 369.2 L 160 369.7 L 180 361.1 L 200 377.7 L 220 388.7 L 240 395.1 L 260 429.4 L 280 410.5 L 300 478.2 L 320 457.3 L 340 404.7 L 360 446.6 L 380 402.3 L 400 481.6 L 420 449.8 L 440 454.9 L 460 473.0 L 480 476.5 L 500 494.3 L 520 463.0 L 540 421.4 L 560 401.0 L 580 474.0 L 600 456.6 L 620 373.0 L 640 429.6 L 660 461.8 L 680 453.0 L 700 383.8 L 720 386.0 L 740 453.8 L 760 381.8 L 780 463.5 L 800 399.9 L 820 401.5 L 840 471.7 L 860 406.6 L 880 455.1 L 900 370.2 L 920 459.2 L 940 397.2 L 960 475.8 L 980 399.1 L 1000 401.4 L 1020 494.3 L 1040 433.4 L 1060 470.6 L 1080 379.9 L 1100 474.8 L 1120 391.1 L 1140 364.1 L 1160 396.3 L 1180 412.8 L 1200 466.0" fill="none" stroke="#6366f1" stroke-width="2.8" opacity="0.16" />
<path d="M 0 500 L 0 470.6 L 20 455.6 L 40 444.7 L 60 433.2 L 80 454.0 L 100 433.8 L 120 447.8 L 140 465.4 L 160 430.2 L 180 475.9 L 200 506.3 L 220 515.7 L 240 544.6 L 260 537.1 L 280 535.2 L 300 567.0 L 320 555.3 L 340 499.4 L 360 533.9 L 380 560.2 L 400 562.1 L 420 504.3 L 440 576.3 L 460 538.5 L 480 478.7 L 500 556.2 L 520 477.5 L 540 543.4 L 560 577.9 L 580 506.0 L 600 431.1 L 620 547.4 L 640 475.7 L 660 467.3 L 680 493.7 L 700 525.7 L 720 488.1 L 740 499.6 L 760 510.0 L 780 567.6 L 800 464.7 L 820 509.9 L 840 526.1 L 860 578.7 L 880 550.7 L 900 488.4 L 920 505.7 L 940 470.3 L 960 453.4 L 980 482.5 L 1000 480.3 L 1020 479.9 L 1040 434.9 L 1060 452.1 L 1080 467.5 L 1100 544.7 L 1120 431.9 L 1140 457.7 L 1160 528.7 L 1180 502.6 L 1200 527.2" fill="none" stroke="#818cf8" stroke-width="1.4" opacity="0.21" />
<path d="M 0 570 L 0 514.5 L 20 516.7 L 40 532.7 L 60 538.3 L 80 541.7 L 100 520.9 L 120 570.2 L 140 579.9 L 160 617.8 L 180 577.4 L 200 567.5 L 220 569.3 L 240 603.7 L 260 603.7 L 280 586.0 L 300 595.1 L 320 634.4 L 340 618.9 L 360 592.9 L 380 614.7 L 400 641.1 L 420 605.0 L 440 538.8 L 460 521.5 L 480 566.2 L 500 618.1 L 520 605.0 L 540 600.3 L 560 628.0 L 580 581.9 L 600 538.1 L 620 532.4 L 640 495.1 L 660 587.0 L 680 567.3 L 700 565.3 L 720 621.2 L 740 605.5 L 760 586.8 L 780 541.6 L 800 534.1 L 820 598.7 L 840 600.0 L 860 606.9 L 880 620.6 L 900 597.6 L 920 599.6 L 940 609.9 L 960 533.4 L 980 621.6 L 1000 520.9 L 1020 586.3 L 1040 548.0 L 1060 598.4 L 1080 554.1 L 1100 559.9 L 1120 583.3 L 1140 639.4 L 1160 594.1 L 1180 531.8 L 1200 585.7" fill="none" stroke="#a5b4fc" stroke-width="1.8" opacity="0.18" />


  <!-- Vignette -->
  <rect width="1200" height="630" fill="url(#bg)" opacity="0.3" />

  <!-- Category badge -->
  <rect x="48" y="40" width="224" height="28" rx="14" fill="#4f46e5" opacity="0.9" />
  <text x="60" y="59" font-family="system-ui, -apple-system, sans-serif" font-size="12" font-weight="700" letter-spacing="1.5" text-transform="uppercase" fill="white">DEVELOPER EXPERIENCE</text>

  <!-- Title -->
  <text x="48" y="550" font-family="system-ui, -apple-system, sans-serif" font-size="42" font-weight="800" fill="white" filter="url(#textShadow)" letter-spacing="-1">
    <tspan x="48" dy="0">Appendix: Anticipated Pushback on the</tspan>
    <tspan x="48" dy="50">Next.js Migration Post</tspan>
  </text>

  <!-- spike.land watermark -->
  <text x="1152" y="606" font-family="system-ui, -apple-system, sans-serif" font-size="14" font-weight="600" fill="#818cf8" opacity="0.6" text-anchor="end">spike.land</text>
</svg>