<svg xmlns="http://www.w3.org/2000/svg" viewBox="0 0 1200 630" width="1200" height="630">
  <defs>
    <linearGradient id="bg" x1="0%" y1="0%" x2="100%" y2="100%">
      <stop offset="0%" stop-color="#1c1917" />
      <stop offset="100%" stop-color="#292524" />
    </linearGradient>
    <filter id="glow">
      <feGaussianBlur stdDeviation="30" result="blur" />
      <feMerge><feMergeNode in="blur" /><feMergeNode in="SourceGraphic" /></feMerge>
    </filter>
    <filter id="textShadow">
      <feDropShadow dx="0" dy="2" stdDeviation="6" flood-color="#1c1917" flood-opacity="0.8" />
    </filter>
  </defs>

  <!-- Background -->
  <rect width="1200" height="630" fill="url(#bg)" />

  <!-- Generative shapes -->
  <line x1="756.3" y1="289.7" x2="1344.7" y2="327.7" stroke="#fbbf24" stroke-width="2.4" opacity="0.28" />
<line x1="756.3" y1="289.7" x2="1126.4" y2="426.2" stroke="#f59e0b" stroke-width="2.0" opacity="0.14" />
<line x1="756.3" y1="289.7" x2="1288.6" y2="603.5" stroke="#d97706" stroke-width="0.7" opacity="0.29" />
<line x1="756.3" y1="289.7" x2="920.0" y2="481.1" stroke="#d97706" stroke-width="0.6" opacity="0.18" />
<line x1="756.3" y1="289.7" x2="887.3" y2="566.7" stroke="#fbbf24" stroke-width="1.0" opacity="0.21" />
<line x1="756.3" y1="289.7" x2="869.1" y2="781.7" stroke="#d97706" stroke-width="0.8" opacity="0.17" />
<line x1="756.3" y1="289.7" x2="725.7" y2="709.6" stroke="#d97706" stroke-width="1.6" opacity="0.16" />
<line x1="756.3" y1="289.7" x2="696.4" y2="487.3" stroke="#fbbf24" stroke-width="0.6" opacity="0.19" />
<line x1="756.3" y1="289.7" x2="405.8" y2="859.8" stroke="#d97706" stroke-width="0.8" opacity="0.12" />
<line x1="756.3" y1="289.7" x2="411.9" y2="603.2" stroke="#f59e0b" stroke-width="0.9" opacity="0.18" />
<line x1="756.3" y1="289.7" x2="483.1" y2="418.0" stroke="#fbbf24" stroke-width="2.0" opacity="0.25" />
<line x1="756.3" y1="289.7" x2="88.8" y2="418.0" stroke="#fbbf24" stroke-width="1.6" opacity="0.33" />
<line x1="756.3" y1="289.7" x2="-33.5" y2="243.1" stroke="#d97706" stroke-width="1.2" opacity="0.14" />
<line x1="756.3" y1="289.7" x2="70.4" y2="51.5" stroke="#fbbf24" stroke-width="0.9" opacity="0.19" />
<line x1="756.3" y1="289.7" x2="390.3" y2="60.7" stroke="#d97706" stroke-width="1.6" opacity="0.28" />
<line x1="756.3" y1="289.7" x2="421.9" y2="-52.7" stroke="#d97706" stroke-width="1.6" opacity="0.25" />
<line x1="756.3" y1="289.7" x2="490.4" y2="-267.3" stroke="#fbbf24" stroke-width="1.8" opacity="0.23" />
<line x1="756.3" y1="289.7" x2="676.0" y2="-102.8" stroke="#fbbf24" stroke-width="0.8" opacity="0.31" />
<line x1="756.3" y1="289.7" x2="795.4" y2="-346.4" stroke="#d97706" stroke-width="1.2" opacity="0.29" />
<line x1="756.3" y1="289.7" x2="935.1" y2="-185.2" stroke="#d97706" stroke-width="0.6" opacity="0.24" />
<line x1="756.3" y1="289.7" x2="1089.4" y2="-199.6" stroke="#d97706" stroke-width="1.5" opacity="0.35" />
<line x1="756.3" y1="289.7" x2="1232.7" y2="-150.1" stroke="#d97706" stroke-width="2.0" opacity="0.12" />
<line x1="756.3" y1="289.7" x2="1030.8" y2="157.2" stroke="#fbbf24" stroke-width="1.4" opacity="0.28" />
<line x1="756.3" y1="289.7" x2="1157.1" y2="184.4" stroke="#fbbf24" stroke-width="2.0" opacity="0.13" />
<circle cx="756.3" cy="289.7" r="80" fill="#d97706" opacity="0.15" filter="url(#glow)" />


  <!-- Vignette -->
  <rect width="1200" height="630" fill="url(#bg)" opacity="0.3" />

  <!-- Category badge -->
  <rect x="48" y="40" width="124" height="28" rx="14" fill="#d97706" opacity="0.9" />
  <text x="60" y="59" font-family="system-ui, -apple-system, sans-serif" font-size="12" font-weight="700" letter-spacing="1.5" text-transform="uppercase" fill="white">SPIKE.LAND</text>

  <!-- Title -->
  <text x="48" y="550" font-family="system-ui, -apple-system, sans-serif" font-size="42" font-weight="800" fill="white" filter="url(#textShadow)" letter-spacing="-1">
    <tspan x="48" dy="0">One More Minute: The Pulse Calibration</tspan>
    <tspan x="48" dy="50">Arena</tspan>
  </text>

  <!-- spike.land watermark -->
  <text x="1152" y="606" font-family="system-ui, -apple-system, sans-serif" font-size="14" font-weight="600" fill="#fbbf24" opacity="0.6" text-anchor="end">spike.land</text>
</svg>