<svg xmlns="http://www.w3.org/2000/svg" viewBox="0 0 1200 630" width="1200" height="630">
  <defs>
    <linearGradient id="bg" x1="0%" y1="0%" x2="100%" y2="100%">
      <stop offset="0%" stop-color="#0f172a" />
      <stop offset="100%" stop-color="#1e293b" />
    </linearGradient>
    <filter id="glow">
      <feGaussianBlur stdDeviation="30" result="blur" />
      <feMerge><feMergeNode in="blur" /><feMergeNode in="SourceGraphic" /></feMerge>
    </filter>
    <filter id="textShadow">
      <feDropShadow dx="0" dy="2" stdDeviation="6" flood-color="#0f172a" flood-opacity="0.8" />
    </filter>
  </defs>

  <!-- Background -->
  <rect width="1200" height="630" fill="url(#bg)" />

  <!-- Generative shapes -->
  <path d="M 0 80 L 0 80.0 L 20 87.6 L 40 94.4 L 60 93.5 L 80 127.8 L 100 120.8 L 120 118.2 L 140 140.0 L 160 130.7 L 180 112.3 L 200 122.4 L 220 110.5 L 240 108.4 L 260 123.4 L 280 86.9 L 300 107.6 L 320 125.2 L 340 15.4 L 360 74.9 L 380 60.5 L 400 28.7 L 420 47.4 L 440 118.5 L 460 112.6 L 480 20.7 L 500 55.7 L 520 37.2 L 540 98.9 L 560 67.4 L 580 9.7 L 600 64.4 L 620 51.7 L 640 117.1 L 660 23.1 L 680 50.2 L 700 66.1 L 720 43.7 L 740 28.0 L 760 114.1 L 780 118.6 L 800 134.0 L 820 81.2 L 840 89.8 L 860 143.1 L 880 55.0 L 900 142.7 L 920 81.2 L 940 34.6 L 960 67.6 L 980 33.8 L 1000 49.7 L 1020 107.1 L 1040 119.7 L 1060 112.5 L 1080 78.3 L 1100 128.9 L 1120 2.1 L 1140 156.3 L 1160 25.5 L 1180 94.1 L 1200 117.0" fill="none" stroke="#475569" stroke-width="2.2" opacity="0.23" />
<path d="M 0 150 L 0 180.0 L 20 186.7 L 40 178.3 L 60 187.0 L 80 191.5 L 100 190.0 L 120 221.7 L 140 200.2 L 160 170.9 L 180 217.4 L 200 149.3 L 220 190.4 L 240 179.1 L 260 175.0 L 280 165.0 L 300 168.4 L 320 115.8 L 340 147.3 L 360 129.0 L 380 88.5 L 400 108.3 L 420 140.1 L 440 114.5 L 460 105.4 L 480 125.2 L 500 80.6 L 520 131.5 L 540 141.9 L 560 113.4 L 580 100.5 L 600 184.7 L 620 104.2 L 640 92.9 L 660 117.9 L 680 148.9 L 700 178.8 L 720 185.3 L 740 204.1 L 760 149.7 L 780 117.7 L 800 126.5 L 820 86.8 L 840 189.2 L 860 186.2 L 880 169.9 L 900 114.5 L 920 140.4 L 940 155.6 L 960 183.1 L 980 162.5 L 1000 104.9 L 1020 153.3 L 1040 85.6 L 1060 220.8 L 1080 167.2 L 1100 149.6 L 1120 187.5 L 1140 117.5 L 1160 148.7 L 1180 182.0 L 1200 111.6" fill="none" stroke="#64748b" stroke-width="1.5" opacity="0.13" />
<path d="M 0 220 L 0 278.7 L 20 284.8 L 40 292.4 L 60 276.2 L 80 250.6 L 100 244.5 L 120 237.3 L 140 241.7 L 160 272.1 L 180 237.6 L 200 185.3 L 220 155.3 L 240 181.4 L 260 179.6 L 280 170.5 L 300 185.3 L 320 195.4 L 340 191.9 L 360 164.7 L 380 187.0 L 400 172.9 L 420 144.5 L 440 216.0 L 460 194.0 L 480 165.5 L 500 246.9 L 520 212.7 L 540 273.6 L 560 264.9 L 580 246.8 L 600 273.5 L 620 176.0 L 640 203.3 L 660 157.2 L 680 176.5 L 700 254.1 L 720 260.1 L 740 279.8 L 760 272.1 L 780 213.4 L 800 238.8 L 820 286.0 L 840 246.6 L 860 189.5 L 880 279.2 L 900 205.7 L 920 279.7 L 940 264.9 L 960 159.3 L 980 195.9 L 1000 174.5 L 1020 256.7 L 1040 226.4 L 1060 213.7 L 1080 272.1 L 1100 294.8 L 1120 184.6 L 1140 219.7 L 1160 250.5 L 1180 157.7 L 1200 268.2" fill="none" stroke="#94a3b8" stroke-width="2.2" opacity="0.22" />
<path d="M 0 290 L 0 347.2 L 20 349.5 L 40 339.5 L 60 310.9 L 80 316.1 L 100 281.5 L 120 266.3 L 140 275.7 L 160 265.8 L 180 259.3 L 200 262.0 L 220 239.9 L 240 230.3 L 260 253.1 L 280 252.8 L 300 249.1 L 320 259.1 L 340 250.0 L 360 288.3 L 380 268.7 L 400 295.1 L 420 280.0 L 440 326.0 L 460 338.0 L 480 313.5 L 500 329.1 L 520 322.9 L 540 343.4 L 560 299.3 L 580 271.1 L 600 256.5 L 620 329.7 L 640 345.5 L 660 331.3 L 680 317.0 L 700 337.5 L 720 282.0 L 740 251.0 L 760 213.3 L 780 320.9 L 800 330.5 L 820 277.0 L 840 245.0 L 860 323.8 L 880 331.8 L 900 280.1 L 920 267.5 L 940 263.2 L 960 367.7 L 980 340.3 L 1000 253.3 L 1020 306.5 L 1040 331.4 L 1060 332.5 L 1080 358.6 L 1100 339.3 L 1120 296.5 L 1140 295.4 L 1160 339.5 L 1180 224.1 L 1200 324.3" fill="none" stroke="#cbd5e1" stroke-width="1.2" opacity="0.13" />
<path d="M 0 360 L 0 377.7 L 20 364.8 L 40 360.4 L 60 349.5 L 80 353.6 L 100 324.6 L 120 326.9 L 140 294.1 L 160 311.4 L 180 315.5 L 200 305.5 L 220 327.1 L 240 330.4 L 260 330.1 L 280 317.7 L 300 307.3 L 320 292.0 L 340 338.9 L 360 306.1 L 380 372.4 L 400 337.3 L 420 351.2 L 440 406.1 L 460 319.2 L 480 383.6 L 500 336.4 L 520 383.4 L 540 402.4 L 560 414.1 L 580 414.5 L 600 387.9 L 620 384.8 L 640 413.3 L 660 410.0 L 680 393.9 L 700 320.3 L 720 284.0 L 740 296.2 L 760 393.4 L 780 361.8 L 800 379.5 L 820 310.8 L 840 337.0 L 860 347.6 L 880 395.2 L 900 415.3 L 920 293.5 L 940 417.6 L 960 425.9 L 980 433.3 L 1000 434.3 L 1020 288.4 L 1040 362.0 L 1060 312.0 L 1080 371.9 L 1100 338.0 L 1120 311.6 L 1140 334.9 L 1160 340.0 L 1180 309.1 L 1200 332.2" fill="none" stroke="#475569" stroke-width="2.9" opacity="0.30" />
<path d="M 0 430 L 0 413.1 L 20 400.4 L 40 405.5 L 60 396.6 L 80 376.8 L 100 401.6 L 120 350.7 L 140 400.7 L 160 357.2 L 180 373.8 L 200 388.8 L 220 378.8 L 240 440.8 L 260 441.9 L 280 450.6 L 300 424.7 L 320 483.8 L 340 489.6 L 360 423.2 L 380 417.1 L 400 439.5 L 420 465.1 L 440 468.5 L 460 430.6 L 480 426.5 L 500 438.3 L 520 450.6 L 540 502.0 L 560 462.9 L 580 378.5 L 600 474.7 L 620 462.8 L 640 450.7 L 660 389.0 L 680 378.7 L 700 466.0 L 720 387.5 L 740 489.9 L 760 461.9 L 780 478.7 L 800 359.1 L 820 447.6 L 840 374.5 L 860 417.1 L 880 435.7 L 900 504.2 L 920 390.4 L 940 457.2 L 960 478.4 L 980 399.4 L 1000 460.2 L 1020 420.6 L 1040 424.0 L 1060 376.0 L 1080 398.5 L 1100 432.0 L 1120 392.9 L 1140 379.2 L 1160 375.4 L 1180 416.2 L 1200 414.5" fill="none" stroke="#64748b" stroke-width="1.3" opacity="0.29" />
<path d="M 0 500 L 0 436.0 L 20 438.3 L 40 465.0 L 60 427.8 L 80 443.6 L 100 428.1 L 120 458.2 L 140 453.6 L 160 470.1 L 180 512.5 L 200 523.2 L 220 532.5 L 240 493.6 L 260 510.5 L 280 497.5 L 300 514.2 L 320 520.1 L 340 534.2 L 360 531.9 L 380 525.2 L 400 541.2 L 420 524.9 L 440 483.1 L 460 536.2 L 480 489.6 L 500 479.3 L 520 545.0 L 540 527.4 L 560 524.3 L 580 503.6 L 600 474.7 L 620 430.3 L 640 516.2 L 660 434.2 L 680 438.6 L 700 448.6 L 720 540.0 L 740 484.6 L 760 522.0 L 780 542.1 L 800 489.9 L 820 511.6 L 840 560.8 L 860 434.2 L 880 540.6 L 900 460.0 L 920 480.5 L 940 503.3 L 960 557.2 L 980 492.8 L 1000 482.6 L 1020 496.9 L 1040 457.1 L 1060 546.7 L 1080 537.4 L 1100 493.1 L 1120 534.2 L 1140 441.7 L 1160 501.4 L 1180 466.8 L 1200 465.5" fill="none" stroke="#94a3b8" stroke-width="3.0" opacity="0.21" />
<path d="M 0 570 L 0 497.3 L 20 496.6 L 40 531.7 L 60 522.8 L 80 527.5 L 100 559.1 L 120 538.2 L 140 549.1 L 160 565.2 L 180 597.1 L 200 571.5 L 220 620.4 L 240 619.0 L 260 615.5 L 280 618.9 L 300 595.2 L 320 616.7 L 340 575.9 L 360 633.3 L 380 626.6 L 400 610.8 L 420 643.0 L 440 550.0 L 460 529.0 L 480 528.5 L 500 636.1 L 520 606.9 L 540 609.7 L 560 497.7 L 580 496.9 L 600 623.5 L 620 584.9 L 640 556.3 L 660 557.7 L 680 517.9 L 700 595.2 L 720 542.1 L 740 576.0 L 760 516.0 L 780 594.9 L 800 540.3 L 820 611.4 L 840 642.8 L 860 578.3 L 880 537.2 L 900 618.8 L 920 534.0 L 940 574.1 L 960 559.8 L 980 526.3 L 1000 523.7 L 1020 541.7 L 1040 545.7 L 1060 614.4 L 1080 558.6 L 1100 519.4 L 1120 532.8 L 1140 535.5 L 1160 616.0 L 1180 505.2 L 1200 606.2" fill="none" stroke="#cbd5e1" stroke-width="1.2" opacity="0.31" />


  <!-- Vignette -->
  <rect width="1200" height="630" fill="url(#bg)" opacity="0.3" />

  <!-- Category badge -->
  <rect x="48" y="40" width="124" height="28" rx="14" fill="#475569" opacity="0.9" />
  <text x="60" y="59" font-family="system-ui, -apple-system, sans-serif" font-size="12" font-weight="700" letter-spacing="1.5" text-transform="uppercase" fill="white">SPIKE.LAND</text>

  <!-- Title -->
  <text x="48" y="550" font-family="system-ui, -apple-system, sans-serif" font-size="42" font-weight="800" fill="white" filter="url(#textShadow)" letter-spacing="-1">
    <tspan x="48" dy="0">The Operational Meaning of Varying</tspan>
    <tspan x="48" dy="50">Dimensional Constants: Why Only</tspan>
    <tspan x="48" dy="50">Dimensionless Residuals Are Observable</tspan>
  </text>

  <!-- spike.land watermark -->
  <text x="1152" y="606" font-family="system-ui, -apple-system, sans-serif" font-size="14" font-weight="600" fill="#94a3b8" opacity="0.6" text-anchor="end">spike.land</text>
</svg>