<svg xmlns="http://www.w3.org/2000/svg" viewBox="0 0 1200 630" width="1200" height="630">
  <defs>
    <linearGradient id="bg" x1="0%" y1="0%" x2="100%" y2="100%">
      <stop offset="0%" stop-color="#0f172a" />
      <stop offset="100%" stop-color="#1e293b" />
    </linearGradient>
    <filter id="glow">
      <feGaussianBlur stdDeviation="30" result="blur" />
      <feMerge><feMergeNode in="blur" /><feMergeNode in="SourceGraphic" /></feMerge>
    </filter>
    <filter id="textShadow">
      <feDropShadow dx="0" dy="2" stdDeviation="6" flood-color="#0f172a" flood-opacity="0.8" />
    </filter>
  </defs>

  <!-- Background -->
  <rect width="1200" height="630" fill="url(#bg)" />

  <!-- Generative shapes -->
  <line x1="740.8" y1="372.0" x2="1477.7" y2="421.0" stroke="#475569" stroke-width="1.2" opacity="0.32" />
<line x1="740.8" y1="372.0" x2="1172.9" y2="523.9" stroke="#475569" stroke-width="1.3" opacity="0.17" />
<line x1="740.8" y1="372.0" x2="1289.8" y2="746.6" stroke="#64748b" stroke-width="2.0" opacity="0.10" />
<line x1="740.8" y1="372.0" x2="1178.7" y2="812.3" stroke="#64748b" stroke-width="1.6" opacity="0.16" />
<line x1="740.8" y1="372.0" x2="924.3" y2="697.8" stroke="#94a3b8" stroke-width="0.7" opacity="0.17" />
<line x1="740.8" y1="372.0" x2="854.1" y2="823.0" stroke="#64748b" stroke-width="0.8" opacity="0.24" />
<line x1="740.8" y1="372.0" x2="713.0" y2="1058.7" stroke="#94a3b8" stroke-width="2.3" opacity="0.20" />
<line x1="740.8" y1="372.0" x2="547.4" y2="883.0" stroke="#475569" stroke-width="0.6" opacity="0.33" />
<line x1="740.8" y1="372.0" x2="415.2" y2="872.5" stroke="#64748b" stroke-width="1.0" opacity="0.26" />
<line x1="740.8" y1="372.0" x2="493.2" y2="599.4" stroke="#94a3b8" stroke-width="1.7" opacity="0.30" />
<line x1="740.8" y1="372.0" x2="173.1" y2="655.3" stroke="#475569" stroke-width="2.0" opacity="0.28" />
<line x1="740.8" y1="372.0" x2="-10.7" y2="571.4" stroke="#64748b" stroke-width="1.2" opacity="0.28" />
<line x1="740.8" y1="372.0" x2="170.0" y2="335.6" stroke="#475569" stroke-width="2.3" opacity="0.29" />
<line x1="740.8" y1="372.0" x2="528.2" y2="299.4" stroke="#64748b" stroke-width="2.4" opacity="0.19" />
<line x1="740.8" y1="372.0" x2="147.8" y2="17.0" stroke="#64748b" stroke-width="2.0" opacity="0.14" />
<line x1="740.8" y1="372.0" x2="251.8" y2="-192.0" stroke="#64748b" stroke-width="2.4" opacity="0.20" />
<line x1="740.8" y1="372.0" x2="469.1" y2="-147.6" stroke="#475569" stroke-width="1.1" opacity="0.22" />
<line x1="740.8" y1="372.0" x2="623.0" y2="-293.1" stroke="#475569" stroke-width="1.5" opacity="0.10" />
<line x1="740.8" y1="372.0" x2="759.8" y2="125.4" stroke="#94a3b8" stroke-width="0.8" opacity="0.35" />
<line x1="740.8" y1="372.0" x2="1014.6" y2="-353.2" stroke="#64748b" stroke-width="0.9" opacity="0.25" />
<line x1="740.8" y1="372.0" x2="1102.8" y2="-160.4" stroke="#64748b" stroke-width="2.4" opacity="0.11" />
<line x1="740.8" y1="372.0" x2="936.9" y2="194.5" stroke="#64748b" stroke-width="2.0" opacity="0.18" />
<line x1="740.8" y1="372.0" x2="1180.8" y2="120.6" stroke="#64748b" stroke-width="0.7" opacity="0.27" />
<line x1="740.8" y1="372.0" x2="1283.0" y2="279.7" stroke="#94a3b8" stroke-width="0.9" opacity="0.15" />
<circle cx="740.8" cy="372.0" r="80" fill="#475569" opacity="0.15" filter="url(#glow)" />


  <!-- Vignette -->
  <rect width="1200" height="630" fill="url(#bg)" opacity="0.3" />

  <!-- Category badge -->
  <rect x="48" y="40" width="124" height="28" rx="14" fill="#475569" opacity="0.9" />
  <text x="60" y="59" font-family="system-ui, -apple-system, sans-serif" font-size="12" font-weight="700" letter-spacing="1.5" text-transform="uppercase" fill="white">AI &amp; TOOLS</text>

  <!-- Title -->
  <text x="48" y="550" font-family="system-ui, -apple-system, sans-serif" font-size="42" font-weight="800" fill="white" filter="url(#textShadow)" letter-spacing="-1">
    <tspan x="48" dy="0">Think Slowly, Ship Fast</tspan>
  </text>

  <!-- spike.land watermark -->
  <text x="1152" y="606" font-family="system-ui, -apple-system, sans-serif" font-size="14" font-weight="600" fill="#94a3b8" opacity="0.6" text-anchor="end">spike.land</text>
</svg>