<svg xmlns="http://www.w3.org/2000/svg" viewBox="0 0 1200 630" width="1200" height="630">
  <defs>
    <linearGradient id="bg" x1="0%" y1="0%" x2="100%" y2="100%">
      <stop offset="0%" stop-color="#1e1b4b" />
      <stop offset="100%" stop-color="#312e81" />
    </linearGradient>
    <filter id="glow">
      <feGaussianBlur stdDeviation="30" result="blur" />
      <feMerge><feMergeNode in="blur" /><feMergeNode in="SourceGraphic" /></feMerge>
    </filter>
    <filter id="textShadow">
      <feDropShadow dx="0" dy="2" stdDeviation="6" flood-color="#1e1b4b" flood-opacity="0.8" />
    </filter>
  </defs>

  <!-- Background -->
  <rect width="1200" height="630" fill="url(#bg)" />

  <!-- Generative shapes -->
  <line x1="407.3" y1="386.8" x2="803.4" y2="396.6" stroke="#7c3aed" stroke-width="2.0" opacity="0.22" />
<line x1="407.3" y1="386.8" x2="676.0" y2="466.2" stroke="#a78bfa" stroke-width="2.4" opacity="0.18" />
<line x1="407.3" y1="386.8" x2="607.3" y2="523.1" stroke="#a78bfa" stroke-width="0.6" opacity="0.34" />
<line x1="407.3" y1="386.8" x2="558.7" y2="545.1" stroke="#8b5cf6" stroke-width="0.9" opacity="0.27" />
<line x1="407.3" y1="386.8" x2="692.7" y2="904.6" stroke="#7c3aed" stroke-width="2.4" opacity="0.18" />
<line x1="407.3" y1="386.8" x2="484.2" y2="812.7" stroke="#a78bfa" stroke-width="1.6" opacity="0.10" />
<line x1="407.3" y1="386.8" x2="404.6" y2="632.5" stroke="#8b5cf6" stroke-width="0.5" opacity="0.22" />
<line x1="407.3" y1="386.8" x2="317.5" y2="668.9" stroke="#8b5cf6" stroke-width="1.3" opacity="0.11" />
<line x1="407.3" y1="386.8" x2="156.1" y2="742.1" stroke="#8b5cf6" stroke-width="1.7" opacity="0.25" />
<line x1="407.3" y1="386.8" x2="-179.6" y2="922.1" stroke="#7c3aed" stroke-width="1.2" opacity="0.23" />
<line x1="407.3" y1="386.8" x2="-96.0" y2="667.8" stroke="#a78bfa" stroke-width="1.2" opacity="0.31" />
<line x1="407.3" y1="386.8" x2="-233.4" y2="516.2" stroke="#8b5cf6" stroke-width="1.0" opacity="0.17" />
<line x1="407.3" y1="386.8" x2="-329.8" y2="360.2" stroke="#8b5cf6" stroke-width="0.8" opacity="0.31" />
<line x1="407.3" y1="386.8" x2="214.6" y2="322.0" stroke="#a78bfa" stroke-width="1.0" opacity="0.35" />
<line x1="407.3" y1="386.8" x2="-74.4" y2="85.1" stroke="#a78bfa" stroke-width="0.9" opacity="0.15" />
<line x1="407.3" y1="386.8" x2="38.4" y2="-63.2" stroke="#7c3aed" stroke-width="1.3" opacity="0.26" />
<line x1="407.3" y1="386.8" x2="157.7" y2="-108.3" stroke="#7c3aed" stroke-width="1.3" opacity="0.17" />
<line x1="407.3" y1="386.8" x2="321.9" y2="-15.7" stroke="#7c3aed" stroke-width="1.1" opacity="0.27" />
<line x1="407.3" y1="386.8" x2="427.9" y2="126.9" stroke="#7c3aed" stroke-width="2.2" opacity="0.21" />
<line x1="407.3" y1="386.8" x2="575.2" y2="-144.9" stroke="#8b5cf6" stroke-width="0.5" opacity="0.28" />
<line x1="407.3" y1="386.8" x2="531.7" y2="201.9" stroke="#8b5cf6" stroke-width="1.8" opacity="0.35" />
<line x1="407.3" y1="386.8" x2="738.8" y2="114.7" stroke="#7c3aed" stroke-width="1.9" opacity="0.30" />
<line x1="407.3" y1="386.8" x2="1114.0" y2="23.1" stroke="#7c3aed" stroke-width="1.1" opacity="0.13" />
<line x1="407.3" y1="386.8" x2="821.8" y2="278.3" stroke="#8b5cf6" stroke-width="0.7" opacity="0.15" />
<circle cx="407.3" cy="386.8" r="80" fill="#7c3aed" opacity="0.15" filter="url(#glow)" />


  <!-- Vignette -->
  <rect width="1200" height="630" fill="url(#bg)" opacity="0.3" />

  <!-- Category badge -->
  <rect x="48" y="40" width="174" height="28" rx="14" fill="#7c3aed" opacity="0.9" />
  <text x="60" y="59" font-family="system-ui, -apple-system, sans-serif" font-size="12" font-weight="700" letter-spacing="1.5" text-transform="uppercase" fill="white">SCIENCE &amp; ARENA</text>

  <!-- Title -->
  <text x="48" y="550" font-family="system-ui, -apple-system, sans-serif" font-size="42" font-weight="800" fill="white" filter="url(#textShadow)" letter-spacing="-1">
    <tspan x="48" dy="0">The Reconciliation Arena: Quantum</tspan>
    <tspan x="48" dy="50">Meets Einstein at the Scale Boundary</tspan>
  </text>

  <!-- spike.land watermark -->
  <text x="1152" y="606" font-family="system-ui, -apple-system, sans-serif" font-size="14" font-weight="600" fill="#a78bfa" opacity="0.6" text-anchor="end">spike.land</text>
</svg>