<svg xmlns="http://www.w3.org/2000/svg" viewBox="0 0 1200 630" width="1200" height="630">
  <defs>
    <linearGradient id="bg" x1="0%" y1="0%" x2="100%" y2="100%">
      <stop offset="0%" stop-color="#022c22" />
      <stop offset="100%" stop-color="#064e3b" />
    </linearGradient>
    <filter id="glow">
      <feGaussianBlur stdDeviation="30" result="blur" />
      <feMerge><feMergeNode in="blur" /><feMergeNode in="SourceGraphic" /></feMerge>
    </filter>
    <filter id="textShadow">
      <feDropShadow dx="0" dy="2" stdDeviation="6" flood-color="#022c22" flood-opacity="0.8" />
    </filter>
  </defs>

  <!-- Background -->
  <rect width="1200" height="630" fill="url(#bg)" />

  <!-- Generative shapes -->
  <circle cx="61.3" cy="62.5" r="1.5" fill="#34d399" opacity="0.15" />
<circle cx="57.5" cy="119.4" r="1.6" fill="#34d399" opacity="0.16" />
<circle cx="61.9" cy="177.0" r="1.7" fill="#34d399" opacity="0.17" />
<circle cx="55.0" cy="235.8" r="1.7" fill="#34d399" opacity="0.17" />
<circle cx="59.9" cy="304.3" r="1.8" fill="#34d399" opacity="0.18" />
<circle cx="55.6" cy="355.9" r="1.8" fill="#34d399" opacity="0.18" />
<circle cx="55.4" cy="418.2" r="1.7" fill="#34d399" opacity="0.17" />
<circle cx="64.8" cy="477.2" r="1.7" fill="#34d399" opacity="0.17" />
<circle cx="64.8" cy="537.5" r="1.6" fill="#34d399" opacity="0.16" />
<circle cx="59.2" cy="595.3" r="1.4" fill="#34d399" opacity="0.14" />
<circle cx="123.9" cy="61.5" r="1.8" fill="#34d399" opacity="0.18" />
<circle cx="118.6" cy="116.9" r="1.9" fill="#34d399" opacity="0.19" />
<circle cx="117.7" cy="175.1" r="2.0" fill="#34d399" opacity="0.20" />
<circle cx="124.7" cy="237.5" r="2.2" fill="#34d399" opacity="0.22" />
<circle cx="119.3" cy="297.5" r="2.2" fill="#34d399" opacity="0.22" />
<circle cx="118.6" cy="361.0" r="2.1" fill="#34d399" opacity="0.21" />
<circle cx="116.7" cy="421.9" r="2.1" fill="#34d399" opacity="0.21" />
<circle cx="122.5" cy="481.7" r="2.0" fill="#34d399" opacity="0.20" />
<circle cx="123.3" cy="538.5" r="1.9" fill="#34d399" opacity="0.19" />
<circle cx="119.3" cy="601.9" r="1.7" fill="#34d399" opacity="0.17" />
<circle cx="178.9" cy="59.6" r="2.1" fill="#34d399" opacity="0.21" />
<circle cx="183.0" cy="118.3" r="2.3" fill="#10b981" opacity="0.23" />
<circle cx="177.4" cy="178.8" r="2.4" fill="#10b981" opacity="0.24" />
<circle cx="176.6" cy="240.4" r="2.5" fill="#10b981" opacity="0.25" />
<circle cx="179.1" cy="302.7" r="2.5" fill="#10b981" opacity="0.25" />
<circle cx="178.0" cy="361.6" r="2.5" fill="#10b981" opacity="0.25" />
<circle cx="180.8" cy="417.0" r="2.5" fill="#10b981" opacity="0.25" />
<circle cx="182.0" cy="479.5" r="2.3" fill="#10b981" opacity="0.23" />
<circle cx="175.6" cy="536.5" r="2.2" fill="#34d399" opacity="0.22" />
<circle cx="178.7" cy="603.8" r="2.0" fill="#34d399" opacity="0.20" />
<circle cx="243.0" cy="59.1" r="2.4" fill="#10b981" opacity="0.24" />
<circle cx="244.6" cy="118.9" r="2.6" fill="#10b981" opacity="0.26" />
<circle cx="241.2" cy="175.5" r="2.7" fill="#10b981" opacity="0.27" />
<circle cx="240.1" cy="240.4" r="2.8" fill="#10b981" opacity="0.28" />
<circle cx="243.8" cy="302.8" r="2.9" fill="#10b981" opacity="0.29" />
<circle cx="237.4" cy="361.1" r="2.8" fill="#10b981" opacity="0.28" />
<circle cx="241.1" cy="423.8" r="2.8" fill="#10b981" opacity="0.28" />
<circle cx="241.7" cy="477.0" r="2.7" fill="#10b981" opacity="0.27" />
<circle cx="239.1" cy="542.9" r="2.5" fill="#10b981" opacity="0.25" />
<circle cx="242.1" cy="598.4" r="2.3" fill="#10b981" opacity="0.23" />
<circle cx="296.6" cy="56.1" r="2.6" fill="#10b981" opacity="0.26" />
<circle cx="303.8" cy="116.7" r="2.9" fill="#10b981" opacity="0.29" />
<circle cx="302.6" cy="179.0" r="3.1" fill="#10b981" opacity="0.31" />
<circle cx="297.9" cy="241.5" r="3.2" fill="#10b981" opacity="0.32" />
<circle cx="295.4" cy="300.3" r="3.2" fill="#10b981" opacity="0.32" />
<circle cx="300.7" cy="359.7" r="3.2" fill="#10b981" opacity="0.32" />
<circle cx="304.8" cy="422.9" r="3.1" fill="#10b981" opacity="0.31" />
<circle cx="298.5" cy="479.6" r="3.0" fill="#10b981" opacity="0.30" />
<circle cx="298.5" cy="541.4" r="2.8" fill="#10b981" opacity="0.28" />
<circle cx="300.2" cy="603.4" r="2.5" fill="#10b981" opacity="0.25" />
<circle cx="356.7" cy="58.3" r="2.9" fill="#10b981" opacity="0.29" />
<circle cx="363.9" cy="120.5" r="3.2" fill="#10b981" opacity="0.32" />
<circle cx="362.0" cy="176.5" r="3.4" fill="#10b981" opacity="0.34" />
<circle cx="358.8" cy="244.0" r="3.5" fill="#059669" opacity="0.35" />
<circle cx="361.4" cy="301.6" r="3.6" fill="#059669" opacity="0.36" />
<circle cx="359.4" cy="363.9" r="3.6" fill="#059669" opacity="0.36" />
<circle cx="356.8" cy="421.0" r="3.4" fill="#059669" opacity="0.34" />
<circle cx="363.6" cy="479.5" r="3.3" fill="#10b981" opacity="0.33" />
<circle cx="360.7" cy="543.5" r="3.0" fill="#10b981" opacity="0.30" />
<circle cx="360.3" cy="604.0" r="2.8" fill="#10b981" opacity="0.28" />
<circle cx="423.6" cy="56.3" r="3.2" fill="#10b981" opacity="0.32" />
<circle cx="420.1" cy="123.5" r="3.4" fill="#059669" opacity="0.34" />
<circle cx="418.8" cy="182.5" r="3.7" fill="#059669" opacity="0.37" />
<circle cx="422.9" cy="244.5" r="3.9" fill="#059669" opacity="0.39" />
<circle cx="423.9" cy="298.2" r="4.0" fill="#059669" opacity="0.40" />
<circle cx="416.8" cy="360.9" r="3.9" fill="#059669" opacity="0.39" />
<circle cx="421.4" cy="419.1" r="3.8" fill="#059669" opacity="0.38" />
<circle cx="422.3" cy="475.0" r="3.6" fill="#059669" opacity="0.36" />
<circle cx="418.6" cy="537.6" r="3.3" fill="#10b981" opacity="0.33" />
<circle cx="415.6" cy="604.3" r="3.0" fill="#10b981" opacity="0.30" />
<circle cx="481.7" cy="61.3" r="3.3" fill="#10b981" opacity="0.33" />
<circle cx="475.7" cy="117.6" r="3.6" fill="#059669" opacity="0.36" />
<circle cx="481.0" cy="181.2" r="3.9" fill="#059669" opacity="0.39" />
<circle cx="478.3" cy="241.9" r="4.2" fill="#059669" opacity="0.42" />
<circle cx="483.0" cy="302.1" r="4.3" fill="#059669" opacity="0.43" />
<circle cx="482.2" cy="355.6" r="4.3" fill="#059669" opacity="0.43" />
<circle cx="477.7" cy="424.3" r="4.0" fill="#059669" opacity="0.40" />
<circle cx="480.0" cy="476.6" r="3.8" fill="#059669" opacity="0.38" />
<circle cx="475.9" cy="537.1" r="3.5" fill="#059669" opacity="0.35" />
<circle cx="479.4" cy="603.4" r="3.2" fill="#10b981" opacity="0.32" />
<circle cx="544.5" cy="64.6" r="3.5" fill="#059669" opacity="0.35" />
<circle cx="537.9" cy="116.3" r="3.8" fill="#059669" opacity="0.38" />
<circle cx="544.1" cy="184.1" r="4.2" fill="#059669" opacity="0.42" />
<circle cx="535.2" cy="237.3" r="4.4" fill="#059669" opacity="0.44" />
<circle cx="539.5" cy="297.0" r="4.6" fill="#059669" opacity="0.46" />
<circle cx="537.3" cy="355.6" r="4.6" fill="#059669" opacity="0.46" />
<circle cx="544.3" cy="423.7" r="4.3" fill="#059669" opacity="0.43" />
<circle cx="536.9" cy="477.7" r="4.0" fill="#059669" opacity="0.40" />
<circle cx="541.9" cy="540.4" r="3.6" fill="#059669" opacity="0.36" />
<circle cx="543.1" cy="598.7" r="3.3" fill="#10b981" opacity="0.33" />
<circle cx="603.8" cy="61.6" r="3.5" fill="#059669" opacity="0.35" />
<circle cx="595.9" cy="122.9" r="3.9" fill="#059669" opacity="0.39" />
<circle cx="597.2" cy="184.7" r="4.2" fill="#059669" opacity="0.42" />
<circle cx="597.8" cy="243.1" r="4.6" fill="#059669" opacity="0.46" />
<circle cx="603.5" cy="301.0" r="4.9" fill="#059669" opacity="0.49" />
<circle cx="598.6" cy="363.3" r="4.7" fill="#059669" opacity="0.47" />
<circle cx="598.6" cy="419.6" r="4.4" fill="#059669" opacity="0.44" />
<circle cx="595.6" cy="475.7" r="4.1" fill="#059669" opacity="0.41" />
<circle cx="597.7" cy="537.8" r="3.7" fill="#059669" opacity="0.37" />
<circle cx="604.3" cy="597.7" r="3.3" fill="#10b981" opacity="0.33" />
<circle cx="664.7" cy="55.4" r="3.4" fill="#059669" opacity="0.34" />
<circle cx="663.4" cy="118.5" r="3.8" fill="#059669" opacity="0.38" />
<circle cx="659.7" cy="175.9" r="4.1" fill="#059669" opacity="0.41" />
<circle cx="658.4" cy="240.6" r="4.4" fill="#059669" opacity="0.44" />
<circle cx="663.6" cy="303.1" r="4.6" fill="#059669" opacity="0.46" />
<circle cx="657.1" cy="357.2" r="4.6" fill="#059669" opacity="0.46" />
<circle cx="664.3" cy="424.0" r="4.3" fill="#059669" opacity="0.43" />
<circle cx="662.5" cy="480.4" r="4.0" fill="#059669" opacity="0.40" />
<circle cx="663.0" cy="538.0" r="3.6" fill="#059669" opacity="0.36" />
<circle cx="664.8" cy="600.0" r="3.3" fill="#10b981" opacity="0.33" />
<circle cx="715.4" cy="63.9" r="3.4" fill="#10b981" opacity="0.34" />
<circle cx="720.3" cy="119.4" r="3.6" fill="#059669" opacity="0.36" />
<circle cx="716.3" cy="182.9" r="4.0" fill="#059669" opacity="0.40" />
<circle cx="716.1" cy="237.9" r="4.2" fill="#059669" opacity="0.42" />
<circle cx="721.3" cy="300.1" r="4.3" fill="#059669" opacity="0.43" />
<circle cx="720.3" cy="364.7" r="4.2" fill="#059669" opacity="0.42" />
<circle cx="716.0" cy="423.3" r="4.1" fill="#059669" opacity="0.41" />
<circle cx="717.2" cy="476.2" r="3.8" fill="#059669" opacity="0.38" />
<circle cx="715.2" cy="540.2" r="3.5" fill="#059669" opacity="0.35" />
<circle cx="724.3" cy="600.1" r="3.2" fill="#10b981" opacity="0.32" />
<circle cx="782.1" cy="63.7" r="3.2" fill="#10b981" opacity="0.32" />
<circle cx="783.5" cy="117.9" r="3.4" fill="#059669" opacity="0.34" />
<circle cx="782.0" cy="176.7" r="3.7" fill="#059669" opacity="0.37" />
<circle cx="782.2" cy="240.3" r="3.8" fill="#059669" opacity="0.38" />
<circle cx="777.5" cy="295.1" r="3.9" fill="#059669" opacity="0.39" />
<circle cx="776.7" cy="357.0" r="3.9" fill="#059669" opacity="0.39" />
<circle cx="782.2" cy="420.8" r="3.8" fill="#059669" opacity="0.38" />
<circle cx="783.1" cy="484.7" r="3.5" fill="#059669" opacity="0.35" />
<circle cx="779.3" cy="543.9" r="3.3" fill="#10b981" opacity="0.33" />
<circle cx="779.5" cy="604.6" r="3.0" fill="#10b981" opacity="0.30" />
<circle cx="841.0" cy="56.0" r="2.9" fill="#10b981" opacity="0.29" />
<circle cx="843.0" cy="124.3" r="3.2" fill="#10b981" opacity="0.32" />
<circle cx="836.7" cy="181.8" r="3.4" fill="#10b981" opacity="0.34" />
<circle cx="836.3" cy="245.0" r="3.5" fill="#059669" opacity="0.35" />
<circle cx="844.4" cy="304.2" r="3.6" fill="#059669" opacity="0.36" />
<circle cx="838.0" cy="358.2" r="3.6" fill="#059669" opacity="0.36" />
<circle cx="844.8" cy="417.1" r="3.4" fill="#059669" opacity="0.34" />
<circle cx="839.5" cy="483.7" r="3.3" fill="#10b981" opacity="0.33" />
<circle cx="841.1" cy="542.6" r="3.0" fill="#10b981" opacity="0.30" />
<circle cx="844.5" cy="602.5" r="2.8" fill="#10b981" opacity="0.28" />
<circle cx="904.8" cy="57.3" r="2.6" fill="#10b981" opacity="0.26" />
<circle cx="902.8" cy="116.7" r="2.9" fill="#10b981" opacity="0.29" />
<circle cx="900.8" cy="182.0" r="3.1" fill="#10b981" opacity="0.31" />
<circle cx="895.1" cy="239.9" r="3.2" fill="#10b981" opacity="0.32" />
<circle cx="900.7" cy="302.9" r="3.2" fill="#10b981" opacity="0.32" />
<circle cx="900.3" cy="360.4" r="3.2" fill="#10b981" opacity="0.32" />
<circle cx="899.1" cy="415.8" r="3.1" fill="#10b981" opacity="0.31" />
<circle cx="901.3" cy="480.5" r="3.0" fill="#10b981" opacity="0.30" />
<circle cx="901.5" cy="542.4" r="2.8" fill="#10b981" opacity="0.28" />
<circle cx="902.2" cy="603.7" r="2.5" fill="#10b981" opacity="0.25" />
<circle cx="957.8" cy="60.9" r="2.4" fill="#10b981" opacity="0.24" />
<circle cx="961.8" cy="124.4" r="2.6" fill="#10b981" opacity="0.26" />
<circle cx="960.5" cy="178.6" r="2.7" fill="#10b981" opacity="0.27" />
<circle cx="956.5" cy="240.7" r="2.9" fill="#10b981" opacity="0.29" />
<circle cx="962.3" cy="299.7" r="2.9" fill="#10b981" opacity="0.29" />
<circle cx="957.6" cy="365.0" r="2.9" fill="#10b981" opacity="0.29" />
<circle cx="960.6" cy="416.1" r="2.8" fill="#10b981" opacity="0.28" />
<circle cx="956.7" cy="484.3" r="2.7" fill="#10b981" opacity="0.27" />
<circle cx="965.0" cy="543.2" r="2.5" fill="#10b981" opacity="0.25" />
<circle cx="963.0" cy="603.4" r="2.3" fill="#10b981" opacity="0.23" />
<circle cx="1015.3" cy="60.2" r="2.1" fill="#34d399" opacity="0.21" />
<circle cx="1016.7" cy="122.6" r="2.3" fill="#10b981" opacity="0.23" />
<circle cx="1024.6" cy="175.3" r="2.4" fill="#10b981" opacity="0.24" />
<circle cx="1023.1" cy="235.0" r="2.5" fill="#10b981" opacity="0.25" />
<circle cx="1016.8" cy="296.7" r="2.5" fill="#10b981" opacity="0.25" />
<circle cx="1020.5" cy="364.3" r="2.5" fill="#10b981" opacity="0.25" />
<circle cx="1022.1" cy="418.6" r="2.4" fill="#10b981" opacity="0.24" />
<circle cx="1017.2" cy="476.3" r="2.4" fill="#10b981" opacity="0.24" />
<circle cx="1019.9" cy="543.6" r="2.2" fill="#34d399" opacity="0.22" />
<circle cx="1019.8" cy="597.4" r="2.0" fill="#34d399" opacity="0.20" />
<circle cx="1082.8" cy="61.3" r="1.8" fill="#34d399" opacity="0.18" />
<circle cx="1079.1" cy="123.3" r="2.0" fill="#34d399" opacity="0.20" />
<circle cx="1081.8" cy="183.3" r="2.1" fill="#34d399" opacity="0.21" />
<circle cx="1076.2" cy="238.2" r="2.2" fill="#34d399" opacity="0.22" />
<circle cx="1084.8" cy="295.3" r="2.1" fill="#34d399" opacity="0.21" />
<circle cx="1082.9" cy="361.7" r="2.1" fill="#34d399" opacity="0.21" />
<circle cx="1079.3" cy="416.3" r="2.1" fill="#34d399" opacity="0.21" />
<circle cx="1081.1" cy="481.2" r="2.0" fill="#34d399" opacity="0.20" />
<circle cx="1083.1" cy="535.6" r="1.9" fill="#34d399" opacity="0.19" />
<circle cx="1075.3" cy="597.4" r="1.7" fill="#34d399" opacity="0.17" />
<circle cx="1140.6" cy="56.7" r="1.5" fill="#34d399" opacity="0.15" />
<circle cx="1140.9" cy="121.2" r="1.6" fill="#34d399" opacity="0.16" />
<circle cx="1140.9" cy="181.0" r="1.7" fill="#34d399" opacity="0.17" />
<circle cx="1144.7" cy="238.9" r="1.8" fill="#34d399" opacity="0.18" />
<circle cx="1144.9" cy="298.0" r="1.8" fill="#34d399" opacity="0.18" />
<circle cx="1138.9" cy="355.6" r="1.8" fill="#34d399" opacity="0.18" />
<circle cx="1136.6" cy="416.2" r="1.8" fill="#34d399" opacity="0.18" />
<circle cx="1135.5" cy="481.0" r="1.7" fill="#34d399" opacity="0.17" />
<circle cx="1137.4" cy="541.0" r="1.6" fill="#34d399" opacity="0.16" />
<circle cx="1142.9" cy="599.4" r="1.4" fill="#34d399" opacity="0.14" />


  <!-- Vignette -->
  <rect width="1200" height="630" fill="url(#bg)" opacity="0.3" />

  <!-- Category badge -->
  <rect x="48" y="40" width="174" height="28" rx="14" fill="#059669" opacity="0.9" />
  <text x="60" y="59" font-family="system-ui, -apple-system, sans-serif" font-size="12" font-weight="700" letter-spacing="1.5" text-transform="uppercase" fill="white">SCIENCE &amp; ARENA</text>

  <!-- Title -->
  <text x="48" y="550" font-family="system-ui, -apple-system, sans-serif" font-size="42" font-weight="800" fill="white" filter="url(#textShadow)" letter-spacing="-1">
    <tspan x="48" dy="0">Smalltown Boy: The Falsetto Physics</tspan>
    <tspan x="48" dy="50">Arena</tspan>
  </text>

  <!-- spike.land watermark -->
  <text x="1152" y="606" font-family="system-ui, -apple-system, sans-serif" font-size="14" font-weight="600" fill="#34d399" opacity="0.6" text-anchor="end">spike.land</text>
</svg>