<svg xmlns="http://www.w3.org/2000/svg" viewBox="0 0 1200 630" width="1200" height="630">
  <defs>
    <linearGradient id="bg" x1="0%" y1="0%" x2="100%" y2="100%">
      <stop offset="0%" stop-color="#1c1917" />
      <stop offset="100%" stop-color="#27272a" />
    </linearGradient>
    <filter id="glow">
      <feGaussianBlur stdDeviation="30" result="blur" />
      <feMerge><feMergeNode in="blur" /><feMergeNode in="SourceGraphic" /></feMerge>
    </filter>
    <filter id="textShadow">
      <feDropShadow dx="0" dy="2" stdDeviation="6" flood-color="#1c1917" flood-opacity="0.8" />
    </filter>
  </defs>

  <!-- Background -->
  <rect width="1200" height="630" fill="url(#bg)" />

  <!-- Generative shapes -->
  <circle cx="59.3" cy="57.5" r="1.5" fill="#fb7185" opacity="0.15" />
<circle cx="54.9" cy="116.7" r="1.6" fill="#fb7185" opacity="0.16" />
<circle cx="52.9" cy="174.7" r="1.7" fill="#fb7185" opacity="0.17" />
<circle cx="58.0" cy="228.7" r="1.8" fill="#fb7185" opacity="0.18" />
<circle cx="56.3" cy="287.9" r="1.8" fill="#fb7185" opacity="0.18" />
<circle cx="61.4" cy="339.2" r="1.8" fill="#fb7185" opacity="0.18" />
<circle cx="55.8" cy="394.9" r="1.8" fill="#fb7185" opacity="0.18" />
<circle cx="59.9" cy="453.9" r="1.7" fill="#fb7185" opacity="0.17" />
<circle cx="54.4" cy="512.2" r="1.6" fill="#fb7185" opacity="0.16" />
<circle cx="52.6" cy="565.2" r="1.4" fill="#fb7185" opacity="0.14" />
<circle cx="56.9" cy="623.1" r="1.3" fill="#fb7185" opacity="0.13" />
<circle cx="114.1" cy="61.5" r="1.8" fill="#fb7185" opacity="0.18" />
<circle cx="109.5" cy="111.6" r="1.9" fill="#fb7185" opacity="0.19" />
<circle cx="109.1" cy="175.8" r="2.0" fill="#fb7185" opacity="0.20" />
<circle cx="110.7" cy="229.3" r="2.1" fill="#fb7185" opacity="0.21" />
<circle cx="115.3" cy="287.6" r="2.1" fill="#fb7185" opacity="0.21" />
<circle cx="118.1" cy="341.2" r="2.2" fill="#fb7185" opacity="0.22" />
<circle cx="118.0" cy="400.1" r="2.1" fill="#fb7185" opacity="0.21" />
<circle cx="109.5" cy="455.4" r="2.0" fill="#fb7185" opacity="0.20" />
<circle cx="110.8" cy="516.0" r="1.9" fill="#fb7185" opacity="0.19" />
<circle cx="113.1" cy="572.2" r="1.7" fill="#fb7185" opacity="0.17" />
<circle cx="114.5" cy="627.0" r="1.6" fill="#fb7185" opacity="0.16" />
<circle cx="170.0" cy="52.4" r="2.0" fill="#fb7185" opacity="0.20" />
<circle cx="167.0" cy="109.4" r="2.2" fill="#fb7185" opacity="0.22" />
<circle cx="173.9" cy="170.6" r="2.3" fill="#f43f5e" opacity="0.23" />
<circle cx="166.5" cy="232.4" r="2.4" fill="#f43f5e" opacity="0.24" />
<circle cx="171.1" cy="283.8" r="2.5" fill="#f43f5e" opacity="0.25" />
<circle cx="172.3" cy="341.3" r="2.5" fill="#f43f5e" opacity="0.25" />
<circle cx="171.5" cy="395.3" r="2.4" fill="#f43f5e" opacity="0.24" />
<circle cx="166.1" cy="457.0" r="2.3" fill="#f43f5e" opacity="0.23" />
<circle cx="172.2" cy="514.6" r="2.2" fill="#f43f5e" opacity="0.22" />
<circle cx="169.6" cy="567.2" r="2.1" fill="#fb7185" opacity="0.21" />
<circle cx="173.9" cy="625.5" r="1.9" fill="#fb7185" opacity="0.19" />
<circle cx="226.3" cy="55.0" r="2.3" fill="#f43f5e" opacity="0.23" />
<circle cx="229.1" cy="112.7" r="2.5" fill="#f43f5e" opacity="0.25" />
<circle cx="231.6" cy="168.7" r="2.7" fill="#f43f5e" opacity="0.27" />
<circle cx="224.3" cy="232.0" r="2.7" fill="#f43f5e" opacity="0.27" />
<circle cx="230.4" cy="280.1" r="2.8" fill="#f43f5e" opacity="0.28" />
<circle cx="224.7" cy="340.3" r="2.8" fill="#f43f5e" opacity="0.28" />
<circle cx="232.3" cy="400.0" r="2.8" fill="#f43f5e" opacity="0.28" />
<circle cx="225.6" cy="459.9" r="2.6" fill="#f43f5e" opacity="0.26" />
<circle cx="231.1" cy="517.0" r="2.5" fill="#f43f5e" opacity="0.25" />
<circle cx="230.1" cy="574.3" r="2.3" fill="#f43f5e" opacity="0.23" />
<circle cx="228.2" cy="622.0" r="2.2" fill="#fb7185" opacity="0.22" />
<circle cx="281.1" cy="52.4" r="2.6" fill="#f43f5e" opacity="0.26" />
<circle cx="286.7" cy="114.2" r="2.8" fill="#f43f5e" opacity="0.28" />
<circle cx="288.2" cy="170.9" r="3.0" fill="#f43f5e" opacity="0.30" />
<circle cx="282.5" cy="230.9" r="3.1" fill="#f43f5e" opacity="0.31" />
<circle cx="286.6" cy="280.6" r="3.1" fill="#f43f5e" opacity="0.31" />
<circle cx="283.8" cy="337.9" r="3.1" fill="#f43f5e" opacity="0.31" />
<circle cx="284.1" cy="401.2" r="3.1" fill="#f43f5e" opacity="0.31" />
<circle cx="285.3" cy="457.9" r="3.0" fill="#f43f5e" opacity="0.30" />
<circle cx="283.5" cy="510.5" r="2.8" fill="#f43f5e" opacity="0.28" />
<circle cx="288.5" cy="565.3" r="2.6" fill="#f43f5e" opacity="0.26" />
<circle cx="284.2" cy="625.2" r="2.4" fill="#f43f5e" opacity="0.24" />
<circle cx="340.5" cy="60.4" r="2.9" fill="#f43f5e" opacity="0.29" />
<circle cx="338.5" cy="109.9" r="3.0" fill="#f43f5e" opacity="0.30" />
<circle cx="341.4" cy="170.2" r="3.3" fill="#f43f5e" opacity="0.33" />
<circle cx="338.8" cy="230.1" r="3.4" fill="#f43f5e" opacity="0.34" />
<circle cx="343.8" cy="289.0" r="3.5" fill="#e11d48" opacity="0.35" />
<circle cx="339.3" cy="337.6" r="3.5" fill="#e11d48" opacity="0.35" />
<circle cx="338.6" cy="401.6" r="3.4" fill="#f43f5e" opacity="0.34" />
<circle cx="341.6" cy="459.7" r="3.3" fill="#f43f5e" opacity="0.33" />
<circle cx="341.6" cy="511.5" r="3.1" fill="#f43f5e" opacity="0.31" />
<circle cx="339.4" cy="570.8" r="2.8" fill="#f43f5e" opacity="0.28" />
<circle cx="341.9" cy="629.7" r="2.6" fill="#f43f5e" opacity="0.26" />
<circle cx="403.9" cy="55.0" r="3.1" fill="#f43f5e" opacity="0.31" />
<circle cx="396.7" cy="117.2" r="3.3" fill="#f43f5e" opacity="0.33" />
<circle cx="396.7" cy="175.7" r="3.5" fill="#e11d48" opacity="0.35" />
<circle cx="402.7" cy="226.3" r="3.7" fill="#e11d48" opacity="0.37" />
<circle cx="401.7" cy="281.6" r="3.8" fill="#e11d48" opacity="0.38" />
<circle cx="400.1" cy="343.3" r="3.8" fill="#e11d48" opacity="0.38" />
<circle cx="397.7" cy="400.8" r="3.7" fill="#e11d48" opacity="0.37" />
<circle cx="401.5" cy="456.3" r="3.6" fill="#e11d48" opacity="0.36" />
<circle cx="403.1" cy="512.3" r="3.4" fill="#f43f5e" opacity="0.34" />
<circle cx="401.5" cy="569.0" r="3.1" fill="#f43f5e" opacity="0.31" />
<circle cx="401.7" cy="627.4" r="2.8" fill="#f43f5e" opacity="0.28" />
<circle cx="454.1" cy="60.8" r="3.3" fill="#f43f5e" opacity="0.33" />
<circle cx="452.1" cy="112.3" r="3.5" fill="#e11d48" opacity="0.35" />
<circle cx="453.9" cy="174.0" r="3.8" fill="#e11d48" opacity="0.38" />
<circle cx="457.2" cy="224.8" r="4.0" fill="#e11d48" opacity="0.40" />
<circle cx="458.9" cy="286.5" r="4.2" fill="#e11d48" opacity="0.42" />
<circle cx="458.7" cy="344.2" r="4.1" fill="#e11d48" opacity="0.41" />
<circle cx="454.0" cy="398.5" r="4.0" fill="#e11d48" opacity="0.40" />
<circle cx="455.5" cy="456.5" r="3.8" fill="#e11d48" opacity="0.38" />
<circle cx="455.5" cy="510.4" r="3.6" fill="#e11d48" opacity="0.36" />
<circle cx="458.7" cy="572.6" r="3.3" fill="#f43f5e" opacity="0.33" />
<circle cx="451.7" cy="631.1" r="2.9" fill="#f43f5e" opacity="0.29" />
<circle cx="510.3" cy="58.1" r="3.4" fill="#f43f5e" opacity="0.34" />
<circle cx="509.6" cy="117.1" r="3.7" fill="#e11d48" opacity="0.37" />
<circle cx="515.8" cy="171.9" r="4.0" fill="#e11d48" opacity="0.40" />
<circle cx="513.2" cy="231.0" r="4.3" fill="#e11d48" opacity="0.43" />
<circle cx="508.3" cy="280.9" r="4.4" fill="#e11d48" opacity="0.44" />
<circle cx="513.8" cy="346.8" r="4.5" fill="#e11d48" opacity="0.45" />
<circle cx="510.7" cy="395.9" r="4.3" fill="#e11d48" opacity="0.43" />
<circle cx="510.1" cy="451.7" r="4.0" fill="#e11d48" opacity="0.40" />
<circle cx="511.2" cy="512.2" r="3.7" fill="#e11d48" opacity="0.37" />
<circle cx="508.3" cy="570.6" r="3.4" fill="#f43f5e" opacity="0.34" />
<circle cx="509.2" cy="625.6" r="3.1" fill="#f43f5e" opacity="0.31" />
<circle cx="565.0" cy="55.9" r="3.5" fill="#e11d48" opacity="0.35" />
<circle cx="574.0" cy="116.4" r="3.8" fill="#e11d48" opacity="0.38" />
<circle cx="574.0" cy="172.0" r="4.1" fill="#e11d48" opacity="0.41" />
<circle cx="573.8" cy="231.3" r="4.5" fill="#e11d48" opacity="0.45" />
<circle cx="568.0" cy="286.1" r="4.7" fill="#e11d48" opacity="0.47" />
<circle cx="569.5" cy="337.8" r="4.8" fill="#e11d48" opacity="0.48" />
<circle cx="572.7" cy="397.9" r="4.5" fill="#e11d48" opacity="0.45" />
<circle cx="571.0" cy="455.5" r="4.2" fill="#e11d48" opacity="0.42" />
<circle cx="574.7" cy="512.3" r="3.8" fill="#e11d48" opacity="0.38" />
<circle cx="572.1" cy="571.3" r="3.5" fill="#e11d48" opacity="0.35" />
<circle cx="566.2" cy="628.5" r="3.1" fill="#f43f5e" opacity="0.31" />
<circle cx="625.4" cy="57.4" r="3.5" fill="#e11d48" opacity="0.35" />
<circle cx="630.5" cy="110.4" r="3.8" fill="#e11d48" opacity="0.38" />
<circle cx="624.7" cy="167.7" r="4.1" fill="#e11d48" opacity="0.41" />
<circle cx="628.4" cy="231.9" r="4.5" fill="#e11d48" opacity="0.45" />
<circle cx="624.8" cy="284.0" r="4.8" fill="#e11d48" opacity="0.48" />
<circle cx="631.1" cy="341.9" r="4.8" fill="#e11d48" opacity="0.48" />
<circle cx="622.2" cy="400.0" r="4.5" fill="#e11d48" opacity="0.45" />
<circle cx="623.7" cy="459.1" r="4.1" fill="#e11d48" opacity="0.41" />
<circle cx="626.4" cy="516.7" r="3.8" fill="#e11d48" opacity="0.38" />
<circle cx="631.8" cy="572.2" r="3.5" fill="#e11d48" opacity="0.35" />
<circle cx="623.5" cy="627.8" r="3.1" fill="#f43f5e" opacity="0.31" />
<circle cx="682.4" cy="60.9" r="3.4" fill="#e11d48" opacity="0.34" />
<circle cx="679.8" cy="109.7" r="3.7" fill="#e11d48" opacity="0.37" />
<circle cx="681.0" cy="172.6" r="4.0" fill="#e11d48" opacity="0.40" />
<circle cx="688.0" cy="226.3" r="4.3" fill="#e11d48" opacity="0.43" />
<circle cx="686.2" cy="280.6" r="4.5" fill="#e11d48" opacity="0.45" />
<circle cx="685.4" cy="339.6" r="4.5" fill="#e11d48" opacity="0.45" />
<circle cx="688.9" cy="403.9" r="4.3" fill="#e11d48" opacity="0.43" />
<circle cx="686.9" cy="456.5" r="4.0" fill="#e11d48" opacity="0.40" />
<circle cx="686.0" cy="513.5" r="3.7" fill="#e11d48" opacity="0.37" />
<circle cx="683.1" cy="572.6" r="3.4" fill="#e11d48" opacity="0.34" />
<circle cx="686.2" cy="628.3" r="3.1" fill="#f43f5e" opacity="0.31" />
<circle cx="741.9" cy="56.5" r="3.3" fill="#f43f5e" opacity="0.33" />
<circle cx="744.9" cy="116.8" r="3.6" fill="#e11d48" opacity="0.36" />
<circle cx="743.2" cy="167.3" r="3.8" fill="#e11d48" opacity="0.38" />
<circle cx="745.8" cy="225.5" r="4.0" fill="#e11d48" opacity="0.40" />
<circle cx="744.6" cy="288.8" r="4.1" fill="#e11d48" opacity="0.41" />
<circle cx="738.6" cy="341.9" r="4.2" fill="#e11d48" opacity="0.42" />
<circle cx="744.2" cy="397.0" r="4.0" fill="#e11d48" opacity="0.40" />
<circle cx="740.8" cy="459.7" r="3.8" fill="#e11d48" opacity="0.38" />
<circle cx="737.1" cy="514.7" r="3.6" fill="#e11d48" opacity="0.36" />
<circle cx="744.2" cy="573.9" r="3.3" fill="#f43f5e" opacity="0.33" />
<circle cx="739.8" cy="622.1" r="3.0" fill="#f43f5e" opacity="0.30" />
<circle cx="798.5" cy="58.5" r="3.1" fill="#f43f5e" opacity="0.31" />
<circle cx="799.2" cy="118.8" r="3.3" fill="#f43f5e" opacity="0.33" />
<circle cx="802.4" cy="175.6" r="3.5" fill="#e11d48" opacity="0.35" />
<circle cx="798.9" cy="225.0" r="3.7" fill="#e11d48" opacity="0.37" />
<circle cx="795.7" cy="287.2" r="3.8" fill="#e11d48" opacity="0.38" />
<circle cx="801.5" cy="346.0" r="3.8" fill="#e11d48" opacity="0.38" />
<circle cx="796.3" cy="403.5" r="3.7" fill="#e11d48" opacity="0.37" />
<circle cx="801.8" cy="457.6" r="3.5" fill="#e11d48" opacity="0.35" />
<circle cx="796.1" cy="510.4" r="3.4" fill="#f43f5e" opacity="0.34" />
<circle cx="798.2" cy="565.4" r="3.1" fill="#f43f5e" opacity="0.31" />
<circle cx="799.1" cy="631.0" r="2.8" fill="#f43f5e" opacity="0.28" />
<circle cx="853.5" cy="59.5" r="2.9" fill="#f43f5e" opacity="0.29" />
<circle cx="852.5" cy="114.1" r="3.1" fill="#f43f5e" opacity="0.31" />
<circle cx="852.5" cy="169.9" r="3.3" fill="#f43f5e" opacity="0.33" />
<circle cx="855.2" cy="226.3" r="3.4" fill="#e11d48" opacity="0.34" />
<circle cx="856.8" cy="282.2" r="3.5" fill="#e11d48" opacity="0.35" />
<circle cx="856.3" cy="338.8" r="3.5" fill="#e11d48" opacity="0.35" />
<circle cx="858.8" cy="395.5" r="3.4" fill="#e11d48" opacity="0.34" />
<circle cx="857.6" cy="452.0" r="3.3" fill="#f43f5e" opacity="0.33" />
<circle cx="857.7" cy="510.0" r="3.1" fill="#f43f5e" opacity="0.31" />
<circle cx="855.8" cy="572.0" r="2.9" fill="#f43f5e" opacity="0.29" />
<circle cx="854.0" cy="630.3" r="2.6" fill="#f43f5e" opacity="0.26" />
<circle cx="911.2" cy="55.0" r="2.6" fill="#f43f5e" opacity="0.26" />
<circle cx="907.0" cy="112.0" r="2.8" fill="#f43f5e" opacity="0.28" />
<circle cx="908.4" cy="173.8" r="3.0" fill="#f43f5e" opacity="0.30" />
<circle cx="911.7" cy="226.9" r="3.1" fill="#f43f5e" opacity="0.31" />
<circle cx="908.0" cy="283.4" r="3.2" fill="#f43f5e" opacity="0.32" />
<circle cx="907.9" cy="345.3" r="3.2" fill="#f43f5e" opacity="0.32" />
<circle cx="907.8" cy="394.1" r="3.1" fill="#f43f5e" opacity="0.31" />
<circle cx="913.5" cy="456.1" r="3.0" fill="#f43f5e" opacity="0.30" />
<circle cx="912.9" cy="509.5" r="2.8" fill="#f43f5e" opacity="0.28" />
<circle cx="912.5" cy="566.3" r="2.6" fill="#f43f5e" opacity="0.26" />
<circle cx="911.7" cy="628.7" r="2.4" fill="#f43f5e" opacity="0.24" />
<circle cx="965.4" cy="52.2" r="2.3" fill="#f43f5e" opacity="0.23" />
<circle cx="966.1" cy="113.7" r="2.5" fill="#f43f5e" opacity="0.25" />
<circle cx="972.4" cy="166.8" r="2.6" fill="#f43f5e" opacity="0.26" />
<circle cx="972.1" cy="228.4" r="2.7" fill="#f43f5e" opacity="0.27" />
<circle cx="966.6" cy="284.2" r="2.8" fill="#f43f5e" opacity="0.28" />
<circle cx="971.6" cy="340.3" r="2.8" fill="#f43f5e" opacity="0.28" />
<circle cx="964.6" cy="400.6" r="2.8" fill="#f43f5e" opacity="0.28" />
<circle cx="971.9" cy="460.5" r="2.6" fill="#f43f5e" opacity="0.26" />
<circle cx="968.6" cy="513.5" r="2.5" fill="#f43f5e" opacity="0.25" />
<circle cx="965.2" cy="570.8" r="2.4" fill="#f43f5e" opacity="0.24" />
<circle cx="967.7" cy="629.1" r="2.1" fill="#fb7185" opacity="0.21" />
<circle cx="1028.2" cy="60.8" r="2.1" fill="#fb7185" opacity="0.21" />
<circle cx="1021.3" cy="112.7" r="2.2" fill="#f43f5e" opacity="0.22" />
<circle cx="1025.4" cy="172.0" r="2.4" fill="#f43f5e" opacity="0.24" />
<circle cx="1030.5" cy="230.2" r="2.4" fill="#f43f5e" opacity="0.24" />
<circle cx="1025.9" cy="282.5" r="2.5" fill="#f43f5e" opacity="0.25" />
<circle cx="1024.4" cy="345.7" r="2.5" fill="#f43f5e" opacity="0.25" />
<circle cx="1030.8" cy="395.0" r="2.4" fill="#f43f5e" opacity="0.24" />
<circle cx="1026.8" cy="459.9" r="2.3" fill="#f43f5e" opacity="0.23" />
<circle cx="1023.7" cy="510.6" r="2.2" fill="#f43f5e" opacity="0.22" />
<circle cx="1029.7" cy="566.2" r="2.1" fill="#fb7185" opacity="0.21" />
<circle cx="1026.7" cy="623.0" r="1.9" fill="#fb7185" opacity="0.19" />
<circle cx="1087.4" cy="53.3" r="1.7" fill="#fb7185" opacity="0.17" />
<circle cx="1085.5" cy="118.1" r="1.9" fill="#fb7185" opacity="0.19" />
<circle cx="1084.5" cy="170.1" r="2.0" fill="#fb7185" opacity="0.20" />
<circle cx="1084.8" cy="232.3" r="2.1" fill="#fb7185" opacity="0.21" />
<circle cx="1082.4" cy="283.5" r="2.1" fill="#fb7185" opacity="0.21" />
<circle cx="1078.5" cy="343.4" r="2.2" fill="#fb7185" opacity="0.22" />
<circle cx="1083.1" cy="399.3" r="2.1" fill="#fb7185" opacity="0.21" />
<circle cx="1079.3" cy="456.0" r="2.1" fill="#fb7185" opacity="0.21" />
<circle cx="1085.0" cy="516.0" r="1.9" fill="#fb7185" opacity="0.19" />
<circle cx="1080.3" cy="565.6" r="1.8" fill="#fb7185" opacity="0.18" />
<circle cx="1086.5" cy="624.2" r="1.6" fill="#fb7185" opacity="0.16" />
<circle cx="1139.4" cy="57.6" r="1.5" fill="#fb7185" opacity="0.15" />
<circle cx="1141.8" cy="114.0" r="1.6" fill="#fb7185" opacity="0.16" />
<circle cx="1139.3" cy="174.7" r="1.7" fill="#fb7185" opacity="0.17" />
<circle cx="1135.6" cy="229.6" r="1.8" fill="#fb7185" opacity="0.18" />
<circle cx="1142.7" cy="281.6" r="1.8" fill="#fb7185" opacity="0.18" />
<circle cx="1139.3" cy="345.8" r="1.8" fill="#fb7185" opacity="0.18" />
<circle cx="1141.5" cy="402.1" r="1.8" fill="#fb7185" opacity="0.18" />
<circle cx="1141.0" cy="452.5" r="1.7" fill="#fb7185" opacity="0.17" />
<circle cx="1139.8" cy="510.1" r="1.6" fill="#fb7185" opacity="0.16" />
<circle cx="1139.2" cy="570.1" r="1.5" fill="#fb7185" opacity="0.15" />
<circle cx="1136.4" cy="630.2" r="1.3" fill="#fb7185" opacity="0.13" />
<circle cx="1198.5" cy="60.9" r="1.2" fill="#fb7185" opacity="0.12" />
<circle cx="1196.1" cy="110.8" r="1.3" fill="#fb7185" opacity="0.13" />
<circle cx="1197.5" cy="175.1" r="1.4" fill="#fb7185" opacity="0.14" />
<circle cx="1196.3" cy="226.0" r="1.4" fill="#fb7185" opacity="0.14" />
<circle cx="1196.2" cy="289.0" r="1.5" fill="#fb7185" opacity="0.15" />
<circle cx="1198.1" cy="346.3" r="1.5" fill="#fb7185" opacity="0.15" />
<circle cx="1199.5" cy="399.3" r="1.4" fill="#fb7185" opacity="0.14" />
<circle cx="1201.3" cy="455.6" r="1.4" fill="#fb7185" opacity="0.14" />
<circle cx="1192.7" cy="508.6" r="1.3" fill="#fb7185" opacity="0.13" />
<circle cx="1201.0" cy="571.1" r="1.1" fill="#fb7185" opacity="0.11" />
<circle cx="1194.4" cy="630.8" r="1.0" fill="#fb7185" opacity="0.10" />


  <!-- Vignette -->
  <rect width="1200" height="630" fill="url(#bg)" opacity="0.3" />

  <!-- Category badge -->
  <rect x="48" y="40" width="124" height="28" rx="14" fill="#e11d48" opacity="0.9" />
  <text x="60" y="59" font-family="system-ui, -apple-system, sans-serif" font-size="12" font-weight="700" letter-spacing="1.5" text-transform="uppercase" fill="white">SPIKE.LAND</text>

  <!-- Title -->
  <text x="48" y="550" font-family="system-ui, -apple-system, sans-serif" font-size="42" font-weight="800" fill="white" filter="url(#textShadow)" letter-spacing="-1">
    <tspan x="48" dy="0">The Chemist in the Loop: How Gian</tspan>
    <tspan x="48" dy="50">Pierre Broke the Strange Loop Pattern</tspan>
  </text>

  <!-- spike.land watermark -->
  <text x="1152" y="606" font-family="system-ui, -apple-system, sans-serif" font-size="14" font-weight="600" fill="#fb7185" opacity="0.6" text-anchor="end">spike.land</text>
</svg>