<svg xmlns="http://www.w3.org/2000/svg" viewBox="0 0 1200 630" width="1200" height="630">
  <defs>
    <linearGradient id="bg" x1="0%" y1="0%" x2="100%" y2="100%">
      <stop offset="0%" stop-color="#1c1917" />
      <stop offset="100%" stop-color="#27272a" />
    </linearGradient>
    <filter id="glow">
      <feGaussianBlur stdDeviation="30" result="blur" />
      <feMerge><feMergeNode in="blur" /><feMergeNode in="SourceGraphic" /></feMerge>
    </filter>
    <filter id="textShadow">
      <feDropShadow dx="0" dy="2" stdDeviation="6" flood-color="#1c1917" flood-opacity="0.8" />
    </filter>
  </defs>

  <!-- Background -->
  <rect width="1200" height="630" fill="url(#bg)" />

  <!-- Generative shapes -->
  <circle cx="44.7" cy="41.2" r="1.3" fill="#fb7185" opacity="0.13" />
<circle cx="42.3" cy="77.1" r="1.4" fill="#fb7185" opacity="0.14" />
<circle cx="45.8" cy="121.3" r="1.5" fill="#fb7185" opacity="0.15" />
<circle cx="39.5" cy="167.8" r="1.6" fill="#fb7185" opacity="0.16" />
<circle cx="40.9" cy="207.5" r="1.6" fill="#fb7185" opacity="0.16" />
<circle cx="36.8" cy="241.5" r="1.6" fill="#fb7185" opacity="0.16" />
<circle cx="36.5" cy="289.0" r="1.7" fill="#fb7185" opacity="0.17" />
<circle cx="36.7" cy="329.6" r="1.7" fill="#fb7185" opacity="0.17" />
<circle cx="39.4" cy="365.0" r="1.7" fill="#fb7185" opacity="0.17" />
<circle cx="40.4" cy="412.9" r="1.6" fill="#fb7185" opacity="0.16" />
<circle cx="44.5" cy="447.6" r="1.6" fill="#fb7185" opacity="0.16" />
<circle cx="44.3" cy="495.1" r="1.6" fill="#fb7185" opacity="0.16" />
<circle cx="44.1" cy="537.4" r="1.5" fill="#fb7185" opacity="0.15" />
<circle cx="38.8" cy="569.8" r="1.4" fill="#fb7185" opacity="0.14" />
<circle cx="37.0" cy="615.4" r="1.2" fill="#fb7185" opacity="0.12" />
<circle cx="79.1" cy="44.2" r="1.5" fill="#fb7185" opacity="0.15" />
<circle cx="78.4" cy="77.9" r="1.6" fill="#fb7185" opacity="0.16" />
<circle cx="77.8" cy="121.9" r="1.7" fill="#fb7185" opacity="0.17" />
<circle cx="82.4" cy="168.2" r="1.8" fill="#fb7185" opacity="0.18" />
<circle cx="81.4" cy="208.4" r="1.9" fill="#fb7185" opacity="0.19" />
<circle cx="83.0" cy="242.4" r="1.9" fill="#fb7185" opacity="0.19" />
<circle cx="86.3" cy="291.5" r="2.0" fill="#fb7185" opacity="0.20" />
<circle cx="80.6" cy="332.4" r="1.9" fill="#fb7185" opacity="0.19" />
<circle cx="86.8" cy="368.8" r="2.0" fill="#fb7185" opacity="0.20" />
<circle cx="79.9" cy="413.6" r="1.9" fill="#fb7185" opacity="0.19" />
<circle cx="85.5" cy="447.1" r="1.9" fill="#fb7185" opacity="0.19" />
<circle cx="80.5" cy="490.1" r="1.8" fill="#fb7185" opacity="0.18" />
<circle cx="83.0" cy="534.4" r="1.7" fill="#fb7185" opacity="0.17" />
<circle cx="82.4" cy="576.1" r="1.6" fill="#fb7185" opacity="0.16" />
<circle cx="84.5" cy="617.9" r="1.5" fill="#fb7185" opacity="0.15" />
<circle cx="124.1" cy="39.8" r="1.8" fill="#fb7185" opacity="0.18" />
<circle cx="119.9" cy="82.4" r="1.9" fill="#fb7185" opacity="0.19" />
<circle cx="118.1" cy="123.5" r="1.9" fill="#fb7185" opacity="0.19" />
<circle cx="118.2" cy="168.9" r="2.0" fill="#fb7185" opacity="0.20" />
<circle cx="127.4" cy="208.6" r="2.1" fill="#fb7185" opacity="0.21" />
<circle cx="119.1" cy="249.5" r="2.1" fill="#fb7185" opacity="0.21" />
<circle cx="121.3" cy="285.6" r="2.2" fill="#fb7185" opacity="0.22" />
<circle cx="125.3" cy="328.5" r="2.2" fill="#fb7185" opacity="0.22" />
<circle cx="126.0" cy="370.8" r="2.2" fill="#fb7185" opacity="0.22" />
<circle cx="120.9" cy="414.6" r="2.1" fill="#fb7185" opacity="0.21" />
<circle cx="122.0" cy="448.1" r="2.1" fill="#fb7185" opacity="0.21" />
<circle cx="122.7" cy="496.0" r="2.0" fill="#fb7185" opacity="0.20" />
<circle cx="127.7" cy="537.8" r="1.9" fill="#fb7185" opacity="0.19" />
<circle cx="125.8" cy="571.9" r="1.8" fill="#fb7185" opacity="0.18" />
<circle cx="121.2" cy="612.4" r="1.7" fill="#fb7185" opacity="0.17" />
<circle cx="166.9" cy="36.7" r="2.0" fill="#fb7185" opacity="0.20" />
<circle cx="166.1" cy="78.6" r="2.1" fill="#fb7185" opacity="0.21" />
<circle cx="159.9" cy="126.9" r="2.2" fill="#fb7185" opacity="0.22" />
<circle cx="168.6" cy="167.7" r="2.3" fill="#f43f5e" opacity="0.23" />
<circle cx="162.0" cy="206.9" r="2.3" fill="#f43f5e" opacity="0.23" />
<circle cx="166.2" cy="242.6" r="2.4" fill="#f43f5e" opacity="0.24" />
<circle cx="159.6" cy="291.9" r="2.4" fill="#f43f5e" opacity="0.24" />
<circle cx="160.3" cy="323.7" r="2.4" fill="#f43f5e" opacity="0.24" />
<circle cx="162.8" cy="366.3" r="2.4" fill="#f43f5e" opacity="0.24" />
<circle cx="164.3" cy="412.6" r="2.4" fill="#f43f5e" opacity="0.24" />
<circle cx="162.5" cy="454.1" r="2.3" fill="#f43f5e" opacity="0.23" />
<circle cx="162.4" cy="494.5" r="2.2" fill="#f43f5e" opacity="0.22" />
<circle cx="163.8" cy="530.9" r="2.1" fill="#fb7185" opacity="0.21" />
<circle cx="166.1" cy="569.7" r="2.0" fill="#fb7185" opacity="0.20" />
<circle cx="165.5" cy="613.8" r="1.9" fill="#fb7185" opacity="0.19" />
<circle cx="202.9" cy="39.1" r="2.1" fill="#fb7185" opacity="0.21" />
<circle cx="201.1" cy="77.6" r="2.3" fill="#f43f5e" opacity="0.23" />
<circle cx="205.2" cy="119.3" r="2.4" fill="#f43f5e" opacity="0.24" />
<circle cx="203.8" cy="165.1" r="2.5" fill="#f43f5e" opacity="0.25" />
<circle cx="208.6" cy="203.0" r="2.6" fill="#f43f5e" opacity="0.26" />
<circle cx="204.3" cy="249.7" r="2.6" fill="#f43f5e" opacity="0.26" />
<circle cx="203.4" cy="288.5" r="2.7" fill="#f43f5e" opacity="0.27" />
<circle cx="201.4" cy="326.8" r="2.6" fill="#f43f5e" opacity="0.26" />
<circle cx="208.4" cy="366.1" r="2.7" fill="#f43f5e" opacity="0.27" />
<circle cx="204.0" cy="413.8" r="2.6" fill="#f43f5e" opacity="0.26" />
<circle cx="206.1" cy="454.1" r="2.5" fill="#f43f5e" opacity="0.25" />
<circle cx="207.0" cy="494.8" r="2.4" fill="#f43f5e" opacity="0.24" />
<circle cx="202.0" cy="531.7" r="2.3" fill="#f43f5e" opacity="0.23" />
<circle cx="206.9" cy="578.2" r="2.2" fill="#f43f5e" opacity="0.22" />
<circle cx="204.9" cy="612.8" r="2.1" fill="#fb7185" opacity="0.21" />
<circle cx="247.4" cy="41.3" r="2.4" fill="#f43f5e" opacity="0.24" />
<circle cx="251.0" cy="87.0" r="2.5" fill="#f43f5e" opacity="0.25" />
<circle cx="241.8" cy="122.2" r="2.6" fill="#f43f5e" opacity="0.26" />
<circle cx="241.5" cy="162.0" r="2.7" fill="#f43f5e" opacity="0.27" />
<circle cx="247.5" cy="204.6" r="2.8" fill="#f43f5e" opacity="0.28" />
<circle cx="250.8" cy="244.4" r="2.9" fill="#f43f5e" opacity="0.29" />
<circle cx="246.5" cy="286.4" r="2.9" fill="#f43f5e" opacity="0.29" />
<circle cx="242.6" cy="332.0" r="2.9" fill="#f43f5e" opacity="0.29" />
<circle cx="244.9" cy="365.4" r="2.9" fill="#f43f5e" opacity="0.29" />
<circle cx="248.3" cy="414.8" r="2.8" fill="#f43f5e" opacity="0.28" />
<circle cx="241.1" cy="455.3" r="2.7" fill="#f43f5e" opacity="0.27" />
<circle cx="251.0" cy="489.3" r="2.7" fill="#f43f5e" opacity="0.27" />
<circle cx="241.2" cy="534.4" r="2.5" fill="#f43f5e" opacity="0.25" />
<circle cx="245.5" cy="571.3" r="2.4" fill="#f43f5e" opacity="0.24" />
<circle cx="247.1" cy="620.0" r="2.2" fill="#f43f5e" opacity="0.22" />
<circle cx="283.1" cy="37.0" r="2.5" fill="#f43f5e" opacity="0.25" />
<circle cx="285.7" cy="81.0" r="2.7" fill="#f43f5e" opacity="0.27" />
<circle cx="286.2" cy="124.6" r="2.8" fill="#f43f5e" opacity="0.28" />
<circle cx="289.2" cy="162.5" r="3.0" fill="#f43f5e" opacity="0.30" />
<circle cx="284.0" cy="204.7" r="3.0" fill="#f43f5e" opacity="0.30" />
<circle cx="288.7" cy="243.3" r="3.1" fill="#f43f5e" opacity="0.31" />
<circle cx="282.3" cy="290.1" r="3.1" fill="#f43f5e" opacity="0.31" />
<circle cx="286.8" cy="331.8" r="3.1" fill="#f43f5e" opacity="0.31" />
<circle cx="286.6" cy="366.8" r="3.1" fill="#f43f5e" opacity="0.31" />
<circle cx="291.8" cy="409.8" r="3.1" fill="#f43f5e" opacity="0.31" />
<circle cx="286.6" cy="454.9" r="3.0" fill="#f43f5e" opacity="0.30" />
<circle cx="282.4" cy="490.5" r="2.9" fill="#f43f5e" opacity="0.29" />
<circle cx="287.6" cy="530.3" r="2.8" fill="#f43f5e" opacity="0.28" />
<circle cx="283.6" cy="571.2" r="2.6" fill="#f43f5e" opacity="0.26" />
<circle cx="291.9" cy="617.6" r="2.5" fill="#f43f5e" opacity="0.25" />
<circle cx="326.7" cy="38.3" r="2.7" fill="#f43f5e" opacity="0.27" />
<circle cx="326.1" cy="84.7" r="2.9" fill="#f43f5e" opacity="0.29" />
<circle cx="328.9" cy="124.8" r="3.0" fill="#f43f5e" opacity="0.30" />
<circle cx="332.1" cy="168.5" r="3.2" fill="#f43f5e" opacity="0.32" />
<circle cx="330.1" cy="205.7" r="3.3" fill="#f43f5e" opacity="0.33" />
<circle cx="331.1" cy="243.2" r="3.4" fill="#f43f5e" opacity="0.34" />
<circle cx="326.6" cy="289.5" r="3.4" fill="#f43f5e" opacity="0.34" />
<circle cx="323.7" cy="330.9" r="3.4" fill="#f43f5e" opacity="0.34" />
<circle cx="330.0" cy="365.5" r="3.4" fill="#f43f5e" opacity="0.34" />
<circle cx="327.0" cy="414.5" r="3.3" fill="#f43f5e" opacity="0.33" />
<circle cx="325.3" cy="451.8" r="3.2" fill="#f43f5e" opacity="0.32" />
<circle cx="323.9" cy="494.2" r="3.1" fill="#f43f5e" opacity="0.31" />
<circle cx="323.2" cy="534.3" r="2.9" fill="#f43f5e" opacity="0.29" />
<circle cx="323.9" cy="576.6" r="2.8" fill="#f43f5e" opacity="0.28" />
<circle cx="324.1" cy="613.3" r="2.6" fill="#f43f5e" opacity="0.26" />
<circle cx="365.1" cy="43.1" r="2.9" fill="#f43f5e" opacity="0.29" />
<circle cx="371.6" cy="85.6" r="3.1" fill="#f43f5e" opacity="0.31" />
<circle cx="371.0" cy="121.5" r="3.2" fill="#f43f5e" opacity="0.32" />
<circle cx="366.0" cy="160.0" r="3.3" fill="#f43f5e" opacity="0.33" />
<circle cx="366.4" cy="207.7" r="3.5" fill="#e11d48" opacity="0.35" />
<circle cx="368.0" cy="244.4" r="3.6" fill="#e11d48" opacity="0.36" />
<circle cx="370.1" cy="291.1" r="3.6" fill="#e11d48" opacity="0.36" />
<circle cx="372.0" cy="331.8" r="3.7" fill="#e11d48" opacity="0.37" />
<circle cx="370.3" cy="370.4" r="3.6" fill="#e11d48" opacity="0.36" />
<circle cx="367.2" cy="412.8" r="3.5" fill="#e11d48" opacity="0.35" />
<circle cx="364.7" cy="454.4" r="3.4" fill="#f43f5e" opacity="0.34" />
<circle cx="370.6" cy="493.9" r="3.3" fill="#f43f5e" opacity="0.33" />
<circle cx="365.1" cy="533.3" r="3.1" fill="#f43f5e" opacity="0.31" />
<circle cx="365.0" cy="576.9" r="2.9" fill="#f43f5e" opacity="0.29" />
<circle cx="366.5" cy="615.9" r="2.8" fill="#f43f5e" opacity="0.28" />
<circle cx="405.2" cy="44.7" r="3.0" fill="#f43f5e" opacity="0.30" />
<circle cx="410.2" cy="77.7" r="3.2" fill="#f43f5e" opacity="0.32" />
<circle cx="407.5" cy="124.9" r="3.4" fill="#e11d48" opacity="0.34" />
<circle cx="413.3" cy="165.6" r="3.6" fill="#e11d48" opacity="0.36" />
<circle cx="407.8" cy="204.1" r="3.7" fill="#e11d48" opacity="0.37" />
<circle cx="411.0" cy="244.4" r="3.8" fill="#e11d48" opacity="0.38" />
<circle cx="412.7" cy="286.6" r="3.9" fill="#e11d48" opacity="0.39" />
<circle cx="407.2" cy="329.9" r="3.9" fill="#e11d48" opacity="0.39" />
<circle cx="407.1" cy="368.9" r="3.8" fill="#e11d48" opacity="0.38" />
<circle cx="411.0" cy="405.1" r="3.8" fill="#e11d48" opacity="0.38" />
<circle cx="406.4" cy="454.2" r="3.6" fill="#e11d48" opacity="0.36" />
<circle cx="409.5" cy="493.5" r="3.5" fill="#e11d48" opacity="0.35" />
<circle cx="413.8" cy="528.8" r="3.3" fill="#f43f5e" opacity="0.33" />
<circle cx="409.0" cy="575.5" r="3.1" fill="#f43f5e" opacity="0.31" />
<circle cx="406.0" cy="613.8" r="2.9" fill="#f43f5e" opacity="0.29" />
<circle cx="452.4" cy="38.3" r="3.1" fill="#f43f5e" opacity="0.31" />
<circle cx="448.1" cy="84.2" r="3.4" fill="#f43f5e" opacity="0.34" />
<circle cx="449.2" cy="119.3" r="3.5" fill="#e11d48" opacity="0.35" />
<circle cx="455.4" cy="159.1" r="3.7" fill="#e11d48" opacity="0.37" />
<circle cx="447.3" cy="203.0" r="3.9" fill="#e11d48" opacity="0.39" />
<circle cx="446.5" cy="244.9" r="4.0" fill="#e11d48" opacity="0.40" />
<circle cx="451.7" cy="283.2" r="4.1" fill="#e11d48" opacity="0.41" />
<circle cx="450.7" cy="325.4" r="4.1" fill="#e11d48" opacity="0.41" />
<circle cx="448.0" cy="368.8" r="4.0" fill="#e11d48" opacity="0.40" />
<circle cx="455.8" cy="410.1" r="4.0" fill="#e11d48" opacity="0.40" />
<circle cx="449.0" cy="454.3" r="3.8" fill="#e11d48" opacity="0.38" />
<circle cx="451.9" cy="495.3" r="3.6" fill="#e11d48" opacity="0.36" />
<circle cx="450.5" cy="536.9" r="3.4" fill="#e11d48" opacity="0.34" />
<circle cx="453.2" cy="569.5" r="3.3" fill="#f43f5e" opacity="0.33" />
<circle cx="448.4" cy="617.2" r="3.0" fill="#f43f5e" opacity="0.30" />
<circle cx="492.1" cy="41.0" r="3.3" fill="#f43f5e" opacity="0.33" />
<circle cx="494.6" cy="77.2" r="3.5" fill="#e11d48" opacity="0.35" />
<circle cx="488.4" cy="126.3" r="3.7" fill="#e11d48" opacity="0.37" />
<circle cx="487.3" cy="163.5" r="3.9" fill="#e11d48" opacity="0.39" />
<circle cx="493.0" cy="206.8" r="4.1" fill="#e11d48" opacity="0.41" />
<circle cx="496.6" cy="247.5" r="4.3" fill="#e11d48" opacity="0.43" />
<circle cx="495.8" cy="290.7" r="4.4" fill="#e11d48" opacity="0.44" />
<circle cx="488.4" cy="331.9" r="4.3" fill="#e11d48" opacity="0.43" />
<circle cx="495.1" cy="369.3" r="4.3" fill="#e11d48" opacity="0.43" />
<circle cx="496.9" cy="414.8" r="4.2" fill="#e11d48" opacity="0.42" />
<circle cx="493.6" cy="454.8" r="4.0" fill="#e11d48" opacity="0.40" />
<circle cx="491.4" cy="490.1" r="3.8" fill="#e11d48" opacity="0.38" />
<circle cx="494.6" cy="537.4" r="3.5" fill="#e11d48" opacity="0.35" />
<circle cx="495.5" cy="577.3" r="3.3" fill="#f43f5e" opacity="0.33" />
<circle cx="488.3" cy="619.3" r="3.1" fill="#f43f5e" opacity="0.31" />
<circle cx="531.2" cy="42.4" r="3.3" fill="#f43f5e" opacity="0.33" />
<circle cx="532.6" cy="84.5" r="3.6" fill="#e11d48" opacity="0.36" />
<circle cx="528.0" cy="118.5" r="3.8" fill="#e11d48" opacity="0.38" />
<circle cx="532.3" cy="160.6" r="4.0" fill="#e11d48" opacity="0.40" />
<circle cx="533.6" cy="209.0" r="4.3" fill="#e11d48" opacity="0.43" />
<circle cx="534.6" cy="241.7" r="4.4" fill="#e11d48" opacity="0.44" />
<circle cx="533.5" cy="290.8" r="4.6" fill="#e11d48" opacity="0.46" />
<circle cx="531.2" cy="329.8" r="4.6" fill="#e11d48" opacity="0.46" />
<circle cx="535.1" cy="371.0" r="4.5" fill="#e11d48" opacity="0.45" />
<circle cx="535.5" cy="412.2" r="4.3" fill="#e11d48" opacity="0.43" />
<circle cx="537.5" cy="452.8" r="4.1" fill="#e11d48" opacity="0.41" />
<circle cx="537.4" cy="493.0" r="3.9" fill="#e11d48" opacity="0.39" />
<circle cx="529.4" cy="537.4" r="3.6" fill="#e11d48" opacity="0.36" />
<circle cx="532.0" cy="576.8" r="3.4" fill="#e11d48" opacity="0.34" />
<circle cx="531.7" cy="615.3" r="3.2" fill="#f43f5e" opacity="0.32" />
<circle cx="571.2" cy="36.9" r="3.3" fill="#f43f5e" opacity="0.33" />
<circle cx="576.6" cy="83.0" r="3.6" fill="#e11d48" opacity="0.36" />
<circle cx="576.4" cy="120.9" r="3.8" fill="#e11d48" opacity="0.38" />
<circle cx="575.8" cy="160.8" r="4.1" fill="#e11d48" opacity="0.41" />
<circle cx="577.6" cy="207.0" r="4.3" fill="#e11d48" opacity="0.43" />
<circle cx="571.6" cy="246.9" r="4.6" fill="#e11d48" opacity="0.46" />
<circle cx="570.9" cy="282.9" r="4.7" fill="#e11d48" opacity="0.47" />
<circle cx="569.8" cy="332.4" r="4.8" fill="#e11d48" opacity="0.48" />
<circle cx="569.6" cy="371.2" r="4.6" fill="#e11d48" opacity="0.46" />
<circle cx="569.8" cy="413.6" r="4.4" fill="#e11d48" opacity="0.44" />
<circle cx="578.1" cy="453.2" r="4.2" fill="#e11d48" opacity="0.42" />
<circle cx="572.3" cy="495.5" r="3.9" fill="#e11d48" opacity="0.39" />
<circle cx="575.9" cy="534.6" r="3.7" fill="#e11d48" opacity="0.37" />
<circle cx="578.5" cy="573.9" r="3.5" fill="#e11d48" opacity="0.35" />
<circle cx="578.3" cy="615.2" r="3.2" fill="#f43f5e" opacity="0.32" />
<circle cx="616.1" cy="44.3" r="3.4" fill="#f43f5e" opacity="0.34" />
<circle cx="612.6" cy="86.1" r="3.6" fill="#e11d48" opacity="0.36" />
<circle cx="610.5" cy="118.5" r="3.8" fill="#e11d48" opacity="0.38" />
<circle cx="617.9" cy="167.0" r="4.1" fill="#e11d48" opacity="0.41" />
<circle cx="610.0" cy="200.9" r="4.3" fill="#e11d48" opacity="0.43" />
<circle cx="613.7" cy="245.9" r="4.6" fill="#e11d48" opacity="0.46" />
<circle cx="618.4" cy="291.5" r="4.8" fill="#e11d48" opacity="0.48" />
<circle cx="619.2" cy="324.7" r="4.9" fill="#e11d48" opacity="0.49" />
<circle cx="616.1" cy="369.6" r="4.7" fill="#e11d48" opacity="0.47" />
<circle cx="619.5" cy="413.8" r="4.4" fill="#e11d48" opacity="0.44" />
<circle cx="614.6" cy="455.8" r="4.2" fill="#e11d48" opacity="0.42" />
<circle cx="615.7" cy="496.8" r="3.9" fill="#e11d48" opacity="0.39" />
<circle cx="613.1" cy="533.4" r="3.7" fill="#e11d48" opacity="0.37" />
<circle cx="619.2" cy="570.2" r="3.5" fill="#e11d48" opacity="0.35" />
<circle cx="617.9" cy="610.2" r="3.3" fill="#f43f5e" opacity="0.33" />
<circle cx="655.1" cy="44.7" r="3.4" fill="#f43f5e" opacity="0.34" />
<circle cx="652.0" cy="80.4" r="3.6" fill="#e11d48" opacity="0.36" />
<circle cx="657.8" cy="126.4" r="3.8" fill="#e11d48" opacity="0.38" />
<circle cx="652.2" cy="166.6" r="4.1" fill="#e11d48" opacity="0.41" />
<circle cx="658.3" cy="204.9" r="4.3" fill="#e11d48" opacity="0.43" />
<circle cx="651.9" cy="243.0" r="4.5" fill="#e11d48" opacity="0.45" />
<circle cx="651.5" cy="287.7" r="4.7" fill="#e11d48" opacity="0.47" />
<circle cx="655.6" cy="329.6" r="4.7" fill="#e11d48" opacity="0.47" />
<circle cx="653.6" cy="366.9" r="4.6" fill="#e11d48" opacity="0.46" />
<circle cx="652.1" cy="407.5" r="4.4" fill="#e11d48" opacity="0.44" />
<circle cx="660.9" cy="447.2" r="4.1" fill="#e11d48" opacity="0.41" />
<circle cx="655.7" cy="496.6" r="3.9" fill="#e11d48" opacity="0.39" />
<circle cx="657.5" cy="532.7" r="3.7" fill="#e11d48" opacity="0.37" />
<circle cx="660.6" cy="574.7" r="3.4" fill="#e11d48" opacity="0.34" />
<circle cx="659.0" cy="610.4" r="3.2" fill="#f43f5e" opacity="0.32" />
<circle cx="692.0" cy="44.5" r="3.3" fill="#f43f5e" opacity="0.33" />
<circle cx="697.5" cy="77.7" r="3.5" fill="#e11d48" opacity="0.35" />
<circle cx="694.7" cy="122.6" r="3.7" fill="#e11d48" opacity="0.37" />
<circle cx="692.6" cy="162.1" r="3.9" fill="#e11d48" opacity="0.39" />
<circle cx="694.7" cy="207.4" r="4.2" fill="#e11d48" opacity="0.42" />
<circle cx="694.9" cy="242.0" r="4.3" fill="#e11d48" opacity="0.43" />
<circle cx="701.8" cy="289.5" r="4.4" fill="#e11d48" opacity="0.44" />
<circle cx="693.4" cy="323.5" r="4.4" fill="#e11d48" opacity="0.44" />
<circle cx="698.5" cy="371.0" r="4.3" fill="#e11d48" opacity="0.43" />
<circle cx="694.4" cy="414.4" r="4.2" fill="#e11d48" opacity="0.42" />
<circle cx="696.6" cy="448.9" r="4.0" fill="#e11d48" opacity="0.40" />
<circle cx="695.4" cy="491.0" r="3.8" fill="#e11d48" opacity="0.38" />
<circle cx="693.4" cy="537.6" r="3.6" fill="#e11d48" opacity="0.36" />
<circle cx="699.5" cy="576.1" r="3.4" fill="#f43f5e" opacity="0.34" />
<circle cx="694.6" cy="615.7" r="3.1" fill="#f43f5e" opacity="0.31" />
<circle cx="739.5" cy="41.4" r="3.2" fill="#f43f5e" opacity="0.32" />
<circle cx="736.5" cy="83.0" r="3.4" fill="#e11d48" opacity="0.34" />
<circle cx="740.4" cy="126.7" r="3.6" fill="#e11d48" opacity="0.36" />
<circle cx="737.4" cy="162.8" r="3.8" fill="#e11d48" opacity="0.38" />
<circle cx="734.5" cy="208.3" r="4.0" fill="#e11d48" opacity="0.40" />
<circle cx="735.4" cy="244.1" r="4.1" fill="#e11d48" opacity="0.41" />
<circle cx="742.1" cy="291.1" r="4.1" fill="#e11d48" opacity="0.41" />
<circle cx="738.9" cy="330.3" r="4.2" fill="#e11d48" opacity="0.42" />
<circle cx="733.6" cy="364.4" r="4.2" fill="#e11d48" opacity="0.42" />
<circle cx="736.7" cy="408.3" r="4.0" fill="#e11d48" opacity="0.40" />
<circle cx="738.8" cy="447.5" r="3.9" fill="#e11d48" opacity="0.39" />
<circle cx="737.4" cy="494.7" r="3.7" fill="#e11d48" opacity="0.37" />
<circle cx="736.2" cy="535.2" r="3.5" fill="#e11d48" opacity="0.35" />
<circle cx="741.8" cy="573.4" r="3.3" fill="#f43f5e" opacity="0.33" />
<circle cx="734.0" cy="617.2" r="3.0" fill="#f43f5e" opacity="0.30" />
<circle cx="774.8" cy="45.2" r="3.1" fill="#f43f5e" opacity="0.31" />
<circle cx="783.5" cy="84.5" r="3.3" fill="#f43f5e" opacity="0.33" />
<circle cx="783.7" cy="119.8" r="3.4" fill="#e11d48" opacity="0.34" />
<circle cx="774.0" cy="164.7" r="3.6" fill="#e11d48" opacity="0.36" />
<circle cx="782.4" cy="200.6" r="3.7" fill="#e11d48" opacity="0.37" />
<circle cx="782.4" cy="250.1" r="3.9" fill="#e11d48" opacity="0.39" />
<circle cx="775.5" cy="282.7" r="3.9" fill="#e11d48" opacity="0.39" />
<circle cx="780.6" cy="330.1" r="3.9" fill="#e11d48" opacity="0.39" />
<circle cx="781.7" cy="373.3" r="3.9" fill="#e11d48" opacity="0.39" />
<circle cx="777.4" cy="411.9" r="3.8" fill="#e11d48" opacity="0.38" />
<circle cx="783.8" cy="446.8" r="3.7" fill="#e11d48" opacity="0.37" />
<circle cx="780.3" cy="492.0" r="3.5" fill="#e11d48" opacity="0.35" />
<circle cx="781.5" cy="533.3" r="3.3" fill="#f43f5e" opacity="0.33" />
<circle cx="778.1" cy="570.3" r="3.2" fill="#f43f5e" opacity="0.32" />
<circle cx="779.4" cy="611.3" r="3.0" fill="#f43f5e" opacity="0.30" />
<circle cx="821.1" cy="36.9" r="2.9" fill="#f43f5e" opacity="0.29" />
<circle cx="817.4" cy="84.9" r="3.1" fill="#f43f5e" opacity="0.31" />
<circle cx="818.4" cy="126.4" r="3.3" fill="#f43f5e" opacity="0.33" />
<circle cx="819.4" cy="166.5" r="3.4" fill="#e11d48" opacity="0.34" />
<circle cx="815.3" cy="200.1" r="3.6" fill="#e11d48" opacity="0.36" />
<circle cx="821.4" cy="243.5" r="3.6" fill="#e11d48" opacity="0.36" />
<circle cx="816.7" cy="283.1" r="3.7" fill="#e11d48" opacity="0.37" />
<circle cx="820.5" cy="331.8" r="3.7" fill="#e11d48" opacity="0.37" />
<circle cx="817.5" cy="372.5" r="3.7" fill="#e11d48" opacity="0.37" />
<circle cx="817.6" cy="414.1" r="3.6" fill="#e11d48" opacity="0.36" />
<circle cx="822.3" cy="448.0" r="3.5" fill="#e11d48" opacity="0.35" />
<circle cx="817.4" cy="494.7" r="3.3" fill="#f43f5e" opacity="0.33" />
<circle cx="819.0" cy="528.6" r="3.2" fill="#f43f5e" opacity="0.32" />
<circle cx="824.8" cy="571.1" r="3.0" fill="#f43f5e" opacity="0.30" />
<circle cx="817.4" cy="616.9" r="2.8" fill="#f43f5e" opacity="0.28" />
<circle cx="859.5" cy="36.4" r="2.8" fill="#f43f5e" opacity="0.28" />
<circle cx="864.3" cy="86.1" r="2.9" fill="#f43f5e" opacity="0.29" />
<circle cx="860.2" cy="119.5" r="3.1" fill="#f43f5e" opacity="0.31" />
<circle cx="862.2" cy="159.0" r="3.2" fill="#f43f5e" opacity="0.32" />
<circle cx="863.3" cy="207.8" r="3.3" fill="#f43f5e" opacity="0.33" />
<circle cx="857.7" cy="246.5" r="3.4" fill="#e11d48" opacity="0.34" />
<circle cx="864.6" cy="286.7" r="3.4" fill="#e11d48" opacity="0.34" />
<circle cx="859.7" cy="333.0" r="3.5" fill="#e11d48" opacity="0.35" />
<circle cx="859.8" cy="373.0" r="3.4" fill="#e11d48" opacity="0.34" />
<circle cx="856.9" cy="407.0" r="3.4" fill="#f43f5e" opacity="0.34" />
<circle cx="863.2" cy="446.1" r="3.3" fill="#f43f5e" opacity="0.33" />
<circle cx="856.8" cy="494.7" r="3.2" fill="#f43f5e" opacity="0.32" />
<circle cx="859.3" cy="533.1" r="3.0" fill="#f43f5e" opacity="0.30" />
<circle cx="861.9" cy="573.8" r="2.8" fill="#f43f5e" opacity="0.28" />
<circle cx="862.3" cy="612.3" r="2.7" fill="#f43f5e" opacity="0.27" />
<circle cx="902.8" cy="41.0" r="2.6" fill="#f43f5e" opacity="0.26" />
<circle cx="906.7" cy="81.6" r="2.7" fill="#f43f5e" opacity="0.27" />
<circle cx="906.7" cy="126.2" r="2.9" fill="#f43f5e" opacity="0.29" />
<circle cx="899.3" cy="166.3" r="3.0" fill="#f43f5e" opacity="0.30" />
<circle cx="904.3" cy="204.7" r="3.1" fill="#f43f5e" opacity="0.31" />
<circle cx="898.9" cy="241.0" r="3.2" fill="#f43f5e" opacity="0.32" />
<circle cx="901.1" cy="282.7" r="3.2" fill="#f43f5e" opacity="0.32" />
<circle cx="901.8" cy="323.2" r="3.2" fill="#f43f5e" opacity="0.32" />
<circle cx="904.9" cy="365.9" r="3.2" fill="#f43f5e" opacity="0.32" />
<circle cx="906.9" cy="410.6" r="3.1" fill="#f43f5e" opacity="0.31" />
<circle cx="898.9" cy="447.5" r="3.1" fill="#f43f5e" opacity="0.31" />
<circle cx="904.0" cy="490.8" r="2.9" fill="#f43f5e" opacity="0.29" />
<circle cx="901.2" cy="534.5" r="2.8" fill="#f43f5e" opacity="0.28" />
<circle cx="905.1" cy="575.7" r="2.6" fill="#f43f5e" opacity="0.26" />
<circle cx="902.0" cy="618.9" r="2.5" fill="#f43f5e" opacity="0.25" />
<circle cx="939.2" cy="43.8" r="2.4" fill="#f43f5e" opacity="0.24" />
<circle cx="941.9" cy="83.9" r="2.6" fill="#f43f5e" opacity="0.26" />
<circle cx="942.5" cy="127.8" r="2.7" fill="#f43f5e" opacity="0.27" />
<circle cx="947.0" cy="168.8" r="2.8" fill="#f43f5e" opacity="0.28" />
<circle cx="939.8" cy="200.4" r="2.9" fill="#f43f5e" opacity="0.29" />
<circle cx="945.9" cy="246.2" r="2.9" fill="#f43f5e" opacity="0.29" />
<circle cx="944.3" cy="286.5" r="3.0" fill="#f43f5e" opacity="0.30" />
<circle cx="942.3" cy="332.9" r="3.0" fill="#f43f5e" opacity="0.30" />
<circle cx="941.5" cy="374.0" r="3.0" fill="#f43f5e" opacity="0.30" />
<circle cx="947.5" cy="408.4" r="2.9" fill="#f43f5e" opacity="0.29" />
<circle cx="939.4" cy="451.9" r="2.8" fill="#f43f5e" opacity="0.28" />
<circle cx="940.7" cy="493.3" r="2.7" fill="#f43f5e" opacity="0.27" />
<circle cx="944.6" cy="537.0" r="2.6" fill="#f43f5e" opacity="0.26" />
<circle cx="947.5" cy="570.2" r="2.5" fill="#f43f5e" opacity="0.25" />
<circle cx="944.8" cy="619.2" r="2.3" fill="#f43f5e" opacity="0.23" />
<circle cx="980.3" cy="46.0" r="2.3" fill="#f43f5e" opacity="0.23" />
<circle cx="986.5" cy="85.4" r="2.3" fill="#f43f5e" opacity="0.23" />
<circle cx="986.6" cy="122.1" r="2.4" fill="#f43f5e" opacity="0.24" />
<circle cx="981.5" cy="163.5" r="2.6" fill="#f43f5e" opacity="0.26" />
<circle cx="980.5" cy="200.8" r="2.7" fill="#f43f5e" opacity="0.27" />
<circle cx="985.8" cy="244.9" r="2.7" fill="#f43f5e" opacity="0.27" />
<circle cx="979.6" cy="286.2" r="2.8" fill="#f43f5e" opacity="0.28" />
<circle cx="981.2" cy="327.2" r="2.7" fill="#f43f5e" opacity="0.27" />
<circle cx="984.3" cy="366.7" r="2.7" fill="#f43f5e" opacity="0.27" />
<circle cx="981.5" cy="407.7" r="2.7" fill="#f43f5e" opacity="0.27" />
<circle cx="984.3" cy="447.2" r="2.6" fill="#f43f5e" opacity="0.26" />
<circle cx="989.0" cy="496.8" r="2.5" fill="#f43f5e" opacity="0.25" />
<circle cx="985.8" cy="529.0" r="2.4" fill="#f43f5e" opacity="0.24" />
<circle cx="988.8" cy="571.8" r="2.2" fill="#f43f5e" opacity="0.22" />
<circle cx="988.9" cy="614.8" r="2.1" fill="#fb7185" opacity="0.21" />
<circle cx="1023.3" cy="37.9" r="2.0" fill="#fb7185" opacity="0.20" />
<circle cx="1021.3" cy="77.2" r="2.1" fill="#fb7185" opacity="0.21" />
<circle cx="1027.6" cy="119.8" r="2.2" fill="#f43f5e" opacity="0.22" />
<circle cx="1029.6" cy="167.6" r="2.3" fill="#f43f5e" opacity="0.23" />
<circle cx="1022.4" cy="200.2" r="2.4" fill="#f43f5e" opacity="0.24" />
<circle cx="1029.0" cy="244.6" r="2.4" fill="#f43f5e" opacity="0.24" />
<circle cx="1020.7" cy="290.5" r="2.5" fill="#f43f5e" opacity="0.25" />
<circle cx="1029.4" cy="328.2" r="2.5" fill="#f43f5e" opacity="0.25" />
<circle cx="1025.6" cy="368.9" r="2.5" fill="#f43f5e" opacity="0.25" />
<circle cx="1026.8" cy="409.0" r="2.4" fill="#f43f5e" opacity="0.24" />
<circle cx="1028.4" cy="450.9" r="2.3" fill="#f43f5e" opacity="0.23" />
<circle cx="1023.7" cy="489.4" r="2.3" fill="#f43f5e" opacity="0.23" />
<circle cx="1021.2" cy="528.1" r="2.2" fill="#f43f5e" opacity="0.22" />
<circle cx="1024.2" cy="574.6" r="2.1" fill="#fb7185" opacity="0.21" />
<circle cx="1029.3" cy="619.8" r="1.9" fill="#fb7185" opacity="0.19" />
<circle cx="1061.6" cy="36.8" r="1.8" fill="#fb7185" opacity="0.18" />
<circle cx="1066.5" cy="84.2" r="1.9" fill="#fb7185" opacity="0.19" />
<circle cx="1068.8" cy="125.0" r="2.0" fill="#fb7185" opacity="0.20" />
<circle cx="1063.7" cy="162.3" r="2.1" fill="#fb7185" opacity="0.21" />
<circle cx="1064.8" cy="202.7" r="2.2" fill="#fb7185" opacity="0.22" />
<circle cx="1067.8" cy="241.9" r="2.2" fill="#f43f5e" opacity="0.22" />
<circle cx="1070.9" cy="287.7" r="2.2" fill="#f43f5e" opacity="0.22" />
<circle cx="1066.7" cy="325.9" r="2.2" fill="#f43f5e" opacity="0.22" />
<circle cx="1061.3" cy="365.6" r="2.3" fill="#f43f5e" opacity="0.23" />
<circle cx="1067.4" cy="410.4" r="2.2" fill="#fb7185" opacity="0.22" />
<circle cx="1066.0" cy="449.9" r="2.1" fill="#fb7185" opacity="0.21" />
<circle cx="1068.1" cy="487.9" r="2.1" fill="#fb7185" opacity="0.21" />
<circle cx="1065.5" cy="532.3" r="2.0" fill="#fb7185" opacity="0.20" />
<circle cx="1065.9" cy="571.4" r="1.9" fill="#fb7185" opacity="0.19" />
<circle cx="1062.6" cy="615.3" r="1.7" fill="#fb7185" opacity="0.17" />
<circle cx="1109.0" cy="38.6" r="1.6" fill="#fb7185" opacity="0.16" />
<circle cx="1109.9" cy="80.0" r="1.7" fill="#fb7185" opacity="0.17" />
<circle cx="1107.3" cy="118.1" r="1.8" fill="#fb7185" opacity="0.18" />
<circle cx="1102.4" cy="162.2" r="1.9" fill="#fb7185" opacity="0.19" />
<circle cx="1105.1" cy="206.1" r="2.0" fill="#fb7185" opacity="0.20" />
<circle cx="1107.9" cy="249.8" r="2.0" fill="#fb7185" opacity="0.20" />
<circle cx="1104.6" cy="285.7" r="2.0" fill="#fb7185" opacity="0.20" />
<circle cx="1111.0" cy="333.0" r="2.0" fill="#fb7185" opacity="0.20" />
<circle cx="1105.1" cy="367.5" r="2.0" fill="#fb7185" opacity="0.20" />
<circle cx="1102.6" cy="412.3" r="2.0" fill="#fb7185" opacity="0.20" />
<circle cx="1110.8" cy="453.0" r="1.9" fill="#fb7185" opacity="0.19" />
<circle cx="1104.9" cy="494.9" r="1.8" fill="#fb7185" opacity="0.18" />
<circle cx="1105.4" cy="530.8" r="1.8" fill="#fb7185" opacity="0.18" />
<circle cx="1111.2" cy="573.7" r="1.6" fill="#fb7185" opacity="0.16" />
<circle cx="1106.9" cy="615.1" r="1.5" fill="#fb7185" opacity="0.15" />
<circle cx="1145.2" cy="36.6" r="1.4" fill="#fb7185" opacity="0.14" />
<circle cx="1146.7" cy="78.5" r="1.5" fill="#fb7185" opacity="0.15" />
<circle cx="1143.1" cy="123.2" r="1.6" fill="#fb7185" opacity="0.16" />
<circle cx="1152.1" cy="167.4" r="1.6" fill="#fb7185" opacity="0.16" />
<circle cx="1148.2" cy="207.0" r="1.7" fill="#fb7185" opacity="0.17" />
<circle cx="1151.2" cy="242.4" r="1.7" fill="#fb7185" opacity="0.17" />
<circle cx="1146.3" cy="291.8" r="1.8" fill="#fb7185" opacity="0.18" />
<circle cx="1143.6" cy="331.5" r="1.8" fill="#fb7185" opacity="0.18" />
<circle cx="1150.9" cy="368.7" r="1.7" fill="#fb7185" opacity="0.17" />
<circle cx="1146.5" cy="409.6" r="1.7" fill="#fb7185" opacity="0.17" />
<circle cx="1152.0" cy="452.5" r="1.6" fill="#fb7185" opacity="0.16" />
<circle cx="1143.7" cy="491.2" r="1.6" fill="#fb7185" opacity="0.16" />
<circle cx="1152.8" cy="534.7" r="1.5" fill="#fb7185" opacity="0.15" />
<circle cx="1144.4" cy="569.5" r="1.5" fill="#fb7185" opacity="0.15" />
<circle cx="1143.9" cy="611.5" r="1.3" fill="#fb7185" opacity="0.13" />
<circle cx="1193.0" cy="45.5" r="1.2" fill="#fb7185" opacity="0.12" />
<circle cx="1189.8" cy="84.5" r="1.3" fill="#fb7185" opacity="0.13" />
<circle cx="1193.4" cy="122.6" r="1.3" fill="#fb7185" opacity="0.13" />
<circle cx="1190.7" cy="160.8" r="1.4" fill="#fb7185" opacity="0.14" />
<circle cx="1190.7" cy="203.0" r="1.5" fill="#fb7185" opacity="0.15" />
<circle cx="1189.0" cy="242.7" r="1.5" fill="#fb7185" opacity="0.15" />
<circle cx="1190.6" cy="289.9" r="1.5" fill="#fb7185" opacity="0.15" />
<circle cx="1188.7" cy="331.9" r="1.5" fill="#fb7185" opacity="0.15" />
<circle cx="1189.8" cy="371.9" r="1.5" fill="#fb7185" opacity="0.15" />
<circle cx="1188.7" cy="408.4" r="1.5" fill="#fb7185" opacity="0.15" />
<circle cx="1190.2" cy="454.1" r="1.4" fill="#fb7185" opacity="0.14" />
<circle cx="1190.1" cy="490.7" r="1.4" fill="#fb7185" opacity="0.14" />
<circle cx="1188.5" cy="531.8" r="1.3" fill="#fb7185" opacity="0.13" />
<circle cx="1185.6" cy="575.4" r="1.2" fill="#fb7185" opacity="0.12" />
<circle cx="1187.9" cy="611.8" r="1.1" fill="#fb7185" opacity="0.11" />


  <!-- Vignette -->
  <rect width="1200" height="630" fill="url(#bg)" opacity="0.3" />

  <!-- Category badge -->
  <rect x="48" y="40" width="84" height="28" rx="14" fill="#e11d48" opacity="0.9" />
  <text x="60" y="59" font-family="system-ui, -apple-system, sans-serif" font-size="12" font-weight="700" letter-spacing="1.5" text-transform="uppercase" fill="white">ESSAYS</text>

  <!-- Title -->
  <text x="48" y="550" font-family="system-ui, -apple-system, sans-serif" font-size="42" font-weight="800" fill="white" filter="url(#textShadow)" letter-spacing="-1">
    <tspan x="48" dy="0">Az alkotás szűrője</tspan>
  </text>

  <!-- spike.land watermark -->
  <text x="1152" y="606" font-family="system-ui, -apple-system, sans-serif" font-size="14" font-weight="600" fill="#fb7185" opacity="0.6" text-anchor="end">spike.land</text>
</svg>