<svg width="1600" height="900" viewBox="0 0 1600 900" fill="none" xmlns="http://www.w3.org/2000/svg">
  <defs>
    <linearGradient id="bg" x1="220" y1="140" x2="1380" y2="760" gradientUnits="userSpaceOnUse">
      <stop stop-color="#1A1208"/>
      <stop offset="1" stop-color="#060606"/>
    </linearGradient>
    <radialGradient id="glow" cx="0" cy="0" r="1" gradientUnits="userSpaceOnUse" gradientTransform="translate(800 450) rotate(90) scale(300 520)">
      <stop stop-color="#F6B65A" stop-opacity="0.34"/>
      <stop offset="1" stop-color="#F6B65A" stop-opacity="0"/>
    </radialGradient>
    <filter id="soft" x="-40%" y="-40%" width="180%" height="180%">
      <feGaussianBlur stdDeviation="10"/>
    </filter>
  </defs>

  <rect width="1600" height="900" fill="url(#bg)"/>
  <rect width="1600" height="900" fill="url(#glow)"/>

  <g opacity="0.18" filter="url(#soft)" stroke="#F7B24D" stroke-width="3">
    <path d="M232 220L430 300L618 244L802 370L1006 286L1228 356L1372 248"/>
    <path d="M260 588L450 476L650 542L836 430L1036 514L1278 454L1404 580"/>
    <path d="M430 300L450 476"/>
    <path d="M618 244L650 542"/>
    <path d="M802 370L836 430"/>
    <path d="M1006 286L1036 514"/>
    <path d="M1228 356L1278 454"/>
  </g>

  <g stroke="#EFC06A" stroke-width="2.5">
    <path opacity="0.4" d="M330 200L500 286L640 206L790 314L960 228L1136 304L1286 214"/>
    <path opacity="0.34" d="M320 650L486 548L638 616L790 528L964 612L1142 540L1310 632"/>
    <path opacity="0.28" d="M500 286L486 548"/>
    <path opacity="0.24" d="M640 206L638 616"/>
    <path opacity="0.22" d="M790 314L790 528"/>
    <path opacity="0.24" d="M960 228L964 612"/>
    <path opacity="0.28" d="M1136 304L1142 540"/>
  </g>

  <g fill="#F4BE65">
    <circle cx="330" cy="200" r="6"/>
    <circle cx="500" cy="286" r="6"/>
    <circle cx="640" cy="206" r="6"/>
    <circle cx="790" cy="314" r="7"/>
    <circle cx="960" cy="228" r="6"/>
    <circle cx="1136" cy="304" r="6"/>
    <circle cx="1286" cy="214" r="6"/>
    <circle cx="320" cy="650" r="6"/>
    <circle cx="486" cy="548" r="6"/>
    <circle cx="638" cy="616" r="6"/>
    <circle cx="790" cy="528" r="7"/>
    <circle cx="964" cy="612" r="6"/>
    <circle cx="1142" cy="540" r="6"/>
    <circle cx="1310" cy="632" r="6"/>
  </g>

  <g opacity="0.2" stroke="#7FC8FF" stroke-width="2">
    <path d="M235 442H291L322 388L383 388L414 442L383 496H322L291 442Z"/>
    <path d="M1208 462H1264L1295 408L1356 408L1387 462L1356 516H1295L1264 462Z"/>
  </g>

  <g filter="url(#soft)">
    <rect x="690" y="336" width="220" height="228" rx="22" fill="#F2B551" fill-opacity="0.2"/>
  </g>
  <rect x="720" y="366" width="160" height="168" rx="18" fill="#0F1012" stroke="#F5C36F" stroke-width="4"/>
  <rect x="754" y="402" width="92" height="96" rx="12" fill="#F3B65A" fill-opacity="0.16" stroke="#F3B65A" stroke-width="3"/>
  <path d="M800 314V366" stroke="#F5C36F" stroke-width="3" stroke-linecap="round"/>
  <path d="M638 616L754 498" stroke="#F5C36F" stroke-width="3" stroke-linecap="round"/>
  <path d="M964 612L846 498" stroke="#F5C36F" stroke-width="3" stroke-linecap="round"/>
  <path d="M640 206L754 402" stroke="#F5C36F" stroke-width="3" stroke-linecap="round"/>
  <path d="M960 228L846 402" stroke="#F5C36F" stroke-width="3" stroke-linecap="round"/>

  <g opacity="0.65" fill="#F7C879">
    <circle cx="800" cy="314" r="7"/>
    <circle cx="638" cy="616" r="7"/>
    <circle cx="964" cy="612" r="7"/>
    <circle cx="640" cy="206" r="7"/>
    <circle cx="960" cy="228" r="7"/>
  </g>
</svg>
