<svg xmlns="http://www.w3.org/2000/svg" viewBox="0 0 1200 630" width="1200" height="630">
  <defs>
    <linearGradient id="bg" x1="0%" y1="0%" x2="100%" y2="100%">
      <stop offset="0%" stop-color="#1c1917" />
      <stop offset="100%" stop-color="#292524" />
    </linearGradient>
    <filter id="glow">
      <feGaussianBlur stdDeviation="30" result="blur" />
      <feMerge><feMergeNode in="blur" /><feMergeNode in="SourceGraphic" /></feMerge>
    </filter>
    <filter id="textShadow">
      <feDropShadow dx="0" dy="2" stdDeviation="6" flood-color="#1c1917" flood-opacity="0.8" />
    </filter>
  </defs>

  <!-- Background -->
  <rect width="1200" height="630" fill="url(#bg)" />

  <!-- Generative shapes -->
  <path d="M 0 80 L 0 80.0 L 20 85.2 L 40 104.8 L 60 107.2 L 80 136.6 L 100 107.3 L 120 111.2 L 140 142.1 L 160 127.7 L 180 118.7 L 200 131.5 L 220 116.5 L 240 140.5 L 260 91.0 L 280 113.1 L 300 87.4 L 320 50.2 L 340 60.3 L 360 76.7 L 380 83.0 L 400 45.5 L 420 53.9 L 440 46.0 L 460 87.1 L 480 78.6 L 500 42.5 L 520 39.7 L 540 54.3 L 560 61.9 L 580 42.0 L 600 109.4 L 620 28.6 L 640 35.5 L 660 109.9 L 680 114.0 L 700 120.4 L 720 82.2 L 740 129.1 L 760 134.8 L 780 95.5 L 800 111.3 L 820 30.6 L 840 127.3 L 860 117.6 L 880 81.7 L 900 123.0 L 920 67.1 L 940 56.7 L 960 112.6 L 980 35.5 L 1000 99.7 L 1020 96.3 L 1040 70.7 L 1060 76.1 L 1080 55.4 L 1100 24.8 L 1120 129.4 L 1140 40.8 L 1160 98.7 L 1180 33.6 L 1200 124.8" fill="none" stroke="#d97706" stroke-width="1.6" opacity="0.25" />
<path d="M 0 150 L 0 177.5 L 20 179.7 L 40 185.4 L 60 185.5 L 80 204.2 L 100 190.9 L 120 226.3 L 140 228.0 L 160 198.6 L 180 182.3 L 200 182.0 L 220 136.5 L 240 199.7 L 260 99.6 L 280 116.2 L 300 153.8 L 320 142.6 L 340 136.8 L 360 97.3 L 380 121.9 L 400 124.3 L 420 116.8 L 440 107.1 L 460 92.4 L 480 168.1 L 500 160.1 L 520 145.6 L 540 164.0 L 560 179.7 L 580 217.5 L 600 121.6 L 620 209.2 L 640 78.5 L 660 161.0 L 680 212.1 L 700 177.9 L 720 87.4 L 740 82.5 L 760 174.9 L 780 193.2 L 800 153.7 L 820 215.8 L 840 215.1 L 860 156.2 L 880 200.7 L 900 209.0 L 920 187.4 L 940 127.3 L 960 102.6 L 980 216.5 L 1000 159.7 L 1020 150.3 L 1040 153.4 L 1060 104.5 L 1080 170.4 L 1100 85.1 L 1120 78.0 L 1140 189.6 L 1160 171.3 L 1180 95.9 L 1200 192.0" fill="none" stroke="#f59e0b" stroke-width="2.1" opacity="0.31" />
<path d="M 0 220 L 0 286.2 L 20 251.9 L 40 256.2 L 60 250.0 L 80 244.0 L 100 258.5 L 120 256.4 L 140 234.9 L 160 277.6 L 180 248.5 L 200 224.0 L 220 224.0 L 240 182.4 L 260 195.5 L 280 157.0 L 300 158.4 L 320 170.7 L 340 176.4 L 360 202.6 L 380 207.6 L 400 197.0 L 420 241.3 L 440 190.1 L 460 266.1 L 480 172.5 L 500 246.9 L 520 245.5 L 540 263.0 L 560 296.6 L 580 217.9 L 600 174.1 L 620 246.2 L 640 276.3 L 660 247.1 L 680 289.8 L 700 222.4 L 720 259.1 L 740 206.8 L 760 240.2 L 780 229.7 L 800 162.3 L 820 168.0 L 840 252.9 L 860 201.1 L 880 266.8 L 900 241.9 L 920 154.6 L 940 271.1 L 960 183.4 L 980 282.5 L 1000 164.1 L 1020 242.5 L 1040 184.9 L 1060 272.0 L 1080 254.1 L 1100 266.4 L 1120 222.8 L 1140 273.4 L 1160 212.2 L 1180 193.6 L 1200 207.5" fill="none" stroke="#fbbf24" stroke-width="1.2" opacity="0.31" />
<path d="M 0 290 L 0 347.8 L 20 327.0 L 40 313.0 L 60 323.0 L 80 300.4 L 100 298.3 L 120 297.9 L 140 270.2 L 160 243.6 L 180 294.3 L 200 240.3 L 220 256.4 L 240 255.7 L 260 223.4 L 280 252.4 L 300 253.8 L 320 261.5 L 340 241.9 L 360 235.4 L 380 311.5 L 400 265.5 L 420 234.3 L 440 318.0 L 460 259.7 L 480 222.9 L 500 334.9 L 520 264.9 L 540 313.5 L 560 330.6 L 580 332.5 L 600 340.1 L 620 287.6 L 640 352.4 L 660 311.2 L 680 342.6 L 700 340.8 L 720 266.3 L 740 290.0 L 760 233.7 L 780 255.9 L 800 257.8 L 820 260.0 L 840 265.6 L 860 350.4 L 880 256.4 L 900 347.7 L 920 347.3 L 940 232.6 L 960 315.6 L 980 225.9 L 1000 250.4 L 1020 324.2 L 1040 277.0 L 1060 319.4 L 1080 357.9 L 1100 323.7 L 1120 324.6 L 1140 323.9 L 1160 246.6 L 1180 247.9 L 1200 281.9" fill="none" stroke="#fcd34d" stroke-width="1.2" opacity="0.17" />
<path d="M 0 360 L 0 373.5 L 20 373.1 L 40 351.7 L 60 326.8 L 80 328.7 L 100 325.6 L 120 323.9 L 140 324.8 L 160 306.4 L 180 286.1 L 200 309.2 L 220 305.9 L 240 314.9 L 260 292.4 L 280 308.1 L 300 322.9 L 320 329.9 L 340 339.7 L 360 372.1 L 380 390.8 L 400 321.4 L 420 303.2 L 440 419.7 L 460 311.0 L 480 350.1 L 500 376.5 L 520 388.7 L 540 395.5 L 560 389.7 L 580 409.0 L 600 355.8 L 620 399.0 L 640 311.5 L 660 382.6 L 680 330.0 L 700 291.0 L 720 372.0 L 740 309.0 L 760 395.2 L 780 396.3 L 800 360.2 L 820 331.2 L 840 363.2 L 860 380.2 L 880 391.8 L 900 310.4 L 920 386.0 L 940 379.4 L 960 344.7 L 980 387.4 L 1000 369.2 L 1020 399.4 L 1040 296.8 L 1060 405.4 L 1080 399.8 L 1100 354.0 L 1120 368.9 L 1140 366.0 L 1160 409.0 L 1180 350.6 L 1200 311.7" fill="none" stroke="#d97706" stroke-width="2.6" opacity="0.19" />
<path d="M 0 430 L 0 412.6 L 20 400.1 L 40 380.0 L 60 366.2 L 80 383.5 L 100 403.5 L 120 360.4 L 140 392.3 L 160 389.9 L 180 390.4 L 200 381.7 L 220 417.5 L 240 427.0 L 260 395.2 L 280 402.7 L 300 401.6 L 320 403.0 L 340 447.0 L 360 402.4 L 380 390.0 L 400 465.8 L 420 493.1 L 440 482.7 L 460 482.1 L 480 460.7 L 500 482.1 L 520 427.7 L 540 408.7 L 560 459.2 L 580 403.6 L 600 471.6 L 620 358.6 L 640 476.4 L 660 413.7 L 680 381.2 L 700 464.2 L 720 389.4 L 740 439.7 L 760 439.2 L 780 417.1 L 800 492.3 L 820 417.4 L 840 413.2 L 860 456.4 L 880 493.0 L 900 409.6 L 920 499.0 L 940 394.1 L 960 372.1 L 980 401.1 L 1000 466.3 L 1020 389.4 L 1040 403.7 L 1060 446.4 L 1080 388.6 L 1100 422.5 L 1120 395.7 L 1140 402.5 L 1160 379.2 L 1180 396.3 L 1200 419.0" fill="none" stroke="#f59e0b" stroke-width="3.0" opacity="0.23" />
<path d="M 0 500 L 0 458.9 L 20 454.5 L 40 422.1 L 60 458.5 L 80 422.3 L 100 441.5 L 120 452.5 L 140 480.3 L 160 485.0 L 180 479.1 L 200 516.9 L 220 490.9 L 240 520.9 L 260 551.8 L 280 522.8 L 300 542.2 L 320 548.4 L 340 556.3 L 360 547.6 L 380 518.3 L 400 554.5 L 420 509.9 L 440 516.8 L 460 530.3 L 480 532.0 L 500 535.7 L 520 527.4 L 540 471.3 L 560 549.8 L 580 481.3 L 600 470.5 L 620 481.3 L 640 535.2 L 660 468.6 L 680 461.7 L 700 475.1 L 720 551.5 L 740 457.0 L 760 518.8 L 780 475.1 L 800 454.1 L 820 517.4 L 840 515.4 L 860 542.6 L 880 453.5 L 900 482.1 L 920 437.1 L 940 470.1 L 960 519.3 L 980 478.8 L 1000 477.3 L 1020 462.9 L 1040 485.1 L 1060 440.5 L 1080 492.6 L 1100 449.9 L 1120 557.0 L 1140 479.5 L 1160 503.4 L 1180 525.2 L 1200 522.2" fill="none" stroke="#fbbf24" stroke-width="1.7" opacity="0.24" />
<path d="M 0 570 L 0 504.0 L 20 538.1 L 40 522.6 L 60 528.8 L 80 534.7 L 100 561.9 L 120 553.1 L 140 597.8 L 160 613.5 L 180 615.6 L 200 574.3 L 220 589.9 L 240 633.2 L 260 602.6 L 280 614.4 L 300 612.5 L 320 604.3 L 340 628.3 L 360 629.4 L 380 627.4 L 400 555.6 L 420 626.3 L 440 585.1 L 460 533.2 L 480 626.2 L 500 552.6 L 520 524.4 L 540 635.5 L 560 590.9 L 580 600.1 L 600 545.3 L 620 524.4 L 640 612.1 L 660 578.1 L 680 594.7 L 700 497.0 L 720 568.1 L 740 540.0 L 760 587.2 L 780 594.1 L 800 540.6 L 820 609.0 L 840 604.5 L 860 532.5 L 880 624.6 L 900 518.5 L 920 571.4 L 940 543.4 L 960 516.0 L 980 527.9 L 1000 574.2 L 1020 541.1 L 1040 577.5 L 1060 511.1 L 1080 634.0 L 1100 541.3 L 1120 499.8 L 1140 611.7 L 1160 523.9 L 1180 507.9 L 1200 611.1" fill="none" stroke="#fcd34d" stroke-width="1.4" opacity="0.19" />


  <!-- Vignette -->
  <rect width="1200" height="630" fill="url(#bg)" opacity="0.3" />

  <!-- Category badge -->
  <rect x="48" y="40" width="94" height="28" rx="14" fill="#d97706" opacity="0.9" />
  <text x="60" y="59" font-family="system-ui, -apple-system, sans-serif" font-size="12" font-weight="700" letter-spacing="1.5" text-transform="uppercase" fill="white">SCRIPTS</text>

  <!-- Title -->
  <text x="48" y="550" font-family="system-ui, -apple-system, sans-serif" font-size="42" font-weight="800" fill="white" filter="url(#textShadow)" letter-spacing="-1">
    <tspan x="48" dy="0">A nyelv az agy izomzata — NotebookLM</tspan>
    <tspan x="48" dy="50">Script</tspan>
  </text>

  <!-- spike.land watermark -->
  <text x="1152" y="606" font-family="system-ui, -apple-system, sans-serif" font-size="14" font-weight="600" fill="#fbbf24" opacity="0.6" text-anchor="end">spike.land</text>
</svg>