<svg xmlns="http://www.w3.org/2000/svg" viewBox="0 0 1200 630" width="1200" height="630">
  <defs>
    <linearGradient id="bg" x1="0%" y1="0%" x2="100%" y2="100%">
      <stop offset="0%" stop-color="#1e1b4b" />
      <stop offset="100%" stop-color="#312e81" />
    </linearGradient>
    <filter id="glow">
      <feGaussianBlur stdDeviation="30" result="blur" />
      <feMerge><feMergeNode in="blur" /><feMergeNode in="SourceGraphic" /></feMerge>
    </filter>
    <filter id="textShadow">
      <feDropShadow dx="0" dy="2" stdDeviation="6" flood-color="#1e1b4b" flood-opacity="0.8" />
    </filter>
  </defs>

  <!-- Background -->
  <rect width="1200" height="630" fill="url(#bg)" />

  <!-- Generative shapes -->
  <line x1="363.7" y1="233.3" x2="675.1" y2="250.6" stroke="#a78bfa" stroke-width="2.4" opacity="0.24" />
<line x1="363.7" y1="233.3" x2="752.6" y2="380.2" stroke="#a78bfa" stroke-width="1.7" opacity="0.23" />
<line x1="363.7" y1="233.3" x2="766.1" y2="510.4" stroke="#8b5cf6" stroke-width="2.3" opacity="0.29" />
<line x1="363.7" y1="233.3" x2="774.7" y2="724.3" stroke="#a78bfa" stroke-width="2.2" opacity="0.30" />
<line x1="363.7" y1="233.3" x2="469.0" y2="463.6" stroke="#8b5cf6" stroke-width="2.0" opacity="0.11" />
<line x1="363.7" y1="233.3" x2="443.3" y2="595.2" stroke="#a78bfa" stroke-width="1.6" opacity="0.12" />
<line x1="363.7" y1="233.3" x2="328.3" y2="929.1" stroke="#7c3aed" stroke-width="1.5" opacity="0.18" />
<line x1="363.7" y1="233.3" x2="120.6" y2="966.7" stroke="#7c3aed" stroke-width="1.9" opacity="0.23" />
<line x1="363.7" y1="233.3" x2="-1.9" y2="741.8" stroke="#7c3aed" stroke-width="1.7" opacity="0.21" />
<line x1="363.7" y1="233.3" x2="-37.9" y2="564.3" stroke="#8b5cf6" stroke-width="0.8" opacity="0.18" />
<line x1="363.7" y1="233.3" x2="-79.9" y2="472.4" stroke="#7c3aed" stroke-width="0.6" opacity="0.24" />
<line x1="363.7" y1="233.3" x2="57.6" y2="290.1" stroke="#a78bfa" stroke-width="0.9" opacity="0.19" />
<line x1="363.7" y1="233.3" x2="-395.6" y2="202.6" stroke="#7c3aed" stroke-width="2.5" opacity="0.30" />
<line x1="363.7" y1="233.3" x2="-244.8" y2="50.7" stroke="#7c3aed" stroke-width="2.1" opacity="0.34" />
<line x1="363.7" y1="233.3" x2="-164.8" y2="-80.9" stroke="#8b5cf6" stroke-width="1.7" opacity="0.30" />
<line x1="363.7" y1="233.3" x2="-106.8" y2="-336.9" stroke="#8b5cf6" stroke-width="0.9" opacity="0.10" />
<line x1="363.7" y1="233.3" x2="214.8" y2="-62.9" stroke="#8b5cf6" stroke-width="1.9" opacity="0.34" />
<line x1="363.7" y1="233.3" x2="249.1" y2="-330.8" stroke="#7c3aed" stroke-width="2.0" opacity="0.20" />
<line x1="363.7" y1="233.3" x2="378.5" y2="-375.1" stroke="#7c3aed" stroke-width="1.9" opacity="0.32" />
<line x1="363.7" y1="233.3" x2="490.1" y2="-209.6" stroke="#8b5cf6" stroke-width="1.1" opacity="0.28" />
<line x1="363.7" y1="233.3" x2="646.7" y2="-191.1" stroke="#7c3aed" stroke-width="2.3" opacity="0.33" />
<line x1="363.7" y1="233.3" x2="751.3" y2="-137.0" stroke="#8b5cf6" stroke-width="1.7" opacity="0.26" />
<line x1="363.7" y1="233.3" x2="1035.8" y2="-131.7" stroke="#8b5cf6" stroke-width="0.6" opacity="0.26" />
<line x1="363.7" y1="233.3" x2="684.9" y2="167.5" stroke="#a78bfa" stroke-width="1.8" opacity="0.29" />
<circle cx="363.7" cy="233.3" r="80" fill="#7c3aed" opacity="0.15" filter="url(#glow)" />


  <!-- Vignette -->
  <rect width="1200" height="630" fill="url(#bg)" opacity="0.3" />

  <!-- Category badge -->
  <rect x="48" y="40" width="134" height="28" rx="14" fill="#7c3aed" opacity="0.9" />
  <text x="60" y="59" font-family="system-ui, -apple-system, sans-serif" font-size="12" font-weight="700" letter-spacing="1.5" text-transform="uppercase" fill="white">ENGINEERING</text>

  <!-- Title -->
  <text x="48" y="550" font-family="system-ui, -apple-system, sans-serif" font-size="42" font-weight="800" fill="white" filter="url(#textShadow)" letter-spacing="-1">
    <tspan x="48" dy="0">Seven Ideas from gingerBill That Every</tspan>
    <tspan x="48" dy="50">Platform Builder Should Steal</tspan>
  </text>

  <!-- spike.land watermark -->
  <text x="1152" y="606" font-family="system-ui, -apple-system, sans-serif" font-size="14" font-weight="600" fill="#a78bfa" opacity="0.6" text-anchor="end">spike.land</text>
</svg>