<svg xmlns="http://www.w3.org/2000/svg" viewBox="0 0 1200 630" width="1200" height="630">
  <defs>
    <linearGradient id="bg" x1="0%" y1="0%" x2="100%" y2="100%">
      <stop offset="0%" stop-color="#0f172a" />
      <stop offset="100%" stop-color="#1e293b" />
    </linearGradient>
    <filter id="glow">
      <feGaussianBlur stdDeviation="30" result="blur" />
      <feMerge><feMergeNode in="blur" /><feMergeNode in="SourceGraphic" /></feMerge>
    </filter>
    <filter id="textShadow">
      <feDropShadow dx="0" dy="2" stdDeviation="6" flood-color="#0f172a" flood-opacity="0.8" />
    </filter>
  </defs>

  <!-- Background -->
  <rect width="1200" height="630" fill="url(#bg)" />

  <!-- Generative shapes -->
  <polygon points="44.4,-25.6 44.4,25.6 0.0,51.3 -44.4,25.6 -44.4,-25.6 -0.0,-51.3" fill="#22d3ee" opacity="0.09" />
<polygon points="143.2,-25.6 143.2,25.6 98.7,51.3 54.3,25.6 54.3,-25.6 98.7,-51.3" fill="#22d3ee" opacity="0.19" />
<polygon points="439.3,-25.6 439.3,25.6 394.9,51.3 350.5,25.6 350.5,-25.6 394.9,-51.3" fill="#06b6d4" opacity="0.10" />
<polygon points="538.1,-25.6 538.1,25.6 493.6,51.3 449.2,25.6 449.2,-25.6 493.6,-51.3" fill="#22d3ee" opacity="0.08" />
<polygon points="636.8,-25.6 636.8,25.6 592.4,51.3 547.9,25.6 547.9,-25.6 592.4,-51.3" fill="#0ea5e9" opacity="0.20" />
<polygon points="735.5,-25.6 735.5,25.6 691.1,51.3 646.7,25.6 646.7,-25.6 691.1,-51.3" fill="#06b6d4" opacity="0.06" />
<polygon points="834.2,-25.6 834.2,25.6 789.8,51.3 745.4,25.6 745.4,-25.6 789.8,-51.3" fill="#22d3ee" opacity="0.18" />
<polygon points="933.0,-25.6 933.0,25.6 888.5,51.3 844.1,25.6 844.1,-25.6 888.5,-51.3" fill="#22d3ee" opacity="0.13" />
<polygon points="1130.4,-25.6 1130.4,25.6 1086.0,51.3 1041.6,25.6 1041.6,-25.6 1086.0,-51.3" fill="#06b6d4" opacity="0.22" />
<polygon points="1229.1,-25.6 1229.1,25.6 1184.7,51.3 1140.3,25.6 1140.3,-25.6 1184.7,-51.3" fill="#22d3ee" opacity="0.19" />
<polygon points="1327.9,-25.6 1327.9,25.6 1283.4,51.3 1239.0,25.6 1239.0,-25.6 1283.4,-51.3" fill="#06b6d4" opacity="0.24" />
<polygon points="93.8,59.9 93.8,111.2 49.4,136.8 4.9,111.2 4.9,59.9 49.4,34.2" fill="#0ea5e9" opacity="0.17" />
<polygon points="291.2,59.9 291.2,111.2 246.8,136.8 202.4,111.2 202.4,59.9 246.8,34.2" fill="#0ea5e9" opacity="0.16" />
<polygon points="488.7,59.9 488.7,111.2 444.3,136.8 399.8,111.2 399.8,59.9 444.3,34.2" fill="#0ea5e9" opacity="0.12" />
<polygon points="686.2,59.9 686.2,111.2 641.7,136.8 597.3,111.2 597.3,59.9 641.7,34.2" fill="#06b6d4" opacity="0.05" />
<polygon points="883.6,59.9 883.6,111.2 839.2,136.8 794.8,111.2 794.8,59.9 839.2,34.2" fill="#06b6d4" opacity="0.12" />
<polygon points="982.3,59.9 982.3,111.2 937.9,136.8 893.5,111.2 893.5,59.9 937.9,34.2" fill="#0ea5e9" opacity="0.18" />
<polygon points="1179.8,59.9 1179.8,111.2 1135.4,136.8 1090.9,111.2 1090.9,59.9 1135.4,34.2" fill="#0ea5e9" opacity="0.20" />
<polygon points="1278.5,59.9 1278.5,111.2 1234.1,136.8 1189.7,111.2 1189.7,59.9 1234.1,34.2" fill="#0ea5e9" opacity="0.08" />
<polygon points="1377.2,59.9 1377.2,111.2 1332.8,136.8 1288.4,111.2 1288.4,59.9 1332.8,34.2" fill="#06b6d4" opacity="0.14" />
<polygon points="44.4,145.3 44.4,196.7 0.0,222.3 -44.4,196.7 -44.4,145.4 -0.0,119.7" fill="#22d3ee" opacity="0.06" />
<polygon points="241.9,145.3 241.9,196.7 197.5,222.3 153.0,196.7 153.0,145.4 197.5,119.7" fill="#06b6d4" opacity="0.25" />
<polygon points="340.6,145.3 340.6,196.7 296.2,222.3 251.8,196.7 251.8,145.4 296.2,119.7" fill="#22d3ee" opacity="0.15" />
<polygon points="636.8,145.3 636.8,196.7 592.4,222.3 547.9,196.7 547.9,145.4 592.4,119.7" fill="#22d3ee" opacity="0.07" />
<polygon points="834.2,145.3 834.2,196.7 789.8,222.3 745.4,196.7 745.4,145.4 789.8,119.7" fill="#0ea5e9" opacity="0.15" />
<polygon points="933.0,145.3 933.0,196.7 888.5,222.3 844.1,196.7 844.1,145.4 888.5,119.7" fill="#06b6d4" opacity="0.18" />
<polygon points="1130.4,145.3 1130.4,196.7 1086.0,222.3 1041.6,196.7 1041.6,145.4 1086.0,119.7" fill="#06b6d4" opacity="0.18" />
<polygon points="1327.9,145.3 1327.9,196.7 1283.4,222.3 1239.0,196.7 1239.0,145.4 1283.4,119.7" fill="#22d3ee" opacity="0.24" />
<polygon points="192.5,230.8 192.5,282.1 148.1,307.8 103.7,282.1 103.7,230.9 148.1,205.2" fill="#22d3ee" opacity="0.19" />
<polygon points="291.2,230.8 291.2,282.1 246.8,307.8 202.4,282.1 202.4,230.9 246.8,205.2" fill="#0ea5e9" opacity="0.09" />
<polygon points="390.0,230.8 390.0,282.1 345.5,307.8 301.1,282.1 301.1,230.9 345.5,205.2" fill="#0ea5e9" opacity="0.11" />
<polygon points="587.4,230.8 587.4,282.1 543.0,307.8 498.6,282.1 498.6,230.9 543.0,205.2" fill="#0ea5e9" opacity="0.14" />
<polygon points="784.9,230.8 784.9,282.1 740.5,307.8 696.0,282.1 696.0,230.9 740.5,205.2" fill="#0ea5e9" opacity="0.07" />
<polygon points="883.6,230.8 883.6,282.1 839.2,307.8 794.8,282.1 794.8,230.9 839.2,205.2" fill="#06b6d4" opacity="0.17" />
<polygon points="982.3,230.8 982.3,282.1 937.9,307.8 893.5,282.1 893.5,230.9 937.9,205.2" fill="#22d3ee" opacity="0.24" />
<polygon points="1377.2,230.8 1377.2,282.1 1332.8,307.8 1288.4,282.1 1288.4,230.9 1332.8,205.2" fill="#06b6d4" opacity="0.21" />
<polygon points="44.4,316.4 44.4,367.6 0.0,393.3 -44.4,367.6 -44.4,316.4 -0.0,290.7" fill="#22d3ee" opacity="0.09" />
<polygon points="340.6,316.4 340.6,367.6 296.2,393.3 251.8,367.6 251.8,316.4 296.2,290.7" fill="#0ea5e9" opacity="0.15" />
<polygon points="735.5,316.4 735.5,367.6 691.1,393.3 646.7,367.6 646.7,316.4 691.1,290.7" fill="#0ea5e9" opacity="0.09" />
<polygon points="933.0,316.4 933.0,367.6 888.5,393.3 844.1,367.6 844.1,316.4 888.5,290.7" fill="#22d3ee" opacity="0.15" />
<polygon points="1031.7,316.4 1031.7,367.6 987.3,393.3 942.8,367.6 942.8,316.4 987.3,290.7" fill="#0ea5e9" opacity="0.23" />
<polygon points="1130.4,316.4 1130.4,367.6 1086.0,393.3 1041.6,367.6 1041.6,316.4 1086.0,290.7" fill="#22d3ee" opacity="0.22" />
<polygon points="1229.1,316.4 1229.1,367.6 1184.7,393.3 1140.3,367.6 1140.3,316.4 1184.7,290.7" fill="#22d3ee" opacity="0.14" />
<polygon points="1327.9,316.4 1327.9,367.6 1283.4,393.3 1239.0,367.6 1239.0,316.4 1283.4,290.7" fill="#22d3ee" opacity="0.06" />
<polygon points="93.8,401.9 93.8,453.1 49.4,478.8 4.9,453.1 4.9,401.9 49.4,376.2" fill="#06b6d4" opacity="0.05" />
<polygon points="192.5,401.9 192.5,453.1 148.1,478.8 103.7,453.1 103.7,401.9 148.1,376.2" fill="#22d3ee" opacity="0.18" />
<polygon points="291.2,401.9 291.2,453.1 246.8,478.8 202.4,453.1 202.4,401.9 246.8,376.2" fill="#22d3ee" opacity="0.06" />
<polygon points="488.7,401.9 488.7,453.1 444.3,478.8 399.8,453.1 399.8,401.9 444.3,376.2" fill="#22d3ee" opacity="0.07" />
<polygon points="587.4,401.9 587.4,453.1 543.0,478.8 498.6,453.1 498.6,401.9 543.0,376.2" fill="#0ea5e9" opacity="0.17" />
<polygon points="686.2,401.9 686.2,453.1 641.7,478.8 597.3,453.1 597.3,401.9 641.7,376.2" fill="#0ea5e9" opacity="0.18" />
<polygon points="784.9,401.9 784.9,453.1 740.5,478.8 696.0,453.1 696.0,401.9 740.5,376.2" fill="#06b6d4" opacity="0.24" />
<polygon points="883.6,401.9 883.6,453.1 839.2,478.8 794.8,453.1 794.8,401.9 839.2,376.2" fill="#06b6d4" opacity="0.14" />
<polygon points="982.3,401.9 982.3,453.1 937.9,478.8 893.5,453.1 893.5,401.9 937.9,376.2" fill="#0ea5e9" opacity="0.23" />
<polygon points="1179.8,401.9 1179.8,453.1 1135.4,478.8 1090.9,453.1 1090.9,401.9 1135.4,376.2" fill="#22d3ee" opacity="0.06" />
<polygon points="44.4,487.4 44.4,538.6 0.0,564.3 -44.4,538.6 -44.4,487.4 -0.0,461.7" fill="#22d3ee" opacity="0.21" />
<polygon points="143.2,487.4 143.2,538.6 98.7,564.3 54.3,538.6 54.3,487.4 98.7,461.7" fill="#06b6d4" opacity="0.07" />
<polygon points="241.9,487.4 241.9,538.6 197.5,564.3 153.0,538.6 153.0,487.4 197.5,461.7" fill="#0ea5e9" opacity="0.13" />
<polygon points="538.1,487.4 538.1,538.6 493.6,564.3 449.2,538.6 449.2,487.4 493.6,461.7" fill="#06b6d4" opacity="0.06" />
<polygon points="834.2,487.4 834.2,538.6 789.8,564.3 745.4,538.6 745.4,487.4 789.8,461.7" fill="#22d3ee" opacity="0.08" />
<polygon points="1130.4,487.4 1130.4,538.6 1086.0,564.3 1041.6,538.6 1041.6,487.4 1086.0,461.7" fill="#06b6d4" opacity="0.21" />
<polygon points="1229.1,487.4 1229.1,538.6 1184.7,564.3 1140.3,538.6 1140.3,487.4 1184.7,461.7" fill="#06b6d4" opacity="0.08" />
<polygon points="1327.9,487.4 1327.9,538.6 1283.4,564.3 1239.0,538.6 1239.0,487.4 1283.4,461.7" fill="#22d3ee" opacity="0.06" />
<polygon points="93.8,572.9 93.8,624.1 49.4,649.8 4.9,624.1 4.9,572.9 49.4,547.2" fill="#22d3ee" opacity="0.17" />
<polygon points="192.5,572.9 192.5,624.1 148.1,649.8 103.7,624.1 103.7,572.9 148.1,547.2" fill="#0ea5e9" opacity="0.21" />
<polygon points="291.2,572.9 291.2,624.1 246.8,649.8 202.4,624.1 202.4,572.9 246.8,547.2" fill="#06b6d4" opacity="0.11" />
<polygon points="390.0,572.9 390.0,624.1 345.5,649.8 301.1,624.1 301.1,572.9 345.5,547.2" fill="#0ea5e9" opacity="0.21" />
<polygon points="488.7,572.9 488.7,624.1 444.3,649.8 399.8,624.1 399.8,572.9 444.3,547.2" fill="#0ea5e9" opacity="0.14" />
<polygon points="587.4,572.9 587.4,624.1 543.0,649.8 498.6,624.1 498.6,572.9 543.0,547.2" fill="#0ea5e9" opacity="0.11" />
<polygon points="686.2,572.9 686.2,624.1 641.7,649.8 597.3,624.1 597.3,572.9 641.7,547.2" fill="#06b6d4" opacity="0.13" />
<polygon points="784.9,572.9 784.9,624.1 740.5,649.8 696.0,624.1 696.0,572.9 740.5,547.2" fill="#06b6d4" opacity="0.19" />
<polygon points="883.6,572.9 883.6,624.1 839.2,649.8 794.8,624.1 794.8,572.9 839.2,547.2" fill="#06b6d4" opacity="0.09" />
<polygon points="1081.1,572.9 1081.1,624.1 1036.6,649.8 992.2,624.1 992.2,572.9 1036.6,547.2" fill="#06b6d4" opacity="0.22" />
<polygon points="1377.2,572.9 1377.2,624.1 1332.8,649.8 1288.4,624.1 1288.4,572.9 1332.8,547.2" fill="#0ea5e9" opacity="0.12" />
<polygon points="44.4,658.4 44.4,709.6 0.0,735.3 -44.4,709.6 -44.4,658.4 -0.0,632.7" fill="#0ea5e9" opacity="0.11" />
<polygon points="143.2,658.4 143.2,709.6 98.7,735.3 54.3,709.6 54.3,658.4 98.7,632.7" fill="#22d3ee" opacity="0.19" />
<polygon points="241.9,658.4 241.9,709.6 197.5,735.3 153.0,709.6 153.0,658.4 197.5,632.7" fill="#0ea5e9" opacity="0.06" />
<polygon points="538.1,658.4 538.1,709.6 493.6,735.3 449.2,709.6 449.2,658.4 493.6,632.7" fill="#0ea5e9" opacity="0.24" />
<polygon points="735.5,658.4 735.5,709.6 691.1,735.3 646.7,709.6 646.7,658.4 691.1,632.7" fill="#0ea5e9" opacity="0.06" />
<polygon points="834.2,658.4 834.2,709.6 789.8,735.3 745.4,709.6 745.4,658.4 789.8,632.7" fill="#0ea5e9" opacity="0.12" />
<polygon points="933.0,658.4 933.0,709.6 888.5,735.3 844.1,709.6 844.1,658.4 888.5,632.7" fill="#06b6d4" opacity="0.09" />
<polygon points="1130.4,658.4 1130.4,709.6 1086.0,735.3 1041.6,709.6 1041.6,658.4 1086.0,632.7" fill="#06b6d4" opacity="0.07" />


  <!-- Vignette -->
  <rect width="1200" height="630" fill="url(#bg)" opacity="0.3" />

  <!-- Category badge -->
  <rect x="48" y="40" width="84" height="28" rx="14" fill="#0ea5e9" opacity="0.9" />
  <text x="60" y="59" font-family="system-ui, -apple-system, sans-serif" font-size="12" font-weight="700" letter-spacing="1.5" text-transform="uppercase" fill="white">ESSAYS</text>

  <!-- Title -->
  <text x="48" y="550" font-family="system-ui, -apple-system, sans-serif" font-size="42" font-weight="800" fill="white" filter="url(#textShadow)" letter-spacing="-1">
    <tspan x="48" dy="0">Twelve Things Nobody Is Predicting</tspan>
    <tspan x="48" dy="50">About AI</tspan>
  </text>

  <!-- spike.land watermark -->
  <text x="1152" y="606" font-family="system-ui, -apple-system, sans-serif" font-size="14" font-weight="600" fill="#22d3ee" opacity="0.6" text-anchor="end">spike.land</text>
</svg>