<svg
  xmlns="http://www.w3.org/2000/svg"
  viewBox="0 0 1200 600"
  width="1200"
  height="600"
>
  <defs>
    <style>
    text {
      font-family: -apple-system, BlinkMacSystemFont, "Segoe UI", sans-serif;
    }
    .layer-label {
      font-size: 12px;
      font-weight: 600;
      letter-spacing: 0.08em;
      text-transform: uppercase;
      fill: #8b949e;
    }
    .box-title {
      font-size: 13px;
      font-weight: 700;
      fill: #ffffff;
    }
    .box-sub {
      font-size: 10px;
      fill: #8b949e;
    }
    .arrow {
      stroke-width: 1.5;
      fill: none;
      marker-end: url(#arrowhead);
    }
    </style>
    <marker
      id="arrowBlue"
      markerWidth="8"
      markerHeight="8"
      refX="6"
      refY="3"
      orient="auto"
    >
      <path d="M0,0 L0,6 L8,3 z" fill="#58a6ff" opacity="0.6" />
    </marker>
    <marker
      id="arrowGreen"
      markerWidth="8"
      markerHeight="8"
      refX="6"
      refY="3"
      orient="auto"
    >
      <path d="M0,0 L0,6 L8,3 z" fill="#3fb950" opacity="0.6" />
    </marker>
  </defs>

  <!-- Background -->
  <rect width="1200" height="600" fill="#0d1117" />

  <!-- Grid lines (subtle) -->
  <line x1="0" y1="200" x2="1200" y2="200" stroke="#161b22" stroke-width="1" />
  <line x1="0" y1="400" x2="1200" y2="400" stroke="#161b22" stroke-width="1" />

  <!-- ── PLATFORM LAYER ── -->
  <text x="24" y="48" class="layer-label">Platform Layer</text>

  <!-- spike.land (primary, largest) -->
  <rect
    x="24"
    y="58"
    width="460"
    height="116"
    rx="10"
    ry="10"
    fill="#0d1117"
    stroke="#58a6ff"
    stroke-width="2"
  />
  <rect
    x="24"
    y="58"
    width="460"
    height="116"
    rx="10"
    ry="10"
    fill="#58a6ff"
    fill-opacity="0.06"
  />
  <text x="44" y="84" class="box-title">spike.land</text>
  <text x="44" y="100" class="box-sub"
  >Vite · TanStack Router · Cloudflare Workers · Hono</text>
  <text x="44" y="116" class="box-sub"
  >MCP registry (455+ tools) · Auth · Payments · 17 apps</text>
  <text x="44" y="132" class="box-sub"
  >D1 · Drizzle · Redis · Stripe · Cloudflare</text>
  <text x="44" y="154" fill="#58a6ff" font-size="10" font-weight="600"
  >spike-land</text>

  <!-- spike-land-backend -->
  <rect
    x="504"
    y="58"
    width="320"
    height="116"
    rx="10"
    ry="10"
    fill="#0d1117"
    stroke="#58a6ff"
    stroke-width="1.5"
  />
  <rect
    x="504"
    y="58"
    width="320"
    height="116"
    rx="10"
    ry="10"
    fill="#58a6ff"
    fill-opacity="0.04"
  />
  <text x="524" y="84" class="box-title">spike-land-backend</text>
  <text x="524" y="100" class="box-sub">Cloudflare Workers</text>
  <text x="524" y="116" class="box-sub">Hono framework</text>
  <text x="524" y="132" class="box-sub">Durable Objects · Backend API</text>
  <text x="524" y="154" fill="#58a6ff" font-size="10" font-weight="600"
  >@spike-land-ai/spike-land-backend</text>

  <!-- transpile -->
  <rect
    x="844"
    y="58"
    width="332"
    height="116"
    rx="10"
    ry="10"
    fill="#0d1117"
    stroke="#58a6ff"
    stroke-width="1.5"
  />
  <rect
    x="844"
    y="58"
    width="332"
    height="116"
    rx="10"
    ry="10"
    fill="#58a6ff"
    fill-opacity="0.04"
  />
  <text x="864" y="84" class="box-title">transpile</text>
  <text x="864" y="100" class="box-sub">Cloudflare Workers</text>
  <text x="864" y="116" class="box-sub">On-demand JS/TS transpilation</text>
  <text x="864" y="132" class="box-sub">esbuild-wasm at the edge</text>
  <text x="864" y="154" fill="#58a6ff" font-size="10" font-weight="600"
  >@spike-land-ai/transpile</text>

  <!-- ── ARROWS: Platform → Tooling ── -->
  <line
    x1="254"
    y1="174"
    x2="254"
    y2="218"
    stroke="#58a6ff"
    stroke-width="1.5"
    stroke-opacity="0.4"
    class="arrow"
    marker-end="url(#arrowBlue)"
  />
  <line
    x1="664"
    y1="174"
    x2="664"
    y2="218"
    stroke="#58a6ff"
    stroke-width="1.5"
    stroke-opacity="0.4"
    class="arrow"
    marker-end="url(#arrowBlue)"
  />
  <line
    x1="1010"
    y1="174"
    x2="1010"
    y2="218"
    stroke="#58a6ff"
    stroke-width="1.5"
    stroke-opacity="0.4"
    class="arrow"
    marker-end="url(#arrowBlue)"
  />

  <!-- ── TOOLING LAYER ── -->
  <text x="24" y="248" class="layer-label">Tooling Layer</text>

  <!-- mcp-nanobanana -->
  <rect
    x="24"
    y="258"
    width="152"
    height="112"
    rx="8"
    ry="8"
    fill="#0d1117"
    stroke="#bc8cff"
    stroke-width="1.5"
  />
  <rect
    x="24"
    y="258"
    width="152"
    height="112"
    rx="8"
    ry="8"
    fill="#bc8cff"
    fill-opacity="0.05"
  />
  <text x="44" y="280" class="box-title">mcp-nanobanana</text>
  <text x="44" y="296" class="box-sub">42 Pixel Studio</text>
  <text x="44" y="310" class="box-sub">image tools</text>
  <text x="44" y="354" fill="#bc8cff" font-size="9" font-weight="600"
  >@spike-land-ai/mcp-nanobanana</text>

  <!-- hackernews-mcp -->
  <rect
    x="188"
    y="258"
    width="152"
    height="112"
    rx="8"
    ry="8"
    fill="#0d1117"
    stroke="#bc8cff"
    stroke-width="1.5"
  />
  <rect
    x="188"
    y="258"
    width="152"
    height="112"
    rx="8"
    ry="8"
    fill="#bc8cff"
    fill-opacity="0.05"
  />
  <text x="208" y="280" class="box-title">hackernews-mcp</text>
  <text x="208" y="296" class="box-sub">HackerNews</text>
  <text x="208" y="310" class="box-sub">read / write</text>
  <text x="208" y="354" fill="#bc8cff" font-size="9" font-weight="600"
  >@spike-land-ai/hackernews-mcp</text>

  <!-- openclaw-mcp -->
  <rect
    x="352"
    y="258"
    width="152"
    height="112"
    rx="8"
    ry="8"
    fill="#0d1117"
    stroke="#bc8cff"
    stroke-width="1.5"
  />
  <rect
    x="352"
    y="258"
    width="152"
    height="112"
    rx="8"
    ry="8"
    fill="#bc8cff"
    fill-opacity="0.05"
  />
  <text x="372" y="280" class="box-title">openclaw-mcp</text>
  <text x="372" y="296" class="box-sub">OpenClaw</text>
  <text x="372" y="310" class="box-sub">gateway bridge</text>
  <text x="372" y="354" fill="#bc8cff" font-size="9" font-weight="600"
  >@spike-land-ai/openclaw-mcp</text>

  <!-- esbuild-wasm-mcp -->
  <rect
    x="516"
    y="258"
    width="164"
    height="112"
    rx="8"
    ry="8"
    fill="#0d1117"
    stroke="#bc8cff"
    stroke-width="1.5"
  />
  <rect
    x="516"
    y="258"
    width="164"
    height="112"
    rx="8"
    ry="8"
    fill="#bc8cff"
    fill-opacity="0.05"
  />
  <text x="536" y="280" class="box-title">esbuild-wasm-mcp</text>
  <text x="536" y="296" class="box-sub">MCP server wrapping</text>
  <text x="536" y="310" class="box-sub">esbuild-wasm</text>
  <text x="536" y="354" fill="#bc8cff" font-size="9" font-weight="600"
  >@spike-land-ai/esbuild-wasm-mcp</text>

  <!-- spike-cli -->
  <rect
    x="692"
    y="258"
    width="152"
    height="112"
    rx="8"
    ry="8"
    fill="#0d1117"
    stroke="#bc8cff"
    stroke-width="1.5"
  />
  <rect
    x="692"
    y="258"
    width="152"
    height="112"
    rx="8"
    ry="8"
    fill="#bc8cff"
    fill-opacity="0.05"
  />
  <text x="712" y="280" class="box-title">spike-cli</text>
  <text x="712" y="296" class="box-sub">MCP multiplexer</text>
  <text x="712" y="310" class="box-sub">Claude chat integration</text>
  <text x="712" y="354" fill="#bc8cff" font-size="9" font-weight="600"
  >@spike-land-ai/spike-cli</text>

  <!-- spike-review -->
  <rect
    x="856"
    y="258"
    width="152"
    height="112"
    rx="8"
    ry="8"
    fill="#0d1117"
    stroke="#bc8cff"
    stroke-width="1.5"
  />
  <rect
    x="856"
    y="258"
    width="152"
    height="112"
    rx="8"
    ry="8"
    fill="#bc8cff"
    fill-opacity="0.05"
  />
  <text x="876" y="280" class="box-title">spike-review</text>
  <text x="876" y="296" class="box-sub">AI code review</text>
  <text x="876" y="310" class="box-sub">GitHub integration</text>
  <text x="876" y="354" fill="#bc8cff" font-size="9" font-weight="600"
  >@spike-land-ai/spike-review</text>

  <!-- code -->
  <rect
    x="1020"
    y="258"
    width="156"
    height="112"
    rx="8"
    ry="8"
    fill="#0d1117"
    stroke="#bc8cff"
    stroke-width="1.5"
  />
  <rect
    x="1020"
    y="258"
    width="156"
    height="112"
    rx="8"
    ry="8"
    fill="#bc8cff"
    fill-opacity="0.05"
  />
  <text x="1040" y="280" class="box-title">code</text>
  <text x="1040" y="296" class="box-sub">Monaco editor</text>
  <text x="1040" y="310" class="box-sub">live preview · Vite</text>
  <text x="1040" y="354" fill="#bc8cff" font-size="9" font-weight="600"
  >@spike-land-ai/code</text>

  <!-- ── ARROWS: Tooling → Foundation ── -->
  <line
    x1="100"
    y1="370"
    x2="100"
    y2="418"
    stroke="#bc8cff"
    stroke-width="1.5"
    stroke-opacity="0.4"
    class="arrow"
    marker-end="url(#arrowGreen)"
  />
  <line
    x1="370"
    y1="370"
    x2="370"
    y2="418"
    stroke="#bc8cff"
    stroke-width="1.5"
    stroke-opacity="0.4"
    class="arrow"
    marker-end="url(#arrowGreen)"
  />
  <line
    x1="598"
    y1="370"
    x2="598"
    y2="418"
    stroke="#bc8cff"
    stroke-width="1.5"
    stroke-opacity="0.4"
    class="arrow"
    marker-end="url(#arrowGreen)"
  />
  <line
    x1="770"
    y1="370"
    x2="770"
    y2="418"
    stroke="#bc8cff"
    stroke-width="1.5"
    stroke-opacity="0.4"
    class="arrow"
    marker-end="url(#arrowGreen)"
  />
  <line
    x1="1098"
    y1="370"
    x2="1098"
    y2="418"
    stroke="#bc8cff"
    stroke-width="1.5"
    stroke-opacity="0.4"
    class="arrow"
    marker-end="url(#arrowGreen)"
  />

  <!-- ── FOUNDATION LAYER ── -->
  <text x="24" y="448" class="layer-label">Foundation Layer</text>

  <!-- shared -->
  <rect
    x="24"
    y="458"
    width="370"
    height="112"
    rx="8"
    ry="8"
    fill="#0d1117"
    stroke="#3fb950"
    stroke-width="1.5"
  />
  <rect
    x="24"
    y="458"
    width="370"
    height="112"
    rx="8"
    ry="8"
    fill="#3fb950"
    fill-opacity="0.05"
  />
  <text x="44" y="480" class="box-title">shared</text>
  <text x="44" y="496" class="box-sub"
  >Shared types · validations · constants · utilities</text>
  <text x="44" y="512" class="box-sub"
  >Node / Browser · consumed by all packages</text>
  <text x="44" y="554" fill="#3fb950" font-size="9" font-weight="600"
  >@spike-land-ai/shared</text>

  <!-- react-ts-worker -->
  <rect
    x="410"
    y="458"
    width="380"
    height="112"
    rx="8"
    ry="8"
    fill="#0d1117"
    stroke="#3fb950"
    stroke-width="1.5"
  />
  <rect
    x="410"
    y="458"
    width="380"
    height="112"
    rx="8"
    ry="8"
    fill="#3fb950"
    fill-opacity="0.05"
  />
  <text x="430" y="480" class="box-title">react-ts-worker</text>
  <text x="430" y="496" class="box-sub">Custom React · Fiber reconciler</text>
  <text x="430" y="512" class="box-sub"
  >Lane-based scheduler · DOM / Worker / SSR targets</text>
  <text x="430" y="554" fill="#3fb950" font-size="9" font-weight="600"
  >@spike-land-ai/react-ts-worker</text>

  <!-- esbuild-wasm -->
  <rect
    x="806"
    y="458"
    width="370"
    height="112"
    rx="8"
    ry="8"
    fill="#0d1117"
    stroke="#3fb950"
    stroke-width="1.5"
  />
  <rect
    x="806"
    y="458"
    width="370"
    height="112"
    rx="8"
    ry="8"
    fill="#3fb950"
    fill-opacity="0.05"
  />
  <text x="826" y="480" class="box-title">esbuild-wasm</text>
  <text x="826" y="496" class="box-sub"
  >Cross-platform esbuild WASM binary</text>
  <text x="826" y="512" class="box-sub"
  >Browser / Workers · build foundation</text>
  <text x="826" y="554" fill="#3fb950" font-size="9" font-weight="600"
  >@spike-land-ai/esbuild-wasm</text>

  <!-- Decorative horizontal divider lines between layers -->
  <line
    x1="24"
    y1="210"
    x2="1176"
    y2="210"
    stroke="#21262d"
    stroke-width="1"
    stroke-dasharray="4,4"
  />
  <line
    x1="24"
    y1="408"
    x2="1176"
    y2="408"
    stroke="#21262d"
    stroke-width="1"
    stroke-dasharray="4,4"
  />
</svg>
