<svg xmlns="http://www.w3.org/2000/svg" viewBox="0 0 1200 630" width="1200" height="630">
  <defs>
    <linearGradient id="bg" x1="0%" y1="0%" x2="100%" y2="100%">
      <stop offset="0%" stop-color="#0f172a" />
      <stop offset="100%" stop-color="#1e293b" />
    </linearGradient>
    <filter id="glow">
      <feGaussianBlur stdDeviation="30" result="blur" />
      <feMerge><feMergeNode in="blur" /><feMergeNode in="SourceGraphic" /></feMerge>
    </filter>
    <filter id="textShadow">
      <feDropShadow dx="0" dy="2" stdDeviation="6" flood-color="#0f172a" flood-opacity="0.8" />
    </filter>
  </defs>

  <!-- Background -->
  <rect width="1200" height="630" fill="url(#bg)" />

  <!-- Generative shapes -->
  <polygon points="431.6,-25.2 431.6,25.2 388.0,50.4 344.3,25.2 344.3,-25.2 388.0,-50.4" fill="#06b6d4" opacity="0.19" />
<polygon points="528.6,-25.2 528.6,25.2 485.0,50.4 441.3,25.2 441.3,-25.2 485.0,-50.4" fill="#0ea5e9" opacity="0.17" />
<polygon points="625.6,-25.2 625.6,25.2 582.0,50.4 538.3,25.2 538.3,-25.2 582.0,-50.4" fill="#22d3ee" opacity="0.18" />
<polygon points="722.6,-25.2 722.6,25.2 679.0,50.4 635.3,25.2 635.3,-25.2 679.0,-50.4" fill="#0ea5e9" opacity="0.19" />
<polygon points="1013.6,-25.2 1013.6,25.2 969.9,50.4 926.3,25.2 926.3,-25.2 969.9,-50.4" fill="#06b6d4" opacity="0.17" />
<polygon points="1110.6,-25.2 1110.6,25.2 1066.9,50.4 1023.3,25.2 1023.3,-25.2 1066.9,-50.4" fill="#0ea5e9" opacity="0.21" />
<polygon points="1304.6,-25.2 1304.6,25.2 1260.9,50.4 1217.3,25.2 1217.3,-25.2 1260.9,-50.4" fill="#22d3ee" opacity="0.24" />
<polygon points="92.1,58.8 92.1,109.2 48.5,134.4 4.8,109.2 4.8,58.8 48.5,33.6" fill="#22d3ee" opacity="0.21" />
<polygon points="189.1,58.8 189.1,109.2 145.5,134.4 101.8,109.2 101.8,58.8 145.5,33.6" fill="#22d3ee" opacity="0.07" />
<polygon points="383.1,58.8 383.1,109.2 339.5,134.4 295.8,109.2 295.8,58.8 339.5,33.6" fill="#06b6d4" opacity="0.14" />
<polygon points="577.1,58.8 577.1,109.2 533.5,134.4 489.8,109.2 489.8,58.8 533.5,33.6" fill="#22d3ee" opacity="0.21" />
<polygon points="674.1,58.8 674.1,109.2 630.5,134.4 586.8,109.2 586.8,58.8 630.5,33.6" fill="#0ea5e9" opacity="0.07" />
<polygon points="771.1,58.8 771.1,109.2 727.5,134.4 683.8,109.2 683.8,58.8 727.5,33.6" fill="#22d3ee" opacity="0.23" />
<polygon points="868.1,58.8 868.1,109.2 824.5,134.4 780.8,109.2 780.8,58.8 824.5,33.6" fill="#0ea5e9" opacity="0.20" />
<polygon points="965.1,58.8 965.1,109.2 921.5,134.4 877.8,109.2 877.8,58.8 921.5,33.6" fill="#06b6d4" opacity="0.17" />
<polygon points="1159.1,58.8 1159.1,109.2 1115.4,134.4 1071.8,109.2 1071.8,58.8 1115.4,33.6" fill="#06b6d4" opacity="0.21" />
<polygon points="1256.1,58.8 1256.1,109.2 1212.4,134.4 1168.8,109.2 1168.8,58.8 1212.4,33.6" fill="#06b6d4" opacity="0.23" />
<polygon points="1353.1,58.8 1353.1,109.2 1309.4,134.4 1265.8,109.2 1265.8,58.8 1309.4,33.6" fill="#06b6d4" opacity="0.20" />
<polygon points="140.6,142.8 140.6,193.2 97.0,218.4 53.3,193.2 53.3,142.8 97.0,117.6" fill="#22d3ee" opacity="0.13" />
<polygon points="528.6,142.8 528.6,193.2 485.0,218.4 441.3,193.2 441.3,142.8 485.0,117.6" fill="#0ea5e9" opacity="0.17" />
<polygon points="625.6,142.8 625.6,193.2 582.0,218.4 538.3,193.2 538.3,142.8 582.0,117.6" fill="#06b6d4" opacity="0.07" />
<polygon points="916.6,142.8 916.6,193.2 873.0,218.4 829.3,193.2 829.3,142.8 873.0,117.6" fill="#22d3ee" opacity="0.09" />
<polygon points="1110.6,142.8 1110.6,193.2 1066.9,218.4 1023.3,193.2 1023.3,142.8 1066.9,117.6" fill="#0ea5e9" opacity="0.12" />
<polygon points="1304.6,142.8 1304.6,193.2 1260.9,218.4 1217.3,193.2 1217.3,142.8 1260.9,117.6" fill="#06b6d4" opacity="0.21" />
<polygon points="92.1,226.8 92.1,277.2 48.5,302.4 4.8,277.2 4.8,226.8 48.5,201.6" fill="#22d3ee" opacity="0.19" />
<polygon points="286.1,226.8 286.1,277.2 242.5,302.4 198.8,277.2 198.8,226.8 242.5,201.6" fill="#0ea5e9" opacity="0.22" />
<polygon points="480.1,226.8 480.1,277.2 436.5,302.4 392.8,277.2 392.8,226.8 436.5,201.6" fill="#06b6d4" opacity="0.14" />
<polygon points="965.1,226.8 965.1,277.2 921.5,302.4 877.8,277.2 877.8,226.8 921.5,201.6" fill="#06b6d4" opacity="0.08" />
<polygon points="1159.1,226.8 1159.1,277.2 1115.4,302.4 1071.8,277.2 1071.8,226.8 1115.4,201.6" fill="#06b6d4" opacity="0.13" />
<polygon points="1256.1,226.8 1256.1,277.2 1212.4,302.4 1168.8,277.2 1168.8,226.8 1212.4,201.6" fill="#0ea5e9" opacity="0.20" />
<polygon points="1353.1,226.8 1353.1,277.2 1309.4,302.4 1265.8,277.2 1265.8,226.8 1309.4,201.6" fill="#22d3ee" opacity="0.14" />
<polygon points="334.6,310.8 334.6,361.2 291.0,386.4 247.3,361.2 247.3,310.8 291.0,285.6" fill="#0ea5e9" opacity="0.14" />
<polygon points="431.6,310.8 431.6,361.2 388.0,386.4 344.3,361.2 344.3,310.8 388.0,285.6" fill="#0ea5e9" opacity="0.14" />
<polygon points="528.6,310.8 528.6,361.2 485.0,386.4 441.3,361.2 441.3,310.8 485.0,285.6" fill="#0ea5e9" opacity="0.19" />
<polygon points="625.6,310.8 625.6,361.2 582.0,386.4 538.3,361.2 538.3,310.8 582.0,285.6" fill="#0ea5e9" opacity="0.06" />
<polygon points="722.6,310.8 722.6,361.2 679.0,386.4 635.3,361.2 635.3,310.8 679.0,285.6" fill="#06b6d4" opacity="0.22" />
<polygon points="819.6,310.8 819.6,361.2 776.0,386.4 732.3,361.2 732.3,310.8 776.0,285.6" fill="#22d3ee" opacity="0.11" />
<polygon points="916.6,310.8 916.6,361.2 873.0,386.4 829.3,361.2 829.3,310.8 873.0,285.6" fill="#22d3ee" opacity="0.16" />
<polygon points="1013.6,310.8 1013.6,361.2 969.9,386.4 926.3,361.2 926.3,310.8 969.9,285.6" fill="#0ea5e9" opacity="0.20" />
<polygon points="1304.6,310.8 1304.6,361.2 1260.9,386.4 1217.3,361.2 1217.3,310.8 1260.9,285.6" fill="#0ea5e9" opacity="0.08" />
<polygon points="92.1,394.8 92.1,445.2 48.5,470.4 4.8,445.2 4.8,394.8 48.5,369.6" fill="#22d3ee" opacity="0.06" />
<polygon points="383.1,394.8 383.1,445.2 339.5,470.4 295.8,445.2 295.8,394.8 339.5,369.6" fill="#22d3ee" opacity="0.10" />
<polygon points="480.1,394.8 480.1,445.2 436.5,470.4 392.8,445.2 392.8,394.8 436.5,369.6" fill="#22d3ee" opacity="0.22" />
<polygon points="577.1,394.8 577.1,445.2 533.5,470.4 489.8,445.2 489.8,394.8 533.5,369.6" fill="#22d3ee" opacity="0.07" />
<polygon points="771.1,394.8 771.1,445.2 727.5,470.4 683.8,445.2 683.8,394.8 727.5,369.6" fill="#06b6d4" opacity="0.22" />
<polygon points="868.1,394.8 868.1,445.2 824.5,470.4 780.8,445.2 780.8,394.8 824.5,369.6" fill="#0ea5e9" opacity="0.24" />
<polygon points="1062.1,394.8 1062.1,445.2 1018.4,470.4 974.8,445.2 974.8,394.8 1018.4,369.6" fill="#0ea5e9" opacity="0.12" />
<polygon points="1159.1,394.8 1159.1,445.2 1115.4,470.4 1071.8,445.2 1071.8,394.8 1115.4,369.6" fill="#22d3ee" opacity="0.09" />
<polygon points="1256.1,394.8 1256.1,445.2 1212.4,470.4 1168.8,445.2 1168.8,394.8 1212.4,369.6" fill="#06b6d4" opacity="0.24" />
<polygon points="237.6,478.8 237.6,529.2 194.0,554.4 150.3,529.2 150.3,478.8 194.0,453.6" fill="#22d3ee" opacity="0.06" />
<polygon points="334.6,478.8 334.6,529.2 291.0,554.4 247.3,529.2 247.3,478.8 291.0,453.6" fill="#22d3ee" opacity="0.22" />
<polygon points="528.6,478.8 528.6,529.2 485.0,554.4 441.3,529.2 441.3,478.8 485.0,453.6" fill="#0ea5e9" opacity="0.19" />
<polygon points="916.6,478.8 916.6,529.2 873.0,554.4 829.3,529.2 829.3,478.8 873.0,453.6" fill="#06b6d4" opacity="0.05" />
<polygon points="1013.6,478.8 1013.6,529.2 969.9,554.4 926.3,529.2 926.3,478.8 969.9,453.6" fill="#0ea5e9" opacity="0.14" />
<polygon points="1207.6,478.8 1207.6,529.2 1163.9,554.4 1120.3,529.2 1120.3,478.8 1163.9,453.6" fill="#0ea5e9" opacity="0.08" />
<polygon points="92.1,562.8 92.1,613.2 48.5,638.4 4.8,613.2 4.8,562.8 48.5,537.6" fill="#22d3ee" opacity="0.07" />
<polygon points="189.1,562.8 189.1,613.2 145.5,638.4 101.8,613.2 101.8,562.8 145.5,537.6" fill="#22d3ee" opacity="0.21" />
<polygon points="383.1,562.8 383.1,613.2 339.5,638.4 295.8,613.2 295.8,562.8 339.5,537.6" fill="#06b6d4" opacity="0.13" />
<polygon points="480.1,562.8 480.1,613.2 436.5,638.4 392.8,613.2 392.8,562.8 436.5,537.6" fill="#0ea5e9" opacity="0.12" />
<polygon points="674.1,562.8 674.1,613.2 630.5,638.4 586.8,613.2 586.8,562.8 630.5,537.6" fill="#06b6d4" opacity="0.17" />
<polygon points="771.1,562.8 771.1,613.2 727.5,638.4 683.8,613.2 683.8,562.8 727.5,537.6" fill="#0ea5e9" opacity="0.14" />
<polygon points="868.1,562.8 868.1,613.2 824.5,638.4 780.8,613.2 780.8,562.8 824.5,537.6" fill="#0ea5e9" opacity="0.08" />
<polygon points="965.1,562.8 965.1,613.2 921.5,638.4 877.8,613.2 877.8,562.8 921.5,537.6" fill="#0ea5e9" opacity="0.22" />
<polygon points="1159.1,562.8 1159.1,613.2 1115.4,638.4 1071.8,613.2 1071.8,562.8 1115.4,537.6" fill="#22d3ee" opacity="0.23" />
<polygon points="1256.1,562.8 1256.1,613.2 1212.4,638.4 1168.8,613.2 1168.8,562.8 1212.4,537.6" fill="#0ea5e9" opacity="0.09" />
<polygon points="43.6,646.8 43.6,697.2 0.0,722.4 -43.6,697.2 -43.6,646.8 -0.0,621.6" fill="#0ea5e9" opacity="0.09" />
<polygon points="431.6,646.8 431.6,697.2 388.0,722.4 344.3,697.2 344.3,646.8 388.0,621.6" fill="#22d3ee" opacity="0.11" />
<polygon points="528.6,646.8 528.6,697.2 485.0,722.4 441.3,697.2 441.3,646.8 485.0,621.6" fill="#06b6d4" opacity="0.24" />
<polygon points="625.6,646.8 625.6,697.2 582.0,722.4 538.3,697.2 538.3,646.8 582.0,621.6" fill="#22d3ee" opacity="0.13" />
<polygon points="819.6,646.8 819.6,697.2 776.0,722.4 732.3,697.2 732.3,646.8 776.0,621.6" fill="#06b6d4" opacity="0.24" />
<polygon points="916.6,646.8 916.6,697.2 873.0,722.4 829.3,697.2 829.3,646.8 873.0,621.6" fill="#22d3ee" opacity="0.15" />
<polygon points="1207.6,646.8 1207.6,697.2 1163.9,722.4 1120.3,697.2 1120.3,646.8 1163.9,621.6" fill="#0ea5e9" opacity="0.24" />
<polygon points="1304.6,646.8 1304.6,697.2 1260.9,722.4 1217.3,697.2 1217.3,646.8 1260.9,621.6" fill="#0ea5e9" opacity="0.12" />


  <!-- Vignette -->
  <rect width="1200" height="630" fill="url(#bg)" opacity="0.3" />

  <!-- Category badge -->
  <rect x="48" y="40" width="94" height="28" rx="14" fill="#0ea5e9" opacity="0.9" />
  <text x="60" y="59" font-family="system-ui, -apple-system, sans-serif" font-size="12" font-weight="700" letter-spacing="1.5" text-transform="uppercase" fill="white">PRODUCT</text>

  <!-- Title -->
  <text x="48" y="550" font-family="system-ui, -apple-system, sans-serif" font-size="42" font-weight="800" fill="white" filter="url(#textShadow)" letter-spacing="-1">
    <tspan x="48" dy="0">Godspeed Development: 100 App Ideas</tspan>
    <tspan x="48" dy="50">Powered by Spike Land MCPs</tspan>
  </text>

  <!-- spike.land watermark -->
  <text x="1152" y="606" font-family="system-ui, -apple-system, sans-serif" font-size="14" font-weight="600" fill="#22d3ee" opacity="0.6" text-anchor="end">spike.land</text>
</svg>