<svg xmlns="http://www.w3.org/2000/svg" viewBox="0 0 1200 630" width="1200" height="630">
  <defs>
    <linearGradient id="bg" x1="0%" y1="0%" x2="100%" y2="100%">
      <stop offset="0%" stop-color="#0f172a" />
      <stop offset="100%" stop-color="#1e293b" />
    </linearGradient>
    <filter id="glow">
      <feGaussianBlur stdDeviation="30" result="blur" />
      <feMerge><feMergeNode in="blur" /><feMergeNode in="SourceGraphic" /></feMerge>
    </filter>
    <filter id="textShadow">
      <feDropShadow dx="0" dy="2" stdDeviation="6" flood-color="#0f172a" flood-opacity="0.8" />
    </filter>
  </defs>

  <!-- Background -->
  <rect width="1200" height="630" fill="url(#bg)" />

  <!-- Generative shapes -->
  <line x1="652.4" y1="409.9" x2="1116.8" y2="419.9" stroke="#94a3b8" stroke-width="1.3" opacity="0.22" />
<line x1="652.4" y1="409.9" x2="1281.4" y2="599.6" stroke="#475569" stroke-width="2.0" opacity="0.26" />
<line x1="652.4" y1="409.9" x2="1262.5" y2="767.0" stroke="#475569" stroke-width="2.3" opacity="0.21" />
<line x1="652.4" y1="409.9" x2="1213.7" y2="976.0" stroke="#94a3b8" stroke-width="2.2" opacity="0.19" />
<line x1="652.4" y1="409.9" x2="892.4" y2="861.5" stroke="#94a3b8" stroke-width="2.2" opacity="0.30" />
<line x1="652.4" y1="409.9" x2="762.8" y2="1081.5" stroke="#475569" stroke-width="0.7" opacity="0.13" />
<line x1="652.4" y1="409.9" x2="582.9" y2="1173.3" stroke="#475569" stroke-width="1.9" opacity="0.25" />
<line x1="652.4" y1="409.9" x2="432.2" y2="1100.1" stroke="#475569" stroke-width="1.5" opacity="0.35" />
<line x1="652.4" y1="409.9" x2="295.8" y2="945.3" stroke="#64748b" stroke-width="1.9" opacity="0.35" />
<line x1="652.4" y1="409.9" x2="458.9" y2="575.4" stroke="#475569" stroke-width="1.6" opacity="0.26" />
<line x1="652.4" y1="409.9" x2="237.4" y2="607.9" stroke="#475569" stroke-width="2.3" opacity="0.15" />
<line x1="652.4" y1="409.9" x2="-123.2" y2="558.8" stroke="#94a3b8" stroke-width="1.1" opacity="0.22" />
<line x1="652.4" y1="409.9" x2="218.5" y2="366.7" stroke="#475569" stroke-width="1.0" opacity="0.22" />
<line x1="652.4" y1="409.9" x2="442.4" y2="341.1" stroke="#94a3b8" stroke-width="1.2" opacity="0.16" />
<line x1="652.4" y1="409.9" x2="358.3" y2="222.3" stroke="#64748b" stroke-width="2.2" opacity="0.17" />
<line x1="652.4" y1="409.9" x2="433.8" y2="168.0" stroke="#64748b" stroke-width="1.7" opacity="0.19" />
<line x1="652.4" y1="409.9" x2="412.3" y2="-16.7" stroke="#64748b" stroke-width="0.7" opacity="0.26" />
<line x1="652.4" y1="409.9" x2="561.0" y2="16.2" stroke="#94a3b8" stroke-width="2.3" opacity="0.31" />
<line x1="652.4" y1="409.9" x2="666.4" y2="-137.1" stroke="#475569" stroke-width="1.5" opacity="0.23" />
<line x1="652.4" y1="409.9" x2="840.2" y2="-119.1" stroke="#94a3b8" stroke-width="1.1" opacity="0.11" />
<line x1="652.4" y1="409.9" x2="859.8" y2="98.8" stroke="#475569" stroke-width="2.2" opacity="0.24" />
<line x1="652.4" y1="409.9" x2="1174.7" y2="-42.7" stroke="#475569" stroke-width="0.7" opacity="0.15" />
<line x1="652.4" y1="409.9" x2="1106.7" y2="186.5" stroke="#94a3b8" stroke-width="1.1" opacity="0.21" />
<line x1="652.4" y1="409.9" x2="1101.8" y2="321.1" stroke="#64748b" stroke-width="1.2" opacity="0.11" />
<circle cx="652.4" cy="409.9" r="80" fill="#475569" opacity="0.15" filter="url(#glow)" />


  <!-- Vignette -->
  <rect width="1200" height="630" fill="url(#bg)" opacity="0.3" />

  <!-- Category badge -->
  <rect x="48" y="40" width="84" height="28" rx="14" fill="#475569" opacity="0.9" />
  <text x="60" y="59" font-family="system-ui, -apple-system, sans-serif" font-size="12" font-weight="700" letter-spacing="1.5" text-transform="uppercase" fill="white">ESSAYS</text>

  <!-- Title -->
  <text x="48" y="550" font-family="system-ui, -apple-system, sans-serif" font-size="42" font-weight="800" fill="white" filter="url(#textShadow)" letter-spacing="-1">
    <tspan x="48" dy="0">English for Hungarian Mathematicians</tspan>
  </text>

  <!-- spike.land watermark -->
  <text x="1152" y="606" font-family="system-ui, -apple-system, sans-serif" font-size="14" font-weight="600" fill="#94a3b8" opacity="0.6" text-anchor="end">spike.land</text>
</svg>