<svg xmlns="http://www.w3.org/2000/svg" viewBox="0 0 1200 630" width="1200" height="630">
  <defs>
    <linearGradient id="bg" x1="0%" y1="0%" x2="100%" y2="100%">
      <stop offset="0%" stop-color="#1c1917" />
      <stop offset="100%" stop-color="#27272a" />
    </linearGradient>
    <filter id="glow">
      <feGaussianBlur stdDeviation="30" result="blur" />
      <feMerge><feMergeNode in="blur" /><feMergeNode in="SourceGraphic" /></feMerge>
    </filter>
    <filter id="textShadow">
      <feDropShadow dx="0" dy="2" stdDeviation="6" flood-color="#1c1917" flood-opacity="0.8" />
    </filter>
  </defs>

  <!-- Background -->
  <rect width="1200" height="630" fill="url(#bg)" />

  <!-- Generative shapes -->
  <polygon points="35.9,-20.7 35.9,20.7 0.0,41.4 -35.9,20.7 -35.9,-20.7 -0.0,-41.4" fill="#f43f5e" opacity="0.09" />
<polygon points="195.2,-20.7 195.2,20.7 159.3,41.4 123.5,20.7 123.5,-20.7 159.3,-41.4" fill="#e11d48" opacity="0.12" />
<polygon points="274.9,-20.7 274.9,20.7 239.0,41.4 203.2,20.7 203.2,-20.7 239.0,-41.4" fill="#fb7185" opacity="0.08" />
<polygon points="354.6,-20.7 354.6,20.7 318.7,41.4 282.8,20.7 282.8,-20.7 318.7,-41.4" fill="#e11d48" opacity="0.25" />
<polygon points="434.2,-20.7 434.2,20.7 398.4,41.4 362.5,20.7 362.5,-20.7 398.4,-41.4" fill="#f43f5e" opacity="0.22" />
<polygon points="673.2,-20.7 673.2,20.7 637.4,41.4 601.5,20.7 601.5,-20.7 637.4,-41.4" fill="#e11d48" opacity="0.12" />
<polygon points="912.3,-20.7 912.3,20.7 876.4,41.4 840.6,20.7 840.6,-20.7 876.4,-41.4" fill="#fb7185" opacity="0.09" />
<polygon points="991.9,-20.7 991.9,20.7 956.1,41.4 920.2,20.7 920.2,-20.7 956.1,-41.4" fill="#e11d48" opacity="0.24" />
<polygon points="1071.6,-20.7 1071.6,20.7 1035.8,41.4 999.9,20.7 999.9,-20.7 1035.8,-41.4" fill="#f43f5e" opacity="0.25" />
<polygon points="1151.3,-20.7 1151.3,20.7 1115.4,41.4 1079.6,20.7 1079.6,-20.7 1115.4,-41.4" fill="#e11d48" opacity="0.14" />
<polygon points="235.0,48.3 235.0,89.7 199.2,110.4 163.3,89.7 163.3,48.3 199.2,27.6" fill="#fb7185" opacity="0.09" />
<polygon points="314.7,48.3 314.7,89.7 278.9,110.4 243.0,89.7 243.0,48.3 278.9,27.6" fill="#f43f5e" opacity="0.12" />
<polygon points="394.4,48.3 394.4,89.7 358.5,110.4 322.7,89.7 322.7,48.3 358.5,27.6" fill="#fb7185" opacity="0.06" />
<polygon points="553.7,48.3 553.7,89.7 517.9,110.4 482.0,89.7 482.0,48.3 517.9,27.6" fill="#e11d48" opacity="0.25" />
<polygon points="713.1,48.3 713.1,89.7 677.2,110.4 641.4,89.7 641.4,48.3 677.2,27.6" fill="#e11d48" opacity="0.10" />
<polygon points="952.1,48.3 952.1,89.7 916.3,110.4 880.4,89.7 880.4,48.3 916.3,27.6" fill="#fb7185" opacity="0.07" />
<polygon points="1031.8,48.3 1031.8,89.7 995.9,110.4 960.1,89.7 960.1,48.3 995.9,27.6" fill="#f43f5e" opacity="0.21" />
<polygon points="1111.5,48.3 1111.5,89.7 1075.6,110.4 1039.8,89.7 1039.8,48.3 1075.6,27.6" fill="#f43f5e" opacity="0.21" />
<polygon points="1191.1,48.3 1191.1,89.7 1155.3,110.4 1119.4,89.7 1119.4,48.3 1155.3,27.6" fill="#f43f5e" opacity="0.12" />
<polygon points="1270.8,48.3 1270.8,89.7 1235.0,110.4 1199.1,89.7 1199.1,48.3 1235.0,27.6" fill="#fb7185" opacity="0.12" />
<polygon points="35.9,117.3 35.9,158.7 0.0,179.4 -35.9,158.7 -35.9,117.3 -0.0,96.6" fill="#f43f5e" opacity="0.18" />
<polygon points="195.2,117.3 195.2,158.7 159.3,179.4 123.5,158.7 123.5,117.3 159.3,96.6" fill="#f43f5e" opacity="0.16" />
<polygon points="274.9,117.3 274.9,158.7 239.0,179.4 203.2,158.7 203.2,117.3 239.0,96.6" fill="#fb7185" opacity="0.16" />
<polygon points="354.6,117.3 354.6,158.7 318.7,179.4 282.8,158.7 282.8,117.3 318.7,96.6" fill="#e11d48" opacity="0.07" />
<polygon points="593.6,117.3 593.6,158.7 557.7,179.4 521.9,158.7 521.9,117.3 557.7,96.6" fill="#f43f5e" opacity="0.06" />
<polygon points="752.9,117.3 752.9,158.7 717.1,179.4 681.2,158.7 681.2,117.3 717.1,96.6" fill="#f43f5e" opacity="0.06" />
<polygon points="912.3,117.3 912.3,158.7 876.4,179.4 840.6,158.7 840.6,117.3 876.4,96.6" fill="#fb7185" opacity="0.06" />
<polygon points="991.9,117.3 991.9,158.7 956.1,179.4 920.2,158.7 920.2,117.3 956.1,96.6" fill="#f43f5e" opacity="0.23" />
<polygon points="1151.3,117.3 1151.3,158.7 1115.4,179.4 1079.6,158.7 1079.6,117.3 1115.4,96.6" fill="#e11d48" opacity="0.19" />
<polygon points="1231.0,117.3 1231.0,158.7 1195.1,179.4 1159.3,158.7 1159.3,117.3 1195.1,96.6" fill="#f43f5e" opacity="0.11" />
<polygon points="75.7,186.3 75.7,227.7 39.8,248.4 4.0,227.7 4.0,186.3 39.8,165.6" fill="#fb7185" opacity="0.05" />
<polygon points="155.4,186.3 155.4,227.7 119.5,248.4 83.7,227.7 83.7,186.3 119.5,165.6" fill="#f43f5e" opacity="0.20" />
<polygon points="314.7,186.3 314.7,227.7 278.9,248.4 243.0,227.7 243.0,186.3 278.9,165.6" fill="#f43f5e" opacity="0.13" />
<polygon points="394.4,186.3 394.4,227.7 358.5,248.4 322.7,227.7 322.7,186.3 358.5,165.6" fill="#f43f5e" opacity="0.10" />
<polygon points="474.1,186.3 474.1,227.7 438.2,248.4 402.4,227.7 402.4,186.3 438.2,165.6" fill="#f43f5e" opacity="0.13" />
<polygon points="553.7,186.3 553.7,227.7 517.9,248.4 482.0,227.7 482.0,186.3 517.9,165.6" fill="#f43f5e" opacity="0.18" />
<polygon points="633.4,186.3 633.4,227.7 597.6,248.4 561.7,227.7 561.7,186.3 597.6,165.6" fill="#f43f5e" opacity="0.15" />
<polygon points="952.1,186.3 952.1,227.7 916.3,248.4 880.4,227.7 880.4,186.3 916.3,165.6" fill="#fb7185" opacity="0.06" />
<polygon points="1031.8,186.3 1031.8,227.7 995.9,248.4 960.1,227.7 960.1,186.3 995.9,165.6" fill="#fb7185" opacity="0.24" />
<polygon points="1111.5,186.3 1111.5,227.7 1075.6,248.4 1039.8,227.7 1039.8,186.3 1075.6,165.6" fill="#fb7185" opacity="0.24" />
<polygon points="1191.1,186.3 1191.1,227.7 1155.3,248.4 1119.4,227.7 1119.4,186.3 1155.3,165.6" fill="#f43f5e" opacity="0.20" />
<polygon points="1270.8,186.3 1270.8,227.7 1235.0,248.4 1199.1,227.7 1199.1,186.3 1235.0,165.6" fill="#f43f5e" opacity="0.09" />
<polygon points="115.5,255.3 115.5,296.7 79.7,317.4 43.8,296.7 43.8,255.3 79.7,234.6" fill="#fb7185" opacity="0.19" />
<polygon points="195.2,255.3 195.2,296.7 159.3,317.4 123.5,296.7 123.5,255.3 159.3,234.6" fill="#e11d48" opacity="0.06" />
<polygon points="274.9,255.3 274.9,296.7 239.0,317.4 203.2,296.7 203.2,255.3 239.0,234.6" fill="#e11d48" opacity="0.14" />
<polygon points="593.6,255.3 593.6,296.7 557.7,317.4 521.9,296.7 521.9,255.3 557.7,234.6" fill="#e11d48" opacity="0.19" />
<polygon points="673.2,255.3 673.2,296.7 637.4,317.4 601.5,296.7 601.5,255.3 637.4,234.6" fill="#fb7185" opacity="0.10" />
<polygon points="752.9,255.3 752.9,296.7 717.1,317.4 681.2,296.7 681.2,255.3 717.1,234.6" fill="#f43f5e" opacity="0.14" />
<polygon points="1151.3,255.3 1151.3,296.7 1115.4,317.4 1079.6,296.7 1079.6,255.3 1115.4,234.6" fill="#f43f5e" opacity="0.17" />
<polygon points="1310.6,255.3 1310.6,296.7 1274.8,317.4 1238.9,296.7 1238.9,255.3 1274.8,234.6" fill="#fb7185" opacity="0.25" />
<polygon points="75.7,324.3 75.7,365.7 39.8,386.4 4.0,365.7 4.0,324.3 39.8,303.6" fill="#fb7185" opacity="0.09" />
<polygon points="155.4,324.3 155.4,365.7 119.5,386.4 83.7,365.7 83.7,324.3 119.5,303.6" fill="#f43f5e" opacity="0.10" />
<polygon points="235.0,324.3 235.0,365.7 199.2,386.4 163.3,365.7 163.3,324.3 199.2,303.6" fill="#fb7185" opacity="0.15" />
<polygon points="394.4,324.3 394.4,365.7 358.5,386.4 322.7,365.7 322.7,324.3 358.5,303.6" fill="#fb7185" opacity="0.23" />
<polygon points="474.1,324.3 474.1,365.7 438.2,386.4 402.4,365.7 402.4,324.3 438.2,303.6" fill="#fb7185" opacity="0.23" />
<polygon points="792.8,324.3 792.8,365.7 756.9,386.4 721.1,365.7 721.1,324.3 756.9,303.6" fill="#e11d48" opacity="0.06" />
<polygon points="1031.8,324.3 1031.8,365.7 995.9,386.4 960.1,365.7 960.1,324.3 995.9,303.6" fill="#f43f5e" opacity="0.16" />
<polygon points="1111.5,324.3 1111.5,365.7 1075.6,386.4 1039.8,365.7 1039.8,324.3 1075.6,303.6" fill="#f43f5e" opacity="0.16" />
<polygon points="1191.1,324.3 1191.1,365.7 1155.3,386.4 1119.4,365.7 1119.4,324.3 1155.3,303.6" fill="#e11d48" opacity="0.15" />
<polygon points="1270.8,324.3 1270.8,365.7 1235.0,386.4 1199.1,365.7 1199.1,324.3 1235.0,303.6" fill="#e11d48" opacity="0.12" />
<polygon points="513.9,393.3 513.9,434.7 478.0,455.4 442.2,434.7 442.2,393.3 478.0,372.6" fill="#e11d48" opacity="0.19" />
<polygon points="593.6,393.3 593.6,434.7 557.7,455.4 521.9,434.7 521.9,393.3 557.7,372.6" fill="#e11d48" opacity="0.14" />
<polygon points="673.2,393.3 673.2,434.7 637.4,455.4 601.5,434.7 601.5,393.3 637.4,372.6" fill="#fb7185" opacity="0.11" />
<polygon points="832.6,393.3 832.6,434.7 796.7,455.4 760.9,434.7 760.9,393.3 796.7,372.6" fill="#fb7185" opacity="0.07" />
<polygon points="991.9,393.3 991.9,434.7 956.1,455.4 920.2,434.7 920.2,393.3 956.1,372.6" fill="#e11d48" opacity="0.09" />
<polygon points="1071.6,393.3 1071.6,434.7 1035.8,455.4 999.9,434.7 999.9,393.3 1035.8,372.6" fill="#f43f5e" opacity="0.19" />
<polygon points="1151.3,393.3 1151.3,434.7 1115.4,455.4 1079.6,434.7 1079.6,393.3 1115.4,372.6" fill="#f43f5e" opacity="0.10" />
<polygon points="1231.0,393.3 1231.0,434.7 1195.1,455.4 1159.3,434.7 1159.3,393.3 1195.1,372.6" fill="#e11d48" opacity="0.16" />
<polygon points="1310.6,393.3 1310.6,434.7 1274.8,455.4 1238.9,434.7 1238.9,393.3 1274.8,372.6" fill="#e11d48" opacity="0.22" />
<polygon points="155.4,462.3 155.4,503.7 119.5,524.4 83.7,503.7 83.7,462.3 119.5,441.6" fill="#e11d48" opacity="0.17" />
<polygon points="314.7,462.3 314.7,503.7 278.9,524.4 243.0,503.7 243.0,462.3 278.9,441.6" fill="#f43f5e" opacity="0.12" />
<polygon points="394.4,462.3 394.4,503.7 358.5,524.4 322.7,503.7 322.7,462.3 358.5,441.6" fill="#e11d48" opacity="0.14" />
<polygon points="553.7,462.3 553.7,503.7 517.9,524.4 482.0,503.7 482.0,462.3 517.9,441.6" fill="#fb7185" opacity="0.10" />
<polygon points="633.4,462.3 633.4,503.7 597.6,524.4 561.7,503.7 561.7,462.3 597.6,441.6" fill="#e11d48" opacity="0.10" />
<polygon points="713.1,462.3 713.1,503.7 677.2,524.4 641.4,503.7 641.4,462.3 677.2,441.6" fill="#f43f5e" opacity="0.13" />
<polygon points="792.8,462.3 792.8,503.7 756.9,524.4 721.1,503.7 721.1,462.3 756.9,441.6" fill="#e11d48" opacity="0.19" />
<polygon points="952.1,462.3 952.1,503.7 916.3,524.4 880.4,503.7 880.4,462.3 916.3,441.6" fill="#f43f5e" opacity="0.23" />
<polygon points="1031.8,462.3 1031.8,503.7 995.9,524.4 960.1,503.7 960.1,462.3 995.9,441.6" fill="#fb7185" opacity="0.09" />
<polygon points="1111.5,462.3 1111.5,503.7 1075.6,524.4 1039.8,503.7 1039.8,462.3 1075.6,441.6" fill="#f43f5e" opacity="0.18" />
<polygon points="1191.1,462.3 1191.1,503.7 1155.3,524.4 1119.4,503.7 1119.4,462.3 1155.3,441.6" fill="#f43f5e" opacity="0.09" />
<polygon points="1270.8,462.3 1270.8,503.7 1235.0,524.4 1199.1,503.7 1199.1,462.3 1235.0,441.6" fill="#fb7185" opacity="0.23" />
<polygon points="115.5,531.3 115.5,572.7 79.7,593.4 43.8,572.7 43.8,531.3 79.7,510.6" fill="#f43f5e" opacity="0.11" />
<polygon points="195.2,531.3 195.2,572.7 159.3,593.4 123.5,572.7 123.5,531.3 159.3,510.6" fill="#f43f5e" opacity="0.06" />
<polygon points="274.9,531.3 274.9,572.7 239.0,593.4 203.2,572.7 203.2,531.3 239.0,510.6" fill="#fb7185" opacity="0.08" />
<polygon points="434.2,531.3 434.2,572.7 398.4,593.4 362.5,572.7 362.5,531.3 398.4,510.6" fill="#f43f5e" opacity="0.09" />
<polygon points="513.9,531.3 513.9,572.7 478.0,593.4 442.2,572.7 442.2,531.3 478.0,510.6" fill="#fb7185" opacity="0.18" />
<polygon points="593.6,531.3 593.6,572.7 557.7,593.4 521.9,572.7 521.9,531.3 557.7,510.6" fill="#fb7185" opacity="0.15" />
<polygon points="752.9,531.3 752.9,572.7 717.1,593.4 681.2,572.7 681.2,531.3 717.1,510.6" fill="#fb7185" opacity="0.20" />
<polygon points="832.6,531.3 832.6,572.7 796.7,593.4 760.9,572.7 760.9,531.3 796.7,510.6" fill="#fb7185" opacity="0.24" />
<polygon points="912.3,531.3 912.3,572.7 876.4,593.4 840.6,572.7 840.6,531.3 876.4,510.6" fill="#fb7185" opacity="0.16" />
<polygon points="991.9,531.3 991.9,572.7 956.1,593.4 920.2,572.7 920.2,531.3 956.1,510.6" fill="#fb7185" opacity="0.19" />
<polygon points="1071.6,531.3 1071.6,572.7 1035.8,593.4 999.9,572.7 999.9,531.3 1035.8,510.6" fill="#e11d48" opacity="0.10" />
<polygon points="1151.3,531.3 1151.3,572.7 1115.4,593.4 1079.6,572.7 1079.6,531.3 1115.4,510.6" fill="#fb7185" opacity="0.22" />
<polygon points="1310.6,531.3 1310.6,572.7 1274.8,593.4 1238.9,572.7 1238.9,531.3 1274.8,510.6" fill="#fb7185" opacity="0.17" />
<polygon points="75.7,600.3 75.7,641.7 39.8,662.4 4.0,641.7 4.0,600.3 39.8,579.6" fill="#e11d48" opacity="0.07" />
<polygon points="235.0,600.3 235.0,641.7 199.2,662.4 163.3,641.7 163.3,600.3 199.2,579.6" fill="#f43f5e" opacity="0.05" />
<polygon points="314.7,600.3 314.7,641.7 278.9,662.4 243.0,641.7 243.0,600.3 278.9,579.6" fill="#e11d48" opacity="0.19" />
<polygon points="394.4,600.3 394.4,641.7 358.5,662.4 322.7,641.7 322.7,600.3 358.5,579.6" fill="#e11d48" opacity="0.17" />
<polygon points="474.1,600.3 474.1,641.7 438.2,662.4 402.4,641.7 402.4,600.3 438.2,579.6" fill="#f43f5e" opacity="0.07" />
<polygon points="553.7,600.3 553.7,641.7 517.9,662.4 482.0,641.7 482.0,600.3 517.9,579.6" fill="#f43f5e" opacity="0.05" />
<polygon points="792.8,600.3 792.8,641.7 756.9,662.4 721.1,641.7 721.1,600.3 756.9,579.6" fill="#e11d48" opacity="0.15" />
<polygon points="872.4,600.3 872.4,641.7 836.6,662.4 800.7,641.7 800.7,600.3 836.6,579.6" fill="#f43f5e" opacity="0.23" />
<polygon points="1111.5,600.3 1111.5,641.7 1075.6,662.4 1039.8,641.7 1039.8,600.3 1075.6,579.6" fill="#fb7185" opacity="0.19" />
<polygon points="1191.1,600.3 1191.1,641.7 1155.3,662.4 1119.4,641.7 1119.4,600.3 1155.3,579.6" fill="#f43f5e" opacity="0.11" />
<polygon points="1270.8,600.3 1270.8,641.7 1235.0,662.4 1199.1,641.7 1199.1,600.3 1235.0,579.6" fill="#f43f5e" opacity="0.11" />
<polygon points="1350.5,600.3 1350.5,641.7 1314.6,662.4 1278.8,641.7 1278.8,600.3 1314.6,579.6" fill="#fb7185" opacity="0.08" />
<polygon points="115.5,669.3 115.5,710.7 79.7,731.4 43.8,710.7 43.8,669.3 79.7,648.6" fill="#fb7185" opacity="0.20" />
<polygon points="195.2,669.3 195.2,710.7 159.3,731.4 123.5,710.7 123.5,669.3 159.3,648.6" fill="#fb7185" opacity="0.24" />
<polygon points="274.9,669.3 274.9,710.7 239.0,731.4 203.2,710.7 203.2,669.3 239.0,648.6" fill="#f43f5e" opacity="0.05" />
<polygon points="354.6,669.3 354.6,710.7 318.7,731.4 282.8,710.7 282.8,669.3 318.7,648.6" fill="#fb7185" opacity="0.22" />
<polygon points="434.2,669.3 434.2,710.7 398.4,731.4 362.5,710.7 362.5,669.3 398.4,648.6" fill="#e11d48" opacity="0.10" />
<polygon points="513.9,669.3 513.9,710.7 478.0,731.4 442.2,710.7 442.2,669.3 478.0,648.6" fill="#f43f5e" opacity="0.09" />
<polygon points="673.2,669.3 673.2,710.7 637.4,731.4 601.5,710.7 601.5,669.3 637.4,648.6" fill="#fb7185" opacity="0.15" />
<polygon points="752.9,669.3 752.9,710.7 717.1,731.4 681.2,710.7 681.2,669.3 717.1,648.6" fill="#f43f5e" opacity="0.11" />
<polygon points="832.6,669.3 832.6,710.7 796.7,731.4 760.9,710.7 760.9,669.3 796.7,648.6" fill="#fb7185" opacity="0.07" />
<polygon points="912.3,669.3 912.3,710.7 876.4,731.4 840.6,710.7 840.6,669.3 876.4,648.6" fill="#f43f5e" opacity="0.12" />
<polygon points="1071.6,669.3 1071.6,710.7 1035.8,731.4 999.9,710.7 999.9,669.3 1035.8,648.6" fill="#e11d48" opacity="0.06" />
<polygon points="1151.3,669.3 1151.3,710.7 1115.4,731.4 1079.6,710.7 1079.6,669.3 1115.4,648.6" fill="#f43f5e" opacity="0.15" />
<polygon points="1231.0,669.3 1231.0,710.7 1195.1,731.4 1159.3,710.7 1159.3,669.3 1195.1,648.6" fill="#fb7185" opacity="0.15" />
<polygon points="1310.6,669.3 1310.6,710.7 1274.8,731.4 1238.9,710.7 1238.9,669.3 1274.8,648.6" fill="#f43f5e" opacity="0.08" />


  <!-- Vignette -->
  <rect width="1200" height="630" fill="url(#bg)" opacity="0.3" />

  <!-- Category badge -->
  <rect x="48" y="40" width="224" height="28" rx="14" fill="#e11d48" opacity="0.9" />
  <text x="60" y="59" font-family="system-ui, -apple-system, sans-serif" font-size="12" font-weight="700" letter-spacing="1.5" text-transform="uppercase" fill="white">DEVELOPER EXPERIENCE</text>

  <!-- Title -->
  <text x="48" y="550" font-family="system-ui, -apple-system, sans-serif" font-size="42" font-weight="800" fill="white" filter="url(#textShadow)" letter-spacing="-1">
    <tspan x="48" dy="0">The Grandmother Neuron Fallacy: Why AI</tspan>
    <tspan x="48" dy="50">Tool Chains Break</tspan>
  </text>

  <!-- spike.land watermark -->
  <text x="1152" y="606" font-family="system-ui, -apple-system, sans-serif" font-size="14" font-weight="600" fill="#fb7185" opacity="0.6" text-anchor="end">spike.land</text>
</svg>