<svg xmlns="http://www.w3.org/2000/svg" viewBox="0 0 600 315" width="1200" height="630">
  <defs>
    <linearGradient id="bg" x1="0%" y1="0%" x2="100%" y2="100%">
      <stop offset="0%" stop-color="#0d1117"/>
      <stop offset="50%" stop-color="#161b22"/>
      <stop offset="100%" stop-color="#21262d"/>
    </linearGradient>
    <radialGradient id="glow" cx="50%" cy="30%" r="50%">
      <stop offset="0%" stop-color="#58a6ff" stop-opacity="0.15"/>
      <stop offset="100%" stop-color="#58a6ff" stop-opacity="0"/>
    </radialGradient>
    <filter id="blur"><feGaussianBlur in="SourceGraphic" stdDeviation="40"/></filter>
  </defs>
  <rect width="600" height="315" fill="url(#bg)"/>
  <g><circle cx="0" cy="0" r="1" fill="#c9d1d9" opacity="0.030"/><circle cx="0" cy="40" r="1" fill="#c9d1d9" opacity="0.030"/><circle cx="0" cy="80" r="1" fill="#c9d1d9" opacity="0.030"/><circle cx="0" cy="120" r="1" fill="#c9d1d9" opacity="0.030"/><circle cx="0" cy="160" r="1" fill="#c9d1d9" opacity="0.030"/><circle cx="0" cy="200" r="1" fill="#c9d1d9" opacity="0.030"/><circle cx="0" cy="240" r="1" fill="#c9d1d9" opacity="0.030"/><circle cx="0" cy="280" r="1" fill="#c9d1d9" opacity="0.030"/><circle cx="40" cy="0" r="1" fill="#c9d1d9" opacity="0.030"/><circle cx="40" cy="40" r="1" fill="#c9d1d9" opacity="0.050"/><circle cx="40" cy="80" r="1" fill="#c9d1d9" opacity="0.035"/><circle cx="40" cy="120" r="1" fill="#c9d1d9" opacity="0.055"/><circle cx="40" cy="160" r="1" fill="#c9d1d9" opacity="0.040"/><circle cx="40" cy="200" r="1" fill="#c9d1d9" opacity="0.060"/><circle cx="40" cy="240" r="1" fill="#c9d1d9" opacity="0.045"/><circle cx="40" cy="280" r="1" fill="#c9d1d9" opacity="0.030"/><circle cx="80" cy="0" r="1" fill="#c9d1d9" opacity="0.030"/><circle cx="80" cy="40" r="1" fill="#c9d1d9" opacity="0.035"/><circle cx="80" cy="80" r="1" fill="#c9d1d9" opacity="0.040"/><circle cx="80" cy="120" r="1" fill="#c9d1d9" opacity="0.045"/><circle cx="80" cy="160" r="1" fill="#c9d1d9" opacity="0.050"/><circle cx="80" cy="200" r="1" fill="#c9d1d9" opacity="0.055"/><circle cx="80" cy="240" r="1" fill="#c9d1d9" opacity="0.060"/><circle cx="80" cy="280" r="1" fill="#c9d1d9" opacity="0.030"/><circle cx="120" cy="0" r="1" fill="#c9d1d9" opacity="0.030"/><circle cx="120" cy="40" r="1" fill="#c9d1d9" opacity="0.055"/><circle cx="120" cy="80" r="1" fill="#c9d1d9" opacity="0.045"/><circle cx="120" cy="120" r="1" fill="#c9d1d9" opacity="0.035"/><circle cx="120" cy="160" r="1" fill="#c9d1d9" opacity="0.060"/><circle cx="120" cy="200" r="1" fill="#c9d1d9" opacity="0.050"/><circle cx="120" cy="240" r="1" fill="#c9d1d9" opacity="0.040"/><circle cx="120" cy="280" r="1" fill="#c9d1d9" opacity="0.030"/><circle cx="160" cy="0" r="1" fill="#c9d1d9" opacity="0.030"/><circle cx="160" cy="40" r="1" fill="#c9d1d9" opacity="0.040"/><circle cx="160" cy="80" r="1" fill="#c9d1d9" opacity="0.050"/><circle cx="160" cy="120" r="1" fill="#c9d1d9" opacity="0.060"/><circle cx="160" cy="160" r="1" fill="#c9d1d9" opacity="0.035"/><circle cx="160" cy="200" r="1" fill="#c9d1d9" opacity="0.045"/><circle cx="160" cy="240" r="1" fill="#c9d1d9" opacity="0.055"/><circle cx="160" cy="280" r="1" fill="#c9d1d9" opacity="0.030"/><circle cx="200" cy="0" r="1" fill="#c9d1d9" opacity="0.030"/><circle cx="200" cy="40" r="1" fill="#c9d1d9" opacity="0.060"/><circle cx="200" cy="80" r="1" fill="#c9d1d9" opacity="0.055"/><circle cx="200" cy="120" r="1" fill="#c9d1d9" opacity="0.050"/><circle cx="200" cy="160" r="1" fill="#c9d1d9" opacity="0.045"/><circle cx="200" cy="200" r="1" fill="#c9d1d9" opacity="0.040"/><circle cx="200" cy="240" r="1" fill="#c9d1d9" opacity="0.035"/><circle cx="200" cy="280" r="1" fill="#c9d1d9" opacity="0.030"/><circle cx="240" cy="0" r="1" fill="#c9d1d9" opacity="0.030"/><circle cx="240" cy="40" r="1" fill="#c9d1d9" opacity="0.045"/><circle cx="240" cy="80" r="1" fill="#c9d1d9" opacity="0.060"/><circle cx="240" cy="120" r="1" fill="#c9d1d9" opacity="0.040"/><circle cx="240" cy="160" r="1" fill="#c9d1d9" opacity="0.055"/><circle cx="240" cy="200" r="1" fill="#c9d1d9" opacity="0.035"/><circle cx="240" cy="240" r="1" fill="#c9d1d9" opacity="0.050"/><circle cx="240" cy="280" r="1" fill="#c9d1d9" opacity="0.030"/><circle cx="280" cy="0" r="1" fill="#c9d1d9" opacity="0.030"/><circle cx="280" cy="40" r="1" fill="#c9d1d9" opacity="0.030"/><circle cx="280" cy="80" r="1" fill="#c9d1d9" opacity="0.030"/><circle cx="280" cy="120" r="1" fill="#c9d1d9" opacity="0.030"/><circle cx="280" cy="160" r="1" fill="#c9d1d9" opacity="0.030"/><circle cx="280" cy="200" r="1" fill="#c9d1d9" opacity="0.030"/><circle cx="280" cy="240" r="1" fill="#c9d1d9" opacity="0.030"/><circle cx="280" cy="280" r="1" fill="#c9d1d9" opacity="0.030"/><circle cx="320" cy="0" r="1" fill="#c9d1d9" opacity="0.030"/><circle cx="320" cy="40" r="1" fill="#c9d1d9" opacity="0.050"/><circle cx="320" cy="80" r="1" fill="#c9d1d9" opacity="0.035"/><circle cx="320" cy="120" r="1" fill="#c9d1d9" opacity="0.055"/><circle cx="320" cy="160" r="1" fill="#c9d1d9" opacity="0.040"/><circle cx="320" cy="200" r="1" fill="#c9d1d9" opacity="0.060"/><circle cx="320" cy="240" r="1" fill="#c9d1d9" opacity="0.045"/><circle cx="320" cy="280" r="1" fill="#c9d1d9" opacity="0.030"/><circle cx="360" cy="0" r="1" fill="#c9d1d9" opacity="0.030"/><circle cx="360" cy="40" r="1" fill="#c9d1d9" opacity="0.035"/><circle cx="360" cy="80" r="1" fill="#c9d1d9" opacity="0.040"/><circle cx="360" cy="120" r="1" fill="#c9d1d9" opacity="0.045"/><circle cx="360" cy="160" r="1" fill="#c9d1d9" opacity="0.050"/><circle cx="360" cy="200" r="1" fill="#c9d1d9" opacity="0.055"/><circle cx="360" cy="240" r="1" fill="#c9d1d9" opacity="0.060"/><circle cx="360" cy="280" r="1" fill="#c9d1d9" opacity="0.030"/><circle cx="400" cy="0" r="1" fill="#c9d1d9" opacity="0.030"/><circle cx="400" cy="40" r="1" fill="#c9d1d9" opacity="0.055"/><circle cx="400" cy="80" r="1" fill="#c9d1d9" opacity="0.045"/><circle cx="400" cy="120" r="1" fill="#c9d1d9" opacity="0.035"/><circle cx="400" cy="160" r="1" fill="#c9d1d9" opacity="0.060"/><circle cx="400" cy="200" r="1" fill="#c9d1d9" opacity="0.050"/><circle cx="400" cy="240" r="1" fill="#c9d1d9" opacity="0.040"/><circle cx="400" cy="280" r="1" fill="#c9d1d9" opacity="0.030"/><circle cx="440" cy="0" r="1" fill="#c9d1d9" opacity="0.030"/><circle cx="440" cy="40" r="1" fill="#c9d1d9" opacity="0.040"/><circle cx="440" cy="80" r="1" fill="#c9d1d9" opacity="0.050"/><circle cx="440" cy="120" r="1" fill="#c9d1d9" opacity="0.060"/><circle cx="440" cy="160" r="1" fill="#c9d1d9" opacity="0.035"/><circle cx="440" cy="200" r="1" fill="#c9d1d9" opacity="0.045"/><circle cx="440" cy="240" r="1" fill="#c9d1d9" opacity="0.055"/><circle cx="440" cy="280" r="1" fill="#c9d1d9" opacity="0.030"/><circle cx="480" cy="0" r="1" fill="#c9d1d9" opacity="0.030"/><circle cx="480" cy="40" r="1" fill="#c9d1d9" opacity="0.060"/><circle cx="480" cy="80" r="1" fill="#c9d1d9" opacity="0.055"/><circle cx="480" cy="120" r="1" fill="#c9d1d9" opacity="0.050"/><circle cx="480" cy="160" r="1" fill="#c9d1d9" opacity="0.045"/><circle cx="480" cy="200" r="1" fill="#c9d1d9" opacity="0.040"/><circle cx="480" cy="240" r="1" fill="#c9d1d9" opacity="0.035"/><circle cx="480" cy="280" r="1" fill="#c9d1d9" opacity="0.030"/><circle cx="520" cy="0" r="1" fill="#c9d1d9" opacity="0.030"/><circle cx="520" cy="40" r="1" fill="#c9d1d9" opacity="0.045"/><circle cx="520" cy="80" r="1" fill="#c9d1d9" opacity="0.060"/><circle cx="520" cy="120" r="1" fill="#c9d1d9" opacity="0.040"/><circle cx="520" cy="160" r="1" fill="#c9d1d9" opacity="0.055"/><circle cx="520" cy="200" r="1" fill="#c9d1d9" opacity="0.035"/><circle cx="520" cy="240" r="1" fill="#c9d1d9" opacity="0.050"/><circle cx="520" cy="280" r="1" fill="#c9d1d9" opacity="0.030"/><circle cx="560" cy="0" r="1" fill="#c9d1d9" opacity="0.030"/><circle cx="560" cy="40" r="1" fill="#c9d1d9" opacity="0.030"/><circle cx="560" cy="80" r="1" fill="#c9d1d9" opacity="0.030"/><circle cx="560" cy="120" r="1" fill="#c9d1d9" opacity="0.030"/><circle cx="560" cy="160" r="1" fill="#c9d1d9" opacity="0.030"/><circle cx="560" cy="200" r="1" fill="#c9d1d9" opacity="0.030"/><circle cx="560" cy="240" r="1" fill="#c9d1d9" opacity="0.030"/><circle cx="560" cy="280" r="1" fill="#c9d1d9" opacity="0.030"/></g>
  <rect width="600" height="315" fill="url(#glow)"/>
  <circle cx="300" cy="80" r="120" fill="#58a6ff" opacity="0.06" filter="url(#blur)"/>
  <g transform="translate(250,10) scale(1.2)" opacity="0.7"><path d="M35 40 A15 15 0 1 1 50 55 M50 55 L46 50 M50 55 L54 50" stroke="#58a6ff" stroke-width="2.5" fill="none" stroke-linecap="round"/></g>
    <text x="300" y="98" text-anchor="middle" fill="#c9d1d9" font-family="system-ui,-apple-system,sans-serif" font-size="24" font-weight="700" letter-spacing="-0.02em">Strange Loops, Statistical</text>
    <text x="300" y="132" text-anchor="middle" fill="#c9d1d9" font-family="system-ui,-apple-system,sans-serif" font-size="24" font-weight="700" letter-spacing="-0.02em">Selves, and the Coming</text>
    <text x="300" y="166" text-anchor="middle" fill="#c9d1d9" font-family="system-ui,-apple-system,sans-serif" font-size="24" font-weight="700" letter-spacing="-0.02em">Identity Crisis</text>
  <line x1="240" y1="208" x2="360" y2="208" stroke="#58a6ff" stroke-width="2" opacity="0.4" stroke-linecap="round"/>
  <text x="300" y="290" text-anchor="middle" fill="#c9d1d9" font-family="system-ui,-apple-system,sans-serif" font-size="12" font-weight="500" opacity="0.35" letter-spacing="0.15em">spike.land</text>
</svg>