<svg xmlns="http://www.w3.org/2000/svg" viewBox="0 0 1200 630" width="1200" height="630">
  <defs>
    <linearGradient id="bg" x1="0%" y1="0%" x2="100%" y2="100%">
      <stop offset="0%" stop-color="#042f2e" />
      <stop offset="100%" stop-color="#134e4a" />
    </linearGradient>
    <filter id="glow">
      <feGaussianBlur stdDeviation="30" result="blur" />
      <feMerge><feMergeNode in="blur" /><feMergeNode in="SourceGraphic" /></feMerge>
    </filter>
    <filter id="textShadow">
      <feDropShadow dx="0" dy="2" stdDeviation="6" flood-color="#042f2e" flood-opacity="0.8" />
    </filter>
  </defs>

  <!-- Background -->
  <rect width="1200" height="630" fill="url(#bg)" />

  <!-- Generative shapes -->
  <circle cx="59.1" cy="65.2" r="1.5" fill="#2dd4bf" opacity="0.15" />
<circle cx="66.6" cy="128.5" r="1.7" fill="#2dd4bf" opacity="0.17" />
<circle cx="67.5" cy="193.3" r="1.8" fill="#2dd4bf" opacity="0.18" />
<circle cx="65.7" cy="256.2" r="1.8" fill="#2dd4bf" opacity="0.18" />
<circle cx="59.4" cy="312.3" r="1.8" fill="#2dd4bf" opacity="0.18" />
<circle cx="67.2" cy="382.8" r="1.8" fill="#2dd4bf" opacity="0.18" />
<circle cx="66.6" cy="442.6" r="1.8" fill="#2dd4bf" opacity="0.18" />
<circle cx="63.7" cy="502.0" r="1.6" fill="#2dd4bf" opacity="0.16" />
<circle cx="63.7" cy="568.9" r="1.5" fill="#2dd4bf" opacity="0.15" />
<circle cx="128.0" cy="59.7" r="1.8" fill="#2dd4bf" opacity="0.18" />
<circle cx="127.7" cy="122.2" r="2.0" fill="#2dd4bf" opacity="0.20" />
<circle cx="128.7" cy="190.0" r="2.1" fill="#2dd4bf" opacity="0.21" />
<circle cx="128.8" cy="256.0" r="2.2" fill="#2dd4bf" opacity="0.22" />
<circle cx="128.6" cy="314.2" r="2.2" fill="#14b8a6" opacity="0.22" />
<circle cx="128.6" cy="378.5" r="2.2" fill="#2dd4bf" opacity="0.22" />
<circle cx="129.1" cy="441.6" r="2.1" fill="#2dd4bf" opacity="0.21" />
<circle cx="128.7" cy="505.1" r="2.0" fill="#2dd4bf" opacity="0.20" />
<circle cx="122.1" cy="563.5" r="1.8" fill="#2dd4bf" opacity="0.18" />
<circle cx="187.7" cy="65.0" r="2.2" fill="#2dd4bf" opacity="0.22" />
<circle cx="185.1" cy="124.1" r="2.3" fill="#14b8a6" opacity="0.23" />
<circle cx="192.8" cy="190.9" r="2.5" fill="#14b8a6" opacity="0.25" />
<circle cx="191.4" cy="251.4" r="2.6" fill="#14b8a6" opacity="0.26" />
<circle cx="185.7" cy="315.9" r="2.6" fill="#14b8a6" opacity="0.26" />
<circle cx="192.8" cy="380.2" r="2.6" fill="#14b8a6" opacity="0.26" />
<circle cx="184.7" cy="440.9" r="2.4" fill="#14b8a6" opacity="0.24" />
<circle cx="190.4" cy="504.5" r="2.3" fill="#14b8a6" opacity="0.23" />
<circle cx="187.9" cy="566.1" r="2.2" fill="#2dd4bf" opacity="0.22" />
<circle cx="252.8" cy="67.6" r="2.5" fill="#14b8a6" opacity="0.25" />
<circle cx="256.5" cy="123.3" r="2.7" fill="#14b8a6" opacity="0.27" />
<circle cx="253.4" cy="188.3" r="2.8" fill="#14b8a6" opacity="0.28" />
<circle cx="252.6" cy="252.1" r="2.9" fill="#14b8a6" opacity="0.29" />
<circle cx="255.9" cy="311.8" r="3.0" fill="#14b8a6" opacity="0.30" />
<circle cx="249.9" cy="378.9" r="2.9" fill="#14b8a6" opacity="0.29" />
<circle cx="253.9" cy="441.3" r="2.8" fill="#14b8a6" opacity="0.28" />
<circle cx="256.6" cy="504.2" r="2.7" fill="#14b8a6" opacity="0.27" />
<circle cx="251.9" cy="564.6" r="2.5" fill="#14b8a6" opacity="0.25" />
<circle cx="312.9" cy="62.0" r="2.7" fill="#14b8a6" opacity="0.27" />
<circle cx="319.1" cy="127.0" r="3.0" fill="#14b8a6" opacity="0.30" />
<circle cx="315.8" cy="190.2" r="3.2" fill="#14b8a6" opacity="0.32" />
<circle cx="312.7" cy="254.5" r="3.3" fill="#14b8a6" opacity="0.33" />
<circle cx="313.6" cy="314.7" r="3.3" fill="#14b8a6" opacity="0.33" />
<circle cx="311.7" cy="379.7" r="3.3" fill="#14b8a6" opacity="0.33" />
<circle cx="318.2" cy="445.0" r="3.2" fill="#14b8a6" opacity="0.32" />
<circle cx="313.2" cy="507.9" r="3.0" fill="#14b8a6" opacity="0.30" />
<circle cx="316.1" cy="567.1" r="2.8" fill="#14b8a6" opacity="0.28" />
<circle cx="376.2" cy="59.7" r="3.0" fill="#14b8a6" opacity="0.30" />
<circle cx="380.2" cy="129.9" r="3.3" fill="#14b8a6" opacity="0.33" />
<circle cx="377.3" cy="191.7" r="3.5" fill="#0d9488" opacity="0.35" />
<circle cx="382.3" cy="249.1" r="3.7" fill="#0d9488" opacity="0.37" />
<circle cx="373.8" cy="311.1" r="3.7" fill="#0d9488" opacity="0.37" />
<circle cx="381.5" cy="374.7" r="3.7" fill="#0d9488" opacity="0.37" />
<circle cx="376.0" cy="442.1" r="3.5" fill="#0d9488" opacity="0.35" />
<circle cx="379.9" cy="503.1" r="3.3" fill="#14b8a6" opacity="0.33" />
<circle cx="378.4" cy="566.7" r="3.0" fill="#14b8a6" opacity="0.30" />
<circle cx="444.9" cy="59.4" r="3.2" fill="#14b8a6" opacity="0.32" />
<circle cx="439.4" cy="123.0" r="3.5" fill="#0d9488" opacity="0.35" />
<circle cx="436.4" cy="188.4" r="3.8" fill="#0d9488" opacity="0.38" />
<circle cx="438.1" cy="253.4" r="4.0" fill="#0d9488" opacity="0.40" />
<circle cx="443.0" cy="318.6" r="4.1" fill="#0d9488" opacity="0.41" />
<circle cx="436.8" cy="376.8" r="4.0" fill="#0d9488" opacity="0.40" />
<circle cx="445.3" cy="441.8" r="3.8" fill="#0d9488" opacity="0.38" />
<circle cx="444.3" cy="499.6" r="3.6" fill="#0d9488" opacity="0.36" />
<circle cx="437.1" cy="563.0" r="3.2" fill="#14b8a6" opacity="0.32" />
<circle cx="501.2" cy="65.7" r="3.4" fill="#0d9488" opacity="0.34" />
<circle cx="505.5" cy="126.5" r="3.8" fill="#0d9488" opacity="0.38" />
<circle cx="505.8" cy="192.8" r="4.1" fill="#0d9488" opacity="0.41" />
<circle cx="502.7" cy="251.6" r="4.3" fill="#0d9488" opacity="0.43" />
<circle cx="502.2" cy="314.9" r="4.4" fill="#0d9488" opacity="0.44" />
<circle cx="499.6" cy="376.0" r="4.3" fill="#0d9488" opacity="0.43" />
<circle cx="505.1" cy="444.7" r="4.1" fill="#0d9488" opacity="0.41" />
<circle cx="499.8" cy="504.9" r="3.7" fill="#0d9488" opacity="0.37" />
<circle cx="500.0" cy="563.1" r="3.4" fill="#0d9488" opacity="0.34" />
<circle cx="565.8" cy="65.5" r="3.5" fill="#0d9488" opacity="0.35" />
<circle cx="568.3" cy="124.5" r="3.9" fill="#0d9488" opacity="0.39" />
<circle cx="571.0" cy="190.1" r="4.2" fill="#0d9488" opacity="0.42" />
<circle cx="565.5" cy="253.9" r="4.6" fill="#0d9488" opacity="0.46" />
<circle cx="569.0" cy="317.6" r="4.8" fill="#0d9488" opacity="0.48" />
<circle cx="563.3" cy="376.1" r="4.6" fill="#0d9488" opacity="0.46" />
<circle cx="570.0" cy="441.9" r="4.2" fill="#0d9488" opacity="0.42" />
<circle cx="566.9" cy="507.8" r="3.8" fill="#0d9488" opacity="0.38" />
<circle cx="562.4" cy="564.2" r="3.5" fill="#0d9488" opacity="0.35" />
<circle cx="632.9" cy="64.3" r="3.5" fill="#0d9488" opacity="0.35" />
<circle cx="634.5" cy="123.0" r="3.8" fill="#0d9488" opacity="0.38" />
<circle cx="632.5" cy="187.0" r="4.2" fill="#0d9488" opacity="0.42" />
<circle cx="625.3" cy="248.9" r="4.6" fill="#0d9488" opacity="0.46" />
<circle cx="625.3" cy="314.0" r="4.9" fill="#0d9488" opacity="0.49" />
<circle cx="627.5" cy="377.3" r="4.6" fill="#0d9488" opacity="0.46" />
<circle cx="634.7" cy="444.6" r="4.2" fill="#0d9488" opacity="0.42" />
<circle cx="628.0" cy="501.6" r="3.9" fill="#0d9488" opacity="0.39" />
<circle cx="626.6" cy="566.6" r="3.5" fill="#0d9488" opacity="0.35" />
<circle cx="692.6" cy="63.0" r="3.4" fill="#0d9488" opacity="0.34" />
<circle cx="688.3" cy="124.5" r="3.8" fill="#0d9488" opacity="0.38" />
<circle cx="691.9" cy="193.6" r="4.1" fill="#0d9488" opacity="0.41" />
<circle cx="688.6" cy="256.1" r="4.4" fill="#0d9488" opacity="0.44" />
<circle cx="697.7" cy="318.5" r="4.4" fill="#0d9488" opacity="0.44" />
<circle cx="696.6" cy="374.0" r="4.3" fill="#0d9488" opacity="0.43" />
<circle cx="691.4" cy="439.6" r="4.1" fill="#0d9488" opacity="0.41" />
<circle cx="694.1" cy="508.0" r="3.7" fill="#0d9488" opacity="0.37" />
<circle cx="690.2" cy="564.7" r="3.4" fill="#0d9488" opacity="0.34" />
<circle cx="752.9" cy="65.2" r="3.3" fill="#14b8a6" opacity="0.33" />
<circle cx="760.0" cy="128.4" r="3.5" fill="#0d9488" opacity="0.35" />
<circle cx="757.1" cy="188.5" r="3.8" fill="#0d9488" opacity="0.38" />
<circle cx="757.9" cy="248.7" r="4.0" fill="#0d9488" opacity="0.40" />
<circle cx="758.9" cy="310.6" r="4.1" fill="#0d9488" opacity="0.41" />
<circle cx="754.9" cy="376.9" r="4.0" fill="#0d9488" opacity="0.40" />
<circle cx="755.8" cy="440.2" r="3.8" fill="#0d9488" opacity="0.38" />
<circle cx="756.7" cy="508.1" r="3.5" fill="#0d9488" opacity="0.35" />
<circle cx="755.2" cy="564.1" r="3.3" fill="#14b8a6" opacity="0.33" />
<circle cx="815.2" cy="63.9" r="3.0" fill="#14b8a6" opacity="0.30" />
<circle cx="818.0" cy="127.2" r="3.3" fill="#14b8a6" opacity="0.33" />
<circle cx="823.8" cy="187.8" r="3.5" fill="#0d9488" opacity="0.35" />
<circle cx="817.7" cy="254.0" r="3.7" fill="#0d9488" opacity="0.37" />
<circle cx="818.6" cy="316.5" r="3.7" fill="#0d9488" opacity="0.37" />
<circle cx="816.5" cy="373.3" r="3.7" fill="#0d9488" opacity="0.37" />
<circle cx="823.5" cy="441.7" r="3.5" fill="#0d9488" opacity="0.35" />
<circle cx="820.5" cy="506.3" r="3.3" fill="#14b8a6" opacity="0.33" />
<circle cx="820.1" cy="563.1" r="3.0" fill="#14b8a6" opacity="0.30" />
<circle cx="877.6" cy="59.5" r="2.8" fill="#14b8a6" opacity="0.28" />
<circle cx="885.4" cy="124.2" r="3.0" fill="#14b8a6" opacity="0.30" />
<circle cx="884.8" cy="190.3" r="3.2" fill="#14b8a6" opacity="0.32" />
<circle cx="885.8" cy="247.7" r="3.3" fill="#14b8a6" opacity="0.33" />
<circle cx="878.4" cy="314.5" r="3.4" fill="#14b8a6" opacity="0.34" />
<circle cx="882.8" cy="375.6" r="3.3" fill="#14b8a6" opacity="0.33" />
<circle cx="879.3" cy="439.7" r="3.2" fill="#14b8a6" opacity="0.32" />
<circle cx="883.5" cy="504.8" r="3.0" fill="#14b8a6" opacity="0.30" />
<circle cx="885.0" cy="571.9" r="2.7" fill="#14b8a6" opacity="0.27" />
<circle cx="943.5" cy="65.4" r="2.5" fill="#14b8a6" opacity="0.25" />
<circle cx="944.4" cy="123.2" r="2.7" fill="#14b8a6" opacity="0.27" />
<circle cx="949.8" cy="186.8" r="2.8" fill="#14b8a6" opacity="0.28" />
<circle cx="947.4" cy="248.6" r="2.9" fill="#14b8a6" opacity="0.29" />
<circle cx="940.6" cy="310.1" r="3.0" fill="#14b8a6" opacity="0.30" />
<circle cx="945.4" cy="378.7" r="2.9" fill="#14b8a6" opacity="0.29" />
<circle cx="947.7" cy="436.3" r="2.8" fill="#14b8a6" opacity="0.28" />
<circle cx="940.0" cy="503.6" r="2.7" fill="#14b8a6" opacity="0.27" />
<circle cx="942.9" cy="566.5" r="2.5" fill="#14b8a6" opacity="0.25" />
<circle cx="1008.9" cy="65.6" r="2.2" fill="#2dd4bf" opacity="0.22" />
<circle cx="1009.6" cy="128.7" r="2.3" fill="#14b8a6" opacity="0.23" />
<circle cx="1009.2" cy="189.7" r="2.5" fill="#14b8a6" opacity="0.25" />
<circle cx="1013.0" cy="256.7" r="2.5" fill="#14b8a6" opacity="0.25" />
<circle cx="1008.8" cy="312.1" r="2.6" fill="#14b8a6" opacity="0.26" />
<circle cx="1007.3" cy="377.2" r="2.6" fill="#14b8a6" opacity="0.26" />
<circle cx="1011.5" cy="439.6" r="2.5" fill="#14b8a6" opacity="0.25" />
<circle cx="1010.5" cy="503.8" r="2.3" fill="#14b8a6" opacity="0.23" />
<circle cx="1012.3" cy="567.2" r="2.1" fill="#2dd4bf" opacity="0.21" />
<circle cx="1067.0" cy="67.9" r="1.9" fill="#2dd4bf" opacity="0.19" />
<circle cx="1075.9" cy="122.6" r="2.0" fill="#2dd4bf" opacity="0.20" />
<circle cx="1072.4" cy="189.5" r="2.1" fill="#2dd4bf" opacity="0.21" />
<circle cx="1072.7" cy="254.6" r="2.2" fill="#2dd4bf" opacity="0.22" />
<circle cx="1072.3" cy="317.4" r="2.2" fill="#14b8a6" opacity="0.22" />
<circle cx="1075.6" cy="374.0" r="2.2" fill="#2dd4bf" opacity="0.22" />
<circle cx="1073.8" cy="437.5" r="2.1" fill="#2dd4bf" opacity="0.21" />
<circle cx="1068.6" cy="508.3" r="2.0" fill="#2dd4bf" opacity="0.20" />
<circle cx="1068.8" cy="566.9" r="1.9" fill="#2dd4bf" opacity="0.19" />
<circle cx="1132.0" cy="63.7" r="1.5" fill="#2dd4bf" opacity="0.15" />
<circle cx="1133.8" cy="126.3" r="1.7" fill="#2dd4bf" opacity="0.17" />
<circle cx="1139.0" cy="188.1" r="1.7" fill="#2dd4bf" opacity="0.17" />
<circle cx="1134.4" cy="248.2" r="1.8" fill="#2dd4bf" opacity="0.18" />
<circle cx="1129.1" cy="318.3" r="1.9" fill="#2dd4bf" opacity="0.19" />
<circle cx="1139.0" cy="375.2" r="1.8" fill="#2dd4bf" opacity="0.18" />
<circle cx="1129.8" cy="442.9" r="1.8" fill="#2dd4bf" opacity="0.18" />
<circle cx="1136.0" cy="499.5" r="1.7" fill="#2dd4bf" opacity="0.17" />
<circle cx="1137.5" cy="569.3" r="1.5" fill="#2dd4bf" opacity="0.15" />
<circle cx="1201.2" cy="59.9" r="1.1" fill="#2dd4bf" opacity="0.11" />
<circle cx="1194.8" cy="122.4" r="1.3" fill="#2dd4bf" opacity="0.13" />
<circle cx="1193.1" cy="194.0" r="1.4" fill="#2dd4bf" opacity="0.14" />
<circle cx="1195.6" cy="252.6" r="1.5" fill="#2dd4bf" opacity="0.15" />
<circle cx="1194.2" cy="310.4" r="1.5" fill="#2dd4bf" opacity="0.15" />
<circle cx="1194.4" cy="381.9" r="1.5" fill="#2dd4bf" opacity="0.15" />
<circle cx="1201.5" cy="443.7" r="1.4" fill="#2dd4bf" opacity="0.14" />
<circle cx="1196.6" cy="499.2" r="1.3" fill="#2dd4bf" opacity="0.13" />
<circle cx="1200.5" cy="566.4" r="1.2" fill="#2dd4bf" opacity="0.12" />


  <!-- Vignette -->
  <rect width="1200" height="630" fill="url(#bg)" opacity="0.3" />

  <!-- Category badge -->
  <rect x="48" y="40" width="84" height="28" rx="14" fill="#0d9488" opacity="0.9" />
  <text x="60" y="59" font-family="system-ui, -apple-system, sans-serif" font-size="12" font-weight="700" letter-spacing="1.5" text-transform="uppercase" fill="white">ESSAYS</text>

  <!-- Title -->
  <text x="48" y="550" font-family="system-ui, -apple-system, sans-serif" font-size="42" font-weight="800" fill="white" filter="url(#textShadow)" letter-spacing="-1">
    <tspan x="48" dy="0">The Last Useful Thing</tspan>
  </text>

  <!-- spike.land watermark -->
  <text x="1152" y="606" font-family="system-ui, -apple-system, sans-serif" font-size="14" font-weight="600" fill="#2dd4bf" opacity="0.6" text-anchor="end">spike.land</text>
</svg>