<svg xmlns="http://www.w3.org/2000/svg" viewBox="0 0 1200 630" width="1200" height="630">
  <defs>
    <linearGradient id="bg" x1="0%" y1="0%" x2="100%" y2="100%">
      <stop offset="0%" stop-color="#1e1b4b" />
      <stop offset="100%" stop-color="#312e81" />
    </linearGradient>
    <filter id="glow">
      <feGaussianBlur stdDeviation="30" result="blur" />
      <feMerge><feMergeNode in="blur" /><feMergeNode in="SourceGraphic" /></feMerge>
    </filter>
    <filter id="textShadow">
      <feDropShadow dx="0" dy="2" stdDeviation="6" flood-color="#1e1b4b" flood-opacity="0.8" />
    </filter>
  </defs>

  <!-- Background -->
  <rect width="1200" height="630" fill="url(#bg)" />

  <!-- Generative shapes -->
  <line x1="713.5" y1="272.0" x2="1337.5" y2="287.7" stroke="#a78bfa" stroke-width="1.2" opacity="0.26" />
<line x1="713.5" y1="272.0" x2="1203.8" y2="429.5" stroke="#7c3aed" stroke-width="1.6" opacity="0.19" />
<line x1="713.5" y1="272.0" x2="1293.8" y2="627.1" stroke="#8b5cf6" stroke-width="0.9" opacity="0.17" />
<line x1="713.5" y1="272.0" x2="1225.5" y2="848.4" stroke="#7c3aed" stroke-width="2.0" opacity="0.29" />
<line x1="713.5" y1="272.0" x2="944.1" y2="716.0" stroke="#7c3aed" stroke-width="0.9" opacity="0.16" />
<line x1="713.5" y1="272.0" x2="827.2" y2="874.8" stroke="#7c3aed" stroke-width="2.0" opacity="0.11" />
<line x1="713.5" y1="272.0" x2="711.5" y2="921.4" stroke="#a78bfa" stroke-width="2.2" opacity="0.16" />
<line x1="713.5" y1="272.0" x2="517.3" y2="848.9" stroke="#7c3aed" stroke-width="1.0" opacity="0.35" />
<line x1="713.5" y1="272.0" x2="474.7" y2="659.3" stroke="#7c3aed" stroke-width="1.2" opacity="0.11" />
<line x1="713.5" y1="272.0" x2="301.0" y2="654.8" stroke="#7c3aed" stroke-width="2.0" opacity="0.27" />
<line x1="713.5" y1="272.0" x2="131.3" y2="538.5" stroke="#a78bfa" stroke-width="1.3" opacity="0.31" />
<line x1="713.5" y1="272.0" x2="518.6" y2="323.6" stroke="#7c3aed" stroke-width="1.6" opacity="0.30" />
<line x1="713.5" y1="272.0" x2="138.9" y2="265.6" stroke="#a78bfa" stroke-width="1.5" opacity="0.18" />
<line x1="713.5" y1="272.0" x2="229.3" y2="97.9" stroke="#7c3aed" stroke-width="2.2" opacity="0.26" />
<line x1="713.5" y1="272.0" x2="311.0" y2="-3.9" stroke="#7c3aed" stroke-width="0.7" opacity="0.21" />
<line x1="713.5" y1="272.0" x2="322.2" y2="-163.5" stroke="#a78bfa" stroke-width="2.5" opacity="0.11" />
<line x1="713.5" y1="272.0" x2="463.1" y2="-267.7" stroke="#7c3aed" stroke-width="2.3" opacity="0.23" />
<line x1="713.5" y1="272.0" x2="573.4" y2="-504.0" stroke="#8b5cf6" stroke-width="0.7" opacity="0.24" />
<line x1="713.5" y1="272.0" x2="743.0" y2="-109.1" stroke="#8b5cf6" stroke-width="1.4" opacity="0.15" />
<line x1="713.5" y1="272.0" x2="954.7" y2="-489.8" stroke="#a78bfa" stroke-width="2.1" opacity="0.22" />
<line x1="713.5" y1="272.0" x2="922.2" y2="-74.3" stroke="#7c3aed" stroke-width="0.8" opacity="0.21" />
<line x1="713.5" y1="272.0" x2="868.9" y2="130.0" stroke="#a78bfa" stroke-width="0.6" opacity="0.34" />
<line x1="713.5" y1="272.0" x2="1316.0" y2="-51.1" stroke="#a78bfa" stroke-width="1.3" opacity="0.24" />
<line x1="713.5" y1="272.0" x2="918.0" y2="229.6" stroke="#a78bfa" stroke-width="2.1" opacity="0.34" />
<circle cx="713.5" cy="272.0" r="80" fill="#7c3aed" opacity="0.15" filter="url(#glow)" />


  <!-- Vignette -->
  <rect width="1200" height="630" fill="url(#bg)" opacity="0.3" />

  <!-- Category badge -->
  <rect x="48" y="40" width="94" height="28" rx="14" fill="#7c3aed" opacity="0.9" />
  <text x="60" y="59" font-family="system-ui, -apple-system, sans-serif" font-size="12" font-weight="700" letter-spacing="1.5" text-transform="uppercase" fill="white">PRODUCT</text>

  <!-- Title -->
  <text x="48" y="550" font-family="system-ui, -apple-system, sans-serif" font-size="42" font-weight="800" fill="white" filter="url(#textShadow)" letter-spacing="-1">
    <tspan x="48" dy="0">Getting Started with spike.land: From</tspan>
    <tspan x="48" dy="50">Signup to Your First AI Tool Call</tspan>
  </text>

  <!-- spike.land watermark -->
  <text x="1152" y="606" font-family="system-ui, -apple-system, sans-serif" font-size="14" font-weight="600" fill="#a78bfa" opacity="0.6" text-anchor="end">spike.land</text>
</svg>