<svg xmlns="http://www.w3.org/2000/svg" viewBox="0 0 1200 630" width="1200" height="630">
  <defs>
    <linearGradient id="bg" x1="0%" y1="0%" x2="100%" y2="100%">
      <stop offset="0%" stop-color="#022c22" />
      <stop offset="100%" stop-color="#064e3b" />
    </linearGradient>
    <filter id="glow">
      <feGaussianBlur stdDeviation="30" result="blur" />
      <feMerge><feMergeNode in="blur" /><feMergeNode in="SourceGraphic" /></feMerge>
    </filter>
    <filter id="textShadow">
      <feDropShadow dx="0" dy="2" stdDeviation="6" flood-color="#022c22" flood-opacity="0.8" />
    </filter>
  </defs>

  <!-- Background -->
  <rect width="1200" height="630" fill="url(#bg)" />

  <!-- Generative shapes -->
  <polygon points="133.1,-23.8 133.1,23.8 91.8,47.7 50.5,23.8 50.5,-23.8 91.8,-47.7" fill="#059669" opacity="0.25" />
<polygon points="224.9,-23.8 224.9,23.8 183.6,47.7 142.3,23.8 142.3,-23.8 183.6,-47.7" fill="#34d399" opacity="0.10" />
<polygon points="408.5,-23.8 408.5,23.8 367.2,47.7 325.9,23.8 325.9,-23.8 367.2,-47.7" fill="#34d399" opacity="0.05" />
<polygon points="500.3,-23.8 500.3,23.8 459.0,47.7 417.7,23.8 417.7,-23.8 459.0,-47.7" fill="#059669" opacity="0.13" />
<polygon points="683.9,-23.8 683.9,23.8 642.6,47.7 601.3,23.8 601.3,-23.8 642.6,-47.7" fill="#10b981" opacity="0.09" />
<polygon points="867.5,-23.8 867.5,23.8 826.2,47.7 784.9,23.8 784.9,-23.8 826.2,-47.7" fill="#34d399" opacity="0.16" />
<polygon points="1051.1,-23.8 1051.1,23.8 1009.8,47.7 968.5,23.8 968.5,-23.8 1009.8,-47.7" fill="#059669" opacity="0.16" />
<polygon points="1142.9,-23.8 1142.9,23.8 1101.6,47.7 1060.3,23.8 1060.3,-23.8 1101.6,-47.7" fill="#059669" opacity="0.18" />
<polygon points="1326.5,-23.8 1326.5,23.8 1285.2,47.7 1243.9,23.8 1243.9,-23.8 1285.2,-47.7" fill="#059669" opacity="0.19" />
<polygon points="87.2,55.7 87.2,103.3 45.9,127.2 4.6,103.3 4.6,55.7 45.9,31.8" fill="#059669" opacity="0.19" />
<polygon points="179.0,55.7 179.0,103.3 137.7,127.2 96.4,103.3 96.4,55.7 137.7,31.8" fill="#34d399" opacity="0.14" />
<polygon points="454.4,55.7 454.4,103.3 413.1,127.2 371.8,103.3 371.8,55.7 413.1,31.8" fill="#34d399" opacity="0.19" />
<polygon points="729.8,55.7 729.8,103.3 688.5,127.2 647.2,103.3 647.2,55.7 688.5,31.8" fill="#34d399" opacity="0.12" />
<polygon points="821.6,55.7 821.6,103.3 780.3,127.2 739.0,103.3 739.0,55.7 780.3,31.8" fill="#10b981" opacity="0.10" />
<polygon points="913.4,55.7 913.4,103.3 872.1,127.2 830.8,103.3 830.8,55.7 872.1,31.8" fill="#34d399" opacity="0.07" />
<polygon points="1188.8,55.7 1188.8,103.3 1147.5,127.2 1106.2,103.3 1106.2,55.7 1147.5,31.8" fill="#059669" opacity="0.09" />
<polygon points="1372.4,55.7 1372.4,103.3 1331.1,127.2 1289.8,103.3 1289.8,55.7 1331.1,31.8" fill="#059669" opacity="0.23" />
<polygon points="133.1,135.2 133.1,182.8 91.8,206.7 50.5,182.8 50.5,135.2 91.8,111.3" fill="#34d399" opacity="0.23" />
<polygon points="224.9,135.2 224.9,182.8 183.6,206.7 142.3,182.8 142.3,135.2 183.6,111.3" fill="#10b981" opacity="0.10" />
<polygon points="592.1,135.2 592.1,182.8 550.8,206.7 509.5,182.8 509.5,135.2 550.8,111.3" fill="#34d399" opacity="0.12" />
<polygon points="683.9,135.2 683.9,182.8 642.6,206.7 601.3,182.8 601.3,135.2 642.6,111.3" fill="#10b981" opacity="0.12" />
<polygon points="775.7,135.2 775.7,182.8 734.4,206.7 693.1,182.8 693.1,135.2 734.4,111.3" fill="#059669" opacity="0.13" />
<polygon points="959.3,135.2 959.3,182.8 918.0,206.7 876.7,182.8 876.7,135.2 918.0,111.3" fill="#34d399" opacity="0.18" />
<polygon points="1142.9,135.2 1142.9,182.8 1101.6,206.7 1060.3,182.8 1060.3,135.2 1101.6,111.3" fill="#34d399" opacity="0.11" />
<polygon points="1326.5,135.2 1326.5,182.8 1285.2,206.7 1243.9,182.8 1243.9,135.2 1285.2,111.3" fill="#34d399" opacity="0.13" />
<polygon points="362.6,214.7 362.6,262.4 321.3,286.2 280.0,262.4 280.0,214.7 321.3,190.8" fill="#10b981" opacity="0.14" />
<polygon points="546.2,214.7 546.2,262.4 504.9,286.2 463.6,262.4 463.6,214.7 504.9,190.8" fill="#059669" opacity="0.23" />
<polygon points="638.0,214.7 638.0,262.4 596.7,286.2 555.4,262.4 555.4,214.7 596.7,190.8" fill="#34d399" opacity="0.19" />
<polygon points="729.8,214.7 729.8,262.4 688.5,286.2 647.2,262.4 647.2,214.7 688.5,190.8" fill="#059669" opacity="0.09" />
<polygon points="821.6,214.7 821.6,262.4 780.3,286.2 739.0,262.4 739.0,214.7 780.3,190.8" fill="#34d399" opacity="0.06" />
<polygon points="1097.0,214.7 1097.0,262.4 1055.7,286.2 1014.4,262.4 1014.4,214.7 1055.7,190.8" fill="#059669" opacity="0.15" />
<polygon points="1188.8,214.7 1188.8,262.4 1147.5,286.2 1106.2,262.4 1106.2,214.7 1147.5,190.8" fill="#34d399" opacity="0.19" />
<polygon points="1280.6,214.7 1280.6,262.4 1239.3,286.2 1198.0,262.4 1198.0,214.7 1239.3,190.8" fill="#10b981" opacity="0.20" />
<polygon points="1372.4,214.7 1372.4,262.4 1331.1,286.2 1289.8,262.4 1289.8,214.7 1331.1,190.8" fill="#059669" opacity="0.18" />
<polygon points="41.3,294.1 41.3,341.9 0.0,365.7 -41.3,341.9 -41.3,294.2 -0.0,270.3" fill="#059669" opacity="0.18" />
<polygon points="133.1,294.1 133.1,341.9 91.8,365.7 50.5,341.9 50.5,294.2 91.8,270.3" fill="#10b981" opacity="0.09" />
<polygon points="500.3,294.1 500.3,341.9 459.0,365.7 417.7,341.9 417.7,294.2 459.0,270.3" fill="#34d399" opacity="0.13" />
<polygon points="592.1,294.1 592.1,341.9 550.8,365.7 509.5,341.9 509.5,294.2 550.8,270.3" fill="#059669" opacity="0.11" />
<polygon points="775.7,294.1 775.7,341.9 734.4,365.7 693.1,341.9 693.1,294.2 734.4,270.3" fill="#34d399" opacity="0.22" />
<polygon points="867.5,294.1 867.5,341.9 826.2,365.7 784.9,341.9 784.9,294.2 826.2,270.3" fill="#059669" opacity="0.16" />
<polygon points="959.3,294.1 959.3,341.9 918.0,365.7 876.7,341.9 876.7,294.2 918.0,270.3" fill="#34d399" opacity="0.05" />
<polygon points="1051.1,294.1 1051.1,341.9 1009.8,365.7 968.5,341.9 968.5,294.2 1009.8,270.3" fill="#10b981" opacity="0.22" />
<polygon points="1142.9,294.1 1142.9,341.9 1101.6,365.7 1060.3,341.9 1060.3,294.2 1101.6,270.3" fill="#10b981" opacity="0.05" />
<polygon points="1234.7,294.1 1234.7,341.9 1193.4,365.7 1152.1,341.9 1152.1,294.2 1193.4,270.3" fill="#10b981" opacity="0.08" />
<polygon points="179.0,373.6 179.0,421.4 137.7,445.2 96.4,421.4 96.4,373.7 137.7,349.8" fill="#34d399" opacity="0.23" />
<polygon points="270.8,373.6 270.8,421.4 229.5,445.2 188.2,421.4 188.2,373.7 229.5,349.8" fill="#10b981" opacity="0.19" />
<polygon points="454.4,373.6 454.4,421.4 413.1,445.2 371.8,421.4 371.8,373.7 413.1,349.8" fill="#34d399" opacity="0.12" />
<polygon points="729.8,373.6 729.8,421.4 688.5,445.2 647.2,421.4 647.2,373.7 688.5,349.8" fill="#10b981" opacity="0.23" />
<polygon points="1097.0,373.6 1097.0,421.4 1055.7,445.2 1014.4,421.4 1014.4,373.7 1055.7,349.8" fill="#059669" opacity="0.15" />
<polygon points="1188.8,373.6 1188.8,421.4 1147.5,445.2 1106.2,421.4 1106.2,373.7 1147.5,349.8" fill="#10b981" opacity="0.14" />
<polygon points="1280.6,373.6 1280.6,421.4 1239.3,445.2 1198.0,421.4 1198.0,373.7 1239.3,349.8" fill="#34d399" opacity="0.08" />
<polygon points="1372.4,373.6 1372.4,421.4 1331.1,445.2 1289.8,421.4 1289.8,373.7 1331.1,349.8" fill="#34d399" opacity="0.18" />
<polygon points="41.3,453.1 41.3,500.9 0.0,524.7 -41.3,500.9 -41.3,453.2 -0.0,429.3" fill="#34d399" opacity="0.25" />
<polygon points="224.9,453.1 224.9,500.9 183.6,524.7 142.3,500.9 142.3,453.2 183.6,429.3" fill="#059669" opacity="0.13" />
<polygon points="500.3,453.1 500.3,500.9 459.0,524.7 417.7,500.9 417.7,453.2 459.0,429.3" fill="#10b981" opacity="0.21" />
<polygon points="592.1,453.1 592.1,500.9 550.8,524.7 509.5,500.9 509.5,453.2 550.8,429.3" fill="#059669" opacity="0.10" />
<polygon points="959.3,453.1 959.3,500.9 918.0,524.7 876.7,500.9 876.7,453.2 918.0,429.3" fill="#34d399" opacity="0.07" />
<polygon points="1142.9,453.1 1142.9,500.9 1101.6,524.7 1060.3,500.9 1060.3,453.2 1101.6,429.3" fill="#059669" opacity="0.08" />
<polygon points="1234.7,453.1 1234.7,500.9 1193.4,524.7 1152.1,500.9 1152.1,453.2 1193.4,429.3" fill="#34d399" opacity="0.21" />
<polygon points="1326.5,453.1 1326.5,500.9 1285.2,524.7 1243.9,500.9 1243.9,453.2 1285.2,429.3" fill="#059669" opacity="0.21" />
<polygon points="87.2,532.6 87.2,580.4 45.9,604.2 4.6,580.4 4.6,532.6 45.9,508.8" fill="#10b981" opacity="0.24" />
<polygon points="179.0,532.6 179.0,580.4 137.7,604.2 96.4,580.4 96.4,532.6 137.7,508.8" fill="#059669" opacity="0.17" />
<polygon points="362.6,532.6 362.6,580.4 321.3,604.2 280.0,580.4 280.0,532.6 321.3,508.8" fill="#059669" opacity="0.21" />
<polygon points="454.4,532.6 454.4,580.4 413.1,604.2 371.8,580.4 371.8,532.6 413.1,508.8" fill="#059669" opacity="0.22" />
<polygon points="546.2,532.6 546.2,580.4 504.9,604.2 463.6,580.4 463.6,532.6 504.9,508.8" fill="#34d399" opacity="0.13" />
<polygon points="821.6,532.6 821.6,580.4 780.3,604.2 739.0,580.4 739.0,532.6 780.3,508.8" fill="#10b981" opacity="0.07" />
<polygon points="1005.2,532.6 1005.2,580.4 963.9,604.2 922.6,580.4 922.6,532.6 963.9,508.8" fill="#10b981" opacity="0.09" />
<polygon points="1372.4,532.6 1372.4,580.4 1331.1,604.2 1289.8,580.4 1289.8,532.6 1331.1,508.8" fill="#059669" opacity="0.13" />
<polygon points="133.1,612.1 133.1,659.9 91.8,683.7 50.5,659.9 50.5,612.1 91.8,588.3" fill="#34d399" opacity="0.16" />
<polygon points="408.5,612.1 408.5,659.9 367.2,683.7 325.9,659.9 325.9,612.1 367.2,588.3" fill="#10b981" opacity="0.21" />
<polygon points="500.3,612.1 500.3,659.9 459.0,683.7 417.7,659.9 417.7,612.1 459.0,588.3" fill="#10b981" opacity="0.09" />
<polygon points="683.9,612.1 683.9,659.9 642.6,683.7 601.3,659.9 601.3,612.1 642.6,588.3" fill="#059669" opacity="0.06" />
<polygon points="775.7,612.1 775.7,659.9 734.4,683.7 693.1,659.9 693.1,612.1 734.4,588.3" fill="#34d399" opacity="0.19" />
<polygon points="867.5,612.1 867.5,659.9 826.2,683.7 784.9,659.9 784.9,612.1 826.2,588.3" fill="#059669" opacity="0.23" />
<polygon points="959.3,612.1 959.3,659.9 918.0,683.7 876.7,659.9 876.7,612.1 918.0,588.3" fill="#34d399" opacity="0.20" />
<polygon points="1051.1,612.1 1051.1,659.9 1009.8,683.7 968.5,659.9 968.5,612.1 1009.8,588.3" fill="#34d399" opacity="0.10" />
<polygon points="1142.9,612.1 1142.9,659.9 1101.6,683.7 1060.3,659.9 1060.3,612.1 1101.6,588.3" fill="#059669" opacity="0.24" />
<polygon points="1234.7,612.1 1234.7,659.9 1193.4,683.7 1152.1,659.9 1152.1,612.1 1193.4,588.3" fill="#34d399" opacity="0.25" />


  <!-- Vignette -->
  <rect width="1200" height="630" fill="url(#bg)" opacity="0.3" />

  <!-- Category badge -->
  <rect x="48" y="40" width="74" height="28" rx="14" fill="#059669" opacity="0.9" />
  <text x="60" y="59" font-family="system-ui, -apple-system, sans-serif" font-size="12" font-weight="700" letter-spacing="1.5" text-transform="uppercase" fill="white">ESSAY</text>

  <!-- Title -->
  <text x="48" y="550" font-family="system-ui, -apple-system, sans-serif" font-size="42" font-weight="800" fill="white" filter="url(#textShadow)" letter-spacing="-1">
    <tspan x="48" dy="0">Sixteen Mathematicians Walked Into a</tspan>
    <tspan x="48" dy="50">Loop</tspan>
  </text>

  <!-- spike.land watermark -->
  <text x="1152" y="606" font-family="system-ui, -apple-system, sans-serif" font-size="14" font-weight="600" fill="#34d399" opacity="0.6" text-anchor="end">spike.land</text>
</svg>