<svg xmlns="http://www.w3.org/2000/svg" viewBox="0 0 1200 630" width="1200" height="630">
  <defs>
    <linearGradient id="bg" x1="0%" y1="0%" x2="100%" y2="100%">
      <stop offset="0%" stop-color="#1c1917" />
      <stop offset="100%" stop-color="#27272a" />
    </linearGradient>
    <filter id="glow">
      <feGaussianBlur stdDeviation="30" result="blur" />
      <feMerge><feMergeNode in="blur" /><feMergeNode in="SourceGraphic" /></feMerge>
    </filter>
    <filter id="textShadow">
      <feDropShadow dx="0" dy="2" stdDeviation="6" flood-color="#1c1917" flood-opacity="0.8" />
    </filter>
  </defs>

  <!-- Background -->
  <rect width="1200" height="630" fill="url(#bg)" />

  <!-- Generative shapes -->
  <circle cx="53.5" cy="53.3" r="1.4" fill="#fb7185" opacity="0.14" />
<circle cx="54.5" cy="107.7" r="1.6" fill="#fb7185" opacity="0.16" />
<circle cx="51.3" cy="155.9" r="1.6" fill="#fb7185" opacity="0.16" />
<circle cx="50.9" cy="211.7" r="1.7" fill="#fb7185" opacity="0.17" />
<circle cx="56.6" cy="260.6" r="1.8" fill="#fb7185" opacity="0.18" />
<circle cx="51.9" cy="317.8" r="1.8" fill="#fb7185" opacity="0.18" />
<circle cx="51.5" cy="371.3" r="1.7" fill="#fb7185" opacity="0.17" />
<circle cx="54.1" cy="423.5" r="1.7" fill="#fb7185" opacity="0.17" />
<circle cx="50.4" cy="473.1" r="1.6" fill="#fb7185" opacity="0.16" />
<circle cx="51.8" cy="527.9" r="1.5" fill="#fb7185" opacity="0.15" />
<circle cx="55.6" cy="578.4" r="1.4" fill="#fb7185" opacity="0.14" />
<circle cx="101.3" cy="54.2" r="1.7" fill="#fb7185" opacity="0.17" />
<circle cx="107.8" cy="105.2" r="1.8" fill="#fb7185" opacity="0.18" />
<circle cx="101.9" cy="154.5" r="1.9" fill="#fb7185" opacity="0.19" />
<circle cx="108.2" cy="211.7" r="2.0" fill="#fb7185" opacity="0.20" />
<circle cx="107.6" cy="260.3" r="2.1" fill="#fb7185" opacity="0.21" />
<circle cx="101.7" cy="321.8" r="2.1" fill="#fb7185" opacity="0.21" />
<circle cx="102.3" cy="370.7" r="2.0" fill="#fb7185" opacity="0.20" />
<circle cx="103.9" cy="427.4" r="2.0" fill="#fb7185" opacity="0.20" />
<circle cx="105.0" cy="481.6" r="1.9" fill="#fb7185" opacity="0.19" />
<circle cx="102.4" cy="531.3" r="1.8" fill="#fb7185" opacity="0.18" />
<circle cx="108.0" cy="587.3" r="1.7" fill="#fb7185" opacity="0.17" />
<circle cx="160.8" cy="54.0" r="2.0" fill="#fb7185" opacity="0.20" />
<circle cx="156.1" cy="104.7" r="2.1" fill="#fb7185" opacity="0.21" />
<circle cx="164.0" cy="155.8" r="2.3" fill="#f43f5e" opacity="0.23" />
<circle cx="160.8" cy="212.8" r="2.3" fill="#f43f5e" opacity="0.23" />
<circle cx="155.1" cy="268.4" r="2.4" fill="#f43f5e" opacity="0.24" />
<circle cx="154.1" cy="318.8" r="2.4" fill="#f43f5e" opacity="0.24" />
<circle cx="156.9" cy="373.1" r="2.4" fill="#f43f5e" opacity="0.24" />
<circle cx="157.3" cy="424.2" r="2.3" fill="#f43f5e" opacity="0.23" />
<circle cx="157.2" cy="478.2" r="2.2" fill="#f43f5e" opacity="0.22" />
<circle cx="155.9" cy="534.7" r="2.1" fill="#fb7185" opacity="0.21" />
<circle cx="154.4" cy="582.8" r="1.9" fill="#fb7185" opacity="0.19" />
<circle cx="213.3" cy="49.1" r="2.2" fill="#f43f5e" opacity="0.22" />
<circle cx="213.5" cy="105.8" r="2.4" fill="#f43f5e" opacity="0.24" />
<circle cx="214.4" cy="163.2" r="2.6" fill="#f43f5e" opacity="0.26" />
<circle cx="207.5" cy="210.7" r="2.6" fill="#f43f5e" opacity="0.26" />
<circle cx="209.4" cy="264.0" r="2.7" fill="#f43f5e" opacity="0.27" />
<circle cx="215.1" cy="322.9" r="2.7" fill="#f43f5e" opacity="0.27" />
<circle cx="207.5" cy="373.6" r="2.7" fill="#f43f5e" opacity="0.27" />
<circle cx="216.5" cy="424.2" r="2.6" fill="#f43f5e" opacity="0.26" />
<circle cx="207.8" cy="479.4" r="2.5" fill="#f43f5e" opacity="0.25" />
<circle cx="209.1" cy="530.1" r="2.4" fill="#f43f5e" opacity="0.24" />
<circle cx="210.1" cy="587.4" r="2.2" fill="#fb7185" opacity="0.22" />
<circle cx="268.8" cy="49.5" r="2.5" fill="#f43f5e" opacity="0.25" />
<circle cx="265.1" cy="105.1" r="2.7" fill="#f43f5e" opacity="0.27" />
<circle cx="269.8" cy="154.2" r="2.8" fill="#f43f5e" opacity="0.28" />
<circle cx="264.8" cy="209.5" r="2.9" fill="#f43f5e" opacity="0.29" />
<circle cx="268.0" cy="264.5" r="3.0" fill="#f43f5e" opacity="0.30" />
<circle cx="262.2" cy="318.0" r="3.0" fill="#f43f5e" opacity="0.30" />
<circle cx="265.7" cy="366.9" r="3.0" fill="#f43f5e" opacity="0.30" />
<circle cx="270.0" cy="421.2" r="3.0" fill="#f43f5e" opacity="0.30" />
<circle cx="263.9" cy="477.8" r="2.8" fill="#f43f5e" opacity="0.28" />
<circle cx="266.3" cy="533.1" r="2.6" fill="#f43f5e" opacity="0.26" />
<circle cx="269.9" cy="587.9" r="2.5" fill="#f43f5e" opacity="0.25" />
<circle cx="322.8" cy="54.2" r="2.8" fill="#f43f5e" opacity="0.28" />
<circle cx="319.3" cy="110.1" r="2.9" fill="#f43f5e" opacity="0.29" />
<circle cx="322.9" cy="163.2" r="3.1" fill="#f43f5e" opacity="0.31" />
<circle cx="319.5" cy="216.1" r="3.2" fill="#f43f5e" opacity="0.32" />
<circle cx="314.8" cy="260.9" r="3.3" fill="#f43f5e" opacity="0.33" />
<circle cx="322.5" cy="315.3" r="3.4" fill="#f43f5e" opacity="0.34" />
<circle cx="314.0" cy="369.9" r="3.3" fill="#f43f5e" opacity="0.33" />
<circle cx="322.1" cy="422.1" r="3.2" fill="#f43f5e" opacity="0.32" />
<circle cx="317.8" cy="480.9" r="3.1" fill="#f43f5e" opacity="0.31" />
<circle cx="313.7" cy="527.0" r="2.9" fill="#f43f5e" opacity="0.29" />
<circle cx="319.5" cy="578.9" r="2.7" fill="#f43f5e" opacity="0.27" />
<circle cx="367.1" cy="51.7" r="2.9" fill="#f43f5e" opacity="0.29" />
<circle cx="366.3" cy="108.7" r="3.2" fill="#f43f5e" opacity="0.32" />
<circle cx="369.6" cy="162.9" r="3.4" fill="#f43f5e" opacity="0.34" />
<circle cx="367.3" cy="213.0" r="3.5" fill="#e11d48" opacity="0.35" />
<circle cx="369.9" cy="266.2" r="3.6" fill="#e11d48" opacity="0.36" />
<circle cx="366.1" cy="313.0" r="3.6" fill="#e11d48" opacity="0.36" />
<circle cx="375.6" cy="369.9" r="3.6" fill="#e11d48" opacity="0.36" />
<circle cx="370.7" cy="427.3" r="3.5" fill="#e11d48" opacity="0.35" />
<circle cx="375.7" cy="478.5" r="3.4" fill="#f43f5e" opacity="0.34" />
<circle cx="366.6" cy="529.7" r="3.1" fill="#f43f5e" opacity="0.31" />
<circle cx="370.2" cy="584.8" r="2.9" fill="#f43f5e" opacity="0.29" />
<circle cx="421.0" cy="54.7" r="3.1" fill="#f43f5e" opacity="0.31" />
<circle cx="421.3" cy="110.3" r="3.4" fill="#f43f5e" opacity="0.34" />
<circle cx="421.8" cy="163.6" r="3.6" fill="#e11d48" opacity="0.36" />
<circle cx="428.9" cy="211.4" r="3.8" fill="#e11d48" opacity="0.38" />
<circle cx="422.0" cy="268.3" r="3.9" fill="#e11d48" opacity="0.39" />
<circle cx="421.5" cy="321.5" r="3.9" fill="#e11d48" opacity="0.39" />
<circle cx="427.4" cy="371.2" r="3.9" fill="#e11d48" opacity="0.39" />
<circle cx="424.9" cy="420.7" r="3.8" fill="#e11d48" opacity="0.38" />
<circle cx="425.9" cy="479.5" r="3.6" fill="#e11d48" opacity="0.36" />
<circle cx="419.8" cy="532.3" r="3.3" fill="#f43f5e" opacity="0.33" />
<circle cx="422.1" cy="587.7" r="3.1" fill="#f43f5e" opacity="0.31" />
<circle cx="475.0" cy="51.1" r="3.3" fill="#f43f5e" opacity="0.33" />
<circle cx="474.4" cy="108.1" r="3.6" fill="#e11d48" opacity="0.36" />
<circle cx="477.9" cy="155.2" r="3.8" fill="#e11d48" opacity="0.38" />
<circle cx="477.3" cy="212.3" r="4.1" fill="#e11d48" opacity="0.41" />
<circle cx="478.0" cy="265.3" r="4.2" fill="#e11d48" opacity="0.42" />
<circle cx="477.5" cy="313.0" r="4.3" fill="#e11d48" opacity="0.43" />
<circle cx="481.7" cy="367.1" r="4.2" fill="#e11d48" opacity="0.42" />
<circle cx="473.1" cy="424.5" r="4.0" fill="#e11d48" opacity="0.40" />
<circle cx="473.2" cy="473.3" r="3.8" fill="#e11d48" opacity="0.38" />
<circle cx="474.3" cy="527.3" r="3.5" fill="#e11d48" opacity="0.35" />
<circle cx="480.6" cy="586.1" r="3.3" fill="#f43f5e" opacity="0.33" />
<circle cx="530.9" cy="52.4" r="3.4" fill="#f43f5e" opacity="0.34" />
<circle cx="525.9" cy="107.0" r="3.7" fill="#e11d48" opacity="0.37" />
<circle cx="533.8" cy="161.7" r="4.0" fill="#e11d48" opacity="0.40" />
<circle cx="525.4" cy="216.2" r="4.3" fill="#e11d48" opacity="0.43" />
<circle cx="527.1" cy="266.4" r="4.5" fill="#e11d48" opacity="0.45" />
<circle cx="528.9" cy="315.8" r="4.6" fill="#e11d48" opacity="0.46" />
<circle cx="531.8" cy="369.3" r="4.5" fill="#e11d48" opacity="0.45" />
<circle cx="533.3" cy="424.2" r="4.2" fill="#e11d48" opacity="0.42" />
<circle cx="528.3" cy="479.5" r="3.9" fill="#e11d48" opacity="0.39" />
<circle cx="527.2" cy="525.9" r="3.7" fill="#e11d48" opacity="0.37" />
<circle cx="530.8" cy="584.5" r="3.4" fill="#f43f5e" opacity="0.34" />
<circle cx="578.7" cy="56.5" r="3.5" fill="#e11d48" opacity="0.35" />
<circle cx="581.8" cy="108.8" r="3.8" fill="#e11d48" opacity="0.38" />
<circle cx="582.0" cy="159.3" r="4.1" fill="#e11d48" opacity="0.41" />
<circle cx="579.3" cy="210.2" r="4.4" fill="#e11d48" opacity="0.44" />
<circle cx="585.3" cy="263.2" r="4.7" fill="#e11d48" opacity="0.47" />
<circle cx="583.9" cy="318.4" r="4.9" fill="#e11d48" opacity="0.49" />
<circle cx="581.0" cy="372.4" r="4.6" fill="#e11d48" opacity="0.46" />
<circle cx="587.6" cy="425.9" r="4.3" fill="#e11d48" opacity="0.43" />
<circle cx="579.6" cy="477.9" r="4.0" fill="#e11d48" opacity="0.40" />
<circle cx="579.9" cy="526.5" r="3.7" fill="#e11d48" opacity="0.37" />
<circle cx="581.9" cy="579.9" r="3.4" fill="#e11d48" opacity="0.34" />
<circle cx="639.3" cy="57.7" r="3.5" fill="#e11d48" opacity="0.35" />
<circle cx="640.4" cy="109.1" r="3.8" fill="#e11d48" opacity="0.38" />
<circle cx="634.5" cy="160.6" r="4.1" fill="#e11d48" opacity="0.41" />
<circle cx="635.1" cy="216.7" r="4.4" fill="#e11d48" opacity="0.44" />
<circle cx="634.6" cy="264.3" r="4.6" fill="#e11d48" opacity="0.46" />
<circle cx="634.6" cy="322.3" r="4.8" fill="#e11d48" opacity="0.48" />
<circle cx="637.6" cy="373.9" r="4.6" fill="#e11d48" opacity="0.46" />
<circle cx="632.9" cy="420.8" r="4.3" fill="#e11d48" opacity="0.43" />
<circle cx="634.7" cy="478.6" r="4.0" fill="#e11d48" opacity="0.40" />
<circle cx="636.5" cy="527.5" r="3.7" fill="#e11d48" opacity="0.37" />
<circle cx="634.2" cy="586.4" r="3.4" fill="#f43f5e" opacity="0.34" />
<circle cx="684.5" cy="48.1" r="3.3" fill="#f43f5e" opacity="0.33" />
<circle cx="692.1" cy="101.9" r="3.6" fill="#e11d48" opacity="0.36" />
<circle cx="686.4" cy="163.1" r="4.0" fill="#e11d48" opacity="0.40" />
<circle cx="692.8" cy="213.6" r="4.2" fill="#e11d48" opacity="0.42" />
<circle cx="692.6" cy="262.2" r="4.4" fill="#e11d48" opacity="0.44" />
<circle cx="687.6" cy="317.8" r="4.5" fill="#e11d48" opacity="0.45" />
<circle cx="684.6" cy="373.2" r="4.4" fill="#e11d48" opacity="0.44" />
<circle cx="690.4" cy="427.1" r="4.2" fill="#e11d48" opacity="0.42" />
<circle cx="691.2" cy="472.2" r="3.9" fill="#e11d48" opacity="0.39" />
<circle cx="690.2" cy="531.7" r="3.6" fill="#e11d48" opacity="0.36" />
<circle cx="689.8" cy="587.2" r="3.3" fill="#f43f5e" opacity="0.33" />
<circle cx="743.6" cy="55.8" r="3.3" fill="#f43f5e" opacity="0.33" />
<circle cx="739.6" cy="110.0" r="3.5" fill="#e11d48" opacity="0.35" />
<circle cx="746.7" cy="157.6" r="3.7" fill="#e11d48" opacity="0.37" />
<circle cx="746.2" cy="209.2" r="3.9" fill="#e11d48" opacity="0.39" />
<circle cx="741.2" cy="264.2" r="4.1" fill="#e11d48" opacity="0.41" />
<circle cx="742.8" cy="320.2" r="4.2" fill="#e11d48" opacity="0.42" />
<circle cx="737.1" cy="366.7" r="4.1" fill="#e11d48" opacity="0.41" />
<circle cx="746.6" cy="427.4" r="3.9" fill="#e11d48" opacity="0.39" />
<circle cx="737.9" cy="475.7" r="3.7" fill="#e11d48" opacity="0.37" />
<circle cx="744.6" cy="533.4" r="3.5" fill="#e11d48" opacity="0.35" />
<circle cx="743.3" cy="580.0" r="3.2" fill="#f43f5e" opacity="0.32" />
<circle cx="792.3" cy="55.9" r="3.1" fill="#f43f5e" opacity="0.31" />
<circle cx="794.2" cy="108.7" r="3.3" fill="#f43f5e" opacity="0.33" />
<circle cx="790.8" cy="158.1" r="3.5" fill="#e11d48" opacity="0.35" />
<circle cx="797.4" cy="209.3" r="3.7" fill="#e11d48" opacity="0.37" />
<circle cx="793.9" cy="261.6" r="3.8" fill="#e11d48" opacity="0.38" />
<circle cx="792.5" cy="322.6" r="3.9" fill="#e11d48" opacity="0.39" />
<circle cx="797.8" cy="373.9" r="3.8" fill="#e11d48" opacity="0.38" />
<circle cx="796.0" cy="419.2" r="3.7" fill="#e11d48" opacity="0.37" />
<circle cx="793.3" cy="478.5" r="3.5" fill="#e11d48" opacity="0.35" />
<circle cx="796.6" cy="528.7" r="3.3" fill="#f43f5e" opacity="0.33" />
<circle cx="795.4" cy="578.8" r="3.1" fill="#f43f5e" opacity="0.31" />
<circle cx="850.5" cy="50.6" r="2.9" fill="#f43f5e" opacity="0.29" />
<circle cx="852.4" cy="102.1" r="3.1" fill="#f43f5e" opacity="0.31" />
<circle cx="850.6" cy="159.2" r="3.3" fill="#f43f5e" opacity="0.33" />
<circle cx="847.8" cy="214.8" r="3.4" fill="#e11d48" opacity="0.34" />
<circle cx="849.3" cy="260.3" r="3.5" fill="#e11d48" opacity="0.35" />
<circle cx="847.3" cy="316.2" r="3.5" fill="#e11d48" opacity="0.35" />
<circle cx="843.4" cy="367.8" r="3.5" fill="#e11d48" opacity="0.35" />
<circle cx="851.4" cy="424.6" r="3.4" fill="#f43f5e" opacity="0.34" />
<circle cx="850.6" cy="477.2" r="3.2" fill="#f43f5e" opacity="0.32" />
<circle cx="846.5" cy="532.8" r="3.1" fill="#f43f5e" opacity="0.31" />
<circle cx="847.5" cy="583.8" r="2.8" fill="#f43f5e" opacity="0.28" />
<circle cx="899.3" cy="50.2" r="2.6" fill="#f43f5e" opacity="0.26" />
<circle cx="901.8" cy="109.1" r="2.8" fill="#f43f5e" opacity="0.28" />
<circle cx="898.1" cy="161.4" r="3.0" fill="#f43f5e" opacity="0.30" />
<circle cx="905.9" cy="215.2" r="3.1" fill="#f43f5e" opacity="0.31" />
<circle cx="905.9" cy="266.5" r="3.2" fill="#f43f5e" opacity="0.32" />
<circle cx="905.1" cy="321.2" r="3.2" fill="#f43f5e" opacity="0.32" />
<circle cx="902.8" cy="368.5" r="3.2" fill="#f43f5e" opacity="0.32" />
<circle cx="905.9" cy="422.6" r="3.1" fill="#f43f5e" opacity="0.31" />
<circle cx="903.9" cy="472.6" r="3.0" fill="#f43f5e" opacity="0.30" />
<circle cx="896.2" cy="529.0" r="2.8" fill="#f43f5e" opacity="0.28" />
<circle cx="901.0" cy="582.0" r="2.6" fill="#f43f5e" opacity="0.26" />
<circle cx="949.4" cy="54.6" r="2.4" fill="#f43f5e" opacity="0.24" />
<circle cx="956.7" cy="103.1" r="2.6" fill="#f43f5e" opacity="0.26" />
<circle cx="952.7" cy="158.7" r="2.7" fill="#f43f5e" opacity="0.27" />
<circle cx="958.2" cy="213.9" r="2.8" fill="#f43f5e" opacity="0.28" />
<circle cx="953.7" cy="269.1" r="2.9" fill="#f43f5e" opacity="0.29" />
<circle cx="957.8" cy="321.7" r="2.9" fill="#f43f5e" opacity="0.29" />
<circle cx="958.0" cy="370.2" r="2.9" fill="#f43f5e" opacity="0.29" />
<circle cx="957.6" cy="423.7" r="2.8" fill="#f43f5e" opacity="0.28" />
<circle cx="954.1" cy="481.3" r="2.7" fill="#f43f5e" opacity="0.27" />
<circle cx="952.8" cy="528.1" r="2.6" fill="#f43f5e" opacity="0.26" />
<circle cx="949.1" cy="582.6" r="2.4" fill="#f43f5e" opacity="0.24" />
<circle cx="1008.1" cy="53.4" r="2.1" fill="#fb7185" opacity="0.21" />
<circle cx="1002.6" cy="102.9" r="2.3" fill="#f43f5e" opacity="0.23" />
<circle cx="1010.7" cy="163.9" r="2.4" fill="#f43f5e" opacity="0.24" />
<circle cx="1003.3" cy="209.4" r="2.5" fill="#f43f5e" opacity="0.25" />
<circle cx="1004.2" cy="269.0" r="2.6" fill="#f43f5e" opacity="0.26" />
<circle cx="1002.8" cy="321.9" r="2.6" fill="#f43f5e" opacity="0.26" />
<circle cx="1002.3" cy="369.4" r="2.6" fill="#f43f5e" opacity="0.26" />
<circle cx="1011.4" cy="424.4" r="2.5" fill="#f43f5e" opacity="0.25" />
<circle cx="1006.7" cy="477.8" r="2.4" fill="#f43f5e" opacity="0.24" />
<circle cx="1008.3" cy="527.6" r="2.3" fill="#f43f5e" opacity="0.23" />
<circle cx="1010.4" cy="584.6" r="2.1" fill="#fb7185" opacity="0.21" />
<circle cx="1057.1" cy="48.6" r="1.9" fill="#fb7185" opacity="0.19" />
<circle cx="1060.0" cy="106.9" r="2.0" fill="#fb7185" opacity="0.20" />
<circle cx="1059.7" cy="163.0" r="2.1" fill="#fb7185" opacity="0.21" />
<circle cx="1060.8" cy="208.7" r="2.2" fill="#f43f5e" opacity="0.22" />
<circle cx="1057.3" cy="263.9" r="2.3" fill="#f43f5e" opacity="0.23" />
<circle cx="1055.4" cy="313.8" r="2.3" fill="#f43f5e" opacity="0.23" />
<circle cx="1058.7" cy="369.3" r="2.3" fill="#f43f5e" opacity="0.23" />
<circle cx="1058.3" cy="420.5" r="2.2" fill="#f43f5e" opacity="0.22" />
<circle cx="1064.0" cy="472.6" r="2.1" fill="#fb7185" opacity="0.21" />
<circle cx="1057.6" cy="529.8" r="2.0" fill="#fb7185" opacity="0.20" />
<circle cx="1055.0" cy="583.9" r="1.9" fill="#fb7185" opacity="0.19" />
<circle cx="1109.8" cy="50.4" r="1.6" fill="#fb7185" opacity="0.16" />
<circle cx="1112.7" cy="108.2" r="1.7" fill="#fb7185" opacity="0.17" />
<circle cx="1110.8" cy="163.1" r="1.9" fill="#fb7185" opacity="0.19" />
<circle cx="1112.3" cy="216.7" r="1.9" fill="#fb7185" opacity="0.19" />
<circle cx="1117.9" cy="268.4" r="1.9" fill="#fb7185" opacity="0.19" />
<circle cx="1116.0" cy="318.0" r="2.0" fill="#fb7185" opacity="0.20" />
<circle cx="1110.7" cy="372.6" r="2.0" fill="#fb7185" opacity="0.20" />
<circle cx="1110.8" cy="428.5" r="1.9" fill="#fb7185" opacity="0.19" />
<circle cx="1116.6" cy="478.8" r="1.8" fill="#fb7185" opacity="0.18" />
<circle cx="1112.1" cy="528.9" r="1.7" fill="#fb7185" opacity="0.17" />
<circle cx="1110.1" cy="585.1" r="1.6" fill="#fb7185" opacity="0.16" />
<circle cx="1166.1" cy="49.5" r="1.3" fill="#fb7185" opacity="0.13" />
<circle cx="1162.6" cy="105.1" r="1.5" fill="#fb7185" opacity="0.15" />
<circle cx="1170.9" cy="162.6" r="1.5" fill="#fb7185" opacity="0.15" />
<circle cx="1163.0" cy="212.5" r="1.6" fill="#fb7185" opacity="0.16" />
<circle cx="1168.9" cy="264.8" r="1.6" fill="#fb7185" opacity="0.16" />
<circle cx="1163.0" cy="317.6" r="1.7" fill="#fb7185" opacity="0.17" />
<circle cx="1167.2" cy="371.4" r="1.6" fill="#fb7185" opacity="0.16" />
<circle cx="1166.3" cy="428.5" r="1.6" fill="#fb7185" opacity="0.16" />
<circle cx="1166.3" cy="476.1" r="1.5" fill="#fb7185" opacity="0.15" />
<circle cx="1166.4" cy="534.1" r="1.4" fill="#fb7185" opacity="0.14" />
<circle cx="1167.3" cy="587.9" r="1.3" fill="#fb7185" opacity="0.13" />


  <!-- Vignette -->
  <rect width="1200" height="630" fill="url(#bg)" opacity="0.3" />

  <!-- Category badge -->
  <rect x="48" y="40" width="174" height="28" rx="14" fill="#e11d48" opacity="0.9" />
  <text x="60" y="59" font-family="system-ui, -apple-system, sans-serif" font-size="12" font-weight="700" letter-spacing="1.5" text-transform="uppercase" fill="white">SCIENCE &amp; ARENA</text>

  <!-- Title -->
  <text x="48" y="550" font-family="system-ui, -apple-system, sans-serif" font-size="42" font-weight="800" fill="white" filter="url(#textShadow)" letter-spacing="-1">
    <tspan x="48" dy="0">If I Can Dream: The 1968 Arena Session</tspan>
  </text>

  <!-- spike.land watermark -->
  <text x="1152" y="606" font-family="system-ui, -apple-system, sans-serif" font-size="14" font-weight="600" fill="#fb7185" opacity="0.6" text-anchor="end">spike.land</text>
</svg>