<svg xmlns="http://www.w3.org/2000/svg" viewBox="0 0 1200 630" width="1200" height="630">
  <defs>
    <linearGradient id="bg" x1="0%" y1="0%" x2="100%" y2="100%">
      <stop offset="0%" stop-color="#1c1917" />
      <stop offset="100%" stop-color="#27272a" />
    </linearGradient>
    <filter id="glow">
      <feGaussianBlur stdDeviation="30" result="blur" />
      <feMerge><feMergeNode in="blur" /><feMergeNode in="SourceGraphic" /></feMerge>
    </filter>
    <filter id="textShadow">
      <feDropShadow dx="0" dy="2" stdDeviation="6" flood-color="#1c1917" flood-opacity="0.8" />
    </filter>
  </defs>

  <!-- Background -->
  <rect width="1200" height="630" fill="url(#bg)" />

  <!-- Generative shapes -->
  <polygon points="32.0,-18.4 32.0,18.4 0.0,36.9 -32.0,18.4 -32.0,-18.4 -0.0,-36.9" fill="#e11d48" opacity="0.18" />
<polygon points="103.0,-18.4 103.0,18.4 71.0,36.9 39.1,18.4 39.1,-18.4 71.0,-36.9" fill="#e11d48" opacity="0.14" />
<polygon points="387.0,-18.4 387.0,18.4 355.1,36.9 323.1,18.4 323.1,-18.4 355.1,-36.9" fill="#f43f5e" opacity="0.23" />
<polygon points="529.1,-18.4 529.1,18.4 497.1,36.9 465.1,18.4 465.1,-18.4 497.1,-36.9" fill="#fb7185" opacity="0.17" />
<polygon points="600.1,-18.4 600.1,18.4 568.1,36.9 536.2,18.4 536.2,-18.4 568.1,-36.9" fill="#e11d48" opacity="0.11" />
<polygon points="1097.2,-18.4 1097.2,18.4 1065.2,36.9 1033.3,18.4 1033.3,-18.4 1065.2,-36.9" fill="#fb7185" opacity="0.10" />
<polygon points="1239.2,-18.4 1239.2,18.4 1207.2,36.9 1175.3,18.4 1175.3,-18.4 1207.2,-36.9" fill="#fb7185" opacity="0.13" />
<polygon points="209.5,43.1 209.5,79.9 177.5,98.4 145.6,79.9 145.6,43.1 177.5,24.6" fill="#e11d48" opacity="0.10" />
<polygon points="280.5,43.1 280.5,79.9 248.5,98.4 216.6,79.9 216.6,43.1 248.5,24.6" fill="#f43f5e" opacity="0.12" />
<polygon points="351.5,43.1 351.5,79.9 319.6,98.4 287.6,79.9 287.6,43.1 319.6,24.6" fill="#fb7185" opacity="0.07" />
<polygon points="564.6,43.1 564.6,79.9 532.6,98.4 500.6,79.9 500.6,43.1 532.6,24.6" fill="#e11d48" opacity="0.16" />
<polygon points="635.6,43.1 635.6,79.9 603.6,98.4 571.7,79.9 571.7,43.1 603.6,24.6" fill="#e11d48" opacity="0.08" />
<polygon points="706.6,43.1 706.6,79.9 674.6,98.4 642.7,79.9 642.7,43.1 674.6,24.6" fill="#f43f5e" opacity="0.25" />
<polygon points="919.6,43.1 919.6,79.9 887.7,98.4 855.7,79.9 855.7,43.1 887.7,24.6" fill="#f43f5e" opacity="0.23" />
<polygon points="990.6,43.1 990.6,79.9 958.7,98.4 926.7,79.9 926.7,43.1 958.7,24.6" fill="#e11d48" opacity="0.21" />
<polygon points="1132.7,43.1 1132.7,79.9 1100.7,98.4 1068.8,79.9 1068.8,43.1 1100.7,24.6" fill="#f43f5e" opacity="0.15" />
<polygon points="1203.7,43.1 1203.7,79.9 1171.7,98.4 1139.8,79.9 1139.8,43.1 1171.7,24.6" fill="#fb7185" opacity="0.16" />
<polygon points="1274.7,43.1 1274.7,79.9 1242.7,98.4 1210.8,79.9 1210.8,43.1 1242.7,24.6" fill="#fb7185" opacity="0.20" />
<polygon points="32.0,104.6 32.0,141.4 0.0,159.9 -32.0,141.4 -32.0,104.6 -0.0,86.1" fill="#f43f5e" opacity="0.20" />
<polygon points="103.0,104.6 103.0,141.4 71.0,159.9 39.1,141.4 39.1,104.6 71.0,86.1" fill="#f43f5e" opacity="0.07" />
<polygon points="174.0,104.6 174.0,141.4 142.0,159.9 110.1,141.4 110.1,104.6 142.0,86.1" fill="#f43f5e" opacity="0.10" />
<polygon points="245.0,104.6 245.0,141.4 213.0,159.9 181.1,141.4 181.1,104.6 213.0,86.1" fill="#e11d48" opacity="0.24" />
<polygon points="387.0,104.6 387.0,141.4 355.1,159.9 323.1,141.4 323.1,104.6 355.1,86.1" fill="#f43f5e" opacity="0.16" />
<polygon points="600.1,104.6 600.1,141.4 568.1,159.9 536.2,141.4 536.2,104.6 568.1,86.1" fill="#f43f5e" opacity="0.19" />
<polygon points="1097.2,104.6 1097.2,141.4 1065.2,159.9 1033.3,141.4 1033.3,104.6 1065.2,86.1" fill="#f43f5e" opacity="0.06" />
<polygon points="1239.2,104.6 1239.2,141.4 1207.2,159.9 1175.3,141.4 1175.3,104.6 1207.2,86.1" fill="#fb7185" opacity="0.16" />
<polygon points="138.5,166.1 138.5,202.9 106.5,221.4 74.6,202.9 74.6,166.1 106.5,147.6" fill="#e11d48" opacity="0.15" />
<polygon points="209.5,166.1 209.5,202.9 177.5,221.4 145.6,202.9 145.6,166.1 177.5,147.6" fill="#e11d48" opacity="0.12" />
<polygon points="280.5,166.1 280.5,202.9 248.5,221.4 216.6,202.9 216.6,166.1 248.5,147.6" fill="#fb7185" opacity="0.13" />
<polygon points="351.5,166.1 351.5,202.9 319.6,221.4 287.6,202.9 287.6,166.1 319.6,147.6" fill="#fb7185" opacity="0.24" />
<polygon points="564.6,166.1 564.6,202.9 532.6,221.4 500.6,202.9 500.6,166.1 532.6,147.6" fill="#e11d48" opacity="0.20" />
<polygon points="706.6,166.1 706.6,202.9 674.6,221.4 642.7,202.9 642.7,166.1 674.6,147.6" fill="#f43f5e" opacity="0.22" />
<polygon points="848.6,166.1 848.6,202.9 816.7,221.4 784.7,202.9 784.7,166.1 816.7,147.6" fill="#fb7185" opacity="0.25" />
<polygon points="990.6,166.1 990.6,202.9 958.7,221.4 926.7,202.9 926.7,166.1 958.7,147.6" fill="#e11d48" opacity="0.13" />
<polygon points="1203.7,166.1 1203.7,202.9 1171.7,221.4 1139.8,202.9 1139.8,166.1 1171.7,147.6" fill="#e11d48" opacity="0.19" />
<polygon points="1274.7,166.1 1274.7,202.9 1242.7,221.4 1210.8,202.9 1210.8,166.1 1242.7,147.6" fill="#e11d48" opacity="0.18" />
<polygon points="32.0,227.6 32.0,264.4 0.0,282.9 -32.0,264.4 -32.0,227.6 -0.0,209.1" fill="#e11d48" opacity="0.25" />
<polygon points="103.0,227.6 103.0,264.4 71.0,282.9 39.1,264.4 39.1,227.6 71.0,209.1" fill="#fb7185" opacity="0.12" />
<polygon points="174.0,227.6 174.0,264.4 142.0,282.9 110.1,264.4 110.1,227.6 142.0,209.1" fill="#f43f5e" opacity="0.12" />
<polygon points="245.0,227.6 245.0,264.4 213.0,282.9 181.1,264.4 181.1,227.6 213.0,209.1" fill="#fb7185" opacity="0.15" />
<polygon points="316.0,227.6 316.0,264.4 284.1,282.9 252.1,264.4 252.1,227.6 284.1,209.1" fill="#fb7185" opacity="0.20" />
<polygon points="387.0,227.6 387.0,264.4 355.1,282.9 323.1,264.4 323.1,227.6 355.1,209.1" fill="#e11d48" opacity="0.19" />
<polygon points="458.0,227.6 458.0,264.4 426.1,282.9 394.1,264.4 394.1,227.6 426.1,209.1" fill="#e11d48" opacity="0.16" />
<polygon points="529.1,227.6 529.1,264.4 497.1,282.9 465.1,264.4 465.1,227.6 497.1,209.1" fill="#e11d48" opacity="0.18" />
<polygon points="671.1,227.6 671.1,264.4 639.1,282.9 607.2,264.4 607.2,227.6 639.1,209.1" fill="#f43f5e" opacity="0.09" />
<polygon points="742.1,227.6 742.1,264.4 710.1,282.9 678.2,264.4 678.2,227.6 710.1,209.1" fill="#e11d48" opacity="0.21" />
<polygon points="884.1,227.6 884.1,264.4 852.2,282.9 820.2,264.4 820.2,227.6 852.2,209.1" fill="#e11d48" opacity="0.14" />
<polygon points="1168.2,227.6 1168.2,264.4 1136.2,282.9 1104.3,264.4 1104.3,227.6 1136.2,209.1" fill="#fb7185" opacity="0.21" />
<polygon points="67.5,289.1 67.5,325.9 35.5,344.4 3.6,325.9 3.6,289.1 35.5,270.6" fill="#f43f5e" opacity="0.21" />
<polygon points="138.5,289.1 138.5,325.9 106.5,344.4 74.6,325.9 74.6,289.1 106.5,270.6" fill="#f43f5e" opacity="0.06" />
<polygon points="351.5,289.1 351.5,325.9 319.6,344.4 287.6,325.9 287.6,289.1 319.6,270.6" fill="#fb7185" opacity="0.10" />
<polygon points="422.5,289.1 422.5,325.9 390.6,344.4 358.6,325.9 358.6,289.1 390.6,270.6" fill="#fb7185" opacity="0.23" />
<polygon points="493.5,289.1 493.5,325.9 461.6,344.4 429.6,325.9 429.6,289.1 461.6,270.6" fill="#fb7185" opacity="0.16" />
<polygon points="564.6,289.1 564.6,325.9 532.6,344.4 500.6,325.9 500.6,289.1 532.6,270.6" fill="#e11d48" opacity="0.14" />
<polygon points="635.6,289.1 635.6,325.9 603.6,344.4 571.7,325.9 571.7,289.1 603.6,270.6" fill="#e11d48" opacity="0.20" />
<polygon points="777.6,289.1 777.6,325.9 745.6,344.4 713.7,325.9 713.7,289.1 745.6,270.6" fill="#fb7185" opacity="0.13" />
<polygon points="848.6,289.1 848.6,325.9 816.7,344.4 784.7,325.9 784.7,289.1 816.7,270.6" fill="#e11d48" opacity="0.05" />
<polygon points="919.6,289.1 919.6,325.9 887.7,344.4 855.7,325.9 855.7,289.1 887.7,270.6" fill="#f43f5e" opacity="0.14" />
<polygon points="1061.7,289.1 1061.7,325.9 1029.7,344.4 997.7,325.9 997.7,289.1 1029.7,270.6" fill="#fb7185" opacity="0.18" />
<polygon points="1132.7,289.1 1132.7,325.9 1100.7,344.4 1068.8,325.9 1068.8,289.1 1100.7,270.6" fill="#e11d48" opacity="0.18" />
<polygon points="1203.7,289.1 1203.7,325.9 1171.7,344.4 1139.8,325.9 1139.8,289.1 1171.7,270.6" fill="#fb7185" opacity="0.08" />
<polygon points="1274.7,289.1 1274.7,325.9 1242.7,344.4 1210.8,325.9 1210.8,289.1 1242.7,270.6" fill="#fb7185" opacity="0.10" />
<polygon points="32.0,350.6 32.0,387.4 0.0,405.9 -32.0,387.4 -32.0,350.6 -0.0,332.1" fill="#e11d48" opacity="0.07" />
<polygon points="103.0,350.6 103.0,387.4 71.0,405.9 39.1,387.4 39.1,350.6 71.0,332.1" fill="#e11d48" opacity="0.20" />
<polygon points="174.0,350.6 174.0,387.4 142.0,405.9 110.1,387.4 110.1,350.6 142.0,332.1" fill="#e11d48" opacity="0.23" />
<polygon points="245.0,350.6 245.0,387.4 213.0,405.9 181.1,387.4 181.1,350.6 213.0,332.1" fill="#f43f5e" opacity="0.21" />
<polygon points="316.0,350.6 316.0,387.4 284.1,405.9 252.1,387.4 252.1,350.6 284.1,332.1" fill="#f43f5e" opacity="0.13" />
<polygon points="529.1,350.6 529.1,387.4 497.1,405.9 465.1,387.4 465.1,350.6 497.1,332.1" fill="#fb7185" opacity="0.13" />
<polygon points="813.1,350.6 813.1,387.4 781.2,405.9 749.2,387.4 749.2,350.6 781.2,332.1" fill="#fb7185" opacity="0.14" />
<polygon points="955.1,350.6 955.1,387.4 923.2,405.9 891.2,387.4 891.2,350.6 923.2,332.1" fill="#e11d48" opacity="0.21" />
<polygon points="1026.2,350.6 1026.2,387.4 994.2,405.9 962.2,387.4 962.2,350.6 994.2,332.1" fill="#fb7185" opacity="0.23" />
<polygon points="1168.2,350.6 1168.2,387.4 1136.2,405.9 1104.3,387.4 1104.3,350.6 1136.2,332.1" fill="#f43f5e" opacity="0.18" />
<polygon points="67.5,412.1 67.5,448.9 35.5,467.4 3.6,448.9 3.6,412.1 35.5,393.6" fill="#fb7185" opacity="0.08" />
<polygon points="138.5,412.1 138.5,448.9 106.5,467.4 74.6,448.9 74.6,412.1 106.5,393.6" fill="#f43f5e" opacity="0.10" />
<polygon points="209.5,412.1 209.5,448.9 177.5,467.4 145.6,448.9 145.6,412.1 177.5,393.6" fill="#e11d48" opacity="0.20" />
<polygon points="351.5,412.1 351.5,448.9 319.6,467.4 287.6,448.9 287.6,412.1 319.6,393.6" fill="#e11d48" opacity="0.20" />
<polygon points="422.5,412.1 422.5,448.9 390.6,467.4 358.6,448.9 358.6,412.1 390.6,393.6" fill="#fb7185" opacity="0.16" />
<polygon points="777.6,412.1 777.6,448.9 745.6,467.4 713.7,448.9 713.7,412.1 745.6,393.6" fill="#fb7185" opacity="0.07" />
<polygon points="848.6,412.1 848.6,448.9 816.7,467.4 784.7,448.9 784.7,412.1 816.7,393.6" fill="#fb7185" opacity="0.20" />
<polygon points="990.6,412.1 990.6,448.9 958.7,467.4 926.7,448.9 926.7,412.1 958.7,393.6" fill="#f43f5e" opacity="0.07" />
<polygon points="1132.7,412.1 1132.7,448.9 1100.7,467.4 1068.8,448.9 1068.8,412.1 1100.7,393.6" fill="#fb7185" opacity="0.23" />
<polygon points="1203.7,412.1 1203.7,448.9 1171.7,467.4 1139.8,448.9 1139.8,412.1 1171.7,393.6" fill="#f43f5e" opacity="0.17" />
<polygon points="245.0,473.6 245.0,510.4 213.0,528.9 181.1,510.4 181.1,473.6 213.0,455.1" fill="#f43f5e" opacity="0.10" />
<polygon points="458.0,473.6 458.0,510.4 426.1,528.9 394.1,510.4 394.1,473.6 426.1,455.1" fill="#fb7185" opacity="0.18" />
<polygon points="813.1,473.6 813.1,510.4 781.2,528.9 749.2,510.4 749.2,473.6 781.2,455.1" fill="#fb7185" opacity="0.05" />
<polygon points="884.1,473.6 884.1,510.4 852.2,528.9 820.2,510.4 820.2,473.6 852.2,455.1" fill="#e11d48" opacity="0.19" />
<polygon points="955.1,473.6 955.1,510.4 923.2,528.9 891.2,510.4 891.2,473.6 923.2,455.1" fill="#fb7185" opacity="0.06" />
<polygon points="1097.2,473.6 1097.2,510.4 1065.2,528.9 1033.3,510.4 1033.3,473.6 1065.2,455.1" fill="#f43f5e" opacity="0.18" />
<polygon points="67.5,535.0 67.5,572.0 35.5,590.4 3.6,572.0 3.6,535.0 35.5,516.6" fill="#fb7185" opacity="0.12" />
<polygon points="138.5,535.0 138.5,572.0 106.5,590.4 74.6,572.0 74.6,535.0 106.5,516.6" fill="#e11d48" opacity="0.18" />
<polygon points="209.5,535.0 209.5,572.0 177.5,590.4 145.6,572.0 145.6,535.0 177.5,516.6" fill="#f43f5e" opacity="0.14" />
<polygon points="351.5,535.0 351.5,572.0 319.6,590.4 287.6,572.0 287.6,535.0 319.6,516.6" fill="#f43f5e" opacity="0.20" />
<polygon points="422.5,535.0 422.5,572.0 390.6,590.4 358.6,572.0 358.6,535.0 390.6,516.6" fill="#fb7185" opacity="0.07" />
<polygon points="564.6,535.0 564.6,572.0 532.6,590.4 500.6,572.0 500.6,535.0 532.6,516.6" fill="#f43f5e" opacity="0.21" />
<polygon points="706.6,535.0 706.6,572.0 674.6,590.4 642.7,572.0 642.7,535.0 674.6,516.6" fill="#f43f5e" opacity="0.22" />
<polygon points="777.6,535.0 777.6,572.0 745.6,590.4 713.7,572.0 713.7,535.0 745.6,516.6" fill="#fb7185" opacity="0.10" />
<polygon points="919.6,535.0 919.6,572.0 887.7,590.4 855.7,572.0 855.7,535.0 887.7,516.6" fill="#e11d48" opacity="0.20" />
<polygon points="990.6,535.0 990.6,572.0 958.7,590.4 926.7,572.0 926.7,535.0 958.7,516.6" fill="#e11d48" opacity="0.18" />
<polygon points="1061.7,535.0 1061.7,572.0 1029.7,590.4 997.7,572.0 997.7,535.0 1029.7,516.6" fill="#fb7185" opacity="0.07" />
<polygon points="1132.7,535.0 1132.7,572.0 1100.7,590.4 1068.8,572.0 1068.8,535.0 1100.7,516.6" fill="#f43f5e" opacity="0.19" />
<polygon points="1274.7,535.0 1274.7,572.0 1242.7,590.4 1210.8,572.0 1210.8,535.0 1242.7,516.6" fill="#f43f5e" opacity="0.07" />
<polygon points="32.0,596.5 32.0,633.5 0.0,651.9 -32.0,633.5 -32.0,596.5 -0.0,578.1" fill="#fb7185" opacity="0.06" />
<polygon points="103.0,596.5 103.0,633.5 71.0,651.9 39.1,633.5 39.1,596.5 71.0,578.1" fill="#f43f5e" opacity="0.12" />
<polygon points="174.0,596.5 174.0,633.5 142.0,651.9 110.1,633.5 110.1,596.5 142.0,578.1" fill="#f43f5e" opacity="0.08" />
<polygon points="316.0,596.5 316.0,633.5 284.1,651.9 252.1,633.5 252.1,596.5 284.1,578.1" fill="#fb7185" opacity="0.13" />
<polygon points="529.1,596.5 529.1,633.5 497.1,651.9 465.1,633.5 465.1,596.5 497.1,578.1" fill="#fb7185" opacity="0.11" />
<polygon points="671.1,596.5 671.1,633.5 639.1,651.9 607.2,633.5 607.2,596.5 639.1,578.1" fill="#f43f5e" opacity="0.17" />
<polygon points="742.1,596.5 742.1,633.5 710.1,651.9 678.2,633.5 678.2,596.5 710.1,578.1" fill="#f43f5e" opacity="0.14" />
<polygon points="1097.2,596.5 1097.2,633.5 1065.2,651.9 1033.3,633.5 1033.3,596.5 1065.2,578.1" fill="#f43f5e" opacity="0.12" />
<polygon points="1168.2,596.5 1168.2,633.5 1136.2,651.9 1104.3,633.5 1104.3,596.5 1136.2,578.1" fill="#f43f5e" opacity="0.12" />
<polygon points="138.5,658.0 138.5,695.0 106.5,713.4 74.6,695.0 74.6,658.0 106.5,639.6" fill="#f43f5e" opacity="0.12" />
<polygon points="280.5,658.0 280.5,695.0 248.5,713.4 216.6,695.0 216.6,658.0 248.5,639.6" fill="#f43f5e" opacity="0.09" />
<polygon points="351.5,658.0 351.5,695.0 319.6,713.4 287.6,695.0 287.6,658.0 319.6,639.6" fill="#f43f5e" opacity="0.16" />
<polygon points="493.5,658.0 493.5,695.0 461.6,713.4 429.6,695.0 429.6,658.0 461.6,639.6" fill="#f43f5e" opacity="0.25" />
<polygon points="635.6,658.0 635.6,695.0 603.6,713.4 571.7,695.0 571.7,658.0 603.6,639.6" fill="#e11d48" opacity="0.07" />
<polygon points="777.6,658.0 777.6,695.0 745.6,713.4 713.7,695.0 713.7,658.0 745.6,639.6" fill="#e11d48" opacity="0.25" />
<polygon points="1061.7,658.0 1061.7,695.0 1029.7,713.4 997.7,695.0 997.7,658.0 1029.7,639.6" fill="#fb7185" opacity="0.15" />
<polygon points="1132.7,658.0 1132.7,695.0 1100.7,713.4 1068.8,695.0 1068.8,658.0 1100.7,639.6" fill="#fb7185" opacity="0.21" />
<polygon points="1203.7,658.0 1203.7,695.0 1171.7,713.4 1139.8,695.0 1139.8,658.0 1171.7,639.6" fill="#e11d48" opacity="0.16" />


  <!-- Vignette -->
  <rect width="1200" height="630" fill="url(#bg)" opacity="0.3" />

  <!-- Category badge -->
  <rect x="48" y="40" width="84" height="28" rx="14" fill="#e11d48" opacity="0.9" />
  <text x="60" y="59" font-family="system-ui, -apple-system, sans-serif" font-size="12" font-weight="700" letter-spacing="1.5" text-transform="uppercase" fill="white">ESSAYS</text>

  <!-- Title -->
  <text x="48" y="550" font-family="system-ui, -apple-system, sans-serif" font-size="42" font-weight="800" fill="white" filter="url(#textShadow)" letter-spacing="-1">
    <tspan x="48" dy="0">The Two Boxes</tspan>
  </text>

  <!-- spike.land watermark -->
  <text x="1152" y="606" font-family="system-ui, -apple-system, sans-serif" font-size="14" font-weight="600" fill="#fb7185" opacity="0.6" text-anchor="end">spike.land</text>
</svg>