<svg xmlns="http://www.w3.org/2000/svg" viewBox="0 0 1200 630" width="1200" height="630">
  <defs>
    <linearGradient id="bg" x1="0%" y1="0%" x2="100%" y2="100%">
      <stop offset="0%" stop-color="#1c1917" />
      <stop offset="100%" stop-color="#292524" />
    </linearGradient>
    <filter id="glow">
      <feGaussianBlur stdDeviation="30" result="blur" />
      <feMerge><feMergeNode in="blur" /><feMergeNode in="SourceGraphic" /></feMerge>
    </filter>
    <filter id="textShadow">
      <feDropShadow dx="0" dy="2" stdDeviation="6" flood-color="#1c1917" flood-opacity="0.8" />
    </filter>
  </defs>

  <!-- Background -->
  <rect width="1200" height="630" fill="url(#bg)" />

  <!-- Generative shapes -->
  <path d="M 0 80 L 0 80.0 L 20 95.1 L 40 100.7 L 60 109.6 L 80 103.1 L 100 109.2 L 120 104.3 L 140 135.6 L 160 158.3 L 180 151.2 L 200 130.1 L 220 123.6 L 240 137.0 L 260 124.7 L 280 102.0 L 300 142.7 L 320 86.6 L 340 43.4 L 360 91.5 L 380 131.6 L 400 36.8 L 420 17.9 L 440 16.0 L 460 124.7 L 480 61.3 L 500 40.1 L 520 79.7 L 540 103.6 L 560 86.6 L 580 94.7 L 600 67.3 L 620 52.4 L 640 50.5 L 660 140.8 L 680 143.5 L 700 102.0 L 720 119.6 L 740 85.2 L 760 37.4 L 780 44.0 L 800 95.0 L 820 97.0 L 840 27.9 L 860 145.4 L 880 50.0 L 900 38.9 L 920 150.0 L 940 24.1 L 960 122.9 L 980 56.8 L 1000 98.7 L 1020 41.9 L 1040 63.5 L 1060 95.2 L 1080 133.8 L 1100 94.1 L 1120 105.4 L 1140 110.5 L 1160 67.5 L 1180 130.8 L 1200 27.1" fill="none" stroke="#d97706" stroke-width="2.8" opacity="0.13" />
<path d="M 0 150 L 0 170.2 L 20 210.2 L 40 177.3 L 60 183.3 L 80 195.5 L 100 216.4 L 120 188.1 L 140 215.6 L 160 188.8 L 180 212.9 L 200 208.8 L 220 197.6 L 240 159.1 L 260 181.4 L 280 124.9 L 300 116.8 L 320 92.0 L 340 84.4 L 360 153.9 L 380 129.1 L 400 152.7 L 420 146.2 L 440 149.4 L 460 135.6 L 480 81.3 L 500 98.6 L 520 133.2 L 540 95.0 L 560 189.3 L 580 101.0 L 600 107.0 L 620 93.5 L 640 115.0 L 660 169.5 L 680 127.2 L 700 204.3 L 720 129.9 L 740 183.5 L 760 123.6 L 780 113.2 L 800 113.9 L 820 176.0 L 840 197.6 L 860 215.6 L 880 138.1 L 900 157.5 L 920 116.0 L 940 195.6 L 960 157.5 L 980 191.8 L 1000 101.7 L 1020 158.2 L 1040 178.1 L 1060 193.5 L 1080 185.2 L 1100 133.9 L 1120 89.6 L 1140 196.8 L 1160 189.1 L 1180 117.6 L 1200 148.8" fill="none" stroke="#f59e0b" stroke-width="2.6" opacity="0.15" />
<path d="M 0 220 L 0 263.7 L 20 278.7 L 40 289.6 L 60 285.1 L 80 254.2 L 100 255.1 L 120 275.5 L 140 280.8 L 160 226.3 L 180 248.3 L 200 178.1 L 220 181.7 L 240 233.1 L 260 234.7 L 280 173.7 L 300 224.4 L 320 194.1 L 340 168.7 L 360 196.9 L 380 181.0 L 400 173.4 L 420 143.7 L 440 157.1 L 460 238.7 L 480 242.7 L 500 210.0 L 520 261.8 L 540 253.4 L 560 249.2 L 580 263.5 L 600 188.9 L 620 256.8 L 640 204.3 L 660 242.9 L 680 243.7 L 700 220.0 L 720 294.1 L 740 176.2 L 760 241.6 L 780 226.4 L 800 279.7 L 820 196.8 L 840 229.4 L 860 187.7 L 880 155.8 L 900 245.1 L 920 206.9 L 940 153.1 L 960 184.2 L 980 216.9 L 1000 262.3 L 1020 223.3 L 1040 191.9 L 1060 249.7 L 1080 176.9 L 1100 190.2 L 1120 271.1 L 1140 253.7 L 1160 227.7 L 1180 179.3 L 1200 197.9" fill="none" stroke="#fbbf24" stroke-width="1.5" opacity="0.17" />
<path d="M 0 290 L 0 348.9 L 20 321.0 L 40 309.4 L 60 304.9 L 80 322.2 L 100 298.2 L 120 262.3 L 140 269.2 L 160 262.1 L 180 255.9 L 200 238.2 L 220 256.6 L 240 266.7 L 260 267.3 L 280 230.5 L 300 234.7 L 320 232.8 L 340 242.0 L 360 305.0 L 380 311.7 L 400 261.4 L 420 238.0 L 440 276.8 L 460 270.5 L 480 250.5 L 500 334.4 L 520 317.7 L 540 217.4 L 560 242.3 L 580 330.7 L 600 329.1 L 620 244.6 L 640 258.4 L 660 337.0 L 680 316.0 L 700 320.2 L 720 222.0 L 740 330.3 L 760 300.7 L 780 257.7 L 800 325.4 L 820 357.1 L 840 335.1 L 860 362.4 L 880 233.1 L 900 321.4 L 920 301.2 L 940 336.9 L 960 342.0 L 980 248.2 L 1000 313.0 L 1020 230.8 L 1040 224.6 L 1060 235.5 L 1080 220.5 L 1100 329.1 L 1120 258.9 L 1140 252.8 L 1160 343.9 L 1180 236.7 L 1200 321.9" fill="none" stroke="#fcd34d" stroke-width="2.5" opacity="0.16" />
<path d="M 0 360 L 0 383.9 L 20 377.0 L 40 354.1 L 60 360.4 L 80 331.0 L 100 341.2 L 120 323.2 L 140 342.7 L 160 325.6 L 180 313.5 L 200 312.3 L 220 340.1 L 240 318.7 L 260 329.5 L 280 285.8 L 300 305.8 L 320 340.2 L 340 342.5 L 360 424.0 L 380 300.6 L 400 324.2 L 420 416.6 L 440 345.3 L 460 405.8 L 480 400.6 L 500 371.5 L 520 354.7 L 540 419.0 L 560 357.0 L 580 403.1 L 600 396.8 L 620 391.4 L 640 310.0 L 660 388.4 L 680 401.9 L 700 364.9 L 720 321.2 L 740 315.4 L 760 429.3 L 780 414.1 L 800 331.3 L 820 299.1 L 840 401.1 L 860 391.7 L 880 357.6 L 900 373.4 L 920 372.2 L 940 394.5 L 960 290.7 L 980 396.6 L 1000 419.8 L 1020 419.4 L 1040 358.2 L 1060 415.6 L 1080 408.0 L 1100 294.0 L 1120 315.8 L 1140 418.5 L 1160 326.5 L 1180 359.6 L 1200 297.1" fill="none" stroke="#d97706" stroke-width="1.3" opacity="0.31" />
<path d="M 0 430 L 0 414.4 L 20 402.4 L 40 370.1 L 60 383.3 L 80 363.5 L 100 377.3 L 120 381.2 L 140 355.0 L 160 391.6 L 180 386.8 L 200 382.4 L 220 427.0 L 240 408.6 L 260 399.1 L 280 395.4 L 300 379.5 L 320 401.3 L 340 458.2 L 360 399.4 L 380 450.6 L 400 386.3 L 420 470.3 L 440 459.9 L 460 440.8 L 480 437.9 L 500 431.4 L 520 488.5 L 540 422.7 L 560 451.4 L 580 374.5 L 600 373.5 L 620 409.0 L 640 466.2 L 660 462.5 L 680 488.2 L 700 387.4 L 720 473.6 L 740 409.7 L 760 389.3 L 780 504.4 L 800 369.3 L 820 395.7 L 840 450.2 L 860 425.4 L 880 357.8 L 900 474.3 L 920 395.8 L 940 499.9 L 960 444.0 L 980 475.3 L 1000 461.7 L 1020 438.7 L 1040 400.7 L 1060 422.9 L 1080 445.2 L 1100 367.1 L 1120 365.0 L 1140 485.2 L 1160 444.1 L 1180 423.7 L 1200 381.0" fill="none" stroke="#f59e0b" stroke-width="2.2" opacity="0.13" />
<path d="M 0 500 L 0 439.8 L 20 466.5 L 40 438.7 L 60 450.0 L 80 432.9 L 100 438.5 L 120 428.5 L 140 475.5 L 160 448.3 L 180 483.3 L 200 514.4 L 220 526.9 L 240 513.7 L 260 499.1 L 280 505.6 L 300 548.8 L 320 503.7 L 340 546.8 L 360 546.1 L 380 546.0 L 400 542.4 L 420 532.9 L 440 519.0 L 460 514.4 L 480 485.2 L 500 528.9 L 520 563.8 L 540 449.5 L 560 470.5 L 580 531.3 L 600 507.1 L 620 443.7 L 640 449.9 L 660 492.6 L 680 473.9 L 700 450.5 L 720 457.5 L 740 535.3 L 760 440.3 L 780 496.5 L 800 489.1 L 820 554.8 L 840 567.0 L 860 480.3 L 880 521.1 L 900 515.0 L 920 486.5 L 940 532.9 L 960 485.6 L 980 441.3 L 1000 532.7 L 1020 546.1 L 1040 523.9 L 1060 463.0 L 1080 539.0 L 1100 543.6 L 1120 470.4 L 1140 528.5 L 1160 533.0 L 1180 541.6 L 1200 473.3" fill="none" stroke="#fbbf24" stroke-width="1.8" opacity="0.30" />
<path d="M 0 570 L 0 510.8 L 20 534.5 L 40 515.3 L 60 524.4 L 80 536.5 L 100 542.9 L 120 535.3 L 140 587.1 L 160 533.7 L 180 570.8 L 200 570.2 L 220 605.7 L 240 566.6 L 260 637.0 L 280 620.4 L 300 619.9 L 320 594.8 L 340 599.4 L 360 604.3 L 380 578.4 L 400 601.5 L 420 558.9 L 440 525.7 L 460 550.3 L 480 551.2 L 500 539.8 L 520 631.2 L 540 618.7 L 560 615.9 L 580 519.4 L 600 599.7 L 620 588.2 L 640 511.1 L 660 625.8 L 680 609.5 L 700 541.3 L 720 622.2 L 740 526.3 L 760 544.1 L 780 586.1 L 800 581.4 L 820 527.3 L 840 501.9 L 860 511.4 L 880 565.0 L 900 603.3 L 920 627.9 L 940 506.5 L 960 605.6 L 980 572.7 L 1000 578.6 L 1020 581.1 L 1040 613.3 L 1060 566.2 L 1080 524.8 L 1100 571.0 L 1120 561.8 L 1140 554.3 L 1160 610.7 L 1180 565.4 L 1200 569.2" fill="none" stroke="#fcd34d" stroke-width="2.7" opacity="0.21" />


  <!-- Vignette -->
  <rect width="1200" height="630" fill="url(#bg)" opacity="0.3" />

  <!-- Category badge -->
  <rect x="48" y="40" width="174" height="28" rx="14" fill="#d97706" opacity="0.9" />
  <text x="60" y="59" font-family="system-ui, -apple-system, sans-serif" font-size="12" font-weight="700" letter-spacing="1.5" text-transform="uppercase" fill="white">SCIENCE &amp; ARENA</text>

  <!-- Title -->
  <text x="48" y="550" font-family="system-ui, -apple-system, sans-serif" font-size="42" font-weight="800" fill="white" filter="url(#textShadow)" letter-spacing="-1">
    <tspan x="48" dy="0">Smooth Operator: The Velvet Night</tspan>
    <tspan x="48" dy="50">Arena</tspan>
  </text>

  <!-- spike.land watermark -->
  <text x="1152" y="606" font-family="system-ui, -apple-system, sans-serif" font-size="14" font-weight="600" fill="#fbbf24" opacity="0.6" text-anchor="end">spike.land</text>
</svg>