<svg xmlns="http://www.w3.org/2000/svg" viewBox="0 0 1200 630" width="1200" height="630">
  <defs>
    <linearGradient id="bg" x1="0%" y1="0%" x2="100%" y2="100%">
      <stop offset="0%" stop-color="#0c0a09" />
      <stop offset="100%" stop-color="#1c1917" />
    </linearGradient>
    <filter id="glow">
      <feGaussianBlur stdDeviation="30" result="blur" />
      <feMerge><feMergeNode in="blur" /><feMergeNode in="SourceGraphic" /></feMerge>
    </filter>
    <filter id="textShadow">
      <feDropShadow dx="0" dy="2" stdDeviation="6" flood-color="#0c0a09" flood-opacity="0.8" />
    </filter>
  </defs>

  <!-- Background -->
  <rect width="1200" height="630" fill="url(#bg)" />

  <!-- Generative shapes -->
  <path d="M 0 80 L 0 80.0 L 20 89.3 L 40 88.5 L 60 100.8 L 80 120.2 L 100 143.2 L 120 110.8 L 140 139.0 L 160 146.3 L 180 122.9 L 200 119.7 L 220 126.9 L 240 110.0 L 260 128.6 L 280 65.6 L 300 143.0 L 320 52.5 L 340 75.4 L 360 49.6 L 380 136.5 L 400 47.5 L 420 129.7 L 440 68.8 L 460 48.1 L 480 15.5 L 500 50.9 L 520 52.8 L 540 93.2 L 560 57.0 L 580 33.3 L 600 46.4 L 620 113.4 L 640 30.7 L 660 53.0 L 680 31.9 L 700 147.3 L 720 18.8 L 740 115.1 L 760 45.0 L 780 37.9 L 800 46.9 L 820 107.9 L 840 12.4 L 860 23.5 L 880 106.6 L 900 72.7 L 920 72.5 L 940 102.6 L 960 32.3 L 980 51.6 L 1000 86.1 L 1020 23.4 L 1040 34.8 L 1060 103.2 L 1080 4.7 L 1100 56.6 L 1120 19.9 L 1140 89.1 L 1160 15.4 L 1180 48.5 L 1200 88.0" fill="none" stroke="#4f46e5" stroke-width="1.4" opacity="0.22" />
<path d="M 0 150 L 0 171.7 L 20 181.3 L 40 191.0 L 60 208.1 L 80 181.2 L 100 210.5 L 120 218.4 L 140 220.8 L 160 191.7 L 180 163.9 L 200 184.8 L 220 164.8 L 240 176.8 L 260 138.5 L 280 175.2 L 300 204.4 L 320 119.9 L 340 108.0 L 360 132.7 L 380 131.3 L 400 129.7 L 420 134.5 L 440 153.7 L 460 140.4 L 480 130.6 L 500 120.0 L 520 203.2 L 540 115.0 L 560 198.8 L 580 189.7 L 600 78.7 L 620 149.6 L 640 183.5 L 660 218.4 L 680 179.2 L 700 172.5 L 720 75.8 L 740 178.3 L 760 176.5 L 780 94.7 L 800 124.3 L 820 143.4 L 840 167.0 L 860 88.5 L 880 154.0 L 900 188.6 L 920 189.8 L 940 113.3 L 960 116.7 L 980 143.9 L 1000 139.7 L 1020 143.9 L 1040 147.0 L 1060 214.9 L 1080 131.0 L 1100 78.0 L 1120 98.5 L 1140 91.4 L 1160 145.1 L 1180 119.4 L 1200 138.7" fill="none" stroke="#6366f1" stroke-width="2.4" opacity="0.32" />
<path d="M 0 220 L 0 274.1 L 20 293.9 L 40 296.2 L 60 270.4 L 80 257.6 L 100 262.4 L 120 235.2 L 140 246.3 L 160 227.4 L 180 224.0 L 200 217.1 L 220 213.0 L 240 242.6 L 260 194.6 L 280 199.1 L 300 220.1 L 320 218.2 L 340 147.4 L 360 191.6 L 380 174.3 L 400 237.3 L 420 222.9 L 440 195.3 L 460 177.0 L 480 205.7 L 500 263.4 L 520 170.8 L 540 202.0 L 560 235.8 L 580 280.8 L 600 263.4 L 620 275.1 L 640 227.9 L 660 225.4 L 680 213.6 L 700 192.7 L 720 195.2 L 740 215.1 L 760 196.4 L 780 223.7 L 800 211.8 L 820 209.1 L 840 232.8 L 860 168.9 L 880 208.0 L 900 231.6 L 920 171.7 L 940 201.1 L 960 247.3 L 980 208.7 L 1000 235.4 L 1020 222.5 L 1040 264.1 L 1060 247.8 L 1080 251.3 L 1100 256.9 L 1120 191.3 L 1140 184.9 L 1160 194.2 L 1180 181.8 L 1200 173.6" fill="none" stroke="#818cf8" stroke-width="2.2" opacity="0.24" />
<path d="M 0 290 L 0 344.8 L 20 348.6 L 40 317.6 L 60 312.4 L 80 297.3 L 100 307.2 L 120 308.4 L 140 257.1 L 160 276.5 L 180 278.1 L 200 258.1 L 220 259.9 L 240 214.2 L 260 236.0 L 280 259.7 L 300 235.5 L 320 255.8 L 340 262.3 L 360 233.4 L 380 312.8 L 400 292.1 L 420 213.4 L 440 334.4 L 460 234.7 L 480 289.7 L 500 231.6 L 520 224.6 L 540 247.5 L 560 290.6 L 580 346.9 L 600 330.8 L 620 261.6 L 640 298.7 L 660 320.7 L 680 222.9 L 700 346.4 L 720 281.5 L 740 255.8 L 760 322.4 L 780 265.8 L 800 354.5 L 820 339.0 L 840 275.6 L 860 313.3 L 880 314.8 L 900 281.7 L 920 362.6 L 940 299.6 L 960 345.8 L 980 311.4 L 1000 261.1 L 1020 223.5 L 1040 301.2 L 1060 284.3 L 1080 248.2 L 1100 323.7 L 1120 319.9 L 1140 258.5 L 1160 264.9 L 1180 317.4 L 1200 216.3" fill="none" stroke="#a5b4fc" stroke-width="2.3" opacity="0.31" />
<path d="M 0 360 L 0 370.7 L 20 365.8 L 40 364.9 L 60 351.4 L 80 348.1 L 100 309.6 L 120 328.6 L 140 288.4 L 160 321.5 L 180 302.7 L 200 321.2 L 220 300.6 L 240 307.4 L 260 300.2 L 280 347.4 L 300 323.2 L 320 372.1 L 340 299.1 L 360 332.4 L 380 312.4 L 400 416.7 L 420 338.9 L 440 364.4 L 460 400.2 L 480 401.2 L 500 397.8 L 520 416.7 L 540 390.6 L 560 395.6 L 580 356.7 L 600 407.5 L 620 354.9 L 640 402.4 L 660 354.3 L 680 305.5 L 700 403.6 L 720 343.0 L 740 392.2 L 760 399.6 L 780 397.6 L 800 372.0 L 820 323.3 L 840 328.5 L 860 330.2 L 880 289.2 L 900 350.2 L 920 420.0 L 940 325.4 L 960 338.6 L 980 412.3 L 1000 298.7 L 1020 397.0 L 1040 387.8 L 1060 419.5 L 1080 355.1 L 1100 322.2 L 1120 336.5 L 1140 438.8 L 1160 328.3 L 1180 325.4 L 1200 288.2" fill="none" stroke="#4f46e5" stroke-width="2.8" opacity="0.17" />
<path d="M 0 430 L 0 412.1 L 20 411.2 L 40 405.7 L 60 383.9 L 80 392.4 L 100 383.7 L 120 376.5 L 140 366.3 L 160 358.8 L 180 365.9 L 200 386.2 L 220 393.0 L 240 415.4 L 260 367.2 L 280 438.6 L 300 435.4 L 320 461.0 L 340 508.7 L 360 464.6 L 380 385.4 L 400 482.3 L 420 483.8 L 440 478.0 L 460 470.0 L 480 417.0 L 500 473.6 L 520 500.9 L 540 459.3 L 560 475.5 L 580 364.0 L 600 466.0 L 620 437.2 L 640 406.2 L 660 485.7 L 680 481.6 L 700 407.6 L 720 400.0 L 740 376.8 L 760 423.4 L 780 440.5 L 800 386.2 L 820 493.3 L 840 393.9 L 860 499.7 L 880 404.0 L 900 490.6 L 920 357.1 L 940 407.3 L 960 360.7 L 980 466.0 L 1000 493.1 L 1020 468.2 L 1040 377.3 L 1060 381.7 L 1080 480.5 L 1100 443.1 L 1120 403.9 L 1140 385.0 L 1160 390.6 L 1180 495.0 L 1200 483.6" fill="none" stroke="#6366f1" stroke-width="1.2" opacity="0.22" />
<path d="M 0 500 L 0 448.1 L 20 450.8 L 40 444.8 L 60 439.8 L 80 467.0 L 100 429.7 L 120 467.7 L 140 470.5 L 160 451.1 L 180 502.2 L 200 507.7 L 220 507.4 L 240 505.2 L 260 517.5 L 280 571.6 L 300 561.4 L 320 540.0 L 340 569.2 L 360 514.8 L 380 510.4 L 400 547.9 L 420 536.2 L 440 538.7 L 460 548.2 L 480 527.0 L 500 483.6 L 520 543.1 L 540 545.5 L 560 527.9 L 580 547.8 L 600 527.2 L 620 459.9 L 640 475.4 L 660 562.1 L 680 529.8 L 700 462.8 L 720 545.2 L 740 536.6 L 760 492.4 L 780 525.6 L 800 466.3 L 820 535.0 L 840 493.9 L 860 468.0 L 880 447.2 L 900 487.0 L 920 497.2 L 940 475.6 L 960 573.2 L 980 473.7 L 1000 525.1 L 1020 457.1 L 1040 468.2 L 1060 497.2 L 1080 462.2 L 1100 539.0 L 1120 544.5 L 1140 459.2 L 1160 452.6 L 1180 493.6 L 1200 508.3" fill="none" stroke="#818cf8" stroke-width="2.7" opacity="0.12" />
<path d="M 0 570 L 0 529.3 L 20 506.0 L 40 539.3 L 60 545.3 L 80 537.3 L 100 561.6 L 120 562.7 L 140 581.0 L 160 596.7 L 180 584.5 L 200 557.1 L 220 590.1 L 240 580.2 L 260 625.5 L 280 635.6 L 300 599.9 L 320 600.1 L 340 633.0 L 360 604.6 L 380 621.0 L 400 622.7 L 420 595.5 L 440 576.6 L 460 594.3 L 480 644.4 L 500 574.7 L 520 540.4 L 540 615.8 L 560 602.5 L 580 536.8 L 600 544.1 L 620 617.9 L 640 535.7 L 660 546.5 L 680 561.9 L 700 538.6 L 720 602.1 L 740 617.9 L 760 558.7 L 780 555.6 L 800 617.8 L 820 598.6 L 840 621.9 L 860 623.7 L 880 608.5 L 900 601.3 L 920 612.0 L 940 524.5 L 960 552.6 L 980 560.7 L 1000 548.3 L 1020 501.0 L 1040 502.4 L 1060 530.7 L 1080 571.6 L 1100 544.4 L 1120 607.3 L 1140 534.7 L 1160 540.4 L 1180 619.1 L 1200 633.2" fill="none" stroke="#a5b4fc" stroke-width="3.0" opacity="0.12" />


  <!-- Vignette -->
  <rect width="1200" height="630" fill="url(#bg)" opacity="0.3" />

  <!-- Category badge -->
  <rect x="48" y="40" width="124" height="28" rx="14" fill="#4f46e5" opacity="0.9" />
  <text x="60" y="59" font-family="system-ui, -apple-system, sans-serif" font-size="12" font-weight="700" letter-spacing="1.5" text-transform="uppercase" fill="white">SPIKE.LAND</text>

  <!-- Title -->
  <text x="48" y="550" font-family="system-ui, -apple-system, sans-serif" font-size="42" font-weight="800" fill="white" filter="url(#textShadow)" letter-spacing="-1">
    <tspan x="48" dy="0">March 15, 2026: spike.land Goes Fully</tspan>
    <tspan x="48" dy="50">Open Source</tspan>
  </text>

  <!-- spike.land watermark -->
  <text x="1152" y="606" font-family="system-ui, -apple-system, sans-serif" font-size="14" font-weight="600" fill="#818cf8" opacity="0.6" text-anchor="end">spike.land</text>
</svg>