<svg xmlns="http://www.w3.org/2000/svg" viewBox="0 0 1200 630" width="1200" height="630">
  <defs>
    <linearGradient id="bg" x1="0%" y1="0%" x2="100%" y2="100%">
      <stop offset="0%" stop-color="#0a1320"/>
      <stop offset="100%" stop-color="#131c2e"/>
    </linearGradient>
    <linearGradient id="amber" x1="0%" y1="0%" x2="100%" y2="0%">
      <stop offset="0%" stop-color="#f59e0b"/>
      <stop offset="100%" stop-color="#fcd34d"/>
    </linearGradient>
    <filter id="glow">
      <feGaussianBlur stdDeviation="5"/>
    </filter>
  </defs>

  <rect width="1200" height="630" fill="url(#bg)"/>

  <g stroke="#94a3b8" stroke-opacity="0.12" stroke-width="1">
    <path d="M0 70 H1200"/>
    <path d="M0 140 H1200"/>
    <path d="M0 210 H1200"/>
    <path d="M0 280 H1200"/>
    <path d="M0 350 H1200"/>
    <path d="M0 420 H1200"/>
    <path d="M0 490 H1200"/>
    <path d="M0 560 H1200"/>
    <path d="M100 0 V630"/>
    <path d="M200 0 V630"/>
    <path d="M300 0 V630"/>
    <path d="M400 0 V630"/>
    <path d="M500 0 V630"/>
    <path d="M600 0 V630"/>
    <path d="M700 0 V630"/>
    <path d="M800 0 V630"/>
    <path d="M900 0 V630"/>
    <path d="M1000 0 V630"/>
    <path d="M1100 0 V630"/>
  </g>

  <g stroke="#cbd5e1" stroke-opacity="0.26" stroke-width="2" fill="none">
    <path d="M150 510 H1050"/>
    <path d="M150 510 L276 390 L456 390 L600 250 L764 250 L892 122 L1040 122"/>
    <path d="M276 390 V122 H520"/>
    <path d="M456 390 V520 H724"/>
    <path d="M764 250 V488 H1010"/>
    <path d="M600 250 V122"/>
    <path d="M892 122 V510"/>
  </g>

  <g stroke="url(#amber)" stroke-width="6" fill="none" stroke-linecap="round" stroke-linejoin="round">
    <path d="M150 510 L276 390 L456 390 L600 250 L764 250 L892 122 L1040 122"/>
  </g>

  <g fill="#f59e0b">
    <circle cx="150" cy="510" r="17"/>
    <circle cx="276" cy="390" r="17"/>
    <circle cx="456" cy="390" r="17"/>
    <circle cx="600" cy="250" r="17"/>
    <circle cx="764" cy="250" r="17"/>
    <circle cx="892" cy="122" r="17"/>
    <circle cx="1040" cy="122" r="17"/>
  </g>

  <g fill="#fde68a" opacity="0.45" filter="url(#glow)">
    <circle cx="150" cy="510" r="28"/>
    <circle cx="276" cy="390" r="28"/>
    <circle cx="456" cy="390" r="28"/>
    <circle cx="600" cy="250" r="28"/>
    <circle cx="764" cy="250" r="28"/>
    <circle cx="892" cy="122" r="28"/>
    <circle cx="1040" cy="122" r="28"/>
  </g>

  <g font-family="'Courier New', monospace" font-size="18" fill="#fcd34d" opacity="0.8">
    <text x="188" y="544">01</text>
    <text x="314" y="424">02</text>
    <text x="494" y="424">03</text>
    <text x="638" y="284">04</text>
    <text x="802" y="284">05</text>
    <text x="930" y="156">06</text>
    <text x="1078" y="156">07</text>
  </g>

  <rect x="122" y="92" width="310" height="52" rx="26" fill="#0f172a" stroke="#f59e0b" stroke-opacity="0.4"/>
  <text x="277" y="126" font-family="'Arial Black', Arial, sans-serif" font-size="22" fill="#fde68a" text-anchor="middle" letter-spacing="5">PLATFORM NOTES</text>
</svg>
