<svg xmlns="http://www.w3.org/2000/svg" viewBox="0 0 1200 630" width="1200" height="630">
  <defs>
    <linearGradient id="bg" x1="0%" y1="0%" x2="100%" y2="100%">
      <stop offset="0%" stop-color="#022c22" />
      <stop offset="100%" stop-color="#064e3b" />
    </linearGradient>
    <filter id="glow">
      <feGaussianBlur stdDeviation="30" result="blur" />
      <feMerge><feMergeNode in="blur" /><feMergeNode in="SourceGraphic" /></feMerge>
    </filter>
    <filter id="textShadow">
      <feDropShadow dx="0" dy="2" stdDeviation="6" flood-color="#022c22" flood-opacity="0.8" />
    </filter>
  </defs>

  <!-- Background -->
  <rect width="1200" height="630" fill="url(#bg)" />

  <!-- Generative shapes -->
  <polygon points="31.2,-18.0 31.2,18.0 0.0,36.0 -31.2,18.0 -31.2,-18.0 -0.0,-36.0" fill="#10b981" opacity="0.19" />
<polygon points="100.5,-18.0 100.5,18.0 69.3,36.0 38.1,18.0 38.1,-18.0 69.3,-36.0" fill="#059669" opacity="0.06" />
<polygon points="239.0,-18.0 239.0,18.0 207.8,36.0 176.7,18.0 176.7,-18.0 207.8,-36.0" fill="#10b981" opacity="0.20" />
<polygon points="308.3,-18.0 308.3,18.0 277.1,36.0 246.0,18.0 246.0,-18.0 277.1,-36.0" fill="#10b981" opacity="0.12" />
<polygon points="585.4,-18.0 585.4,18.0 554.3,36.0 523.1,18.0 523.1,-18.0 554.3,-36.0" fill="#10b981" opacity="0.22" />
<polygon points="724.0,-18.0 724.0,18.0 692.8,36.0 661.6,18.0 661.6,-18.0 692.8,-36.0" fill="#34d399" opacity="0.20" />
<polygon points="862.6,-18.0 862.6,18.0 831.4,36.0 800.2,18.0 800.2,-18.0 831.4,-36.0" fill="#34d399" opacity="0.07" />
<polygon points="1001.1,-18.0 1001.1,18.0 969.9,36.0 938.8,18.0 938.8,-18.0 969.9,-36.0" fill="#10b981" opacity="0.20" />
<polygon points="1070.4,-18.0 1070.4,18.0 1039.2,36.0 1008.1,18.0 1008.1,-18.0 1039.2,-36.0" fill="#10b981" opacity="0.13" />
<polygon points="1139.7,-18.0 1139.7,18.0 1108.5,36.0 1077.3,18.0 1077.3,-18.0 1108.5,-36.0" fill="#10b981" opacity="0.17" />
<polygon points="1278.3,-18.0 1278.3,18.0 1247.1,36.0 1215.9,18.0 1215.9,-18.0 1247.1,-36.0" fill="#34d399" opacity="0.09" />
<polygon points="204.4,42.0 204.4,78.0 173.2,96.0 142.0,78.0 142.0,42.0 173.2,24.0" fill="#34d399" opacity="0.15" />
<polygon points="342.9,42.0 342.9,78.0 311.8,96.0 280.6,78.0 280.6,42.0 311.8,24.0" fill="#10b981" opacity="0.13" />
<polygon points="412.2,42.0 412.2,78.0 381.1,96.0 349.9,78.0 349.9,42.0 381.1,24.0" fill="#10b981" opacity="0.07" />
<polygon points="481.5,42.0 481.5,78.0 450.3,96.0 419.2,78.0 419.2,42.0 450.3,24.0" fill="#059669" opacity="0.16" />
<polygon points="620.1,42.0 620.1,78.0 588.9,96.0 557.7,78.0 557.7,42.0 588.9,24.0" fill="#10b981" opacity="0.14" />
<polygon points="689.4,42.0 689.4,78.0 658.2,96.0 627.0,78.0 627.0,42.0 658.2,24.0" fill="#059669" opacity="0.10" />
<polygon points="758.6,42.0 758.6,78.0 727.5,96.0 696.3,78.0 696.3,42.0 727.5,24.0" fill="#059669" opacity="0.21" />
<polygon points="897.2,42.0 897.2,78.0 866.0,96.0 834.8,78.0 834.8,42.0 866.0,24.0" fill="#059669" opacity="0.19" />
<polygon points="1174.3,42.0 1174.3,78.0 1143.2,96.0 1112.0,78.0 1112.0,42.0 1143.2,24.0" fill="#10b981" opacity="0.10" />
<polygon points="1312.9,42.0 1312.9,78.0 1281.7,96.0 1250.5,78.0 1250.5,42.0 1281.7,24.0" fill="#059669" opacity="0.10" />
<polygon points="31.2,102.0 31.2,138.0 0.0,156.0 -31.2,138.0 -31.2,102.0 -0.0,84.0" fill="#059669" opacity="0.16" />
<polygon points="100.5,102.0 100.5,138.0 69.3,156.0 38.1,138.0 38.1,102.0 69.3,84.0" fill="#34d399" opacity="0.17" />
<polygon points="169.7,102.0 169.7,138.0 138.6,156.0 107.4,138.0 107.4,102.0 138.6,84.0" fill="#059669" opacity="0.06" />
<polygon points="239.0,102.0 239.0,138.0 207.8,156.0 176.7,138.0 176.7,102.0 207.8,84.0" fill="#059669" opacity="0.10" />
<polygon points="308.3,102.0 308.3,138.0 277.1,156.0 246.0,138.0 246.0,102.0 277.1,84.0" fill="#10b981" opacity="0.08" />
<polygon points="377.6,102.0 377.6,138.0 346.4,156.0 315.2,138.0 315.2,102.0 346.4,84.0" fill="#059669" opacity="0.16" />
<polygon points="446.9,102.0 446.9,138.0 415.7,156.0 384.5,138.0 384.5,102.0 415.7,84.0" fill="#10b981" opacity="0.18" />
<polygon points="516.2,102.0 516.2,138.0 485.0,156.0 453.8,138.0 453.8,102.0 485.0,84.0" fill="#10b981" opacity="0.17" />
<polygon points="1070.4,102.0 1070.4,138.0 1039.2,156.0 1008.1,138.0 1008.1,102.0 1039.2,84.0" fill="#34d399" opacity="0.15" />
<polygon points="1139.7,102.0 1139.7,138.0 1108.5,156.0 1077.3,138.0 1077.3,102.0 1108.5,84.0" fill="#34d399" opacity="0.05" />
<polygon points="1278.3,102.0 1278.3,138.0 1247.1,156.0 1215.9,138.0 1215.9,102.0 1247.1,84.0" fill="#34d399" opacity="0.11" />
<polygon points="65.8,162.0 65.8,198.0 34.6,216.0 3.5,198.0 3.5,162.0 34.6,144.0" fill="#34d399" opacity="0.08" />
<polygon points="135.1,162.0 135.1,198.0 103.9,216.0 72.7,198.0 72.7,162.0 103.9,144.0" fill="#059669" opacity="0.13" />
<polygon points="273.7,162.0 273.7,198.0 242.5,216.0 211.3,198.0 211.3,162.0 242.5,144.0" fill="#10b981" opacity="0.25" />
<polygon points="342.9,162.0 342.9,198.0 311.8,216.0 280.6,198.0 280.6,162.0 311.8,144.0" fill="#34d399" opacity="0.06" />
<polygon points="412.2,162.0 412.2,198.0 381.1,216.0 349.9,198.0 349.9,162.0 381.1,144.0" fill="#059669" opacity="0.22" />
<polygon points="481.5,162.0 481.5,198.0 450.3,216.0 419.2,198.0 419.2,162.0 450.3,144.0" fill="#34d399" opacity="0.23" />
<polygon points="550.8,162.0 550.8,198.0 519.6,216.0 488.4,198.0 488.4,162.0 519.6,144.0" fill="#34d399" opacity="0.10" />
<polygon points="689.4,162.0 689.4,198.0 658.2,216.0 627.0,198.0 627.0,162.0 658.2,144.0" fill="#059669" opacity="0.15" />
<polygon points="827.9,162.0 827.9,198.0 796.7,216.0 765.6,198.0 765.6,162.0 796.7,144.0" fill="#059669" opacity="0.07" />
<polygon points="966.5,162.0 966.5,198.0 935.3,216.0 904.1,198.0 904.1,162.0 935.3,144.0" fill="#34d399" opacity="0.23" />
<polygon points="1035.8,162.0 1035.8,198.0 1004.6,216.0 973.4,198.0 973.4,162.0 1004.6,144.0" fill="#34d399" opacity="0.09" />
<polygon points="1174.3,162.0 1174.3,198.0 1143.2,216.0 1112.0,198.0 1112.0,162.0 1143.2,144.0" fill="#34d399" opacity="0.05" />
<polygon points="1243.6,162.0 1243.6,198.0 1212.4,216.0 1181.3,198.0 1181.3,162.0 1212.4,144.0" fill="#059669" opacity="0.19" />
<polygon points="169.7,222.0 169.7,258.0 138.6,276.0 107.4,258.0 107.4,222.0 138.6,204.0" fill="#10b981" opacity="0.13" />
<polygon points="239.0,222.0 239.0,258.0 207.8,276.0 176.7,258.0 176.7,222.0 207.8,204.0" fill="#059669" opacity="0.19" />
<polygon points="377.6,222.0 377.6,258.0 346.4,276.0 315.2,258.0 315.2,222.0 346.4,204.0" fill="#059669" opacity="0.25" />
<polygon points="654.7,222.0 654.7,258.0 623.5,276.0 592.4,258.0 592.4,222.0 623.5,204.0" fill="#34d399" opacity="0.07" />
<polygon points="793.3,222.0 793.3,258.0 762.1,276.0 730.9,258.0 730.9,222.0 762.1,204.0" fill="#059669" opacity="0.07" />
<polygon points="862.6,222.0 862.6,258.0 831.4,276.0 800.2,258.0 800.2,222.0 831.4,204.0" fill="#059669" opacity="0.17" />
<polygon points="1070.4,222.0 1070.4,258.0 1039.2,276.0 1008.1,258.0 1008.1,222.0 1039.2,204.0" fill="#10b981" opacity="0.16" />
<polygon points="65.8,282.0 65.8,318.0 34.6,336.0 3.5,318.0 3.5,282.0 34.6,264.0" fill="#059669" opacity="0.15" />
<polygon points="135.1,282.0 135.1,318.0 103.9,336.0 72.7,318.0 72.7,282.0 103.9,264.0" fill="#10b981" opacity="0.08" />
<polygon points="342.9,282.0 342.9,318.0 311.8,336.0 280.6,318.0 280.6,282.0 311.8,264.0" fill="#10b981" opacity="0.21" />
<polygon points="412.2,282.0 412.2,318.0 381.1,336.0 349.9,318.0 349.9,282.0 381.1,264.0" fill="#059669" opacity="0.11" />
<polygon points="481.5,282.0 481.5,318.0 450.3,336.0 419.2,318.0 419.2,282.0 450.3,264.0" fill="#34d399" opacity="0.16" />
<polygon points="550.8,282.0 550.8,318.0 519.6,336.0 488.4,318.0 488.4,282.0 519.6,264.0" fill="#34d399" opacity="0.13" />
<polygon points="827.9,282.0 827.9,318.0 796.7,336.0 765.6,318.0 765.6,282.0 796.7,264.0" fill="#34d399" opacity="0.25" />
<polygon points="897.2,282.0 897.2,318.0 866.0,336.0 834.8,318.0 834.8,282.0 866.0,264.0" fill="#34d399" opacity="0.14" />
<polygon points="1105.0,282.0 1105.0,318.0 1073.9,336.0 1042.7,318.0 1042.7,282.0 1073.9,264.0" fill="#059669" opacity="0.21" />
<polygon points="1243.6,282.0 1243.6,318.0 1212.4,336.0 1181.3,318.0 1181.3,282.0 1212.4,264.0" fill="#10b981" opacity="0.12" />
<polygon points="31.2,342.0 31.2,378.0 0.0,396.0 -31.2,378.0 -31.2,342.0 -0.0,324.0" fill="#34d399" opacity="0.17" />
<polygon points="100.5,342.0 100.5,378.0 69.3,396.0 38.1,378.0 38.1,342.0 69.3,324.0" fill="#34d399" opacity="0.10" />
<polygon points="169.7,342.0 169.7,378.0 138.6,396.0 107.4,378.0 107.4,342.0 138.6,324.0" fill="#059669" opacity="0.11" />
<polygon points="239.0,342.0 239.0,378.0 207.8,396.0 176.7,378.0 176.7,342.0 207.8,324.0" fill="#34d399" opacity="0.20" />
<polygon points="377.6,342.0 377.6,378.0 346.4,396.0 315.2,378.0 315.2,342.0 346.4,324.0" fill="#34d399" opacity="0.12" />
<polygon points="446.9,342.0 446.9,378.0 415.7,396.0 384.5,378.0 384.5,342.0 415.7,324.0" fill="#34d399" opacity="0.11" />
<polygon points="724.0,342.0 724.0,378.0 692.8,396.0 661.6,378.0 661.6,342.0 692.8,324.0" fill="#10b981" opacity="0.18" />
<polygon points="862.6,342.0 862.6,378.0 831.4,396.0 800.2,378.0 800.2,342.0 831.4,324.0" fill="#10b981" opacity="0.18" />
<polygon points="931.8,342.0 931.8,378.0 900.7,396.0 869.5,378.0 869.5,342.0 900.7,324.0" fill="#10b981" opacity="0.18" />
<polygon points="1001.1,342.0 1001.1,378.0 969.9,396.0 938.8,378.0 938.8,342.0 969.9,324.0" fill="#059669" opacity="0.19" />
<polygon points="1139.7,342.0 1139.7,378.0 1108.5,396.0 1077.3,378.0 1077.3,342.0 1108.5,324.0" fill="#10b981" opacity="0.19" />
<polygon points="1278.3,342.0 1278.3,378.0 1247.1,396.0 1215.9,378.0 1215.9,342.0 1247.1,324.0" fill="#10b981" opacity="0.16" />
<polygon points="65.8,402.0 65.8,438.0 34.6,456.0 3.5,438.0 3.5,402.0 34.6,384.0" fill="#10b981" opacity="0.07" />
<polygon points="204.4,402.0 204.4,438.0 173.2,456.0 142.0,438.0 142.0,402.0 173.2,384.0" fill="#059669" opacity="0.07" />
<polygon points="273.7,402.0 273.7,438.0 242.5,456.0 211.3,438.0 211.3,402.0 242.5,384.0" fill="#10b981" opacity="0.17" />
<polygon points="342.9,402.0 342.9,438.0 311.8,456.0 280.6,438.0 280.6,402.0 311.8,384.0" fill="#059669" opacity="0.08" />
<polygon points="412.2,402.0 412.2,438.0 381.1,456.0 349.9,438.0 349.9,402.0 381.1,384.0" fill="#34d399" opacity="0.12" />
<polygon points="481.5,402.0 481.5,438.0 450.3,456.0 419.2,438.0 419.2,402.0 450.3,384.0" fill="#059669" opacity="0.17" />
<polygon points="550.8,402.0 550.8,438.0 519.6,456.0 488.4,438.0 488.4,402.0 519.6,384.0" fill="#10b981" opacity="0.09" />
<polygon points="689.4,402.0 689.4,438.0 658.2,456.0 627.0,438.0 627.0,402.0 658.2,384.0" fill="#059669" opacity="0.25" />
<polygon points="827.9,402.0 827.9,438.0 796.7,456.0 765.6,438.0 765.6,402.0 796.7,384.0" fill="#34d399" opacity="0.09" />
<polygon points="966.5,402.0 966.5,438.0 935.3,456.0 904.1,438.0 904.1,402.0 935.3,384.0" fill="#10b981" opacity="0.08" />
<polygon points="1035.8,402.0 1035.8,438.0 1004.6,456.0 973.4,438.0 973.4,402.0 1004.6,384.0" fill="#34d399" opacity="0.23" />
<polygon points="1243.6,402.0 1243.6,438.0 1212.4,456.0 1181.3,438.0 1181.3,402.0 1212.4,384.0" fill="#10b981" opacity="0.10" />
<polygon points="31.2,462.0 31.2,498.0 0.0,516.0 -31.2,498.0 -31.2,462.0 -0.0,444.0" fill="#059669" opacity="0.14" />
<polygon points="100.5,462.0 100.5,498.0 69.3,516.0 38.1,498.0 38.1,462.0 69.3,444.0" fill="#059669" opacity="0.20" />
<polygon points="377.6,462.0 377.6,498.0 346.4,516.0 315.2,498.0 315.2,462.0 346.4,444.0" fill="#10b981" opacity="0.19" />
<polygon points="585.4,462.0 585.4,498.0 554.3,516.0 523.1,498.0 523.1,462.0 554.3,444.0" fill="#059669" opacity="0.06" />
<polygon points="724.0,462.0 724.0,498.0 692.8,516.0 661.6,498.0 661.6,462.0 692.8,444.0" fill="#10b981" opacity="0.05" />
<polygon points="793.3,462.0 793.3,498.0 762.1,516.0 730.9,498.0 730.9,462.0 762.1,444.0" fill="#34d399" opacity="0.20" />
<polygon points="862.6,462.0 862.6,498.0 831.4,516.0 800.2,498.0 800.2,462.0 831.4,444.0" fill="#059669" opacity="0.05" />
<polygon points="931.8,462.0 931.8,498.0 900.7,516.0 869.5,498.0 869.5,462.0 900.7,444.0" fill="#059669" opacity="0.18" />
<polygon points="1070.4,462.0 1070.4,498.0 1039.2,516.0 1008.1,498.0 1008.1,462.0 1039.2,444.0" fill="#059669" opacity="0.18" />
<polygon points="1139.7,462.0 1139.7,498.0 1108.5,516.0 1077.3,498.0 1077.3,462.0 1108.5,444.0" fill="#34d399" opacity="0.10" />
<polygon points="1278.3,462.0 1278.3,498.0 1247.1,516.0 1215.9,498.0 1215.9,462.0 1247.1,444.0" fill="#059669" opacity="0.16" />
<polygon points="65.8,522.0 65.8,558.0 34.6,576.0 3.5,558.0 3.5,522.0 34.6,504.0" fill="#059669" opacity="0.24" />
<polygon points="135.1,522.0 135.1,558.0 103.9,576.0 72.7,558.0 72.7,522.0 103.9,504.0" fill="#10b981" opacity="0.07" />
<polygon points="204.4,522.0 204.4,558.0 173.2,576.0 142.0,558.0 142.0,522.0 173.2,504.0" fill="#10b981" opacity="0.25" />
<polygon points="342.9,522.0 342.9,558.0 311.8,576.0 280.6,558.0 280.6,522.0 311.8,504.0" fill="#34d399" opacity="0.18" />
<polygon points="412.2,522.0 412.2,558.0 381.1,576.0 349.9,558.0 349.9,522.0 381.1,504.0" fill="#059669" opacity="0.09" />
<polygon points="550.8,522.0 550.8,558.0 519.6,576.0 488.4,558.0 488.4,522.0 519.6,504.0" fill="#059669" opacity="0.20" />
<polygon points="620.1,522.0 620.1,558.0 588.9,576.0 557.7,558.0 557.7,522.0 588.9,504.0" fill="#34d399" opacity="0.23" />
<polygon points="689.4,522.0 689.4,558.0 658.2,576.0 627.0,558.0 627.0,522.0 658.2,504.0" fill="#059669" opacity="0.11" />
<polygon points="758.6,522.0 758.6,558.0 727.5,576.0 696.3,558.0 696.3,522.0 727.5,504.0" fill="#34d399" opacity="0.23" />
<polygon points="897.2,522.0 897.2,558.0 866.0,576.0 834.8,558.0 834.8,522.0 866.0,504.0" fill="#059669" opacity="0.13" />
<polygon points="1035.8,522.0 1035.8,558.0 1004.6,576.0 973.4,558.0 973.4,522.0 1004.6,504.0" fill="#34d399" opacity="0.15" />
<polygon points="1243.6,522.0 1243.6,558.0 1212.4,576.0 1181.3,558.0 1181.3,522.0 1212.4,504.0" fill="#34d399" opacity="0.17" />
<polygon points="1312.9,522.0 1312.9,558.0 1281.7,576.0 1250.5,558.0 1250.5,522.0 1281.7,504.0" fill="#34d399" opacity="0.24" />
<polygon points="100.5,582.0 100.5,618.0 69.3,636.0 38.1,618.0 38.1,582.0 69.3,564.0" fill="#10b981" opacity="0.19" />
<polygon points="169.7,582.0 169.7,618.0 138.6,636.0 107.4,618.0 107.4,582.0 138.6,564.0" fill="#059669" opacity="0.06" />
<polygon points="239.0,582.0 239.0,618.0 207.8,636.0 176.7,618.0 176.7,582.0 207.8,564.0" fill="#34d399" opacity="0.25" />
<polygon points="446.9,582.0 446.9,618.0 415.7,636.0 384.5,618.0 384.5,582.0 415.7,564.0" fill="#059669" opacity="0.06" />
<polygon points="516.2,582.0 516.2,618.0 485.0,636.0 453.8,618.0 453.8,582.0 485.0,564.0" fill="#34d399" opacity="0.11" />
<polygon points="724.0,582.0 724.0,618.0 692.8,636.0 661.6,618.0 661.6,582.0 692.8,564.0" fill="#10b981" opacity="0.25" />
<polygon points="793.3,582.0 793.3,618.0 762.1,636.0 730.9,618.0 730.9,582.0 762.1,564.0" fill="#10b981" opacity="0.06" />
<polygon points="862.6,582.0 862.6,618.0 831.4,636.0 800.2,618.0 800.2,582.0 831.4,564.0" fill="#10b981" opacity="0.21" />
<polygon points="931.8,582.0 931.8,618.0 900.7,636.0 869.5,618.0 869.5,582.0 900.7,564.0" fill="#34d399" opacity="0.05" />
<polygon points="1070.4,582.0 1070.4,618.0 1039.2,636.0 1008.1,618.0 1008.1,582.0 1039.2,564.0" fill="#34d399" opacity="0.17" />
<polygon points="1139.7,582.0 1139.7,618.0 1108.5,636.0 1077.3,618.0 1077.3,582.0 1108.5,564.0" fill="#059669" opacity="0.09" />
<polygon points="1209.0,582.0 1209.0,618.0 1177.8,636.0 1146.6,618.0 1146.6,582.0 1177.8,564.0" fill="#34d399" opacity="0.08" />
<polygon points="1278.3,582.0 1278.3,618.0 1247.1,636.0 1215.9,618.0 1215.9,582.0 1247.1,564.0" fill="#34d399" opacity="0.19" />
<polygon points="65.8,642.0 65.8,678.0 34.6,696.0 3.5,678.0 3.5,642.0 34.6,624.0" fill="#34d399" opacity="0.09" />
<polygon points="273.7,642.0 273.7,678.0 242.5,696.0 211.3,678.0 211.3,642.0 242.5,624.0" fill="#34d399" opacity="0.18" />
<polygon points="412.2,642.0 412.2,678.0 381.1,696.0 349.9,678.0 349.9,642.0 381.1,624.0" fill="#059669" opacity="0.10" />
<polygon points="550.8,642.0 550.8,678.0 519.6,696.0 488.4,678.0 488.4,642.0 519.6,624.0" fill="#34d399" opacity="0.11" />
<polygon points="620.1,642.0 620.1,678.0 588.9,696.0 557.7,678.0 557.7,642.0 588.9,624.0" fill="#059669" opacity="0.21" />
<polygon points="758.6,642.0 758.6,678.0 727.5,696.0 696.3,678.0 696.3,642.0 727.5,624.0" fill="#10b981" opacity="0.07" />
<polygon points="827.9,642.0 827.9,678.0 796.7,696.0 765.6,678.0 765.6,642.0 796.7,624.0" fill="#10b981" opacity="0.16" />
<polygon points="897.2,642.0 897.2,678.0 866.0,696.0 834.8,678.0 834.8,642.0 866.0,624.0" fill="#059669" opacity="0.06" />
<polygon points="966.5,642.0 966.5,678.0 935.3,696.0 904.1,678.0 904.1,642.0 935.3,624.0" fill="#34d399" opacity="0.07" />
<polygon points="1035.8,642.0 1035.8,678.0 1004.6,696.0 973.4,678.0 973.4,642.0 1004.6,624.0" fill="#34d399" opacity="0.14" />
<polygon points="1312.9,642.0 1312.9,678.0 1281.7,696.0 1250.5,678.0 1250.5,642.0 1281.7,624.0" fill="#059669" opacity="0.10" />


  <!-- Vignette -->
  <rect width="1200" height="630" fill="url(#bg)" opacity="0.3" />

  <!-- Category badge -->
  <rect x="48" y="40" width="174" height="28" rx="14" fill="#059669" opacity="0.9" />
  <text x="60" y="59" font-family="system-ui, -apple-system, sans-serif" font-size="12" font-weight="700" letter-spacing="1.5" text-transform="uppercase" fill="white">SCIENCE &amp; ARENA</text>

  <!-- Title -->
  <text x="48" y="550" font-family="system-ui, -apple-system, sans-serif" font-size="42" font-weight="800" fill="white" filter="url(#textShadow)" letter-spacing="-1">
    <tspan x="48" dy="0">The Physics Table Arena: Ten Personas,</tspan>
    <tspan x="48" dy="50">Five Fixes, One Vehicle</tspan>
  </text>

  <!-- spike.land watermark -->
  <text x="1152" y="606" font-family="system-ui, -apple-system, sans-serif" font-size="14" font-weight="600" fill="#34d399" opacity="0.6" text-anchor="end">spike.land</text>
</svg>