<svg xmlns="http://www.w3.org/2000/svg" viewBox="0 0 1200 630" width="1200" height="630">
  <defs>
    <linearGradient id="bg" x1="0%" y1="0%" x2="100%" y2="100%">
      <stop offset="0%" stop-color="#1c1917" />
      <stop offset="100%" stop-color="#27272a" />
    </linearGradient>
    <filter id="glow">
      <feGaussianBlur stdDeviation="30" result="blur" />
      <feMerge><feMergeNode in="blur" /><feMergeNode in="SourceGraphic" /></feMerge>
    </filter>
    <filter id="textShadow">
      <feDropShadow dx="0" dy="2" stdDeviation="6" flood-color="#1c1917" flood-opacity="0.8" />
    </filter>
  </defs>

  <!-- Background -->
  <rect width="1200" height="630" fill="url(#bg)" />

  <!-- Generative shapes -->
  <polygon points="43.6,-25.2 43.6,25.2 0.0,50.4 -43.6,25.2 -43.6,-25.2 -0.0,-50.4" fill="#f43f5e" opacity="0.05" />
<polygon points="237.6,-25.2 237.6,25.2 194.0,50.4 150.3,25.2 150.3,-25.2 194.0,-50.4" fill="#fb7185" opacity="0.06" />
<polygon points="431.6,-25.2 431.6,25.2 388.0,50.4 344.3,25.2 344.3,-25.2 388.0,-50.4" fill="#e11d48" opacity="0.22" />
<polygon points="625.6,-25.2 625.6,25.2 582.0,50.4 538.3,25.2 538.3,-25.2 582.0,-50.4" fill="#f43f5e" opacity="0.17" />
<polygon points="722.6,-25.2 722.6,25.2 679.0,50.4 635.3,25.2 635.3,-25.2 679.0,-50.4" fill="#fb7185" opacity="0.08" />
<polygon points="819.6,-25.2 819.6,25.2 776.0,50.4 732.3,25.2 732.3,-25.2 776.0,-50.4" fill="#f43f5e" opacity="0.14" />
<polygon points="1304.6,-25.2 1304.6,25.2 1260.9,50.4 1217.3,25.2 1217.3,-25.2 1260.9,-50.4" fill="#fb7185" opacity="0.21" />
<polygon points="189.1,58.8 189.1,109.2 145.5,134.4 101.8,109.2 101.8,58.8 145.5,33.6" fill="#f43f5e" opacity="0.19" />
<polygon points="286.1,58.8 286.1,109.2 242.5,134.4 198.8,109.2 198.8,58.8 242.5,33.6" fill="#e11d48" opacity="0.15" />
<polygon points="383.1,58.8 383.1,109.2 339.5,134.4 295.8,109.2 295.8,58.8 339.5,33.6" fill="#f43f5e" opacity="0.15" />
<polygon points="577.1,58.8 577.1,109.2 533.5,134.4 489.8,109.2 489.8,58.8 533.5,33.6" fill="#fb7185" opacity="0.09" />
<polygon points="674.1,58.8 674.1,109.2 630.5,134.4 586.8,109.2 586.8,58.8 630.5,33.6" fill="#f43f5e" opacity="0.05" />
<polygon points="431.6,142.8 431.6,193.2 388.0,218.4 344.3,193.2 344.3,142.8 388.0,117.6" fill="#fb7185" opacity="0.18" />
<polygon points="528.6,142.8 528.6,193.2 485.0,218.4 441.3,193.2 441.3,142.8 485.0,117.6" fill="#e11d48" opacity="0.19" />
<polygon points="625.6,142.8 625.6,193.2 582.0,218.4 538.3,193.2 538.3,142.8 582.0,117.6" fill="#f43f5e" opacity="0.17" />
<polygon points="722.6,142.8 722.6,193.2 679.0,218.4 635.3,193.2 635.3,142.8 679.0,117.6" fill="#f43f5e" opacity="0.15" />
<polygon points="916.6,142.8 916.6,193.2 873.0,218.4 829.3,193.2 829.3,142.8 873.0,117.6" fill="#fb7185" opacity="0.15" />
<polygon points="1013.6,142.8 1013.6,193.2 969.9,218.4 926.3,193.2 926.3,142.8 969.9,117.6" fill="#fb7185" opacity="0.21" />
<polygon points="1304.6,142.8 1304.6,193.2 1260.9,218.4 1217.3,193.2 1217.3,142.8 1260.9,117.6" fill="#fb7185" opacity="0.13" />
<polygon points="189.1,226.8 189.1,277.2 145.5,302.4 101.8,277.2 101.8,226.8 145.5,201.6" fill="#e11d48" opacity="0.13" />
<polygon points="286.1,226.8 286.1,277.2 242.5,302.4 198.8,277.2 198.8,226.8 242.5,201.6" fill="#e11d48" opacity="0.13" />
<polygon points="383.1,226.8 383.1,277.2 339.5,302.4 295.8,277.2 295.8,226.8 339.5,201.6" fill="#e11d48" opacity="0.05" />
<polygon points="480.1,226.8 480.1,277.2 436.5,302.4 392.8,277.2 392.8,226.8 436.5,201.6" fill="#fb7185" opacity="0.18" />
<polygon points="577.1,226.8 577.1,277.2 533.5,302.4 489.8,277.2 489.8,226.8 533.5,201.6" fill="#fb7185" opacity="0.24" />
<polygon points="868.1,226.8 868.1,277.2 824.5,302.4 780.8,277.2 780.8,226.8 824.5,201.6" fill="#e11d48" opacity="0.14" />
<polygon points="965.1,226.8 965.1,277.2 921.5,302.4 877.8,277.2 877.8,226.8 921.5,201.6" fill="#f43f5e" opacity="0.11" />
<polygon points="1159.1,226.8 1159.1,277.2 1115.4,302.4 1071.8,277.2 1071.8,226.8 1115.4,201.6" fill="#e11d48" opacity="0.23" />
<polygon points="43.6,310.8 43.6,361.2 0.0,386.4 -43.6,361.2 -43.6,310.8 -0.0,285.6" fill="#f43f5e" opacity="0.07" />
<polygon points="140.6,310.8 140.6,361.2 97.0,386.4 53.3,361.2 53.3,310.8 97.0,285.6" fill="#e11d48" opacity="0.17" />
<polygon points="237.6,310.8 237.6,361.2 194.0,386.4 150.3,361.2 150.3,310.8 194.0,285.6" fill="#e11d48" opacity="0.09" />
<polygon points="334.6,310.8 334.6,361.2 291.0,386.4 247.3,361.2 247.3,310.8 291.0,285.6" fill="#e11d48" opacity="0.14" />
<polygon points="431.6,310.8 431.6,361.2 388.0,386.4 344.3,361.2 344.3,310.8 388.0,285.6" fill="#f43f5e" opacity="0.15" />
<polygon points="528.6,310.8 528.6,361.2 485.0,386.4 441.3,361.2 441.3,310.8 485.0,285.6" fill="#e11d48" opacity="0.21" />
<polygon points="722.6,310.8 722.6,361.2 679.0,386.4 635.3,361.2 635.3,310.8 679.0,285.6" fill="#e11d48" opacity="0.19" />
<polygon points="819.6,310.8 819.6,361.2 776.0,386.4 732.3,361.2 732.3,310.8 776.0,285.6" fill="#f43f5e" opacity="0.24" />
<polygon points="1304.6,310.8 1304.6,361.2 1260.9,386.4 1217.3,361.2 1217.3,310.8 1260.9,285.6" fill="#f43f5e" opacity="0.20" />
<polygon points="286.1,394.8 286.1,445.2 242.5,470.4 198.8,445.2 198.8,394.8 242.5,369.6" fill="#e11d48" opacity="0.13" />
<polygon points="383.1,394.8 383.1,445.2 339.5,470.4 295.8,445.2 295.8,394.8 339.5,369.6" fill="#fb7185" opacity="0.14" />
<polygon points="480.1,394.8 480.1,445.2 436.5,470.4 392.8,445.2 392.8,394.8 436.5,369.6" fill="#f43f5e" opacity="0.15" />
<polygon points="577.1,394.8 577.1,445.2 533.5,470.4 489.8,445.2 489.8,394.8 533.5,369.6" fill="#f43f5e" opacity="0.17" />
<polygon points="674.1,394.8 674.1,445.2 630.5,470.4 586.8,445.2 586.8,394.8 630.5,369.6" fill="#f43f5e" opacity="0.23" />
<polygon points="771.1,394.8 771.1,445.2 727.5,470.4 683.8,445.2 683.8,394.8 727.5,369.6" fill="#e11d48" opacity="0.09" />
<polygon points="965.1,394.8 965.1,445.2 921.5,470.4 877.8,445.2 877.8,394.8 921.5,369.6" fill="#f43f5e" opacity="0.16" />
<polygon points="1159.1,394.8 1159.1,445.2 1115.4,470.4 1071.8,445.2 1071.8,394.8 1115.4,369.6" fill="#fb7185" opacity="0.18" />
<polygon points="1353.1,394.8 1353.1,445.2 1309.4,470.4 1265.8,445.2 1265.8,394.8 1309.4,369.6" fill="#e11d48" opacity="0.12" />
<polygon points="140.6,478.8 140.6,529.2 97.0,554.4 53.3,529.2 53.3,478.8 97.0,453.6" fill="#fb7185" opacity="0.12" />
<polygon points="237.6,478.8 237.6,529.2 194.0,554.4 150.3,529.2 150.3,478.8 194.0,453.6" fill="#e11d48" opacity="0.15" />
<polygon points="334.6,478.8 334.6,529.2 291.0,554.4 247.3,529.2 247.3,478.8 291.0,453.6" fill="#fb7185" opacity="0.16" />
<polygon points="431.6,478.8 431.6,529.2 388.0,554.4 344.3,529.2 344.3,478.8 388.0,453.6" fill="#e11d48" opacity="0.12" />
<polygon points="528.6,478.8 528.6,529.2 485.0,554.4 441.3,529.2 441.3,478.8 485.0,453.6" fill="#f43f5e" opacity="0.14" />
<polygon points="625.6,478.8 625.6,529.2 582.0,554.4 538.3,529.2 538.3,478.8 582.0,453.6" fill="#f43f5e" opacity="0.15" />
<polygon points="722.6,478.8 722.6,529.2 679.0,554.4 635.3,529.2 635.3,478.8 679.0,453.6" fill="#fb7185" opacity="0.22" />
<polygon points="819.6,478.8 819.6,529.2 776.0,554.4 732.3,529.2 732.3,478.8 776.0,453.6" fill="#f43f5e" opacity="0.21" />
<polygon points="1013.6,478.8 1013.6,529.2 969.9,554.4 926.3,529.2 926.3,478.8 969.9,453.6" fill="#fb7185" opacity="0.11" />
<polygon points="1110.6,478.8 1110.6,529.2 1066.9,554.4 1023.3,529.2 1023.3,478.8 1066.9,453.6" fill="#f43f5e" opacity="0.20" />
<polygon points="1207.6,478.8 1207.6,529.2 1163.9,554.4 1120.3,529.2 1120.3,478.8 1163.9,453.6" fill="#e11d48" opacity="0.24" />
<polygon points="1304.6,478.8 1304.6,529.2 1260.9,554.4 1217.3,529.2 1217.3,478.8 1260.9,453.6" fill="#fb7185" opacity="0.19" />
<polygon points="286.1,562.8 286.1,613.2 242.5,638.4 198.8,613.2 198.8,562.8 242.5,537.6" fill="#fb7185" opacity="0.19" />
<polygon points="383.1,562.8 383.1,613.2 339.5,638.4 295.8,613.2 295.8,562.8 339.5,537.6" fill="#e11d48" opacity="0.16" />
<polygon points="480.1,562.8 480.1,613.2 436.5,638.4 392.8,613.2 392.8,562.8 436.5,537.6" fill="#f43f5e" opacity="0.06" />
<polygon points="577.1,562.8 577.1,613.2 533.5,638.4 489.8,613.2 489.8,562.8 533.5,537.6" fill="#fb7185" opacity="0.12" />
<polygon points="771.1,562.8 771.1,613.2 727.5,638.4 683.8,613.2 683.8,562.8 727.5,537.6" fill="#fb7185" opacity="0.11" />
<polygon points="868.1,562.8 868.1,613.2 824.5,638.4 780.8,613.2 780.8,562.8 824.5,537.6" fill="#f43f5e" opacity="0.25" />
<polygon points="1159.1,562.8 1159.1,613.2 1115.4,638.4 1071.8,613.2 1071.8,562.8 1115.4,537.6" fill="#fb7185" opacity="0.23" />
<polygon points="1256.1,562.8 1256.1,613.2 1212.4,638.4 1168.8,613.2 1168.8,562.8 1212.4,537.6" fill="#e11d48" opacity="0.24" />
<polygon points="140.6,646.8 140.6,697.2 97.0,722.4 53.3,697.2 53.3,646.8 97.0,621.6" fill="#f43f5e" opacity="0.22" />
<polygon points="431.6,646.8 431.6,697.2 388.0,722.4 344.3,697.2 344.3,646.8 388.0,621.6" fill="#e11d48" opacity="0.22" />
<polygon points="528.6,646.8 528.6,697.2 485.0,722.4 441.3,697.2 441.3,646.8 485.0,621.6" fill="#f43f5e" opacity="0.22" />
<polygon points="625.6,646.8 625.6,697.2 582.0,722.4 538.3,697.2 538.3,646.8 582.0,621.6" fill="#e11d48" opacity="0.20" />
<polygon points="722.6,646.8 722.6,697.2 679.0,722.4 635.3,697.2 635.3,646.8 679.0,621.6" fill="#fb7185" opacity="0.08" />
<polygon points="916.6,646.8 916.6,697.2 873.0,722.4 829.3,697.2 829.3,646.8 873.0,621.6" fill="#fb7185" opacity="0.18" />
<polygon points="1013.6,646.8 1013.6,697.2 969.9,722.4 926.3,697.2 926.3,646.8 969.9,621.6" fill="#fb7185" opacity="0.13" />
<polygon points="1207.6,646.8 1207.6,697.2 1163.9,722.4 1120.3,697.2 1120.3,646.8 1163.9,621.6" fill="#f43f5e" opacity="0.10" />
<polygon points="1304.6,646.8 1304.6,697.2 1260.9,722.4 1217.3,697.2 1217.3,646.8 1260.9,621.6" fill="#e11d48" opacity="0.07" />


  <!-- Vignette -->
  <rect width="1200" height="630" fill="url(#bg)" opacity="0.3" />

  <!-- Category badge -->
  <rect x="48" y="40" width="124" height="28" rx="14" fill="#e11d48" opacity="0.9" />
  <text x="60" y="59" font-family="system-ui, -apple-system, sans-serif" font-size="12" font-weight="700" letter-spacing="1.5" text-transform="uppercase" fill="white">SPIKE.LAND</text>

  <!-- Title -->
  <text x="48" y="550" font-family="system-ui, -apple-system, sans-serif" font-size="42" font-weight="800" fill="white" filter="url(#textShadow)" letter-spacing="-1">
    <tspan x="48" dy="0">The Chemist in the Loop — Cinematic</tspan>
    <tspan x="48" dy="50">Script</tspan>
  </text>

  <!-- spike.land watermark -->
  <text x="1152" y="606" font-family="system-ui, -apple-system, sans-serif" font-size="14" font-weight="600" fill="#fb7185" opacity="0.6" text-anchor="end">spike.land</text>
</svg>