<svg xmlns="http://www.w3.org/2000/svg" viewBox="0 0 1200 630" width="1200" height="630">
  <defs>
    <linearGradient id="bg" x1="0%" y1="0%" x2="100%" y2="100%">
      <stop offset="0%" stop-color="#0f172a" />
      <stop offset="100%" stop-color="#1e293b" />
    </linearGradient>
    <filter id="glow">
      <feGaussianBlur stdDeviation="30" result="blur" />
      <feMerge><feMergeNode in="blur" /><feMergeNode in="SourceGraphic" /></feMerge>
    </filter>
    <filter id="textShadow">
      <feDropShadow dx="0" dy="2" stdDeviation="6" flood-color="#0f172a" flood-opacity="0.8" />
    </filter>
  </defs>

  <!-- Background -->
  <rect width="1200" height="630" fill="url(#bg)" />

  <!-- Generative shapes -->
  <path d="M 0 80 L 0 80.0 L 20 97.9 L 40 88.8 L 60 114.4 L 80 111.2 L 100 133.3 L 120 135.1 L 140 109.7 L 160 130.9 L 180 146.5 L 200 155.7 L 220 102.5 L 240 135.7 L 260 101.9 L 280 60.6 L 300 113.6 L 320 129.6 L 340 111.2 L 360 13.0 L 380 120.9 L 400 73.8 L 420 82.1 L 440 10.6 L 460 45.8 L 480 26.2 L 500 21.1 L 520 70.3 L 540 30.3 L 560 60.1 L 580 32.5 L 600 123.6 L 620 58.5 L 640 58.7 L 660 42.0 L 680 40.4 L 700 8.1 L 720 144.7 L 740 90.2 L 760 57.3 L 780 100.8 L 800 25.7 L 820 23.6 L 840 58.6 L 860 77.3 L 880 95.5 L 900 73.1 L 920 139.4 L 940 46.9 L 960 52.8 L 980 113.1 L 1000 54.2 L 1020 74.5 L 1040 99.1 L 1060 9.7 L 1080 62.9 L 1100 34.2 L 1120 148.8 L 1140 36.7 L 1160 114.3 L 1180 60.2 L 1200 121.9" fill="none" stroke="#475569" stroke-width="2.1" opacity="0.32" />
<path d="M 0 150 L 0 198.3 L 20 192.1 L 40 178.5 L 60 183.9 L 80 197.2 L 100 219.4 L 120 213.3 L 140 216.4 L 160 208.2 L 180 213.6 L 200 192.1 L 220 143.0 L 240 201.4 L 260 176.1 L 280 169.2 L 300 173.5 L 320 144.5 L 340 163.7 L 360 101.9 L 380 108.0 L 400 140.0 L 420 121.2 L 440 147.9 L 460 95.7 L 480 103.6 L 500 200.2 L 520 207.6 L 540 89.6 L 560 99.1 L 580 158.3 L 600 201.1 L 620 124.3 L 640 173.9 L 660 84.2 L 680 118.3 L 700 208.4 L 720 129.9 L 740 116.2 L 760 127.6 L 780 134.8 L 800 114.1 L 820 141.6 L 840 207.6 L 860 180.3 L 880 125.7 L 900 112.8 L 920 185.6 L 940 193.1 L 960 190.7 L 980 137.3 L 1000 136.8 L 1020 172.3 L 1040 128.4 L 1060 175.8 L 1080 109.6 L 1100 179.1 L 1120 199.0 L 1140 189.2 L 1160 226.0 L 1180 131.8 L 1200 85.1" fill="none" stroke="#64748b" stroke-width="2.3" opacity="0.27" />
<path d="M 0 220 L 0 279.7 L 20 270.9 L 40 261.7 L 60 289.0 L 80 254.4 L 100 235.9 L 120 282.7 L 140 238.9 L 160 228.0 L 180 228.7 L 200 174.4 L 220 242.0 L 240 213.4 L 260 186.3 L 280 199.3 L 300 185.8 L 320 175.6 L 340 217.9 L 360 180.2 L 380 189.8 L 400 185.4 L 420 215.3 L 440 158.0 L 460 220.9 L 480 215.0 L 500 270.5 L 520 179.7 L 540 289.8 L 560 255.1 L 580 242.9 L 600 161.6 L 620 247.5 L 640 278.1 L 660 229.7 L 680 192.7 L 700 250.0 L 720 280.1 L 740 239.4 L 760 225.8 L 780 187.6 L 800 161.6 L 820 185.3 L 840 180.2 L 860 222.7 L 880 216.2 L 900 257.0 L 920 140.8 L 940 240.9 L 960 203.7 L 980 242.3 L 1000 266.9 L 1020 234.4 L 1040 292.9 L 1060 181.1 L 1080 240.2 L 1100 153.8 L 1120 263.3 L 1140 247.5 L 1160 193.2 L 1180 221.4 L 1200 160.1" fill="none" stroke="#94a3b8" stroke-width="2.9" opacity="0.18" />
<path d="M 0 290 L 0 332.1 L 20 315.5 L 40 329.5 L 60 310.1 L 80 291.4 L 100 296.3 L 120 276.7 L 140 270.8 L 160 295.9 L 180 280.3 L 200 229.8 L 220 234.0 L 240 256.9 L 260 219.3 L 280 267.9 L 300 270.5 L 320 281.1 L 340 248.8 L 360 284.8 L 380 244.2 L 400 343.5 L 420 314.6 L 440 232.5 L 460 274.8 L 480 306.5 L 500 282.4 L 520 259.1 L 540 320.8 L 560 327.4 L 580 312.4 L 600 324.2 L 620 323.2 L 640 279.5 L 660 257.6 L 680 353.6 L 700 347.6 L 720 316.2 L 740 335.4 L 760 343.7 L 780 351.6 L 800 358.0 L 820 359.2 L 840 264.1 L 860 305.2 L 880 305.5 L 900 262.4 L 920 215.5 L 940 336.3 L 960 226.8 L 980 249.2 L 1000 283.0 L 1020 344.9 L 1040 345.3 L 1060 280.5 L 1080 348.1 L 1100 279.7 L 1120 249.8 L 1140 274.2 L 1160 278.8 L 1180 261.0 L 1200 308.5" fill="none" stroke="#cbd5e1" stroke-width="2.2" opacity="0.28" />
<path d="M 0 360 L 0 384.7 L 20 370.5 L 40 358.6 L 60 342.9 L 80 314.8 L 100 344.3 L 120 344.1 L 140 305.9 L 160 328.3 L 180 315.0 L 200 289.5 L 220 298.7 L 240 294.1 L 260 352.2 L 280 329.7 L 300 327.2 L 320 357.5 L 340 391.2 L 360 381.0 L 380 295.0 L 400 330.7 L 420 369.7 L 440 325.1 L 460 416.8 L 480 394.5 L 500 358.8 L 520 405.0 L 540 404.8 L 560 386.4 L 580 392.0 L 600 402.2 L 620 389.2 L 640 409.7 L 660 426.4 L 680 394.9 L 700 403.5 L 720 433.9 L 740 309.3 L 760 406.0 L 780 320.8 L 800 310.1 L 820 308.4 L 840 323.5 L 860 409.3 L 880 314.8 L 900 386.5 L 920 385.4 L 940 415.4 L 960 404.5 L 980 434.2 L 1000 393.6 L 1020 322.3 L 1040 333.3 L 1060 408.1 L 1080 363.1 L 1100 360.7 L 1120 418.4 L 1140 345.1 L 1160 322.5 L 1180 311.6 L 1200 360.2" fill="none" stroke="#475569" stroke-width="1.6" opacity="0.21" />
<path d="M 0 430 L 0 403.6 L 20 413.0 L 40 380.3 L 60 370.6 L 80 392.4 L 100 397.3 L 120 360.6 L 140 378.6 L 160 387.9 L 180 358.9 L 200 398.5 L 220 402.9 L 240 397.7 L 260 436.9 L 280 398.8 L 300 467.2 L 320 458.1 L 340 393.2 L 360 452.3 L 380 432.4 L 400 476.8 L 420 438.8 L 440 498.4 L 460 457.4 L 480 421.1 L 500 492.2 L 520 453.7 L 540 475.4 L 560 498.8 L 580 395.1 L 600 414.9 L 620 414.1 L 640 489.7 L 660 462.2 L 680 380.8 L 700 409.4 L 720 466.6 L 740 413.2 L 760 395.7 L 780 476.2 L 800 417.9 L 820 453.4 L 840 471.8 L 860 469.7 L 880 481.0 L 900 464.0 L 920 483.6 L 940 478.3 L 960 379.3 L 980 462.4 L 1000 411.7 L 1020 433.5 L 1040 425.8 L 1060 431.2 L 1080 461.6 L 1100 391.8 L 1120 405.6 L 1140 465.7 L 1160 497.1 L 1180 382.0 L 1200 438.8" fill="none" stroke="#64748b" stroke-width="1.3" opacity="0.30" />
<path d="M 0 500 L 0 435.1 L 20 447.3 L 40 432.9 L 60 422.7 L 80 465.3 L 100 463.0 L 120 443.6 L 140 451.3 L 160 465.5 L 180 477.4 L 200 457.0 L 220 480.4 L 240 482.2 L 260 491.7 L 280 489.4 L 300 552.8 L 320 562.7 L 340 553.4 L 360 556.2 L 380 518.3 L 400 529.5 L 420 491.0 L 440 494.1 L 460 484.4 L 480 496.3 L 500 516.1 L 520 570.4 L 540 561.2 L 560 466.7 L 580 537.1 L 600 442.3 L 620 458.6 L 640 454.7 L 660 546.3 L 680 493.4 L 700 466.8 L 720 576.9 L 740 550.4 L 760 472.6 L 780 544.2 L 800 488.4 L 820 444.3 L 840 525.2 L 860 507.7 L 880 438.8 L 900 559.0 L 920 534.4 L 940 558.2 L 960 465.5 L 980 452.8 L 1000 543.9 L 1020 502.8 L 1040 455.1 L 1060 445.5 L 1080 555.9 L 1100 466.6 L 1120 444.2 L 1140 460.5 L 1160 522.2 L 1180 425.0 L 1200 538.5" fill="none" stroke="#94a3b8" stroke-width="2.6" opacity="0.21" />
<path d="M 0 570 L 0 529.8 L 20 539.1 L 40 528.9 L 60 531.4 L 80 546.4 L 100 541.1 L 120 576.8 L 140 538.2 L 160 546.3 L 180 562.6 L 200 590.0 L 220 602.4 L 240 636.1 L 260 604.5 L 280 628.0 L 300 613.2 L 320 605.0 L 340 624.8 L 360 589.2 L 380 627.4 L 400 624.0 L 420 546.5 L 440 605.0 L 460 553.3 L 480 642.4 L 500 635.7 L 520 552.9 L 540 599.5 L 560 612.6 L 580 534.7 L 600 525.5 L 620 519.5 L 640 571.5 L 660 534.8 L 680 584.1 L 700 543.1 L 720 548.6 L 740 561.7 L 760 530.8 L 780 558.6 L 800 533.2 L 820 625.8 L 840 627.9 L 860 524.4 L 880 563.1 L 900 540.2 L 920 537.1 L 940 531.1 L 960 616.6 L 980 539.3 L 1000 525.6 L 1020 520.9 L 1040 614.4 L 1060 616.4 L 1080 534.3 L 1100 526.9 L 1120 580.3 L 1140 592.3 L 1160 605.9 L 1180 539.4 L 1200 632.1" fill="none" stroke="#cbd5e1" stroke-width="2.1" opacity="0.14" />


  <!-- Vignette -->
  <rect width="1200" height="630" fill="url(#bg)" opacity="0.3" />

  <!-- Category badge -->
  <rect x="48" y="40" width="134" height="28" rx="14" fill="#475569" opacity="0.9" />
  <text x="60" y="59" font-family="system-ui, -apple-system, sans-serif" font-size="12" font-weight="700" letter-spacing="1.5" text-transform="uppercase" fill="white">ENGINEERING</text>

  <!-- Title -->
  <text x="48" y="550" font-family="system-ui, -apple-system, sans-serif" font-size="42" font-weight="800" fill="white" filter="url(#textShadow)" letter-spacing="-1">
    <tspan x="48" dy="0">The Universal Interface Wasn&apos;t GraphQL</tspan>
  </text>

  <!-- spike.land watermark -->
  <text x="1152" y="606" font-family="system-ui, -apple-system, sans-serif" font-size="14" font-weight="600" fill="#94a3b8" opacity="0.6" text-anchor="end">spike.land</text>
</svg>