<svg xmlns="http://www.w3.org/2000/svg" viewBox="0 0 1200 630" width="1200" height="630">
  <defs>
    <linearGradient id="bg" x1="0%" y1="0%" x2="100%" y2="100%">
      <stop offset="0%" stop-color="#022c22" />
      <stop offset="100%" stop-color="#064e3b" />
    </linearGradient>
    <filter id="glow">
      <feGaussianBlur stdDeviation="30" result="blur" />
      <feMerge><feMergeNode in="blur" /><feMergeNode in="SourceGraphic" /></feMerge>
    </filter>
    <filter id="textShadow">
      <feDropShadow dx="0" dy="2" stdDeviation="6" flood-color="#022c22" flood-opacity="0.8" />
    </filter>
  </defs>

  <!-- Background -->
  <rect width="1200" height="630" fill="url(#bg)" />

  <!-- Generative shapes -->
  <circle cx="44.3" cy="40.4" r="1.3" fill="#34d399" opacity="0.13" />
<circle cx="42.6" cy="87.2" r="1.4" fill="#34d399" opacity="0.14" />
<circle cx="39.1" cy="122.7" r="1.5" fill="#34d399" opacity="0.15" />
<circle cx="37.9" cy="172.2" r="1.6" fill="#34d399" opacity="0.16" />
<circle cx="42.2" cy="207.0" r="1.6" fill="#34d399" opacity="0.16" />
<circle cx="38.8" cy="247.4" r="1.7" fill="#34d399" opacity="0.17" />
<circle cx="43.3" cy="298.4" r="1.7" fill="#34d399" opacity="0.17" />
<circle cx="40.9" cy="339.0" r="1.7" fill="#34d399" opacity="0.17" />
<circle cx="46.9" cy="377.5" r="1.7" fill="#34d399" opacity="0.17" />
<circle cx="38.6" cy="423.8" r="1.6" fill="#34d399" opacity="0.16" />
<circle cx="37.0" cy="460.8" r="1.6" fill="#34d399" opacity="0.16" />
<circle cx="41.2" cy="504.7" r="1.5" fill="#34d399" opacity="0.15" />
<circle cx="38.8" cy="546.5" r="1.4" fill="#34d399" opacity="0.14" />
<circle cx="40.2" cy="583.3" r="1.3" fill="#34d399" opacity="0.13" />
<circle cx="83.0" cy="38.8" r="1.5" fill="#34d399" opacity="0.15" />
<circle cx="85.7" cy="83.2" r="1.7" fill="#34d399" opacity="0.17" />
<circle cx="82.0" cy="128.8" r="1.8" fill="#34d399" opacity="0.18" />
<circle cx="82.9" cy="166.7" r="1.8" fill="#34d399" opacity="0.18" />
<circle cx="79.2" cy="212.5" r="1.9" fill="#34d399" opacity="0.19" />
<circle cx="84.3" cy="255.6" r="1.9" fill="#34d399" opacity="0.19" />
<circle cx="82.5" cy="295.3" r="1.9" fill="#34d399" opacity="0.19" />
<circle cx="88.5" cy="340.9" r="2.0" fill="#34d399" opacity="0.20" />
<circle cx="85.5" cy="375.0" r="1.9" fill="#34d399" opacity="0.19" />
<circle cx="84.6" cy="422.9" r="1.9" fill="#34d399" opacity="0.19" />
<circle cx="82.9" cy="459.7" r="1.8" fill="#34d399" opacity="0.18" />
<circle cx="88.5" cy="502.8" r="1.8" fill="#34d399" opacity="0.18" />
<circle cx="86.8" cy="544.9" r="1.7" fill="#34d399" opacity="0.17" />
<circle cx="82.4" cy="590.9" r="1.5" fill="#34d399" opacity="0.15" />
<circle cx="125.1" cy="39.5" r="1.8" fill="#34d399" opacity="0.18" />
<circle cx="129.8" cy="85.8" r="1.9" fill="#34d399" opacity="0.19" />
<circle cx="123.4" cy="122.4" r="2.0" fill="#34d399" opacity="0.20" />
<circle cx="130.4" cy="166.7" r="2.1" fill="#34d399" opacity="0.21" />
<circle cx="130.0" cy="206.7" r="2.2" fill="#34d399" opacity="0.22" />
<circle cx="127.0" cy="248.4" r="2.2" fill="#34d399" opacity="0.22" />
<circle cx="127.4" cy="294.3" r="2.2" fill="#10b981" opacity="0.22" />
<circle cx="121.4" cy="336.4" r="2.2" fill="#34d399" opacity="0.22" />
<circle cx="130.6" cy="379.3" r="2.2" fill="#10b981" opacity="0.22" />
<circle cx="128.7" cy="420.8" r="2.1" fill="#34d399" opacity="0.21" />
<circle cx="123.0" cy="460.4" r="2.1" fill="#34d399" opacity="0.21" />
<circle cx="128.0" cy="502.5" r="2.0" fill="#34d399" opacity="0.20" />
<circle cx="121.7" cy="542.7" r="1.9" fill="#34d399" opacity="0.19" />
<circle cx="129.5" cy="584.4" r="1.8" fill="#34d399" opacity="0.18" />
<circle cx="167.5" cy="43.2" r="2.0" fill="#34d399" opacity="0.20" />
<circle cx="169.7" cy="85.1" r="2.1" fill="#34d399" opacity="0.21" />
<circle cx="168.0" cy="125.6" r="2.2" fill="#10b981" opacity="0.22" />
<circle cx="171.4" cy="172.8" r="2.3" fill="#10b981" opacity="0.23" />
<circle cx="166.4" cy="208.8" r="2.4" fill="#10b981" opacity="0.24" />
<circle cx="167.4" cy="254.9" r="2.4" fill="#10b981" opacity="0.24" />
<circle cx="166.1" cy="294.2" r="2.4" fill="#10b981" opacity="0.24" />
<circle cx="168.2" cy="333.7" r="2.4" fill="#10b981" opacity="0.24" />
<circle cx="164.5" cy="377.3" r="2.4" fill="#10b981" opacity="0.24" />
<circle cx="170.8" cy="424.1" r="2.4" fill="#10b981" opacity="0.24" />
<circle cx="163.3" cy="457.8" r="2.3" fill="#10b981" opacity="0.23" />
<circle cx="167.4" cy="500.4" r="2.2" fill="#10b981" opacity="0.22" />
<circle cx="171.9" cy="543.8" r="2.1" fill="#34d399" opacity="0.21" />
<circle cx="163.5" cy="590.3" r="2.0" fill="#34d399" opacity="0.20" />
<circle cx="213.8" cy="38.5" r="2.2" fill="#34d399" opacity="0.22" />
<circle cx="209.0" cy="88.3" r="2.3" fill="#10b981" opacity="0.23" />
<circle cx="209.2" cy="123.3" r="2.4" fill="#10b981" opacity="0.24" />
<circle cx="205.3" cy="172.0" r="2.5" fill="#10b981" opacity="0.25" />
<circle cx="212.1" cy="210.8" r="2.6" fill="#10b981" opacity="0.26" />
<circle cx="212.0" cy="251.0" r="2.7" fill="#10b981" opacity="0.27" />
<circle cx="206.3" cy="294.7" r="2.7" fill="#10b981" opacity="0.27" />
<circle cx="208.8" cy="334.3" r="2.7" fill="#10b981" opacity="0.27" />
<circle cx="209.7" cy="381.4" r="2.7" fill="#10b981" opacity="0.27" />
<circle cx="213.7" cy="416.7" r="2.6" fill="#10b981" opacity="0.26" />
<circle cx="207.9" cy="465.7" r="2.5" fill="#10b981" opacity="0.25" />
<circle cx="213.2" cy="506.0" r="2.5" fill="#10b981" opacity="0.25" />
<circle cx="209.3" cy="550.0" r="2.3" fill="#10b981" opacity="0.23" />
<circle cx="206.6" cy="585.8" r="2.2" fill="#34d399" opacity="0.22" />
<circle cx="247.0" cy="41.5" r="2.4" fill="#10b981" opacity="0.24" />
<circle cx="255.0" cy="88.9" r="2.6" fill="#10b981" opacity="0.26" />
<circle cx="255.5" cy="123.6" r="2.7" fill="#10b981" opacity="0.27" />
<circle cx="252.3" cy="171.0" r="2.8" fill="#10b981" opacity="0.28" />
<circle cx="254.7" cy="214.3" r="2.9" fill="#10b981" opacity="0.29" />
<circle cx="256.3" cy="249.5" r="2.9" fill="#10b981" opacity="0.29" />
<circle cx="251.7" cy="289.2" r="2.9" fill="#10b981" opacity="0.29" />
<circle cx="250.8" cy="337.6" r="2.9" fill="#10b981" opacity="0.29" />
<circle cx="254.3" cy="382.2" r="2.9" fill="#10b981" opacity="0.29" />
<circle cx="255.9" cy="419.5" r="2.9" fill="#10b981" opacity="0.29" />
<circle cx="251.8" cy="458.9" r="2.8" fill="#10b981" opacity="0.28" />
<circle cx="255.0" cy="504.4" r="2.7" fill="#10b981" opacity="0.27" />
<circle cx="251.6" cy="549.3" r="2.5" fill="#10b981" opacity="0.25" />
<circle cx="248.2" cy="587.1" r="2.4" fill="#10b981" opacity="0.24" />
<circle cx="290.4" cy="37.3" r="2.5" fill="#10b981" opacity="0.25" />
<circle cx="294.6" cy="87.8" r="2.8" fill="#10b981" opacity="0.28" />
<circle cx="293.6" cy="129.5" r="2.9" fill="#10b981" opacity="0.29" />
<circle cx="289.2" cy="172.6" r="3.0" fill="#10b981" opacity="0.30" />
<circle cx="290.4" cy="210.7" r="3.1" fill="#10b981" opacity="0.31" />
<circle cx="294.9" cy="247.9" r="3.2" fill="#10b981" opacity="0.32" />
<circle cx="291.0" cy="298.6" r="3.2" fill="#10b981" opacity="0.32" />
<circle cx="296.9" cy="331.9" r="3.2" fill="#10b981" opacity="0.32" />
<circle cx="292.7" cy="375.6" r="3.2" fill="#10b981" opacity="0.32" />
<circle cx="290.9" cy="423.2" r="3.1" fill="#10b981" opacity="0.31" />
<circle cx="297.8" cy="458.7" r="3.0" fill="#10b981" opacity="0.30" />
<circle cx="298.9" cy="502.6" r="2.9" fill="#10b981" opacity="0.29" />
<circle cx="294.6" cy="547.7" r="2.7" fill="#10b981" opacity="0.27" />
<circle cx="297.6" cy="586.4" r="2.6" fill="#10b981" opacity="0.26" />
<circle cx="337.9" cy="45.1" r="2.8" fill="#10b981" opacity="0.28" />
<circle cx="336.7" cy="82.5" r="2.9" fill="#10b981" opacity="0.29" />
<circle cx="334.5" cy="125.3" r="3.1" fill="#10b981" opacity="0.31" />
<circle cx="337.6" cy="164.1" r="3.2" fill="#10b981" opacity="0.32" />
<circle cx="339.5" cy="214.7" r="3.4" fill="#10b981" opacity="0.34" />
<circle cx="337.8" cy="249.4" r="3.4" fill="#059669" opacity="0.34" />
<circle cx="331.6" cy="290.9" r="3.4" fill="#059669" opacity="0.34" />
<circle cx="334.1" cy="335.2" r="3.4" fill="#059669" opacity="0.34" />
<circle cx="332.0" cy="373.9" r="3.4" fill="#10b981" opacity="0.34" />
<circle cx="340.6" cy="420.7" r="3.3" fill="#10b981" opacity="0.33" />
<circle cx="332.5" cy="464.7" r="3.2" fill="#10b981" opacity="0.32" />
<circle cx="339.7" cy="500.8" r="3.1" fill="#10b981" opacity="0.31" />
<circle cx="331.0" cy="547.1" r="2.9" fill="#10b981" opacity="0.29" />
<circle cx="337.2" cy="583.6" r="2.8" fill="#10b981" opacity="0.28" />
<circle cx="374.4" cy="41.0" r="2.9" fill="#10b981" opacity="0.29" />
<circle cx="382.9" cy="87.4" r="3.1" fill="#10b981" opacity="0.31" />
<circle cx="380.0" cy="129.4" r="3.3" fill="#10b981" opacity="0.33" />
<circle cx="382.5" cy="168.7" r="3.5" fill="#059669" opacity="0.35" />
<circle cx="376.5" cy="206.2" r="3.5" fill="#059669" opacity="0.35" />
<circle cx="381.8" cy="251.3" r="3.7" fill="#059669" opacity="0.37" />
<circle cx="377.1" cy="297.6" r="3.7" fill="#059669" opacity="0.37" />
<circle cx="379.6" cy="333.4" r="3.7" fill="#059669" opacity="0.37" />
<circle cx="374.2" cy="375.6" r="3.6" fill="#059669" opacity="0.36" />
<circle cx="381.7" cy="421.7" r="3.6" fill="#059669" opacity="0.36" />
<circle cx="378.0" cy="463.0" r="3.4" fill="#059669" opacity="0.34" />
<circle cx="379.7" cy="505.8" r="3.3" fill="#10b981" opacity="0.33" />
<circle cx="379.9" cy="541.8" r="3.1" fill="#10b981" opacity="0.31" />
<circle cx="378.4" cy="586.3" r="2.9" fill="#10b981" opacity="0.29" />
<circle cx="416.7" cy="37.3" r="3.0" fill="#10b981" opacity="0.30" />
<circle cx="421.1" cy="82.4" r="3.3" fill="#10b981" opacity="0.33" />
<circle cx="422.7" cy="126.3" r="3.5" fill="#059669" opacity="0.35" />
<circle cx="420.5" cy="168.8" r="3.6" fill="#059669" opacity="0.36" />
<circle cx="423.5" cy="209.8" r="3.8" fill="#059669" opacity="0.38" />
<circle cx="424.6" cy="256.4" r="3.9" fill="#059669" opacity="0.39" />
<circle cx="421.4" cy="290.2" r="3.9" fill="#059669" opacity="0.39" />
<circle cx="415.7" cy="336.6" r="3.9" fill="#059669" opacity="0.39" />
<circle cx="415.6" cy="373.9" r="3.9" fill="#059669" opacity="0.39" />
<circle cx="422.8" cy="416.2" r="3.8" fill="#059669" opacity="0.38" />
<circle cx="424.4" cy="466.3" r="3.6" fill="#059669" opacity="0.36" />
<circle cx="423.2" cy="499.3" r="3.5" fill="#059669" opacity="0.35" />
<circle cx="415.8" cy="544.3" r="3.3" fill="#10b981" opacity="0.33" />
<circle cx="415.5" cy="584.6" r="3.1" fill="#10b981" opacity="0.31" />
<circle cx="457.6" cy="44.3" r="3.2" fill="#10b981" opacity="0.32" />
<circle cx="464.4" cy="80.4" r="3.4" fill="#059669" opacity="0.34" />
<circle cx="458.2" cy="128.7" r="3.6" fill="#059669" opacity="0.36" />
<circle cx="464.0" cy="170.5" r="3.8" fill="#059669" opacity="0.38" />
<circle cx="458.6" cy="207.4" r="4.0" fill="#059669" opacity="0.40" />
<circle cx="460.2" cy="250.7" r="4.1" fill="#059669" opacity="0.41" />
<circle cx="458.4" cy="297.3" r="4.2" fill="#059669" opacity="0.42" />
<circle cx="458.8" cy="331.8" r="4.2" fill="#059669" opacity="0.42" />
<circle cx="465.3" cy="378.1" r="4.1" fill="#059669" opacity="0.41" />
<circle cx="461.7" cy="420.3" r="4.0" fill="#059669" opacity="0.40" />
<circle cx="460.4" cy="464.5" r="3.8" fill="#059669" opacity="0.38" />
<circle cx="464.1" cy="507.5" r="3.6" fill="#059669" opacity="0.36" />
<circle cx="460.1" cy="545.2" r="3.4" fill="#059669" opacity="0.34" />
<circle cx="458.3" cy="592.6" r="3.2" fill="#10b981" opacity="0.32" />
<circle cx="501.0" cy="43.4" r="3.3" fill="#10b981" opacity="0.33" />
<circle cx="500.7" cy="84.2" r="3.5" fill="#059669" opacity="0.35" />
<circle cx="503.6" cy="124.2" r="3.7" fill="#059669" opacity="0.37" />
<circle cx="503.3" cy="170.7" r="4.0" fill="#059669" opacity="0.40" />
<circle cx="501.2" cy="212.0" r="4.2" fill="#059669" opacity="0.42" />
<circle cx="504.6" cy="253.6" r="4.3" fill="#059669" opacity="0.43" />
<circle cx="501.0" cy="296.5" r="4.4" fill="#059669" opacity="0.44" />
<circle cx="503.5" cy="334.1" r="4.4" fill="#059669" opacity="0.44" />
<circle cx="501.6" cy="378.1" r="4.3" fill="#059669" opacity="0.43" />
<circle cx="500.2" cy="419.3" r="4.1" fill="#059669" opacity="0.41" />
<circle cx="506.1" cy="460.8" r="4.0" fill="#059669" opacity="0.40" />
<circle cx="506.1" cy="505.2" r="3.7" fill="#059669" opacity="0.37" />
<circle cx="503.6" cy="545.8" r="3.5" fill="#059669" opacity="0.35" />
<circle cx="499.7" cy="584.5" r="3.3" fill="#10b981" opacity="0.33" />
<circle cx="543.0" cy="46.5" r="3.4" fill="#10b981" opacity="0.34" />
<circle cx="542.7" cy="80.9" r="3.6" fill="#059669" opacity="0.36" />
<circle cx="549.4" cy="125.2" r="3.8" fill="#059669" opacity="0.38" />
<circle cx="550.8" cy="163.8" r="4.1" fill="#059669" opacity="0.41" />
<circle cx="543.5" cy="209.4" r="4.3" fill="#059669" opacity="0.43" />
<circle cx="550.3" cy="253.6" r="4.5" fill="#059669" opacity="0.45" />
<circle cx="546.2" cy="291.2" r="4.7" fill="#059669" opacity="0.47" />
<circle cx="548.4" cy="332.8" r="4.7" fill="#059669" opacity="0.47" />
<circle cx="550.0" cy="376.1" r="4.5" fill="#059669" opacity="0.45" />
<circle cx="546.3" cy="422.8" r="4.3" fill="#059669" opacity="0.43" />
<circle cx="546.4" cy="463.8" r="4.1" fill="#059669" opacity="0.41" />
<circle cx="542.9" cy="500.6" r="3.9" fill="#059669" opacity="0.39" />
<circle cx="543.3" cy="549.6" r="3.6" fill="#059669" opacity="0.36" />
<circle cx="549.6" cy="587.2" r="3.4" fill="#10b981" opacity="0.34" />
<circle cx="586.0" cy="41.5" r="3.4" fill="#10b981" opacity="0.34" />
<circle cx="586.7" cy="84.5" r="3.6" fill="#059669" opacity="0.36" />
<circle cx="590.0" cy="128.9" r="3.9" fill="#059669" opacity="0.39" />
<circle cx="590.3" cy="170.5" r="4.1" fill="#059669" opacity="0.41" />
<circle cx="589.8" cy="205.9" r="4.4" fill="#059669" opacity="0.44" />
<circle cx="586.3" cy="256.2" r="4.6" fill="#059669" opacity="0.46" />
<circle cx="592.6" cy="296.6" r="4.9" fill="#059669" opacity="0.49" />
<circle cx="583.3" cy="336.2" r="4.8" fill="#059669" opacity="0.48" />
<circle cx="590.2" cy="375.5" r="4.6" fill="#059669" opacity="0.46" />
<circle cx="590.0" cy="417.2" r="4.4" fill="#059669" opacity="0.44" />
<circle cx="587.5" cy="458.9" r="4.1" fill="#059669" opacity="0.41" />
<circle cx="588.5" cy="503.4" r="3.9" fill="#059669" opacity="0.39" />
<circle cx="592.5" cy="541.2" r="3.7" fill="#059669" opacity="0.37" />
<circle cx="590.1" cy="585.7" r="3.4" fill="#059669" opacity="0.34" />
<circle cx="629.9" cy="38.2" r="3.4" fill="#10b981" opacity="0.34" />
<circle cx="628.8" cy="86.8" r="3.6" fill="#059669" opacity="0.36" />
<circle cx="628.8" cy="124.5" r="3.9" fill="#059669" opacity="0.39" />
<circle cx="625.2" cy="166.5" r="4.1" fill="#059669" opacity="0.41" />
<circle cx="625.7" cy="207.2" r="4.3" fill="#059669" opacity="0.43" />
<circle cx="634.8" cy="256.4" r="4.6" fill="#059669" opacity="0.46" />
<circle cx="625.2" cy="295.0" r="4.8" fill="#059669" opacity="0.48" />
<circle cx="625.1" cy="340.2" r="4.8" fill="#059669" opacity="0.48" />
<circle cx="627.6" cy="382.4" r="4.6" fill="#059669" opacity="0.46" />
<circle cx="633.7" cy="418.5" r="4.4" fill="#059669" opacity="0.44" />
<circle cx="626.6" cy="459.6" r="4.1" fill="#059669" opacity="0.41" />
<circle cx="633.1" cy="503.7" r="3.9" fill="#059669" opacity="0.39" />
<circle cx="626.9" cy="548.0" r="3.6" fill="#059669" opacity="0.36" />
<circle cx="633.8" cy="585.5" r="3.4" fill="#10b981" opacity="0.34" />
<circle cx="668.5" cy="44.6" r="3.4" fill="#10b981" opacity="0.34" />
<circle cx="676.0" cy="84.1" r="3.6" fill="#059669" opacity="0.36" />
<circle cx="674.3" cy="124.3" r="3.8" fill="#059669" opacity="0.38" />
<circle cx="668.3" cy="171.3" r="4.1" fill="#059669" opacity="0.41" />
<circle cx="675.7" cy="209.1" r="4.2" fill="#059669" opacity="0.42" />
<circle cx="670.5" cy="253.2" r="4.4" fill="#059669" opacity="0.44" />
<circle cx="674.5" cy="294.8" r="4.5" fill="#059669" opacity="0.45" />
<circle cx="672.3" cy="334.5" r="4.6" fill="#059669" opacity="0.46" />
<circle cx="675.3" cy="377.4" r="4.4" fill="#059669" opacity="0.44" />
<circle cx="673.8" cy="422.2" r="4.2" fill="#059669" opacity="0.42" />
<circle cx="676.9" cy="463.9" r="4.0" fill="#059669" opacity="0.40" />
<circle cx="667.3" cy="503.2" r="3.8" fill="#059669" opacity="0.38" />
<circle cx="675.6" cy="543.4" r="3.6" fill="#059669" opacity="0.36" />
<circle cx="670.5" cy="587.1" r="3.3" fill="#10b981" opacity="0.33" />
<circle cx="715.3" cy="38.8" r="3.2" fill="#10b981" opacity="0.32" />
<circle cx="712.3" cy="83.2" r="3.5" fill="#059669" opacity="0.35" />
<circle cx="713.3" cy="127.5" r="3.7" fill="#059669" opacity="0.37" />
<circle cx="717.8" cy="167.2" r="3.9" fill="#059669" opacity="0.39" />
<circle cx="712.8" cy="212.4" r="4.1" fill="#059669" opacity="0.41" />
<circle cx="712.8" cy="247.1" r="4.2" fill="#059669" opacity="0.42" />
<circle cx="715.3" cy="292.8" r="4.3" fill="#059669" opacity="0.43" />
<circle cx="714.9" cy="333.2" r="4.3" fill="#059669" opacity="0.43" />
<circle cx="711.9" cy="375.2" r="4.2" fill="#059669" opacity="0.42" />
<circle cx="712.8" cy="423.5" r="4.1" fill="#059669" opacity="0.41" />
<circle cx="716.5" cy="463.3" r="3.9" fill="#059669" opacity="0.39" />
<circle cx="718.2" cy="506.6" r="3.7" fill="#059669" opacity="0.37" />
<circle cx="710.3" cy="548.4" r="3.5" fill="#059669" opacity="0.35" />
<circle cx="713.9" cy="586.1" r="3.3" fill="#10b981" opacity="0.33" />
<circle cx="755.8" cy="44.2" r="3.2" fill="#10b981" opacity="0.32" />
<circle cx="756.0" cy="81.8" r="3.3" fill="#10b981" opacity="0.33" />
<circle cx="755.0" cy="121.0" r="3.5" fill="#059669" opacity="0.35" />
<circle cx="752.1" cy="167.5" r="3.7" fill="#059669" opacity="0.37" />
<circle cx="758.4" cy="214.6" r="3.9" fill="#059669" opacity="0.39" />
<circle cx="758.0" cy="250.3" r="4.0" fill="#059669" opacity="0.40" />
<circle cx="760.9" cy="294.8" r="4.0" fill="#059669" opacity="0.40" />
<circle cx="759.2" cy="331.1" r="4.1" fill="#059669" opacity="0.41" />
<circle cx="752.3" cy="378.6" r="4.0" fill="#059669" opacity="0.40" />
<circle cx="759.7" cy="423.1" r="3.9" fill="#059669" opacity="0.39" />
<circle cx="755.4" cy="462.2" r="3.7" fill="#059669" opacity="0.37" />
<circle cx="760.2" cy="504.6" r="3.5" fill="#059669" opacity="0.35" />
<circle cx="751.5" cy="548.0" r="3.4" fill="#10b981" opacity="0.34" />
<circle cx="753.3" cy="585.5" r="3.2" fill="#10b981" opacity="0.32" />
<circle cx="801.4" cy="45.8" r="3.0" fill="#10b981" opacity="0.30" />
<circle cx="799.2" cy="87.5" r="3.2" fill="#10b981" opacity="0.32" />
<circle cx="796.4" cy="128.4" r="3.4" fill="#059669" opacity="0.34" />
<circle cx="796.6" cy="164.2" r="3.5" fill="#059669" opacity="0.35" />
<circle cx="796.4" cy="210.7" r="3.7" fill="#059669" opacity="0.37" />
<circle cx="801.1" cy="248.5" r="3.7" fill="#059669" opacity="0.37" />
<circle cx="799.9" cy="294.1" r="3.8" fill="#059669" opacity="0.38" />
<circle cx="795.8" cy="334.3" r="3.8" fill="#059669" opacity="0.38" />
<circle cx="796.0" cy="374.5" r="3.8" fill="#059669" opacity="0.38" />
<circle cx="798.2" cy="423.1" r="3.7" fill="#059669" opacity="0.37" />
<circle cx="798.3" cy="464.6" r="3.5" fill="#059669" opacity="0.35" />
<circle cx="795.3" cy="507.0" r="3.4" fill="#10b981" opacity="0.34" />
<circle cx="793.8" cy="550.0" r="3.2" fill="#10b981" opacity="0.32" />
<circle cx="802.7" cy="592.4" r="3.0" fill="#10b981" opacity="0.30" />
<circle cx="841.6" cy="44.5" r="2.9" fill="#10b981" opacity="0.29" />
<circle cx="844.9" cy="80.8" r="3.0" fill="#10b981" opacity="0.30" />
<circle cx="839.1" cy="130.0" r="3.2" fill="#10b981" opacity="0.32" />
<circle cx="837.1" cy="164.7" r="3.3" fill="#10b981" opacity="0.33" />
<circle cx="839.2" cy="214.0" r="3.5" fill="#059669" opacity="0.35" />
<circle cx="844.1" cy="254.5" r="3.5" fill="#059669" opacity="0.35" />
<circle cx="838.9" cy="292.2" r="3.6" fill="#059669" opacity="0.36" />
<circle cx="839.5" cy="336.7" r="3.6" fill="#059669" opacity="0.36" />
<circle cx="840.6" cy="379.4" r="3.5" fill="#059669" opacity="0.35" />
<circle cx="839.9" cy="418.2" r="3.5" fill="#059669" opacity="0.35" />
<circle cx="836.8" cy="464.7" r="3.3" fill="#10b981" opacity="0.33" />
<circle cx="844.9" cy="505.8" r="3.2" fill="#10b981" opacity="0.32" />
<circle cx="841.4" cy="544.4" r="3.0" fill="#10b981" opacity="0.30" />
<circle cx="841.3" cy="586.9" r="2.9" fill="#10b981" opacity="0.29" />
<circle cx="879.6" cy="45.2" r="2.7" fill="#10b981" opacity="0.27" />
<circle cx="884.5" cy="85.8" r="2.8" fill="#10b981" opacity="0.28" />
<circle cx="879.0" cy="124.8" r="3.0" fill="#10b981" opacity="0.30" />
<circle cx="882.2" cy="166.3" r="3.1" fill="#10b981" opacity="0.31" />
<circle cx="880.0" cy="211.3" r="3.2" fill="#10b981" opacity="0.32" />
<circle cx="881.6" cy="253.7" r="3.3" fill="#10b981" opacity="0.33" />
<circle cx="880.6" cy="292.1" r="3.3" fill="#10b981" opacity="0.33" />
<circle cx="877.6" cy="338.5" r="3.4" fill="#10b981" opacity="0.34" />
<circle cx="883.8" cy="380.1" r="3.3" fill="#10b981" opacity="0.33" />
<circle cx="881.6" cy="415.6" r="3.2" fill="#10b981" opacity="0.32" />
<circle cx="879.6" cy="459.4" r="3.1" fill="#10b981" opacity="0.31" />
<circle cx="877.7" cy="508.7" r="3.0" fill="#10b981" opacity="0.30" />
<circle cx="883.7" cy="548.7" r="2.8" fill="#10b981" opacity="0.28" />
<circle cx="878.2" cy="584.6" r="2.7" fill="#10b981" opacity="0.27" />
<circle cx="928.2" cy="38.9" r="2.5" fill="#10b981" opacity="0.25" />
<circle cx="928.2" cy="84.9" r="2.6" fill="#10b981" opacity="0.26" />
<circle cx="920.8" cy="128.5" r="2.8" fill="#10b981" opacity="0.28" />
<circle cx="927.8" cy="170.8" r="2.9" fill="#10b981" opacity="0.29" />
<circle cx="928.0" cy="212.2" r="3.0" fill="#10b981" opacity="0.30" />
<circle cx="929.0" cy="249.6" r="3.0" fill="#10b981" opacity="0.30" />
<circle cx="920.2" cy="298.4" r="3.1" fill="#10b981" opacity="0.31" />
<circle cx="928.8" cy="331.3" r="3.1" fill="#10b981" opacity="0.31" />
<circle cx="923.5" cy="379.3" r="3.1" fill="#10b981" opacity="0.31" />
<circle cx="925.2" cy="420.2" r="3.0" fill="#10b981" opacity="0.30" />
<circle cx="923.9" cy="459.5" r="2.9" fill="#10b981" opacity="0.29" />
<circle cx="925.6" cy="501.7" r="2.8" fill="#10b981" opacity="0.28" />
<circle cx="922.7" cy="547.9" r="2.7" fill="#10b981" opacity="0.27" />
<circle cx="925.7" cy="590.0" r="2.5" fill="#10b981" opacity="0.25" />
<circle cx="970.7" cy="42.4" r="2.3" fill="#10b981" opacity="0.23" />
<circle cx="963.1" cy="79.8" r="2.4" fill="#10b981" opacity="0.24" />
<circle cx="965.9" cy="128.0" r="2.6" fill="#10b981" opacity="0.26" />
<circle cx="969.6" cy="164.4" r="2.6" fill="#10b981" opacity="0.26" />
<circle cx="962.9" cy="207.1" r="2.8" fill="#10b981" opacity="0.28" />
<circle cx="965.0" cy="252.0" r="2.8" fill="#10b981" opacity="0.28" />
<circle cx="967.7" cy="293.6" r="2.8" fill="#10b981" opacity="0.28" />
<circle cx="966.6" cy="334.1" r="2.8" fill="#10b981" opacity="0.28" />
<circle cx="967.6" cy="380.2" r="2.8" fill="#10b981" opacity="0.28" />
<circle cx="968.5" cy="417.3" r="2.7" fill="#10b981" opacity="0.27" />
<circle cx="967.2" cy="457.2" r="2.7" fill="#10b981" opacity="0.27" />
<circle cx="964.0" cy="500.9" r="2.6" fill="#10b981" opacity="0.26" />
<circle cx="963.6" cy="545.5" r="2.5" fill="#10b981" opacity="0.25" />
<circle cx="963.9" cy="583.9" r="2.3" fill="#10b981" opacity="0.23" />
<circle cx="1004.4" cy="46.5" r="2.1" fill="#34d399" opacity="0.21" />
<circle cx="1011.8" cy="86.7" r="2.2" fill="#10b981" opacity="0.22" />
<circle cx="1007.1" cy="126.0" r="2.4" fill="#10b981" opacity="0.24" />
<circle cx="1012.7" cy="168.5" r="2.4" fill="#10b981" opacity="0.24" />
<circle cx="1004.1" cy="213.4" r="2.5" fill="#10b981" opacity="0.25" />
<circle cx="1004.2" cy="253.1" r="2.6" fill="#10b981" opacity="0.26" />
<circle cx="1011.0" cy="296.3" r="2.6" fill="#10b981" opacity="0.26" />
<circle cx="1010.4" cy="335.0" r="2.6" fill="#10b981" opacity="0.26" />
<circle cx="1003.9" cy="381.0" r="2.6" fill="#10b981" opacity="0.26" />
<circle cx="1005.1" cy="420.9" r="2.5" fill="#10b981" opacity="0.25" />
<circle cx="1011.3" cy="466.0" r="2.4" fill="#10b981" opacity="0.24" />
<circle cx="1005.1" cy="504.0" r="2.4" fill="#10b981" opacity="0.24" />
<circle cx="1007.9" cy="543.1" r="2.2" fill="#10b981" opacity="0.22" />
<circle cx="1010.1" cy="590.2" r="2.1" fill="#34d399" opacity="0.21" />
<circle cx="1050.8" cy="45.8" r="1.9" fill="#34d399" opacity="0.19" />
<circle cx="1054.8" cy="86.2" r="2.0" fill="#34d399" opacity="0.20" />
<circle cx="1049.4" cy="125.9" r="2.1" fill="#34d399" opacity="0.21" />
<circle cx="1046.5" cy="164.8" r="2.2" fill="#10b981" opacity="0.22" />
<circle cx="1050.1" cy="205.7" r="2.3" fill="#10b981" opacity="0.23" />
<circle cx="1050.2" cy="256.6" r="2.3" fill="#10b981" opacity="0.23" />
<circle cx="1047.3" cy="289.7" r="2.4" fill="#10b981" opacity="0.24" />
<circle cx="1047.7" cy="334.2" r="2.4" fill="#10b981" opacity="0.24" />
<circle cx="1051.9" cy="382.0" r="2.3" fill="#10b981" opacity="0.23" />
<circle cx="1052.3" cy="418.2" r="2.3" fill="#10b981" opacity="0.23" />
<circle cx="1048.6" cy="461.7" r="2.2" fill="#10b981" opacity="0.22" />
<circle cx="1053.9" cy="499.0" r="2.1" fill="#34d399" opacity="0.21" />
<circle cx="1052.1" cy="545.3" r="2.0" fill="#34d399" opacity="0.20" />
<circle cx="1046.7" cy="586.9" r="1.9" fill="#34d399" opacity="0.19" />
<circle cx="1090.2" cy="41.3" r="1.7" fill="#34d399" opacity="0.17" />
<circle cx="1091.0" cy="87.3" r="1.8" fill="#34d399" opacity="0.18" />
<circle cx="1088.9" cy="122.3" r="1.9" fill="#34d399" opacity="0.19" />
<circle cx="1094.9" cy="169.4" r="2.0" fill="#34d399" opacity="0.20" />
<circle cx="1095.4" cy="207.9" r="2.0" fill="#34d399" opacity="0.20" />
<circle cx="1095.7" cy="254.1" r="2.1" fill="#34d399" opacity="0.21" />
<circle cx="1096.3" cy="296.4" r="2.1" fill="#34d399" opacity="0.21" />
<circle cx="1090.8" cy="340.7" r="2.1" fill="#34d399" opacity="0.21" />
<circle cx="1096.2" cy="377.1" r="2.0" fill="#34d399" opacity="0.20" />
<circle cx="1094.9" cy="418.9" r="2.0" fill="#34d399" opacity="0.20" />
<circle cx="1093.8" cy="460.2" r="2.0" fill="#34d399" opacity="0.20" />
<circle cx="1093.5" cy="502.7" r="1.9" fill="#34d399" opacity="0.19" />
<circle cx="1090.7" cy="548.3" r="1.8" fill="#34d399" opacity="0.18" />
<circle cx="1091.1" cy="585.3" r="1.7" fill="#34d399" opacity="0.17" />
<circle cx="1134.5" cy="40.0" r="1.5" fill="#34d399" opacity="0.15" />
<circle cx="1137.6" cy="86.0" r="1.6" fill="#34d399" opacity="0.16" />
<circle cx="1129.1" cy="125.6" r="1.7" fill="#34d399" opacity="0.17" />
<circle cx="1136.8" cy="163.2" r="1.7" fill="#34d399" opacity="0.17" />
<circle cx="1138.9" cy="213.1" r="1.8" fill="#34d399" opacity="0.18" />
<circle cx="1130.6" cy="253.1" r="1.8" fill="#34d399" opacity="0.18" />
<circle cx="1134.3" cy="298.0" r="1.8" fill="#34d399" opacity="0.18" />
<circle cx="1132.2" cy="340.4" r="1.9" fill="#34d399" opacity="0.19" />
<circle cx="1133.8" cy="373.1" r="1.8" fill="#34d399" opacity="0.18" />
<circle cx="1133.8" cy="420.4" r="1.8" fill="#34d399" opacity="0.18" />
<circle cx="1138.4" cy="461.0" r="1.7" fill="#34d399" opacity="0.17" />
<circle cx="1129.6" cy="506.0" r="1.7" fill="#34d399" opacity="0.17" />
<circle cx="1136.6" cy="547.2" r="1.5" fill="#34d399" opacity="0.15" />
<circle cx="1130.2" cy="592.5" r="1.5" fill="#34d399" opacity="0.15" />
<circle cx="1177.4" cy="40.9" r="1.2" fill="#34d399" opacity="0.12" />
<circle cx="1176.2" cy="86.4" r="1.3" fill="#34d399" opacity="0.13" />
<circle cx="1178.5" cy="126.4" r="1.4" fill="#34d399" opacity="0.14" />
<circle cx="1180.0" cy="168.3" r="1.5" fill="#34d399" opacity="0.15" />
<circle cx="1172.4" cy="211.0" r="1.6" fill="#34d399" opacity="0.16" />
<circle cx="1173.1" cy="252.6" r="1.6" fill="#34d399" opacity="0.16" />
<circle cx="1171.6" cy="294.9" r="1.6" fill="#34d399" opacity="0.16" />
<circle cx="1180.5" cy="337.5" r="1.6" fill="#34d399" opacity="0.16" />
<circle cx="1174.7" cy="376.7" r="1.6" fill="#34d399" opacity="0.16" />
<circle cx="1177.9" cy="417.3" r="1.5" fill="#34d399" opacity="0.15" />
<circle cx="1172.4" cy="461.2" r="1.5" fill="#34d399" opacity="0.15" />
<circle cx="1172.6" cy="508.0" r="1.4" fill="#34d399" opacity="0.14" />
<circle cx="1177.8" cy="541.9" r="1.3" fill="#34d399" opacity="0.13" />
<circle cx="1174.8" cy="592.4" r="1.2" fill="#34d399" opacity="0.12" />


  <!-- Vignette -->
  <rect width="1200" height="630" fill="url(#bg)" opacity="0.3" />

  <!-- Category badge -->
  <rect x="48" y="40" width="174" height="28" rx="14" fill="#059669" opacity="0.9" />
  <text x="60" y="59" font-family="system-ui, -apple-system, sans-serif" font-size="12" font-weight="700" letter-spacing="1.5" text-transform="uppercase" fill="white">SCIENCE &amp; ARENA</text>

  <!-- Title -->
  <text x="48" y="550" font-family="system-ui, -apple-system, sans-serif" font-size="42" font-weight="800" fill="white" filter="url(#textShadow)" letter-spacing="-1">
    <tspan x="48" dy="0">Musical Hexagons: The Harmonic</tspan>
    <tspan x="48" dy="50">Geometry Arena</tspan>
  </text>

  <!-- spike.land watermark -->
  <text x="1152" y="606" font-family="system-ui, -apple-system, sans-serif" font-size="14" font-weight="600" fill="#34d399" opacity="0.6" text-anchor="end">spike.land</text>
</svg>