<svg xmlns="http://www.w3.org/2000/svg" viewBox="0 0 1200 630" width="1200" height="630">
  <defs>
    <linearGradient id="bg" x1="0%" y1="0%" x2="100%" y2="100%">
      <stop offset="0%" stop-color="#1c1917" />
      <stop offset="100%" stop-color="#292524" />
    </linearGradient>
    <filter id="glow">
      <feGaussianBlur stdDeviation="30" result="blur" />
      <feMerge><feMergeNode in="blur" /><feMergeNode in="SourceGraphic" /></feMerge>
    </filter>
    <filter id="textShadow">
      <feDropShadow dx="0" dy="2" stdDeviation="6" flood-color="#1c1917" flood-opacity="0.8" />
    </filter>
  </defs>

  <!-- Background -->
  <rect width="1200" height="630" fill="url(#bg)" />

  <!-- Generative shapes -->
  <line x1="465.0" y1="407.4" x2="1051.2" y2="462.1" stroke="#d97706" stroke-width="1.1" opacity="0.14" />
<line x1="465.0" y1="407.4" x2="1176.0" y2="623.3" stroke="#f59e0b" stroke-width="2.4" opacity="0.31" />
<line x1="465.0" y1="407.4" x2="891.9" y2="698.0" stroke="#f59e0b" stroke-width="1.7" opacity="0.14" />
<line x1="465.0" y1="407.4" x2="722.4" y2="716.2" stroke="#d97706" stroke-width="1.3" opacity="0.26" />
<line x1="465.0" y1="407.4" x2="668.2" y2="852.2" stroke="#fbbf24" stroke-width="2.2" opacity="0.33" />
<line x1="465.0" y1="407.4" x2="518.0" y2="712.7" stroke="#d97706" stroke-width="1.2" opacity="0.25" />
<line x1="465.0" y1="407.4" x2="443.4" y2="701.7" stroke="#fbbf24" stroke-width="2.4" opacity="0.28" />
<line x1="465.0" y1="407.4" x2="401.1" y2="628.6" stroke="#f59e0b" stroke-width="1.9" opacity="0.25" />
<line x1="465.0" y1="407.4" x2="247.0" y2="753.1" stroke="#d97706" stroke-width="1.3" opacity="0.20" />
<line x1="465.0" y1="407.4" x2="-82.9" y2="859.5" stroke="#f59e0b" stroke-width="2.1" opacity="0.10" />
<line x1="465.0" y1="407.4" x2="251.8" y2="519.3" stroke="#f59e0b" stroke-width="2.3" opacity="0.25" />
<line x1="465.0" y1="407.4" x2="256.5" y2="461.4" stroke="#d97706" stroke-width="1.7" opacity="0.28" />
<line x1="465.0" y1="407.4" x2="-113.8" y2="402.1" stroke="#f59e0b" stroke-width="2.3" opacity="0.19" />
<line x1="465.0" y1="407.4" x2="-251.1" y2="157.0" stroke="#fbbf24" stroke-width="1.7" opacity="0.26" />
<line x1="465.0" y1="407.4" x2="179.4" y2="229.3" stroke="#d97706" stroke-width="2.0" opacity="0.33" />
<line x1="465.0" y1="407.4" x2="8.2" y2="-136.1" stroke="#fbbf24" stroke-width="1.0" opacity="0.15" />
<line x1="465.0" y1="407.4" x2="195.9" y2="-79.1" stroke="#f59e0b" stroke-width="1.4" opacity="0.26" />
<line x1="465.0" y1="407.4" x2="403.8" y2="91.8" stroke="#d97706" stroke-width="0.7" opacity="0.24" />
<line x1="465.0" y1="407.4" x2="489.8" y2="-100.7" stroke="#fbbf24" stroke-width="1.9" opacity="0.12" />
<line x1="465.0" y1="407.4" x2="646.7" y2="-170.0" stroke="#d97706" stroke-width="0.7" opacity="0.26" />
<line x1="465.0" y1="407.4" x2="681.2" y2="63.6" stroke="#f59e0b" stroke-width="1.9" opacity="0.20" />
<line x1="465.0" y1="407.4" x2="1014.1" y2="-62.5" stroke="#f59e0b" stroke-width="0.9" opacity="0.16" />
<line x1="465.0" y1="407.4" x2="939.6" y2="175.3" stroke="#d97706" stroke-width="1.7" opacity="0.14" />
<line x1="465.0" y1="407.4" x2="819.4" y2="338.0" stroke="#d97706" stroke-width="1.7" opacity="0.25" />
<circle cx="465.0" cy="407.4" r="80" fill="#d97706" opacity="0.15" filter="url(#glow)" />


  <!-- Vignette -->
  <rect width="1200" height="630" fill="url(#bg)" opacity="0.3" />

  <!-- Category badge -->
  <rect x="48" y="40" width="124" height="28" rx="14" fill="#d97706" opacity="0.9" />
  <text x="60" y="59" font-family="system-ui, -apple-system, sans-serif" font-size="12" font-weight="700" letter-spacing="1.5" text-transform="uppercase" fill="white">SPIKE.LAND</text>

  <!-- Title -->
  <text x="48" y="550" font-family="system-ui, -apple-system, sans-serif" font-size="42" font-weight="800" fill="white" filter="url(#textShadow)" letter-spacing="-1">
    <tspan x="48" dy="0">Dogs Are More Intelligent Than Humans</tspan>
  </text>

  <!-- spike.land watermark -->
  <text x="1152" y="606" font-family="system-ui, -apple-system, sans-serif" font-size="14" font-weight="600" fill="#fbbf24" opacity="0.6" text-anchor="end">spike.land</text>
</svg>